<?xml version="1.0" standalone="no"?>
<!DOCTYPE svg PUBLIC "-//W3C//DTD SVG 20010904//EN"
 "http://www.w3.org/TR/2001/REC-SVG-20010904/DTD/svg10.dtd">
<svg version="1.0" xmlns="http://www.w3.org/2000/svg"
 width="700.000000pt" height="700.000000pt" viewBox="0 0 700.000000 700.000000"
 preserveAspectRatio="xMidYMid meet">
<metadata>
Created by potrace 1.14, written by Peter Selinger 2001-2017
</metadata>
<g transform="translate(0.000000,700.000000) scale(0.100000,-0.100000)"
fill="#000000" stroke="none">
<path d="M6513 5315 c0 -8 4 -12 9 -9 5 3 6 10 3 15 -9 13 -12 11 -12 -6z"/>
<path d="M6506 5251 c-4 -5 -2 -12 4 -16 6 -4 7 -12 1 -22 -4 -9 -6 -24 -4
-34 3 -12 0 -19 -8 -19 -12 0 -12 -2 0 -9 9 -6 10 -14 5 -22 -5 -8 -9 -22 -10
-31 -3 -36 -4 -39 -13 -34 -5 4 -8 -5 -6 -19 1 -14 -1 -25 -5 -25 -4 0 -10
-10 -13 -21 -4 -14 -11 -20 -21 -16 -10 4 -13 1 -10 -7 3 -8 0 -17 -7 -22 -8
-5 -10 -3 -5 7 4 8 1 6 -8 -5 -9 -11 -22 -16 -31 -12 -9 3 -13 2 -10 -4 3 -6
0 -10 -9 -10 -8 0 -17 -6 -19 -12 -4 -10 -6 -10 -6 0 -1 6 -6 12 -11 12 -6 0
-10 -6 -8 -14 2 -8 -1 -15 -7 -15 -5 -1 -10 3 -10 8 0 5 -4 13 -9 18 -5 5 -6
3 -2 -4 4 -8 1 -13 -7 -13 -15 0 -30 -24 -21 -33 3 -2 25 -3 49 -1 33 3 44 1
41 -8 -1 -7 -1 -10 1 -5 8 13 35 7 30 -7 -4 -10 0 -12 14 -9 10 3 19 0 19 -6
0 -6 7 -11 16 -11 8 0 13 -4 10 -8 -3 -5 4 -14 14 -22 10 -8 17 -17 14 -22 -3
-4 2 -11 11 -14 14 -6 14 -8 -2 -20 -17 -13 -17 -14 0 -8 13 5 17 1 17 -21 0
-16 4 -24 11 -19 8 4 8 0 0 -15 -8 -14 -8 -21 -1 -21 7 0 8 -6 0 -19 -7 -14
-7 -22 0 -26 6 -4 10 -14 9 -23 -3 -32 1 -43 12 -36 8 4 7 9 -2 15 -10 6 -11
9 -1 9 16 0 11 21 -8 37 -13 11 -12 12 4 6 15 -5 18 -3 13 10 -3 9 -2 17 3 17
5 0 6 7 3 17 -5 12 -3 14 8 8 11 -7 11 -5 -1 10 -8 10 -10 16 -3 12 7 -5 12
-1 11 10 0 10 5 32 10 50 6 17 7 34 4 38 -4 3 1 3 11 -1 12 -4 17 -1 17 10 0
9 7 16 16 16 8 0 12 5 9 10 -6 9 8 14 28 11 4 0 7 4 7 10 0 6 7 8 16 5 13 -5
14 -3 6 6 -8 10 4 13 60 13 38 0 72 3 75 8 2 4 9 4 15 1 7 -5 8 -2 4 5 -5 7
-11 10 -14 7 -3 -3 -12 0 -20 7 -13 10 -14 9 -7 -2 6 -11 4 -13 -10 -8 -9 4
-24 2 -32 -5 -11 -9 -13 -8 -11 3 2 8 -3 13 -10 11 -8 -1 -11 2 -7 9 5 7 11 7
17 1 12 -12 38 -5 38 10 0 7 -5 6 -13 -1 -10 -8 -17 -7 -25 1 -7 7 -12 8 -12
4 0 -5 -7 -3 -15 4 -12 10 -15 10 -15 0 0 -10 -3 -10 -15 0 -8 7 -15 9 -15 5
0 -5 -9 2 -20 15 -13 15 -20 18 -20 9 0 -12 -2 -12 -9 1 -6 8 -7 18 -5 22 3 5
0 7 -7 6 -7 -2 -13 4 -14 12 -1 8 -7 14 -14 12 -8 -2 -11 3 -8 13 4 8 2 15 -2
15 -5 0 -8 14 -7 31 1 16 -3 33 -10 37 -8 4 -14 34 -17 74 -3 67 -10 88 -21
69z m-222 -359 c3 -5 -1 -9 -9 -9 -8 0 -12 4 -9 9 3 4 7 8 9 8 2 0 6 -4 9 -8z"/>
<path d="M2193 5103 c3 -5 -3 -14 -13 -21 -14 -9 -21 -9 -26 0 -5 7 -3 8 6 3
9 -6 11 -4 5 5 -6 10 -10 10 -19 -3 -9 -11 -17 -12 -29 -6 -13 8 -15 6 -11 -6
5 -11 2 -14 -10 -9 -9 3 -16 1 -16 -5 0 -6 -7 -11 -15 -11 -8 0 -22 -11 -31
-25 -9 -14 -19 -24 -21 -21 -2 2 -22 -14 -44 -36 -25 -25 -45 -38 -55 -34 -8
3 -12 2 -9 -4 3 -6 1 -10 -5 -10 -6 0 -9 -4 -5 -9 3 -6 -4 -8 -16 -6 -17 4
-19 2 -8 -11 10 -12 9 -13 -3 -9 -10 4 -23 -3 -34 -18 -11 -13 -25 -22 -33
-19 -10 3 -12 0 -7 -13 6 -16 4 -16 -11 -4 -9 8 -14 10 -11 4 3 -5 -4 -19 -15
-30 -11 -11 -17 -14 -13 -7 4 6 2 12 -3 12 -6 0 -11 -7 -11 -16 0 -8 -4 -12
-10 -9 -5 3 -10 -1 -10 -10 0 -11 -5 -15 -16 -11 -8 3 -12 2 -9 -4 3 -6 -1
-10 -9 -10 -9 0 -16 -7 -16 -15 0 -9 -6 -12 -15 -9 -11 5 -13 2 -8 -12 4 -12
3 -15 -6 -10 -8 5 -18 0 -27 -13 -8 -12 -22 -21 -30 -21 -8 0 -14 -7 -14 -15
0 -9 -6 -12 -17 -8 -10 4 -14 2 -9 -5 6 -10 -29 -29 -46 -24 -5 1 -7 -1 -7 -6
4 -26 -1 -34 -16 -22 -13 11 -14 10 -9 -6 4 -10 4 -16 -1 -12 -4 4 -14 0 -21
-10 -7 -9 -17 -17 -23 -17 -6 0 -11 -4 -10 -9 1 -14 -24 -26 -46 -21 -11 3
-14 2 -7 -1 6 -3 12 -10 12 -15 0 -6 -4 -8 -8 -5 -5 3 -14 -4 -22 -14 -8 -10
-17 -17 -22 -14 -4 3 -8 0 -8 -5 0 -6 -6 -11 -14 -11 -8 0 -17 -7 -20 -16 -3
-9 -11 -12 -18 -8 -8 5 -9 2 -5 -10 4 -10 3 -15 -3 -11 -6 3 -10 2 -10 -4 0
-6 -7 -7 -17 -4 -11 4 -14 3 -9 -5 4 -7 -2 -15 -16 -21 -13 -5 -32 -19 -43
-31 -11 -12 -30 -26 -43 -31 -14 -5 -20 -14 -16 -21 4 -7 3 -8 -4 -4 -7 4 -12
1 -12 -6 0 -9 -3 -9 -10 2 -9 13 -10 13 -10 -1 0 -17 -56 -62 -76 -62 -7 0
-11 -4 -8 -9 3 -5 -10 -15 -28 -23 -18 -8 -29 -14 -24 -15 6 0 2 -6 -9 -13
-12 -10 -16 -22 -13 -40 3 -15 1 -27 -4 -27 -5 0 -6 -5 -3 -10 4 -6 11 -8 16
-5 5 4 9 -1 9 -9 0 -9 5 -16 11 -16 5 0 7 -5 3 -12 -4 -7 -3 -8 5 -4 6 4 14 0
17 -9 4 -8 14 -14 23 -13 10 2 17 -5 19 -20 2 -12 8 -20 13 -17 5 4 12 -1 15
-9 3 -9 10 -16 16 -16 13 0 38 -26 38 -40 0 -7 7 -9 16 -6 11 4 18 -1 21 -14
3 -11 12 -20 20 -20 8 0 12 -4 9 -9 -3 -5 3 -11 14 -14 11 -3 20 -13 20 -22 0
-9 4 -14 9 -10 5 3 16 -4 25 -16 9 -13 19 -18 27 -14 8 5 10 4 5 -3 -4 -7 -2
-12 4 -12 6 0 9 -4 6 -9 -3 -5 4 -11 15 -14 13 -4 18 -10 13 -18 -4 -8 -3 -10
4 -5 7 4 12 2 12 -4 0 -6 5 -8 10 -5 6 3 10 -1 10 -9 0 -8 5 -18 12 -22 7 -5
8 -3 3 6 -6 9 -4 11 4 6 7 -5 10 -14 8 -21 -4 -8 3 -12 16 -11 16 1 21 -4 19
-18 -2 -11 1 -15 7 -11 6 3 11 1 11 -5 0 -7 7 -10 15 -6 8 3 14 2 14 -2 -3
-18 2 -32 11 -32 16 0 53 -37 47 -47 -3 -5 4 -10 16 -10 12 -1 27 -9 33 -17 6
-9 15 -12 19 -8 5 4 5 2 2 -4 -4 -6 1 -20 9 -30 9 -10 12 -12 8 -4 -3 8 8 -1
25 -20 18 -19 29 -29 25 -22 -5 11 -2 12 15 3 11 -7 21 -14 21 -17 0 -3 -4 -2
-10 1 -6 3 -7 -1 -4 -9 3 -9 10 -13 15 -10 5 3 12 -2 15 -11 4 -9 13 -14 20
-11 8 3 11 0 8 -8 -3 -8 4 -20 15 -28 12 -8 18 -19 13 -24 -4 -4 1 -2 11 5 14
11 17 11 17 -2 0 -14 26 -32 42 -29 4 1 4 -6 1 -15 -4 -11 -3 -14 5 -9 8 4 12
1 12 -10 0 -10 3 -15 6 -11 3 3 17 -5 31 -19 13 -13 28 -24 33 -24 6 0 10 -7
10 -15 0 -8 3 -14 8 -13 4 2 19 -8 32 -21 14 -13 19 -20 11 -16 -9 5 -12 4 -7
-3 4 -6 14 -8 23 -5 11 4 14 3 9 -5 -4 -7 -2 -12 4 -12 6 0 8 -4 5 -10 -3 -6
1 -7 10 -4 11 5 18 0 22 -16 4 -16 8 -18 14 -8 7 10 9 10 9 0 0 -14 44 -62 57
-62 11 0 37 -31 46 -54 4 -9 11 -15 17 -11 12 7 82 -60 72 -70 -3 -3 1 -3 10
0 9 4 19 1 24 -6 4 -8 3 -10 -4 -5 -7 4 -12 5 -12 1 0 -3 12 -10 26 -15 18 -7
24 -15 20 -26 -3 -9 -2 -12 5 -9 16 11 59 -24 59 -48 0 -16 3 -18 9 -8 7 10
11 9 23 -8 8 -11 18 -18 21 -14 4 3 7 -3 7 -15 0 -12 5 -22 11 -22 5 0 7 6 3
13 -5 8 -2 8 9 -2 9 -7 17 -20 17 -28 0 -8 4 -12 9 -9 5 3 12 -1 15 -10 4 -9
13 -14 21 -10 12 4 13 2 5 -13 -8 -16 -6 -19 7 -17 19 3 43 -15 36 -26 -4 -8
12 -12 30 -9 5 1 6 -2 3 -7 -3 -5 4 -15 16 -23 34 -24 48 -40 43 -50 -4 -5 0
-6 8 -3 8 3 17 -2 20 -10 4 -11 1 -13 -10 -9 -10 4 -14 2 -10 -4 3 -5 0 -10
-8 -10 -8 0 -12 4 -9 9 3 4 1 8 -5 8 -5 0 -13 -5 -16 -10 -5 -7 -11 -8 -19 -1
-7 6 -17 6 -26 1 -17 -11 -32 -3 -24 13 3 7 -2 3 -10 -7 -9 -11 -16 -15 -16
-9 0 12 -18 12 -37 0 -6 -4 -14 -1 -16 5 -4 10 -6 10 -6 0 -1 -8 -6 -10 -13
-5 -18 11 -62 10 -70 -2 -5 -6 -8 -4 -8 4 0 11 -4 9 -15 -5 -9 -11 -13 -13
-10 -4 4 11 -2 15 -20 15 -15 0 -23 -5 -21 -12 3 -7 -1 -10 -10 -6 -7 3 -14 9
-14 14 0 6 -6 4 -14 -3 -8 -7 -11 -17 -8 -22 3 -5 0 -6 -7 -2 -9 6 -9 12 1 24
11 15 10 15 -14 -1 -26 -16 -27 -16 -22 0 5 16 4 16 -8 3 -16 -18 -82 -18
-104 1 -8 7 -14 8 -13 3 4 -23 -3 -26 -23 -8 -18 15 -20 16 -9 2 12 -16 11
-18 -18 -14 -18 2 -31 -1 -31 -8 0 -7 -3 -8 -8 -1 -8 12 -43 12 -62 0 -7 -4
-16 -2 -20 6 -6 9 -13 10 -22 3 -7 -6 -37 -10 -65 -10 -29 1 -53 -3 -53 -8 0
-5 -6 -3 -14 3 -11 9 -17 9 -28 -2 -11 -12 -15 -12 -26 2 -8 9 -10 10 -6 2 5
-11 2 -13 -14 -9 -12 4 -20 2 -16 -3 3 -5 0 -9 -5 -9 -6 0 -11 6 -11 13 0 8
-2 9 -8 1 -4 -6 -26 -11 -50 -10 -23 0 -44 -3 -46 -9 -3 -6 -9 -3 -15 5 -7 10
-11 11 -11 3 0 -7 -7 -10 -15 -7 -11 5 -14 1 -9 -12 5 -18 5 -18 -6 -1 -11 18
-13 18 -31 1 -19 -17 -20 -17 -14 2 6 16 5 17 -7 4 -7 -8 -29 -15 -48 -14 -19
0 -41 -4 -49 -10 -11 -8 -13 -8 -8 0 3 6 0 11 -8 11 -8 0 -12 -4 -9 -8 7 -12
-19 -17 -38 -7 -12 6 -18 5 -18 -3 0 -7 -3 -9 -7 -6 -3 4 -13 2 -20 -5 -11 -9
-17 -9 -24 3 -8 12 -10 12 -18 0 -5 -8 -18 -12 -30 -8 -12 3 -21 0 -21 -6 0
-6 -3 -7 -7 -4 -3 4 -13 2 -20 -5 -11 -9 -16 -9 -23 1 -5 9 -9 10 -11 2 -2 -6
-20 -13 -39 -15 -19 -2 -39 -4 -43 -5 -5 0 -6 -5 -3 -10 3 -4 -6 -6 -19 -3
-14 2 -31 0 -38 -5 -6 -6 -20 -13 -29 -16 -13 -4 -16 -2 -12 11 5 13 4 14 -4
3 -6 -8 -15 -10 -23 -5 -12 6 -12 5 -1 -9 12 -14 11 -15 -12 -11 -14 2 -26 0
-26 -5 0 -6 -7 -7 -17 -4 -11 4 -14 3 -9 -6 9 -14 -16 -11 -26 4 -5 6 -8 3 -8
-7 0 -11 -7 -15 -25 -14 -14 2 -22 -1 -18 -7 4 -6 -2 -8 -15 -5 -12 4 -20 2
-17 -2 7 -11 -31 -23 -45 -15 -6 3 -13 -1 -16 -9 -3 -9 -10 -14 -14 -11 -4 3
-11 -2 -14 -10 -4 -13 -10 -14 -26 -5 -16 8 -18 8 -14 -4 4 -11 -1 -14 -20
-12 -15 2 -23 -1 -19 -7 4 -6 0 -8 -10 -4 -10 4 -16 2 -14 -6 1 -7 -6 -11 -15
-11 -10 1 -15 -2 -12 -7 4 -7 -10 -13 -18 -7 -9 5 -47 -24 -44 -35 1 -6 1 -9
-1 -5 -5 9 -53 -12 -53 -24 0 -4 -5 -8 -11 -8 -5 0 -7 5 -3 12 4 7 3 8 -5 4
-6 -4 -9 -12 -6 -17 4 -5 1 -9 -5 -9 -6 0 -8 -5 -4 -12 6 -10 5 -10 -8 -1 -12
11 -18 10 -32 -5 -9 -10 -13 -22 -9 -26 5 -4 3 -7 -2 -6 -22 5 -27 -1 -14 -17
10 -11 10 -14 2 -9 -7 4 -13 2 -13 -3 0 -13 17 -14 24 -2 3 4 17 7 30 6 15 -2
27 3 31 12 3 9 8 13 12 10 3 -4 12 1 20 11 8 9 12 12 9 7 -6 -13 31 -17 39 -4
3 5 -1 6 -9 3 -9 -3 -16 -2 -16 4 0 13 19 20 47 17 12 -1 20 1 18 5 -2 3 0 12
6 20 6 10 9 11 9 3 0 -7 5 -13 11 -13 5 0 8 3 6 8 -3 4 7 16 22 27 26 19 26
19 11 0 -15 -19 -14 -19 10 -2 45 31 63 40 56 28 -12 -19 2 -12 25 12 18 18
21 19 16 4 -6 -17 -4 -16 19 2 22 17 30 19 42 9 13 -11 14 -11 7 1 -6 11 -4
13 8 8 12 -4 14 -2 10 10 -5 11 -1 14 13 9 10 -3 32 1 47 9 15 8 35 11 44 8
12 -5 14 -3 8 7 -6 10 -3 12 13 8 12 -3 23 -1 26 6 3 8 5 7 5 -1 1 -10 7 -10
29 0 15 6 30 16 33 20 4 5 10 4 14 -3 5 -8 13 -6 28 7 11 10 17 13 14 6 -5 -7
0 -9 13 -6 11 3 20 10 20 15 0 5 5 6 10 3 6 -4 7 -12 3 -18 -3 -7 3 -3 15 7
12 11 22 16 22 11 0 -4 6 -3 13 4 8 6 23 9 35 6 13 -2 22 1 22 8 0 8 3 8 9 -1
7 -11 9 -11 14 2 4 9 12 16 19 16 9 0 9 -3 -2 -11 -12 -9 -11 -9 5 -3 11 4 35
8 53 8 17 1 32 5 32 10 0 5 8 2 17 -5 9 -8 14 -9 10 -3 -7 12 21 29 31 19 3
-3 -1 -5 -8 -5 -7 0 -10 -3 -7 -6 4 -4 12 -2 20 4 17 14 69 24 62 11 -4 -5 -1
-9 4 -9 6 0 11 4 11 9 0 4 10 7 23 7 12 -1 30 2 41 7 14 7 17 6 10 -5 -6 -11
-5 -11 9 1 13 10 17 10 17 1 0 -10 3 -10 15 0 9 7 18 10 22 7 3 -4 15 -2 26 4
13 7 17 7 13 1 -3 -6 -1 -14 5 -18 8 -4 9 -3 5 4 -4 6 4 16 16 23 19 9 21 9
11 -2 -7 -7 -13 -18 -13 -23 0 -7 3 -8 8 -1 4 6 15 16 25 24 15 12 20 12 33
-5 9 -10 13 -14 10 -8 -8 16 12 22 62 19 23 -1 45 2 48 7 3 5 12 4 20 -3 11
-9 14 -8 14 2 0 11 2 11 10 -1 5 -8 10 -10 10 -3 0 6 9 9 22 5 16 -4 19 -2 13
9 -5 8 2 5 15 -6 13 -11 20 -14 15 -6 -6 11 -4 13 8 8 9 -3 18 -1 21 6 3 9 5
9 5 0 1 -7 6 -13 12 -13 5 0 8 4 5 8 -3 5 1 9 9 9 8 0 12 -4 10 -8 -3 -4 2 -9
10 -12 10 -4 12 -1 8 11 -6 15 -5 16 12 2 11 -9 16 -10 11 -2 -10 17 4 15 28
-6 19 -15 19 -15 7 0 -12 16 -10 17 23 14 20 -1 36 2 37 8 0 6 4 2 9 -9 5 -11
9 -14 9 -6 1 9 11 12 36 9 19 -2 35 0 35 5 0 5 7 3 17 -4 13 -11 17 -11 21 -1
3 10 7 10 20 0 12 -10 14 -10 8 0 -4 6 -2 12 3 12 6 0 11 -5 11 -11 0 -7 5 -8
13 -2 6 5 123 8 259 8 225 -1 250 -3 268 -20 11 -10 20 -25 20 -34 0 -14 2
-14 10 -1 8 13 10 12 10 -2 0 -10 5 -18 11 -18 5 0 7 -4 4 -10 -3 -6 1 -7 9
-4 10 4 16 1 16 -9 0 -9 5 -19 12 -23 7 -4 8 -3 4 4 -4 7 -5 12 -3 12 2 0 17
-18 32 -40 17 -24 34 -39 42 -36 7 3 13 -1 13 -9 0 -7 5 -17 12 -21 7 -5 8 -3
3 6 -5 7 4 5 18 -6 15 -10 27 -25 27 -33 0 -8 3 -12 6 -8 7 7 34 -17 34 -31 0
-5 7 -15 15 -22 13 -11 14 -10 9 5 -7 16 -5 16 14 -1 12 -10 22 -24 22 -32 0
-7 4 -11 8 -8 5 3 14 -4 22 -14 8 -10 17 -17 22 -14 5 3 8 2 7 -3 -3 -17 1
-33 9 -32 19 3 33 -2 27 -11 -3 -5 -1 -10 5 -10 6 0 8 -5 5 -10 -4 -6 -3 -10
2 -9 21 4 32 -3 38 -20 4 -13 11 -18 22 -14 12 5 15 2 10 -10 -3 -9 -3 -16 1
-15 4 1 19 -5 34 -12 23 -11 26 -16 15 -28 -10 -13 -9 -15 6 -9 9 3 17 3 17
-2 0 -4 11 -14 25 -21 14 -7 25 -23 26 -34 0 -12 3 -16 6 -9 3 8 12 5 27 -10
13 -12 21 -26 18 -31 -3 -5 0 -6 7 -2 6 4 14 0 17 -8 3 -9 10 -13 15 -10 5 3
9 -2 9 -11 0 -9 4 -13 10 -10 5 3 10 1 10 -4 0 -6 7 -11 16 -11 8 0 13 -4 9
-9 -7 -13 12 -24 47 -26 20 -2 28 2 29 14 0 10 3 11 6 4 3 -10 7 -10 18 0 7 7
10 17 7 22 -3 6 2 4 11 -4 15 -12 17 -12 11 4 -5 13 -4 16 5 11 8 -6 11 -2 9
10 -2 14 3 19 18 18 14 -1 21 5 20 15 0 9 5 15 12 14 6 -2 12 2 12 8 0 5 5 7
12 3 7 -5 8 -3 4 5 -5 8 0 14 13 18 11 3 18 9 15 14 -3 5 2 9 10 9 8 0 28 16
44 36 21 25 34 34 44 28 9 -5 9 -2 -2 11 -9 11 -10 16 -2 11 7 -4 12 -2 12 4
0 7 7 9 16 6 8 -3 12 -2 9 4 -3 6 -1 10 5 10 6 0 9 4 6 9 -4 5 7 15 24 23 16
7 30 19 30 25 0 7 6 13 14 13 8 0 22 9 30 21 9 13 19 18 27 14 8 -6 10 -4 5 4
-9 13 23 43 37 34 4 -2 7 -1 6 4 -3 19 2 34 10 29 5 -3 12 1 15 10 3 8 10 12
16 9 5 -3 10 1 10 9 0 8 5 18 12 22 7 5 8 2 3 -7 -4 -8 1 -5 12 6 11 11 18 24
15 29 -3 5 3 6 12 3 14 -6 17 -3 12 9 -5 12 -2 15 11 10 10 -4 14 -4 10 0 -11
11 13 34 37 35 11 0 15 3 8 6 -6 2 -10 9 -7 13 3 5 13 6 22 3 11 -4 14 -3 9 5
-4 7 -2 12 4 12 6 0 8 5 4 12 -5 8 -2 9 9 5 11 -4 17 -1 17 7 0 8 7 17 16 20
9 3 12 11 8 18 -5 9 -2 8 9 -1 16 -12 17 -12 11 5 -4 10 -4 16 1 12 4 -4 14 0
22 10 9 11 12 11 7 2 -4 -8 3 -5 15 7 26 28 35 29 27 6 -5 -15 -4 -15 9 1 11
14 15 16 15 5 0 -12 2 -12 9 0 7 11 9 11 14 0 4 -12 7 -11 16 1 10 13 13 13
25 -3 14 -18 14 -17 21 2 3 12 11 21 16 21 6 0 7 -4 4 -10 -3 -5 -1 -10 5 -10
6 0 8 -5 4 -12 -6 -9 -3 -9 9 0 9 8 22 10 28 6 8 -5 9 -3 4 6 -6 10 0 12 24 8
17 -2 31 0 31 5 0 5 6 4 13 -2 8 -6 17 -8 20 -4 4 3 44 7 90 8 46 1 89 5 96 9
8 5 17 3 22 -5 5 -8 9 -9 9 -3 0 7 7 15 16 18 14 5 15 4 4 -9 -11 -13 -10 -14
4 -9 9 3 16 11 16 17 0 6 6 3 13 -8 11 -14 16 -15 22 -5 5 9 4 11 -3 6 -7 -4
-12 -3 -12 3 0 5 9 9 19 8 11 0 18 -4 15 -8 -2 -4 0 -11 6 -14 6 -4 9 -1 8 6
-2 8 7 13 22 13 14 1 28 6 32 11 5 6 8 5 8 -2 0 -9 7 -10 23 -5 12 5 39 8 60
7 20 0 37 2 37 6 0 4 9 5 21 2 12 -4 25 0 30 8 7 12 9 12 9 0 0 -11 4 -10 13
4 11 14 16 15 22 5 5 -9 4 -11 -3 -6 -7 4 -12 2 -12 -3 0 -14 17 -14 26 0 3 6
23 9 44 7 21 -2 36 0 34 4 -8 13 11 9 25 -4 10 -9 12 -9 7 -1 -3 6 -2 14 4 18
5 3 10 1 10 -6 0 -7 7 -4 16 7 8 10 13 14 10 7 -4 -6 -2 -14 3 -17 5 -3 11 0
14 8 3 9 16 13 31 12 14 -2 26 0 26 4 0 5 8 7 18 6 9 -2 23 4 30 13 8 9 11 10
7 4 -7 -14 7 -18 19 -6 7 7 19 10 71 18 16 3 31 9 33 14 2 5 13 6 24 3 16 -4
20 -1 16 9 -5 12 3 15 31 15 28 0 36 4 35 17 -2 14 1 15 12 6 10 -8 14 -8 14
0 0 6 9 11 21 11 14 0 19 5 16 14 -4 10 0 14 13 11 10 -2 29 4 42 14 13 10 26
18 30 17 3 0 10 3 15 8 5 5 3 6 -4 2 -7 -4 -13 -5 -13 -1 0 3 12 10 26 15 14
6 23 14 20 19 -4 5 10 15 29 21 32 11 40 20 36 44 -1 5 8 6 19 3 17 -4 19 -3
9 9 -9 11 -8 14 5 14 10 0 15 4 11 9 -3 6 4 15 15 21 11 6 17 16 14 22 -5 8
-1 9 11 4 16 -6 16 -4 4 11 -12 14 -12 16 0 8 11 -6 13 -4 7 10 -6 16 -4 16
10 4 16 -13 16 -12 5 10 -8 15 -9 21 -2 17 6 -4 15 4 21 18 5 14 13 26 18 26
4 0 7 13 6 30 -1 17 3 28 10 27 6 -1 10 4 9 11 -2 6 2 12 8 12 8 0 8 4 0 14
-9 11 -9 16 -1 21 7 4 10 20 8 35 -3 18 0 26 7 24 6 -3 11 5 12 16 1 13 -2 18
-10 13 -9 -5 -9 -3 -1 8 14 17 16 79 3 79 -5 0 -9 5 -9 11 0 5 3 8 8 6 4 -3 8
6 8 19 2 19 -1 22 -11 14 -10 -9 -13 -7 -10 7 1 10 -3 24 -9 32 -9 12 -8 13 4
6 13 -8 13 -7 1 9 -11 13 -16 14 -22 4 -7 -10 -9 -9 -9 4 0 12 -5 15 -17 11
-11 -4 -14 -3 -9 5 9 15 4 15 -29 0 -14 -6 -25 -15 -25 -21 0 -5 -6 -7 -13 -4
-8 3 -14 -1 -14 -9 0 -7 5 -10 11 -7 6 4 2 -4 -9 -17 -12 -14 -16 -24 -9 -27
10 -3 10 -61 -1 -90 -2 -7 0 -13 5 -13 6 0 10 -5 10 -11 0 -5 -4 -8 -9 -5 -4
3 -7 -6 -5 -19 1 -14 -2 -25 -7 -25 -6 0 -7 -4 -4 -10 3 -5 0 -10 -7 -10 -10
0 -10 -2 1 -9 9 -6 10 -11 2 -15 -6 -4 -9 -12 -6 -17 4 -5 1 -9 -4 -9 -6 0
-11 -9 -11 -21 0 -13 -4 -18 -12 -13 -9 5 -9 2 1 -9 9 -12 10 -17 2 -17 -7 0
-9 -4 -6 -10 6 -9 -8 -15 -29 -11 -5 1 -4 -4 3 -12 9 -12 8 -16 -4 -21 -8 -3
-14 -11 -13 -17 2 -6 -3 -14 -11 -17 -9 -3 -11 0 -6 8 5 8 4 11 -3 7 -5 -4 -8
-15 -5 -25 3 -13 -9 -30 -40 -55 -24 -20 -48 -33 -52 -29 -3 4 -6 2 -4 -3 4
-19 -13 -44 -27 -38 -8 3 -14 0 -14 -7 0 -6 -5 -8 -10 -5 -6 3 -13 -1 -16 -9
-3 -9 -10 -16 -16 -16 -5 0 -6 6 -2 13 4 7 3 9 -2 4 -5 -5 -9 -14 -9 -19 0 -6
-6 -13 -14 -16 -9 -3 -11 0 -7 9 4 8 0 5 -8 -5 -9 -11 -16 -16 -16 -11 0 5 -7
0 -16 -11 -8 -10 -12 -12 -8 -4 7 13 6 13 -11 0 -10 -8 -20 -14 -22 -12 -9 6
-33 1 -29 -7 3 -5 -1 -12 -10 -15 -25 -10 -36 -7 -29 7 4 6 0 4 -8 -6 -9 -10
-19 -19 -24 -19 -4 0 -14 -3 -21 -5 -7 -3 -21 -3 -32 0 -11 3 -18 2 -15 -3 3
-4 -2 -11 -11 -14 -8 -3 -12 -2 -9 3 3 6 -9 5 -27 -1 -18 -6 -43 -11 -55 -12
-13 0 -23 -8 -24 -16 0 -11 -2 -11 -6 -2 -4 10 -8 10 -21 0 -9 -7 -13 -8 -9
-2 3 6 0 11 -8 11 -8 0 -12 -4 -9 -9 5 -8 -10 -10 -73 -12 -17 -1 -35 -5 -39
-9 -13 -12 -46 -8 -39 5 4 7 0 6 -7 -4 -11 -13 -18 -14 -33 -5 -18 9 -19 9 -6
-7 13 -15 12 -16 -13 -7 -14 6 -26 7 -26 2 0 -5 -20 -8 -45 -7 -25 1 -45 -2
-45 -7 0 -5 -7 -4 -16 3 -8 8 -14 9 -13 4 4 -23 -2 -26 -17 -8 -8 10 -13 14
-10 7 10 -19 -12 -25 -24 -6 -11 17 -11 17 -6 -1 5 -13 2 -17 -9 -13 -8 4 -17
2 -21 -4 -4 -7 -10 -6 -18 0 -7 6 -16 8 -19 5 -3 -3 -39 -7 -79 -7 -40 -1 -76
-6 -80 -12 -5 -6 -8 -5 -8 4 0 11 -3 11 -15 1 -12 -10 -15 -10 -15 1 0 11 -2
11 -10 -1 -9 -13 -10 -13 -10 0 0 13 -1 13 -10 0 -7 -11 -10 -11 -10 -2 0 7
-5 10 -10 7 -6 -4 -8 -12 -4 -18 3 -7 0 -5 -8 3 -18 20 -46 27 -30 7 9 -11 8
-14 -3 -14 -8 0 -13 2 -10 5 2 3 -1 14 -7 26 -6 11 -7 18 -3 14 8 -8 35 14 29
24 -3 4 4 5 16 3 11 -2 19 -1 19 3 -3 20 2 32 11 27 6 -3 10 -1 10 4 0 6 7 11
15 11 8 0 15 7 15 16 0 10 6 14 14 11 11 -4 13 -1 9 10 -5 13 -2 15 11 10 9
-4 15 -3 12 2 -3 4 1 17 9 27 11 15 14 16 15 4 0 -8 9 0 20 18 11 18 24 31 29
28 5 -3 11 1 15 9 3 8 13 15 22 15 14 0 15 2 3 17 -11 13 -11 15 -1 9 8 -5 22
2 37 18 14 15 28 27 32 29 5 1 7 6 5 10 -1 4 6 7 15 5 12 -2 17 3 15 15 -2 11
6 21 23 27 17 7 24 14 19 22 -5 8 0 7 11 -2 17 -14 18 -13 12 3 -4 11 -2 17 8
17 8 0 15 5 15 10 0 6 6 10 13 10 7 0 19 10 27 21 26 37 41 49 52 43 7 -4 8
-2 4 4 -8 13 27 35 40 24 5 -4 2 1 -5 11 -12 15 -12 17 4 11 14 -6 16 -4 10 6
-6 10 -4 12 9 7 10 -4 15 -3 11 3 -3 6 -1 10 5 10 6 0 8 5 4 12 -5 8 -2 9 10
5 10 -4 15 -3 11 3 -3 6 1 10 9 10 10 0 13 6 9 15 -3 9 -2 15 3 14 21 -4 35 2
29 11 -3 6 2 13 12 17 10 4 24 13 31 20 8 7 18 11 23 7 5 -3 9 -2 8 3 -4 21 2
34 13 27 8 -5 9 -2 4 12 -4 10 -4 15 0 12 9 -10 46 11 39 22 -3 5 6 12 20 16
13 3 23 9 21 13 -2 3 5 15 16 26 19 20 19 20 12 0 -7 -20 -7 -20 9 0 8 11 13
23 11 27 -3 4 7 10 21 14 13 3 23 10 20 14 -3 4 5 10 16 13 12 3 18 10 15 15
-7 11 21 25 34 17 4 -3 6 4 3 15 -4 15 -2 19 9 15 10 -4 17 1 21 15 3 12 10
19 15 16 6 -3 13 1 16 10 3 8 11 12 17 8 7 -4 9 -3 6 3 -4 5 8 23 26 39 l32
29 -25 -30 -25 -30 28 24 c15 14 27 31 27 39 0 8 6 12 15 8 8 -3 14 -2 12 2
-3 9 35 47 56 55 9 3 17 11 17 18 0 6 7 8 16 5 9 -3 12 -2 9 5 -9 14 15 40 29
32 6 -3 8 -3 4 2 -8 9 15 35 31 35 6 0 11 5 11 11 0 6 7 8 17 5 10 -4 14 -4
10 0 -4 4 -1 14 6 23 11 14 10 15 -8 1 -18 -14 -19 -14 -7 2 8 10 20 14 29 11
11 -4 14 -2 9 5 -4 7 -1 12 9 12 9 0 13 5 10 10 -3 6 -1 11 4 11 6 1 15 2 20
3 5 0 13 5 18 10 5 6 2 6 -7 1 -13 -8 -13 -6 -1 8 7 9 17 14 22 11 5 -3 9 3 9
12 0 10 3 15 6 11 10 -10 36 22 28 34 -4 8 -3 9 5 5 6 -4 18 0 27 8 8 9 12 16
7 16 -4 1 4 8 20 16 15 8 27 19 27 25 0 6 5 7 10 4 6 -3 10 -1 10 5 0 6 4 8
10 5 6 -3 7 1 4 10 -5 11 -2 14 12 8 12 -4 15 -3 10 6 -5 8 -1 14 13 18 11 3
18 9 15 14 -3 5 2 9 10 9 9 0 15 5 13 12 -1 7 4 13 11 14 6 1 15 2 18 3 4 0 1
7 -5 15 -9 11 -9 15 1 19 9 4 6 12 -12 27 -14 12 -19 18 -11 14 10 -5 12 -3 7
5 -5 7 -15 10 -23 7 -8 -3 -12 -2 -9 2 6 9 -21 35 -47 45 -9 3 -17 11 -17 17
0 6 -4 9 -9 5 -5 -3 -12 4 -16 15 -3 11 -13 20 -21 20 -8 0 -14 6 -14 13 0 8
-4 7 -10 -3 -8 -13 -10 -12 -10 3 0 15 -11 22 -32 18 -5 0 -8 3 -8 7 0 5 -7
17 -16 28 -8 10 -13 12 -9 4 4 -8 -3 -3 -15 13 -12 15 -30 27 -39 27 -21 0
-54 33 -44 43 3 4 -4 7 -16 7 -15 0 -21 5 -18 13 4 10 -2 13 -21 9 -22 -4 -25
-2 -14 9 6 7 12 18 12 23 0 6 -4 5 -9 -3 -7 -11 -15 -8 -37 15 -15 16 -23 22
-19 14 7 -12 6 -13 -7 -3 -8 7 -17 12 -19 10 -2 -1 -3 -1 -3 1 1 2 -10 16 -24
32 -19 21 -28 26 -34 17 -5 -8 -8 -7 -8 6 0 9 -5 17 -11 17 -5 0 -8 4 -4 9 3
6 -3 8 -15 6 -11 -2 -23 1 -26 7 -5 7 -2 8 6 3 9 -5 11 -4 6 3 -4 7 -15 12
-24 12 -15 0 -15 2 -2 10 13 8 13 10 -2 10 -9 0 -18 3 -21 8 -2 4 -2 0 0 -8 1
-8 -12 2 -30 23 -17 20 -38 37 -45 37 -7 0 -10 4 -7 10 3 6 -1 7 -9 4 -11 -4
-16 0 -16 11 0 9 -4 13 -10 10 -5 -3 -10 2 -11 12 0 10 -3 13 -6 6 -3 -10 -7
-10 -18 0 -7 7 -11 15 -8 20 2 4 1 7 -4 6 -19 -3 -34 2 -29 10 4 5 -7 15 -24
23 -16 7 -30 17 -30 22 0 4 -7 6 -14 3 -11 -4 -13 -1 -9 10 4 11 2 14 -5 9 -7
-4 -12 -1 -12 9 0 9 -5 13 -10 10 -6 -3 -13 1 -16 9 -3 9 -12 16 -20 16 -8 0
-14 3 -14 8 0 4 -14 13 -30 20 -17 8 -28 18 -24 23 3 5 -2 9 -11 9 -9 0 -13 4
-10 10 3 6 -1 7 -9 4 -14 -5 -20 5 -18 27 1 4 -8 4 -20 1 -14 -3 -19 -1 -14 6
4 7 1 12 -8 12 -9 0 -16 5 -16 10 0 6 -6 10 -14 10 -8 0 -18 5 -22 12 -5 7 -3
8 6 3 8 -5 11 -4 7 2 -3 5 -22 9 -42 8 -25 -2 -35 2 -31 10 5 14 -19 14 -31 0
-4 -4 -2 -5 6 0 10 5 12 4 7 -4 -5 -8 -13 -7 -28 3 -22 16 -52 11 -41 -7 4 -6
-9 0 -27 13 -18 13 -30 19 -26 12 4 -7 2 -12 -4 -12 -6 0 -8 -5 -4 -12 4 -6
-3 -4 -15 5 -25 16 -56 12 -44 -6 4 -6 -9 0 -27 13 -18 13 -30 19 -26 12 4 -7
2 -12 -4 -12 -6 0 -8 -5 -4 -12 4 -6 -3 -4 -15 5 -25 16 -56 12 -44 -6 4 -6
-9 0 -27 13 -18 13 -30 19 -26 12 4 -7 2 -12 -4 -12 -6 0 -8 -5 -4 -12 4 -6
-3 -4 -15 5 -25 16 -56 12 -44 -6 4 -6 -9 0 -27 13 -18 13 -30 19 -26 12 4 -7
2 -12 -4 -12 -6 0 -8 -5 -4 -12 4 -6 -3 -4 -15 5 -25 16 -56 12 -44 -6 4 -6
-9 0 -27 13 -18 13 -30 19 -26 12 4 -7 2 -12 -4 -12 -6 0 -8 -5 -4 -12 6 -9 3
-9 -9 0 -17 15 -79 23 -71 11 2 -4 0 -10 -6 -14 -5 -3 -10 2 -11 12 0 10 -3
13 -5 6 -4 -8 -14 -9 -35 -3 -16 5 -27 5 -24 0 3 -5 1 -11 -5 -15 -5 -3 -10 2
-11 12 0 10 -3 13 -5 6 -4 -8 -14 -9 -35 -3 -16 5 -27 5 -24 0 3 -5 1 -11 -5
-15 -5 -3 -10 2 -11 12 0 10 -3 13 -5 6 -4 -8 -14 -9 -35 -3 -16 5 -27 5 -24
0 3 -5 1 -11 -5 -15 -5 -3 -10 2 -11 12 0 10 -3 13 -5 6 -4 -8 -14 -9 -35 -3
-16 5 -27 5 -24 0 3 -5 1 -11 -5 -15 -5 -3 -10 2 -11 12 0 10 -3 13 -5 6 -4
-8 -14 -9 -35 -3 -16 5 -27 5 -24 0 3 -5 1 -11 -5 -15 -5 -3 -10 2 -11 12 0
10 -3 13 -5 6 -4 -8 -14 -9 -35 -3 -16 5 -27 5 -24 0 3 -5 1 -11 -5 -15 -5 -3
-10 2 -11 12 0 10 -3 13 -5 6 -4 -8 -14 -9 -35 -3 -16 5 -27 5 -24 0 3 -5 1
-11 -5 -15 -5 -3 -10 2 -11 12 0 10 -3 13 -5 6 -3 -7 -12 -9 -20 -6 -8 3 -22
-1 -31 -8 -9 -8 -14 -9 -11 -4 4 6 -2 17 -14 24 -11 7 -18 9 -15 4 3 -5 -3
-15 -15 -22 -11 -7 -17 -8 -14 -3 11 18 -21 21 -45 5 -12 -9 -20 -12 -16 -7 3
6 -3 16 -15 23 -11 7 -18 9 -15 4 3 -5 -3 -15 -15 -22 -11 -7 -17 -8 -14 -3
11 18 -21 21 -45 5 -12 -9 -20 -12 -16 -7 3 6 -3 16 -15 23 -11 7 -18 9 -15 4
3 -5 -3 -15 -15 -22 -11 -7 -17 -8 -14 -3 11 18 -21 21 -45 5 -12 -9 -20 -12
-16 -7 3 6 -3 16 -15 23 -11 7 -18 9 -15 4 3 -5 -3 -15 -15 -22 -11 -7 -17 -8
-14 -3 11 18 -21 21 -45 5 -12 -9 -20 -12 -16 -7 3 6 -3 16 -15 23 -11 7 -18
9 -15 4 3 -5 -3 -15 -15 -22 -11 -7 -17 -8 -14 -3 11 18 -21 21 -45 5 -12 -9
-19 -12 -16 -6 4 6 0 14 -9 17 -21 8 -24 8 -24 -5 0 -5 5 -7 12 -3 6 4 8 3 5
-3 -7 -11 -43 -10 -54 2 -5 4 -3 5 4 1 6 -3 14 -2 17 3 4 5 -1 8 -10 7 -8 -1
-20 -9 -25 -17 -5 -8 -9 -9 -9 -3 0 19 -28 24 -45 8 -8 -9 -15 -12 -15 -7 0 4
-9 14 -21 21 -12 8 -19 10 -16 5 3 -4 -1 -14 -9 -21 -8 -7 -14 -9 -14 -3 0 17
-29 20 -45 5 -8 -9 -15 -12 -15 -7 0 4 -9 14 -21 21 -12 8 -19 10 -16 5 3 -4
-1 -14 -9 -21 -8 -7 -14 -9 -14 -3 0 17 -29 20 -45 5 -8 -9 -15 -12 -15 -7 0
4 -9 14 -21 21 -12 8 -19 10 -16 5 3 -4 -1 -14 -9 -21 -8 -7 -14 -9 -14 -3 0
17 -29 20 -45 5 -8 -9 -15 -12 -15 -7 0 4 -10 14 -22 22 -13 7 -20 10 -16 6 4
-4 2 -13 -5 -20 -9 -9 -14 -9 -25 2 -12 12 -18 11 -39 -3 -14 -9 -23 -12 -19
-6 3 5 -1 13 -10 16 -8 3 -12 2 -9 -4 9 -14 -8 -12 -24 3 -12 10 -13 9 -7 -7
7 -19 6 -19 -12 -2 -18 16 -21 16 -36 1 -9 -9 -16 -13 -16 -8 0 4 -9 14 -21
21 -12 8 -19 10 -16 5 3 -4 -1 -14 -9 -21 -8 -7 -14 -9 -14 -3 0 17 -29 20
-45 5 -8 -9 -15 -12 -15 -7 0 4 -9 14 -21 21 -12 8 -19 10 -16 5 3 -4 -1 -14
-9 -21 -8 -7 -14 -9 -14 -3 0 17 -29 20 -45 5 -8 -9 -15 -12 -15 -7 0 4 -9 14
-21 21 -12 8 -19 10 -16 5z m2321 -21 c3 -5 -1 -9 -9 -9 -8 0 -12 4 -9 9 3 4
7 8 9 8 2 0 6 -4 9 -8z m-1241 -127 c31 1 57 -3 57 -7 0 -5 6 -6 13 -2 8 5 8
3 -2 -9 -7 -9 -18 -14 -23 -11 -6 4 -14 0 -19 -7 -7 -12 -9 -12 -9 0 0 8 -8 4
-21 -10 -11 -13 -18 -18 -14 -12 4 9 1 11 -9 7 -9 -3 -14 -10 -11 -14 3 -4 -2
-11 -11 -14 -10 -4 -13 -2 -8 7 6 9 5 9 -8 0 -8 -7 -18 -10 -21 -6 -4 3 -7 -2
-7 -12 0 -18 -1 -18 -15 1 -14 19 -14 18 -9 -2 5 -18 2 -21 -20 -19 -14 2 -29
-2 -33 -7 -4 -7 -1 -8 8 -3 8 5 10 4 6 0 -7 -9 -28 -15 -55 -17 -7 -1 -11 -7
-8 -13 2 -6 -2 -12 -10 -12 -7 0 -11 5 -8 11 3 6 -1 3 -9 -6 -16 -20 -65 -41
-78 -32 -5 3 -9 0 -9 -6 0 -6 -4 -8 -10 -5 -5 3 -7 0 -5 -7 5 -13 -9 -14 -82
-9 -7 1 -13 7 -13 15 0 9 -7 13 -20 11 -14 -3 -20 2 -20 13 0 15 -2 15 -10 2
-8 -13 -10 -13 -10 2 0 12 -6 15 -22 10 -13 -3 -19 -1 -15 5 4 6 0 14 -9 17
-8 3 -12 2 -9 -4 3 -6 -1 -7 -9 -4 -9 3 -16 10 -16 15 0 5 -9 9 -19 9 -11 0
-21 4 -23 10 -1 5 -15 11 -30 12 -20 2 -24 5 -17 14 7 9 5 12 -8 10 -10 -2
-24 4 -31 13 -10 12 -12 13 -6 1 5 -10 0 -9 -14 4 -12 11 -22 16 -22 12 0 -3
-15 1 -32 11 -18 9 -36 17 -40 18 -3 0 -10 4 -15 9 -5 5 -3 6 5 2 6 -4 12 -3
12 1 0 5 167 9 371 8 204 0 373 4 376 9 3 4 8 4 12 -1 3 -5 32 -9 64 -8z
m1047 0 c36 0 71 4 78 9 6 4 12 4 12 -1 0 -4 104 -8 231 -8 155 1 236 -3 246
-10 13 -9 13 -12 2 -13 -27 -2 -47 -8 -60 -19 -8 -5 -24 -9 -36 -8 -15 1 -19
-3 -15 -13 3 -10 1 -13 -6 -8 -7 4 -12 2 -12 -4 0 -6 -4 -8 -10 -5 -5 3 -10 2
-10 -4 0 -6 -6 -8 -14 -5 -7 3 -16 -2 -19 -10 -4 -9 -15 -13 -27 -11 -11 2
-18 0 -15 -6 4 -5 -1 -9 -10 -9 -9 0 -14 -4 -10 -9 3 -6 -3 -8 -14 -6 -11 2
-22 -3 -25 -12 -4 -8 -13 -13 -21 -9 -8 3 -15 1 -15 -4 0 -5 -10 -14 -21 -21
-15 -8 -19 -8 -15 0 4 6 2 11 -3 11 -6 0 -11 -5 -11 -11 0 -5 -4 -7 -10 -4 -5
3 -10 0 -10 -8 0 -8 -7 -17 -15 -21 -8 -3 -15 0 -15 7 0 9 -2 9 -8 0 -5 -8
-13 -9 -22 -3 -8 6 -19 10 -25 10 -5 0 -3 -5 5 -10 10 -6 11 -10 3 -10 -7 0
-18 9 -25 20 -7 11 -16 20 -21 20 -4 0 -5 -5 -2 -11 8 -12 -37 11 -46 25 -4 5
-14 6 -23 3 -9 -4 -15 -1 -13 6 1 7 -8 11 -21 11 -17 -1 -20 1 -11 12 8 10 5
12 -16 8 -15 -3 -24 -1 -21 5 7 11 -17 21 -50 21 -13 0 -24 5 -24 11 0 5 5 7
12 3 6 -4 8 -3 5 3 -4 6 -18 9 -32 8 -16 -2 -25 2 -25 11 0 8 -6 11 -15 8 -8
-4 -23 2 -33 13 -9 10 -13 13 -8 6 12 -19 3 -16 -23 6 -13 11 -30 17 -38 14
-11 -4 -14 -2 -11 8 4 11 31 14 126 14 66 0 124 4 128 8 4 4 10 4 13 -1 3 -4
35 -8 71 -7z m-2130 -26 c0 7 5 9 10 6 6 -4 8 -11 5 -16 -4 -5 0 -9 8 -9 20 0
68 -26 61 -32 -2 -3 2 -8 11 -12 9 -3 13 -2 10 4 -3 6 -2 10 3 10 6 0 12 -7
16 -15 3 -8 12 -15 20 -15 9 0 30 -9 48 -19 17 -11 36 -17 41 -14 6 4 8 0 5
-9 -5 -11 1 -14 22 -13 16 1 29 -1 28 -4 -2 -19 4 -22 19 -10 9 8 14 10 12 4
-9 -15 23 -40 48 -39 12 1 20 -3 17 -7 -5 -8 10 -13 29 -10 4 0 7 -5 7 -13 0
-8 9 -12 25 -11 16 2 23 -1 18 -8 -4 -6 0 -8 10 -4 9 3 16 3 16 -1 -3 -19 2
-25 11 -12 6 10 10 11 10 3 0 -7 8 -13 18 -13 13 -1 11 -4 -8 -16 -14 -8 -17
-13 -7 -10 11 4 16 2 11 -5 -3 -6 -17 -9 -30 -6 -13 2 -21 1 -19 -3 2 -4 -3
-16 -11 -26 -15 -19 -15 -19 -9 1 5 17 3 17 -21 -5 -15 -14 -23 -18 -19 -10 7
12 6 13 -7 3 -8 -7 -19 -9 -24 -5 -4 4 -3 0 4 -9 11 -14 9 -16 -15 -11 -22 4
-25 2 -20 -12 4 -10 3 -15 -3 -11 -14 9 -52 -4 -45 -16 3 -5 -2 -6 -11 -2 -11
4 -15 2 -11 -4 5 -7 -4 -10 -22 -9 -22 2 -28 -2 -26 -14 2 -13 -4 -16 -26 -15
-18 1 -29 -3 -29 -12 0 -11 -20 -17 -36 -10 -3 1 -10 -6 -15 -15 -6 -10 -19
-18 -30 -18 -14 0 -18 -4 -13 -12 5 -9 2 -9 -9 1 -15 12 -17 11 -17 -4 0 -13
-6 -16 -24 -13 -18 4 -23 1 -19 -9 3 -8 2 -13 -3 -12 -23 4 -35 -2 -28 -13 4
-7 4 -10 -1 -6 -4 4 -14 3 -21 -3 -8 -6 -20 -9 -29 -5 -8 3 -14 0 -12 -7 1 -7
-6 -11 -17 -9 -12 2 -16 -1 -10 -9 5 -9 2 -10 -9 -6 -10 4 -17 2 -17 -4 0 -6
-9 -9 -19 -6 -14 3 -18 1 -14 -9 3 -10 -3 -14 -20 -14 -14 0 -27 -5 -29 -11
-2 -6 -15 -12 -30 -12 -14 -1 -26 -6 -25 -12 1 -5 -4 -9 -10 -7 -7 1 -13 -2
-13 -6 0 -4 -12 -9 -26 -10 -22 -2 -25 0 -14 13 9 11 9 15 1 15 -9 0 -9 5 0
21 8 16 8 20 -1 14 -9 -6 -9 -2 -1 14 8 15 9 21 1 21 -6 0 -8 5 -4 11 4 6 8
47 9 90 1 43 4 82 8 85 3 4 2 15 -4 26 -8 15 -7 23 8 35 10 8 13 12 7 9 -7 -3
-14 3 -17 15 -5 17 -3 18 9 8 12 -10 15 -10 12 2 -2 8 -7 17 -13 21 -6 5 -5 8
3 8 7 0 10 5 7 10 -4 6 -11 8 -16 5 -5 -4 -9 -1 -9 4 0 6 7 11 15 11 8 0 15 5
15 11 0 5 -4 8 -9 5 -8 -5 -8 15 -1 34 1 3 2 8 1 13 0 4 4 7 9 7 6 0 10 7 10
16 0 8 5 12 10 9 6 -3 10 1 10 9 0 9 7 13 19 11 15 -3 19 1 16 17 -4 17 -2 18
12 6 9 -7 14 -8 11 -3 -3 6 4 19 15 30 11 11 17 13 12 5 -4 -8 3 -4 16 10 13
14 22 21 19 15 -3 -6 6 2 20 17 14 16 31 28 38 28 6 0 12 5 12 10 0 6 9 10 21
10 16 0 19 4 15 17 -5 13 0 11 18 -6 15 -14 26 -19 26 -12z m1494 15 c9 -8 25
-16 36 -17 13 -1 19 -6 15 -15 -2 -7 0 -10 5 -7 5 3 28 -3 52 -15 23 -11 48
-20 56 -20 9 0 12 -6 8 -15 -4 -13 -2 -14 14 -5 14 8 20 8 20 0 0 -6 5 -8 10
-5 6 3 10 1 10 -5 0 -7 7 -10 15 -7 8 4 17 1 21 -5 5 -7 2 -8 -6 -3 -9 6 -11
4 -5 -4 4 -7 16 -11 26 -8 10 3 22 0 26 -5 4 -7 1 -8 -8 -3 -10 5 -11 5 -4 -3
6 -6 19 -12 30 -14 11 -1 26 -10 33 -18 12 -13 13 -13 6 0 -7 12 -5 13 8 3 8
-7 19 -9 23 -5 5 4 5 -1 2 -10 -4 -12 -2 -15 9 -11 7 3 14 1 14 -4 0 -6 14 -9
31 -8 23 1 33 -3 36 -16 3 -11 13 -16 29 -14 17 1 24 -2 20 -10 -3 -9 8 -15
32 -20 49 -9 66 -23 51 -41 -6 -8 -15 -11 -20 -8 -5 3 -9 -2 -9 -10 0 -8 -5
-18 -12 -22 -7 -5 -9 -2 -3 7 4 8 -5 1 -20 -16 -14 -16 -24 -24 -20 -17 3 6 1
12 -4 12 -6 0 -11 -8 -11 -17 0 -15 -2 -16 -10 -3 -9 13 -10 13 -10 0 0 -8
-13 -24 -28 -35 -27 -19 -27 -19 -13 0 8 11 0 5 -17 -13 -17 -18 -33 -33 -36
-33 -20 2 -26 0 -21 -9 6 -9 -7 -14 -21 -7 -3 1 -10 -6 -15 -15 -6 -10 -17
-18 -25 -18 -9 0 -12 -5 -8 -12 5 -7 0 -9 -14 -6 -16 4 -19 2 -15 -10 5 -11 2
-14 -11 -9 -9 4 -15 3 -13 -1 3 -4 -5 -16 -16 -27 -11 -12 -17 -14 -13 -5 5 9
2 8 -7 -2 -8 -10 -17 -15 -20 -12 -8 8 -47 -33 -39 -42 4 -4 1 -4 -6 0 -7 4
-15 1 -18 -8 -3 -9 -11 -13 -17 -9 -5 3 -15 -1 -22 -10 -6 -9 -18 -17 -25 -19
-21 -5 -39 -22 -32 -32 3 -5 -5 -7 -17 -3 -18 4 -20 3 -11 -8 8 -10 8 -15 -1
-21 -8 -4 -9 -3 -5 4 9 15 5 15 -28 2 -20 -7 -27 -6 -35 8 -6 9 -11 13 -11 9
0 -12 -30 19 -30 31 0 6 -8 8 -19 5 -10 -3 -22 1 -26 8 -5 8 -4 10 3 5 8 -4
10 -2 6 8 -3 9 -12 12 -21 9 -11 -4 -14 -2 -9 5 5 8 2 10 -8 6 -9 -4 -18 1
-22 10 -3 9 -21 23 -40 32 -19 9 -32 20 -29 24 3 5 -5 10 -17 12 -13 2 -22 9
-20 16 1 6 -1 11 -5 10 -18 -5 -51 14 -61 35 -10 21 -11 21 -12 2 -1 -18 -2
-18 -11 4 -6 15 -14 21 -25 17 -12 -5 -14 -1 -8 16 6 21 5 22 -11 8 -17 -13
-18 -13 -13 1 5 13 2 16 -12 12 -11 -3 -24 4 -33 17 -9 14 -20 19 -28 15 -8
-5 -10 -4 -5 3 4 7 1 12 -8 12 -10 0 -13 6 -9 17 4 10 2 14 -4 10 -6 -4 -18 0
-26 8 -9 8 -22 15 -31 15 -8 0 -22 10 -31 23 -8 12 -19 21 -22 19 -4 -2 -9 1
-11 8 -2 6 2 9 10 8 7 -2 12 4 10 12 -2 8 0 12 3 8 4 -4 17 -1 29 7 11 8 29
15 39 15 10 0 16 4 13 9 -3 5 1 12 10 15 9 4 13 2 8 -5 -4 -7 -1 -10 7 -7 8 3
13 11 11 17 -1 7 2 10 7 7 5 -4 12 -2 16 4 4 6 10 8 14 6 4 -3 18 4 29 15 12
11 22 16 22 11 0 -5 7 -9 15 -9 8 0 12 4 10 8 -3 3 5 9 16 12 13 4 18 10 14
17 -6 9 -2 9 15 0 18 -10 21 -9 15 1 -6 9 -3 11 8 6 11 -4 14 -2 10 9 -4 10 0
15 8 14 26 -4 40 0 34 10 -4 6 1 7 11 3 13 -5 15 -3 9 8 -4 8 -5 11 0 7 4 -4
15 -2 23 5 13 9 14 9 8 0 -4 -7 -3 -13 2 -13 6 0 13 7 16 16 4 9 13 14 21 10
10 -3 15 1 16 12 0 10 3 12 6 5 2 -7 9 -13 14 -13 6 0 7 5 4 10 -3 6 -1 11 4
11 6 1 17 2 24 3 6 1 11 8 9 16 -3 11 0 11 13 0 13 -11 14 -10 9 5 -5 13 -4
16 4 11 7 -4 12 -2 12 4 0 7 7 7 23 -1 12 -6 19 -8 15 -4 -4 4 0 14 10 21 21
17 18 17 36 -2z m1497 -14 c6 0 7 5 4 11 -4 6 2 5 14 -3 12 -7 21 -19 21 -26
0 -7 4 -11 9 -7 5 3 12 1 16 -5 4 -6 11 -8 16 -4 5 3 9 2 8 -3 -3 -20 2 -34
11 -28 6 3 10 1 10 -5 0 -6 4 -8 10 -5 5 3 15 -5 21 -19 6 -13 17 -22 23 -20
7 3 24 -6 38 -18 14 -13 35 -30 46 -38 16 -10 18 -16 9 -22 -9 -6 -9 -8 2 -8
11 0 11 -3 0 -17 -10 -11 -10 -14 -1 -9 6 4 12 4 13 -1 0 -4 2 -18 3 -30 2
-13 0 -23 -3 -23 -10 0 -4 -71 7 -82 12 -12 4 -41 -9 -32 -5 3 -6 -2 -3 -10 3
-9 10 -16 15 -16 5 0 9 -5 9 -11 0 -5 -6 -7 -12 -3 -10 6 -10 4 0 -7 15 -16
16 -29 1 -29 -5 0 -7 5 -3 12 5 7 3 8 -6 3 -10 -6 -9 -11 5 -22 11 -7 13 -13
6 -13 -7 0 -9 -5 -6 -10 4 -6 11 -8 16 -5 14 9 11 -2 -7 -19 -8 -9 -11 -16 -6
-16 5 0 10 -28 11 -62 1 -34 4 -65 7 -70 3 -4 0 -8 -5 -8 -6 0 -11 -5 -11 -11
0 -5 6 -7 13 -3 6 4 8 3 4 -1 -11 -13 -38 -15 -30 -2 4 6 1 8 -8 5 -16 -6 -41
16 -31 28 4 5 -1 2 -10 -5 -10 -7 -18 -9 -18 -3 0 5 -11 13 -25 16 -14 4 -25
11 -25 16 0 5 -7 6 -17 3 -10 -4 -14 -2 -10 4 4 7 -7 16 -28 23 -22 7 -33 16
-28 23 4 8 1 7 -9 -1 -13 -10 -17 -10 -22 3 -3 9 -14 15 -23 13 -10 -2 -18 2
-18 9 0 6 -4 15 -9 20 -5 5 -6 3 -2 -4 4 -7 2 -13 -3 -13 -6 0 -11 6 -12 13 0
9 -2 9 -6 -1 -4 -10 -9 -8 -19 6 -9 14 -24 19 -43 18 -24 -2 -28 1 -19 11 8
10 5 13 -16 13 -14 0 -26 5 -26 10 0 6 -7 10 -15 10 -8 0 -15 5 -15 11 0 8 -6
7 -17 -2 -9 -8 -14 -9 -11 -4 3 6 0 16 -8 23 -10 9 -14 10 -14 1 0 -7 -8 -3
-18 9 -15 17 -21 19 -32 9 -10 -9 -11 -9 -6 1 4 6 2 13 -3 13 -6 1 -15 2 -20
3 -6 0 -16 8 -23 16 -11 12 -10 12 7 0 17 -12 18 -12 7 0 -7 8 -18 15 -25 16
-7 0 -20 2 -30 2 -11 1 -15 7 -11 13 4 7 1 10 -7 7 -8 -3 -27 6 -44 21 -16 14
-24 19 -17 11 23 -27 12 -33 -12 -7 -16 17 -26 22 -29 14 -3 -7 -6 -4 -6 6 -1
10 -4 16 -8 14 -5 -3 -18 -1 -30 4 -16 6 -21 13 -16 25 5 13 3 15 -8 9 -8 -5
-11 -5 -6 1 5 5 9 7 10 4 1 -3 19 6 40 18 20 13 37 21 37 17 0 -3 10 -1 21 6
18 9 19 13 8 21 -10 6 -7 7 9 3 16 -5 30 -1 44 12 14 12 19 13 13 3 -6 -10 -1
-9 13 3 12 11 26 16 33 11 7 -4 10 -3 6 3 -4 6 1 17 10 24 12 10 14 10 9 2 -4
-7 -2 -13 3 -13 6 0 11 5 11 11 0 5 5 7 10 4 6 -3 10 1 10 10 0 9 5 13 10 10
6 -4 17 -1 25 5 8 7 15 9 15 6 0 -4 7 0 16 9 10 9 26 14 36 12 15 -4 17 -2 8
8 -8 9 -5 14 10 18 11 3 18 1 14 -4 -3 -5 2 -6 10 -3 8 3 17 12 20 20 3 9 10
12 16 9 5 -3 10 -1 10 5 0 7 6 10 13 7 8 -3 20 3 27 13 7 10 19 16 27 13 7 -3
13 1 14 8 0 11 2 11 6 2 2 -7 9 -13 14 -13z m-3429 -305 c3 3 3 -6 1 -20 -3
-13 -10 -22 -15 -19 -6 4 -2 -6 8 -22 11 -15 14 -25 7 -21 -8 5 -10 -4 -8 -33
2 -22 0 -40 -4 -40 -4 0 -7 -9 -8 -20 -1 -11 2 -18 7 -15 14 9 5 -25 -13 -45
-18 -22 -9 -27 12 -7 11 10 12 9 7 -3 -3 -8 -9 -23 -12 -32 -4 -10 -11 -18
-17 -18 -6 0 -3 -6 8 -13 12 -9 15 -19 10 -28 -12 -18 -14 -49 -3 -43 15 10 8
-9 -9 -23 -10 -8 -12 -12 -5 -8 14 7 17 -11 2 -20 -6 -4 -8 -10 -6 -14 7 -11
-58 -8 -66 4 -5 6 -8 6 -8 -2 0 -7 -5 -13 -11 -13 -5 0 -7 4 -4 10 4 6 -4 6
-21 0 -21 -8 -29 -8 -36 2 -6 10 -8 10 -8 1 0 -7 -5 -13 -11 -13 -5 0 -8 3 -6
8 4 6 -48 8 -63 2 -15 -6 -37 -4 -49 5 -11 7 -13 7 -7 -2 4 -7 2 -13 -3 -13
-6 0 -11 6 -11 13 0 7 -3 8 -8 2 -10 -14 -65 -14 -74 -1 -5 8 -8 7 -8 -1 0 -7
-5 -13 -11 -13 -5 0 -7 4 -4 10 4 6 -4 6 -21 0 -21 -8 -29 -8 -36 2 -6 10 -8
10 -8 1 0 -7 -5 -13 -11 -13 -5 0 -7 4 -4 10 7 11 -23 2 -43 -13 -10 -8 -12
-7 -10 4 2 8 -3 13 -11 11 -12 -3 -12 -1 -1 15 22 29 24 29 16 8 -4 -12 6 -5
26 18 18 20 39 37 46 37 7 0 10 5 6 12 -5 7 -3 8 5 4 8 -5 24 4 42 25 17 19
29 27 29 18 1 -8 7 -3 15 11 8 14 14 21 15 16 0 -5 8 1 19 12 10 12 23 22 29
22 7 0 19 11 28 25 9 14 20 22 26 19 5 -3 24 10 42 30 19 19 36 32 40 29 3 -4
6 -1 6 6 0 7 5 9 10 6 6 -3 10 1 10 9 0 9 3 15 8 15 4 -1 14 -1 22 0 13 1 13
2 0 11 -13 8 -12 10 5 11 11 1 25 2 32 2 6 0 9 6 6 13 -3 8 1 14 11 14 9 0 16
7 16 16 0 8 5 12 10 9 6 -3 10 -1 10 5 0 7 7 9 16 6 8 -3 12 -2 9 4 -3 6 -1
10 5 10 6 0 8 5 4 13 -6 9 -5 9 8 0 8 -7 17 -10 20 -8z m3869 -17 c9 -10 24
-18 33 -18 9 0 16 -7 16 -16 0 -8 4 -13 9 -9 5 3 13 -4 16 -15 5 -17 10 -19
21 -9 14 11 15 10 18 -12 0 -7 10 -15 21 -20 14 -5 15 -8 5 -9 -8 -1 -4 -5 10
-9 14 -4 24 -13 23 -19 -2 -6 6 -9 17 -7 11 2 23 -1 26 -7 5 -7 2 -8 -7 -3 -8
4 -5 -1 6 -12 11 -11 22 -19 24 -17 2 2 12 -6 22 -18 13 -14 19 -17 20 -7 0
11 2 11 6 -1 7 -17 44 -49 58 -50 16 -1 94 -77 87 -85 -4 -4 4 -4 17 0 18 5
22 4 16 -6 -6 -9 -3 -11 8 -6 9 3 16 3 16 -1 -4 -22 3 -31 18 -25 10 4 14 2 9
-5 -3 -6 2 -13 12 -16 10 -3 18 -15 18 -27 0 -18 -2 -18 -12 -5 -11 16 -29 23
-20 8 6 -11 -45 -9 -63 3 -10 5 -12 4 -7 -3 4 -7 2 -12 -3 -12 -6 0 -11 6 -11
13 0 7 -3 8 -8 2 -10 -14 -65 -14 -74 -1 -5 8 -8 7 -8 -1 0 -7 -5 -13 -11 -13
-5 0 -8 3 -6 8 4 6 -48 8 -63 2 -15 -6 -37 -4 -49 5 -11 7 -13 7 -7 -2 4 -7 2
-13 -3 -13 -6 0 -11 6 -11 13 0 8 -3 8 -8 2 -8 -12 -22 -13 -39 -2 -7 5 -13 4
-13 0 0 -5 -9 -9 -20 -10 -13 -1 -18 2 -14 10 5 9 3 9 -6 0 -10 -9 -17 -10
-27 -2 -9 8 -13 8 -13 1 0 -16 -52 -4 -70 16 -14 14 -13 15 3 3 15 -12 17 -12
11 3 -3 9 -11 16 -18 16 -6 0 -4 5 4 10 13 9 13 10 0 10 -9 0 -11 3 -5 8 11 8
16 54 5 47 -7 -5 -10 38 -13 193 -1 47 -6 82 -12 82 -7 0 -7 3 0 8 14 10 17
32 4 32 -5 0 -7 4 -4 10 8 13 27 8 46 -12z m-2693 -66 c13 11 14 11 7 -1 -6
-11 -4 -13 9 -8 13 5 19 1 23 -12 3 -13 12 -18 24 -16 11 2 17 0 14 -6 -6 -8
8 -13 28 -10 5 1 6 -3 2 -9 -3 -5 -1 -10 4 -10 6 0 20 -9 32 -21 11 -11 29
-21 39 -22 14 -1 16 -4 9 -14 -8 -9 -6 -11 10 -8 11 2 24 -1 27 -7 4 -7 2 -8
-4 -4 -19 12 -14 1 10 -20 12 -10 18 -13 13 -5 -5 9 -4 12 4 10 7 -3 11 -8 9
-11 -2 -4 12 -19 31 -33 26 -19 37 -22 43 -12 6 9 8 8 8 -4 0 -16 26 -34 43
-30 5 1 6 -2 4 -6 -3 -5 7 -17 21 -27 15 -12 22 -14 17 -5 -5 8 6 2 24 -13 18
-16 37 -28 41 -28 5 0 6 -8 3 -17 -6 -16 -5 -17 13 -4 18 14 18 14 1 -5 -15
-16 -19 -17 -27 -4 -5 8 -10 10 -10 5 0 -14 -63 -14 -72 0 -5 6 -8 6 -8 -2 0
-7 -5 -13 -11 -13 -5 0 -8 3 -6 8 4 6 -48 8 -63 2 -15 -6 -37 -4 -49 5 -11 7
-13 7 -7 -2 4 -7 2 -13 -3 -13 -6 0 -11 6 -11 13 0 7 -3 8 -8 2 -10 -14 -65
-14 -74 -1 -5 8 -8 7 -8 -1 0 -7 -5 -13 -11 -13 -5 0 -8 3 -6 8 4 6 -48 8 -63
2 -15 -6 -37 -4 -49 5 -11 7 -13 7 -7 -2 4 -7 2 -13 -3 -13 -6 0 -11 6 -11 13
0 8 -3 8 -8 2 -8 -12 -22 -13 -39 -2 -7 5 -13 4 -13 -2 0 -10 -32 -7 -52 5 -8
5 -9 2 -4 -11 6 -18 6 -18 -12 -2 -14 13 -21 14 -30 5 -7 -7 -12 -8 -13 -2 0
5 -2 17 -4 27 -2 13 1 17 12 13 13 -5 14 -4 4 8 -8 9 -8 15 -1 18 5 1 12 14
15 27 2 14 8 27 13 30 5 3 8 16 7 28 -1 12 3 21 9 20 6 -1 10 4 9 11 -2 6 1
12 6 12 6 0 8 9 6 20 -4 19 6 25 30 20 6 -1 5 4 -2 11 -10 10 -9 15 5 26 16
12 15 13 -3 7 -19 -5 -19 -5 -1 10 10 8 15 19 11 25 -3 6 2 11 12 12 10 0 13
3 7 5 -9 4 -9 11 0 29 8 18 12 20 14 9 3 -13 6 -13 20 -2z m1511 -22 c9 -14
11 -21 4 -16 -7 4 -13 2 -13 -3 0 -6 5 -11 11 -11 5 0 7 -4 4 -10 -3 -5 0 -7
7 -5 8 3 14 -2 15 -12 3 -44 8 -61 15 -57 8 5 10 0 12 -28 1 -7 8 -19 16 -26
8 -8 9 -11 3 -7 -7 3 -13 1 -13 -4 0 -6 7 -11 15 -11 8 0 15 -5 15 -11 0 -5
-4 -7 -10 -4 -6 3 -7 -1 -4 -9 3 -9 11 -13 17 -9 6 4 8 0 4 -10 -4 -11 -1 -17
9 -17 8 0 12 -5 9 -10 -8 -12 4 -52 13 -46 4 2 8 -7 9 -21 1 -19 -1 -22 -8
-12 -6 10 -11 11 -16 3 -5 -6 -17 -10 -28 -8 -52 10 -76 11 -80 4 -5 -9 -36
-6 -54 5 -10 5 -12 4 -7 -3 4 -7 2 -12 -3 -12 -6 0 -11 6 -11 13 0 7 -3 8 -8
2 -10 -14 -65 -14 -74 -1 -5 8 -8 7 -8 -1 0 -7 -5 -13 -11 -13 -5 0 -8 3 -6 8
4 6 -48 8 -63 2 -15 -6 -37 -4 -49 5 -11 7 -13 7 -7 -2 4 -7 2 -13 -3 -13 -6
0 -11 6 -11 13 0 7 -3 8 -8 2 -10 -14 -65 -14 -74 -1 -5 8 -8 7 -8 -1 0 -7 -5
-13 -11 -13 -5 0 -7 5 -3 12 4 7 3 8 -4 4 -20 -12 -51 -15 -57 -5 -4 5 -13 5
-25 -1 -15 -8 -22 -6 -30 7 -11 17 -11 17 -6 1 3 -10 1 -18 -5 -18 -6 0 -9 8
-7 18 2 9 8 17 14 17 6 0 18 8 28 18 10 9 23 14 29 10 6 -4 8 0 4 10 -4 11 -2
14 9 10 7 -3 14 0 14 6 0 6 7 11 15 11 7 0 19 8 24 18 9 15 12 15 21 2 9 -12
10 -12 8 5 -2 12 3 20 12 20 8 1 14 7 12 14 -2 8 3 11 12 8 9 -4 17 2 22 15 4
14 9 17 14 8 5 -8 9 -7 14 5 3 9 10 13 16 10 5 -3 10 1 10 9 0 8 5 18 12 22 7
5 9 2 4 -7 -4 -8 -1 -6 7 3 8 10 17 15 20 11 4 -3 7 -1 7 6 0 7 5 9 10 6 6 -3
10 1 10 10 0 9 5 13 10 10 6 -3 10 -3 10 2 0 4 13 17 28 28 27 19 27 19 13 0
-7 -11 -2 -7 13 8 14 16 31 25 37 22 6 -4 13 2 16 14 3 11 9 18 14 15 5 -3 9
0 9 6 0 19 32 6 49 -20z m204 -32 c17 -2 24 -7 22 -19 -2 -12 3 -15 21 -11 16
3 24 0 24 -9 0 -11 2 -11 10 1 9 13 10 13 11 0 1 -8 1 -18 0 -22 0 -4 6 -5 15
-1 9 3 20 0 25 -8 7 -12 9 -12 9 1 1 9 5 6 10 -7 6 -15 15 -21 25 -17 8 3 15
1 15 -6 0 -6 5 -8 10 -5 6 3 10 1 10 -5 0 -6 4 -9 9 -5 5 3 12 1 16 -5 4 -6
11 -7 17 -4 7 5 9 2 5 -8 -4 -12 -1 -14 14 -11 12 3 19 0 19 -8 0 -11 2 -11
10 1 8 13 10 12 10 -3 0 -10 5 -15 10 -12 6 3 10 1 10 -5 0 -6 5 -8 10 -5 6 3
13 -1 16 -9 3 -9 10 -13 16 -10 5 3 17 -1 26 -9 9 -8 28 -20 41 -27 19 -10 22
-10 16 2 -3 7 3 2 14 -11 19 -21 21 -21 22 -5 1 16 2 16 6 2 2 -9 11 -19 19
-22 10 -4 13 -1 9 7 -4 6 3 1 15 -13 12 -14 18 -18 14 -10 -7 13 -5 13 9 1 9
-7 17 -10 17 -7 0 4 6 1 14 -6 12 -11 12 -14 -1 -22 -10 -5 -18 -4 -24 5 -7
12 -9 12 -9 0 0 -10 -3 -11 -13 -2 -8 6 -17 8 -20 4 -12 -12 -58 -12 -51 -1 5
7 2 8 -7 2 -21 -13 -51 -16 -44 -4 4 6 -3 6 -21 0 -21 -8 -29 -8 -36 2 -6 10
-8 10 -8 1 0 -7 -5 -13 -11 -13 -5 0 -8 3 -6 8 4 6 -48 8 -63 2 -15 -6 -37 -4
-49 5 -11 7 -13 7 -7 -2 4 -7 2 -13 -3 -13 -6 0 -11 6 -11 13 0 8 -3 8 -8 2
-8 -12 -22 -13 -39 -2 -7 5 -13 4 -13 0 0 -5 -9 -9 -20 -10 -13 -1 -18 2 -13
10 4 8 2 8 -9 -1 -13 -10 -19 -10 -33 4 -9 9 -14 23 -11 30 3 8 1 14 -4 14 -6
0 -10 5 -10 11 0 5 5 7 12 3 7 -4 8 -3 4 5 -4 6 -12 9 -17 6 -5 -4 -9 4 -9 17
0 18 -2 20 -9 8 -7 -9 -9 -2 -7 24 2 26 0 36 -9 33 -6 -3 -12 0 -13 6 -6 46
-16 77 -24 77 -6 0 -8 9 -5 20 3 11 -2 25 -12 32 -14 12 -15 11 -2 -4 7 -10 9
-18 4 -18 -5 0 -15 11 -21 25 -9 20 -9 23 4 18 10 -4 13 0 8 13 -5 18 -5 18 9
2 8 -10 26 -19 40 -20z m-1889 6 c5 -13 -11 -13 -32 0 -11 7 -11 4 0 -13 11
-18 11 -23 0 -30 -8 -4 -13 -12 -12 -17 1 -8 -2 -21 -15 -56 -1 -5 -3 -13 -4
-19 0 -5 -5 -7 -11 -4 -6 3 -7 -1 -4 -9 3 -9 1 -16 -5 -16 -6 0 -11 -5 -11
-11 0 -5 6 -7 13 -3 8 5 8 3 -2 -9 -7 -9 -17 -15 -21 -12 -5 3 -6 -4 -3 -15 3
-12 0 -20 -6 -20 -7 0 -9 -4 -6 -10 3 -5 0 -10 -7 -10 -9 0 -9 -3 2 -10 9 -6
10 -10 3 -10 -6 0 -14 -9 -18 -19 -3 -10 -15 -21 -25 -24 -12 -3 -18 -1 -14 5
4 5 -4 5 -16 -2 -18 -10 -24 -9 -31 1 -6 10 -9 11 -9 2 0 -7 -5 -13 -11 -13
-5 0 -8 3 -6 8 4 6 -48 8 -63 2 -15 -6 -37 -4 -49 5 -11 7 -13 7 -7 -2 4 -7 2
-13 -3 -13 -6 0 -11 6 -11 13 0 7 -3 8 -8 2 -10 -14 -65 -14 -74 -1 -5 8 -8 7
-8 -1 0 -7 -5 -13 -11 -13 -5 0 -7 4 -4 10 4 6 -4 6 -21 0 -21 -8 -29 -8 -36
2 -6 10 -8 10 -8 1 0 -7 -5 -13 -11 -13 -5 0 -7 5 -3 11 4 8 0 8 -15 0 -16 -9
-21 -9 -21 1 0 8 -3 9 -8 3 -4 -5 -17 -11 -29 -12 -23 -3 -23 -3 -3 17 11 11
25 20 30 20 6 0 13 7 16 15 5 12 10 13 19 5 10 -9 16 -6 24 8 6 11 33 28 61
38 27 10 50 23 50 28 0 6 5 4 10 -4 8 -12 10 -10 10 9 0 19 3 22 12 13 8 -8
16 -6 30 10 10 12 18 16 18 10 0 -7 9 -3 21 9 11 11 27 18 35 15 8 -3 14 -1
14 5 0 5 14 15 30 20 17 6 30 16 30 21 0 6 8 4 17 -3 11 -9 14 -10 10 -2 -5 8
1 15 18 19 14 3 25 10 25 15 0 5 12 9 26 9 14 0 23 4 19 10 -3 6 3 10 14 10
12 0 21 4 21 10 0 5 7 6 17 3 10 -4 14 -2 10 4 -4 6 -1 13 5 16 22 8 47 3 52
-9z m491 -162 c-3 -3 -11 0 -18 7 -9 10 -8 11 6 5 10 -3 15 -9 12 -12z m-1135
-132 c0 -5 -5 -10 -11 -10 -5 0 -7 5 -4 10 3 6 8 10 11 10 2 0 4 -4 4 -10z
m2384 -28 c3 -5 -1 -9 -9 -9 -8 0 -12 4 -9 9 3 4 7 8 9 8 2 0 6 -4 9 -8z
m-3211 -132 c4 0 5 5 1 11 -4 8 -1 8 12 2 11 -5 42 -8 69 -8 28 1 56 -3 63 -8
9 -7 17 -6 24 1 16 16 41 16 32 0 -4 -6 3 -4 16 5 17 12 28 13 42 6 10 -5 18
-6 18 -2 0 4 5 1 10 -7 6 -9 10 -10 10 -3 0 14 42 13 52 -2 5 -6 8 -6 8 2 0
15 50 13 50 -2 0 -5 4 -4 8 3 5 7 19 11 32 9 24 -4 53 -34 45 -47 -3 -5 2 -10
9 -13 8 -3 20 -16 26 -28 10 -17 9 -20 -2 -14 -7 3 -5 0 6 -9 10 -8 15 -19 12
-25 -4 -5 -1 -13 5 -17 8 -5 10 -2 5 7 -4 8 0 5 8 -6 9 -11 14 -26 11 -34 -3
-9 -3 -12 1 -9 7 8 34 -14 28 -23 -2 -4 3 -12 11 -19 8 -7 15 -19 15 -26 0 -8
6 -14 13 -14 8 0 7 -4 -3 -10 -13 -8 -12 -10 3 -10 10 0 15 -4 12 -10 -3 -5
-1 -10 4 -10 6 0 11 -7 11 -15 0 -8 3 -14 8 -14 19 3 25 -2 12 -11 -13 -8 -13
-10 2 -10 11 0 15 -5 12 -15 -4 -8 -1 -15 7 -15 7 0 9 -3 6 -6 -4 -4 3 -15 15
-25 14 -13 17 -19 7 -20 -8 0 0 -7 16 -14 17 -8 23 -14 14 -15 -9 0 -16 -7
-16 -15 0 -11 4 -12 13 -4 14 12 23 1 19 -23 -2 -10 1 -18 6 -18 5 0 13 -8 16
-17 4 -10 14 -24 22 -31 10 -9 11 -11 2 -6 -9 5 -12 3 -7 -4 4 -7 15 -12 24
-12 13 0 13 -2 -4 -15 -19 -15 -19 -15 0 -8 16 5 18 3 13 -11 -4 -10 -3 -15 3
-11 6 3 10 -1 10 -9 0 -9 9 -21 19 -28 16 -10 18 -15 8 -27 -9 -12 -9 -13 1
-7 7 4 12 1 12 -9 0 -8 7 -18 16 -22 8 -3 13 -12 10 -20 -3 -8 -1 -11 4 -8 6
3 10 -1 10 -9 0 -9 5 -16 11 -16 6 0 9 -6 6 -14 -3 -8 5 -22 18 -32 17 -13 21
-20 12 -26 -8 -5 -6 -9 6 -14 9 -3 17 -13 17 -21 0 -8 5 -11 10 -8 6 4 13 -7
16 -24 4 -17 12 -31 20 -31 7 0 11 -8 9 -19 -2 -11 4 -26 13 -33 16 -12 16
-11 2 7 -14 18 -14 19 2 7 9 -7 15 -22 13 -32 -2 -11 1 -23 7 -26 7 -5 8 -2 4
7 -4 8 -1 5 8 -5 8 -10 13 -23 10 -27 -3 -5 0 -9 6 -9 6 0 15 -12 20 -26 6
-14 14 -23 18 -20 10 6 10 -40 0 -50 -5 -4 -8 -1 -8 7 0 8 -10 20 -21 27 -16
10 -18 17 -10 25 6 6 11 16 11 22 0 5 -5 2 -11 -7 -12 -22 -29 -23 -29 -2 0 8
-4 12 -10 9 -5 -3 -10 -2 -10 4 0 5 -9 13 -20 16 -11 3 -20 14 -20 22 0 9 -3
14 -6 10 -8 -7 -28 12 -37 35 -4 11 -12 15 -22 12 -10 -4 -15 0 -15 11 0 10
-5 13 -12 9 -8 -5 -9 -2 -5 10 4 11 3 15 -4 10 -6 -3 -25 9 -43 27 -18 19 -49
47 -69 63 -20 17 -33 35 -29 40 3 6 -2 5 -11 -3 -15 -12 -17 -12 -11 3 3 9 2
16 -3 16 -16 0 -63 47 -55 55 4 4 2 6 -3 5 -23 -5 -35 1 -35 17 0 9 -3 14 -6
10 -9 -8 -52 36 -46 47 3 5 -3 6 -12 3 -14 -5 -17 -3 -12 8 5 14 -11 21 -37
16 -5 -1 -6 3 -2 8 3 6 -4 15 -15 21 -11 6 -17 16 -14 22 5 7 1 9 -9 5 -10 -3
-18 -2 -18 3 -1 6 -2 14 -3 19 0 5 -5 13 -10 18 -5 5 -6 3 -2 -4 13 -23 -6
-14 -36 17 -15 17 -32 30 -37 30 -5 0 -13 9 -16 21 -4 12 -13 18 -20 15 -9 -3
-12 0 -8 10 3 9 -1 14 -12 14 -9 0 -13 5 -10 10 3 6 -1 10 -9 10 -9 0 -16 5
-16 10 0 6 -3 9 -7 8 -13 -4 -63 45 -63 61 0 13 -2 14 -9 2 -7 -11 -10 -9 -13
9 -2 13 -11 24 -21 26 -10 1 -24 10 -31 20 -8 11 -18 14 -26 9 -9 -5 -11 -4
-6 3 4 7 2 12 -3 12 -6 0 -11 4 -11 10 0 13 -32 50 -43 50 -12 0 -37 27 -37
39 0 6 -5 11 -11 11 -5 0 -7 -6 -3 -12 3 -7 -17 11 -45 40 -29 29 -49 57 -46
61 3 5 -4 7 -15 4 -12 -3 -20 0 -20 6 0 7 -5 9 -12 5 -8 -5 -9 -2 -5 9 4 10 2
16 -6 14 -7 -1 -11 4 -9 11 1 6 -5 12 -13 12 -8 0 -15 2 -15 4 0 2 -3 11 -6
19 -6 17 11 18 35 3 9 -6 12 -5 8 1 -4 6 4 11 18 11 14 0 25 -6 25 -12 0 -6 5
-3 11 7 8 14 14 16 22 8 6 -6 15 -11 20 -11z m809 -2 c16 16 41 16 32 0 -4 -6
3 -4 16 5 17 12 28 13 42 6 10 -5 18 -6 18 -2 0 4 5 1 10 -7 5 -8 10 -10 10
-4 0 6 11 12 25 12 14 0 25 -6 25 -12 0 -6 5 -4 10 4 8 12 13 13 29 3 13 -8
22 -9 26 -3 3 6 13 10 21 10 9 0 12 -5 8 -12 -4 -6 3 -4 16 5 14 9 30 13 39 9
9 -5 39 -7 66 -7 28 1 56 -3 64 -9 11 -8 13 -8 8 0 -4 7 2 12 18 12 13 0 26
-7 29 -15 3 -8 10 -11 16 -8 7 4 7 -3 0 -22 -10 -27 -10 -27 6 -8 15 18 16 18
10 2 -5 -17 7 -54 23 -67 8 -6 32 -70 34 -90 1 -8 8 -19 15 -23 6 -4 12 -17
12 -27 0 -11 5 -20 11 -20 5 0 7 -4 4 -10 -3 -5 -1 -10 4 -10 6 0 11 -5 11
-11 0 -5 -6 -7 -12 -3 -7 4 -3 -4 10 -18 14 -15 24 -40 25 -61 1 -19 4 -33 7
-32 3 2 12 0 20 -6 13 -7 13 -9 0 -9 -12 -1 -11 -3 3 -11 19 -11 24 -34 5 -24
-7 4 -3 -2 10 -13 12 -11 17 -22 11 -24 -6 -2 -2 -13 10 -27 11 -13 18 -28 15
-32 -3 -5 0 -9 6 -9 6 0 8 -4 5 -10 -3 -5 -2 -10 4 -10 6 0 7 -7 4 -17 -4 -10
-2 -14 5 -9 6 3 13 2 17 -4 3 -5 0 -10 -7 -10 -10 0 -10 -2 1 -9 8 -5 16 -15
17 -23 5 -31 10 -43 26 -62 10 -10 15 -23 12 -28 -3 -5 4 -25 16 -45 11 -20
19 -42 16 -49 -3 -7 0 -16 6 -20 7 -5 8 -2 3 7 -5 8 -4 11 1 6 5 -5 9 -12 9
-15 0 -4 4 -13 9 -20 4 -7 5 -20 2 -28 -3 -8 -2 -12 4 -9 5 3 14 -4 20 -16 8
-15 9 -19 1 -15 -17 11 -13 -5 4 -18 9 -6 17 -21 18 -34 0 -12 6 -22 11 -22 5
0 6 -3 3 -7 -4 -3 1 -12 11 -20 10 -9 11 -11 2 -7 -13 7 -13 5 -2 -9 8 -9 11
-21 8 -26 -4 -5 -1 -13 5 -17 8 -5 9 -3 4 6 -5 9 -4 11 4 6 6 -4 9 -12 6 -17
-4 -5 -1 -9 5 -9 6 0 8 -5 4 -11 -3 -6 -1 -15 5 -19 7 -4 13 -20 15 -35 2 -16
8 -31 15 -33 6 -2 9 -8 5 -13 -3 -5 -1 -9 4 -9 5 0 9 -7 9 -16 0 -14 -2 -14
-14 2 -8 11 -20 17 -26 16 -7 -2 -9 -1 -5 3 9 10 -15 34 -26 27 -5 -3 -6 -1
-3 5 6 10 -28 45 -36 37 -2 -3 -7 2 -11 11 -4 11 -2 14 7 9 8 -5 8 -2 -2 9 -7
9 -17 15 -21 12 -12 -8 -43 33 -34 46 4 8 3 10 -4 5 -6 -4 -28 10 -49 30 -21
20 -32 33 -24 29 9 -5 12 -4 7 3 -4 7 -14 12 -22 12 -8 0 -14 6 -14 14 0 8 -7
17 -16 20 -8 3 -12 11 -8 17 4 7 3 9 -4 5 -6 -3 -17 3 -25 14 -7 11 -17 17
-20 14 -4 -4 -4 3 -2 15 2 12 0 19 -4 16 -13 -8 -63 44 -55 57 4 7 3 8 -4 4
-6 -3 -16 3 -22 14 -6 11 -17 20 -25 20 -9 0 -12 6 -9 15 5 11 2 13 -10 9 -14
-6 -21 5 -17 28 0 5 -5 7 -12 5 -6 -1 -11 4 -9 11 1 8 -2 11 -8 7 -5 -3 -10
-1 -10 4 0 6 -7 11 -15 11 -8 0 -15 5 -15 10 0 6 -25 35 -55 65 -30 30 -55 57
-55 60 0 3 -11 16 -25 29 -13 13 -22 26 -18 29 6 6 -11 11 -29 9 -3 -1 -9 5
-12 14 -4 10 -2 13 7 8 7 -4 9 -3 4 2 -8 9 -12 10 -38 13 -8 1 -7 7 2 18 8 9
9 14 2 10 -16 -10 -106 80 -97 96 4 7 4 9 -1 5 -4 -4 -14 0 -22 10 -8 9 -11
11 -7 3 5 -10 3 -12 -5 -7 -7 5 -10 15 -6 23 4 13 3 14 -9 4 -13 -11 -15 -9
-11 8 2 12 1 19 -4 17 -4 -3 -15 6 -25 19 -10 14 -22 22 -27 19 -5 -3 -6 3 -2
13 3 10 3 15 -2 11 -9 -8 -35 15 -35 32 0 6 -4 8 -10 5 -6 -3 -10 4 -10 17 0
18 -2 20 -10 8 -9 -13 -14 -7 -11 13 1 7 -15 11 -31 8 -5 0 -7 2 -7 7 3 19 -2
33 -11 27 -5 -3 -10 1 -10 10 0 9 -4 13 -10 10 -5 -3 -10 1 -10 10 0 10 -5 13
-12 9 -8 -5 -9 -2 -4 12 4 10 4 15 0 12 -3 -4 -16 2 -27 13 -17 16 -19 21 -7
32 10 10 11 9 5 -1 -6 -11 -3 -11 15 0 18 10 24 10 27 1 3 -10 8 -9 20 3 14
13 17 13 34 -2 15 -14 22 -15 31 -6z m873 7 c28 1 56 -3 63 -8 9 -7 17 -6 24
1 16 16 41 16 32 0 -4 -6 3 -4 16 5 17 12 28 13 42 6 10 -5 18 -6 18 -2 0 4 5
1 10 -7 5 -8 10 -10 10 -4 0 6 11 12 25 12 14 0 25 -6 25 -12 0 -6 5 -4 10 4
8 12 13 13 29 3 13 -8 22 -9 26 -3 3 6 13 10 21 10 9 0 12 -5 8 -12 -4 -6 3
-4 16 5 14 9 30 13 39 9 9 -5 39 -7 66 -7 28 1 56 -3 64 -9 11 -8 13 -8 8 0
-4 7 2 12 18 12 14 0 25 -6 25 -12 0 -6 5 -4 10 4 9 13 10 13 11 0 4 -59 3
-107 -3 -103 -5 2 -8 -1 -8 -7 0 -6 -5 -8 -12 -4 -9 5 -9 2 1 -9 7 -9 9 -17 4
-17 -5 0 -9 -9 -9 -20 0 -11 5 -20 11 -20 6 0 6 -3 -1 -8 -14 -9 -24 -61 -13
-68 4 -2 6 -11 3 -19 -4 -8 -10 -13 -14 -10 -4 3 -11 -2 -14 -11 -3 -8 -2 -12
4 -9 6 3 10 1 10 -4 0 -6 -6 -11 -12 -11 -9 0 -8 -4 2 -10 9 -6 10 -10 3 -10
-7 0 -10 -9 -8 -22 3 -12 -1 -26 -8 -31 -9 -7 -9 -10 0 -14 10 -3 9 -9 -3 -20
-13 -13 -13 -17 -2 -24 7 -5 8 -9 3 -9 -11 0 -15 -27 -18 -117 -1 -28 -6 -51
-12 -50 -6 1 -10 -21 -10 -51 0 -32 -4 -51 -10 -48 -6 2 -11 -5 -11 -15 0 -14
3 -16 16 -6 10 8 9 4 -3 -9 -10 -12 -15 -28 -11 -38 3 -9 1 -16 -5 -16 -6 0
-8 -7 -4 -17 5 -12 3 -14 -8 -8 -11 7 -12 6 -2 -6 14 -17 14 -30 1 -46 -7 -9
-7 -13 0 -13 6 0 9 -7 6 -15 -4 -8 -13 -15 -21 -15 -8 0 -11 -5 -8 -10 4 -6
11 -8 16 -5 5 3 6 -1 3 -9 -3 -9 -11 -13 -18 -9 -7 5 -7 2 1 -8 8 -9 9 -20 3
-29 -5 -8 -7 -23 -4 -34 5 -14 3 -16 -7 -10 -12 6 -12 5 0 -9 8 -11 9 -17 3
-17 -7 0 -9 -7 -5 -17 4 -11 3 -14 -5 -9 -7 4 -12 3 -12 -3 0 -5 6 -11 13 -14
9 -3 9 -8 -2 -18 -12 -12 -13 -12 -6 0 6 10 4 12 -4 7 -9 -6 -9 -11 0 -22 6
-8 7 -14 2 -14 -5 0 -8 -21 -7 -46 1 -34 -1 -44 -12 -40 -8 3 -11 0 -7 -10 3
-8 -1 -14 -8 -14 -9 0 -7 -4 4 -11 18 -10 18 -11 0 -26 -10 -8 -12 -12 -5 -8
13 7 17 -7 5 -19 -5 -4 -8 -12 -8 -17 0 -5 -4 -9 -10 -9 -5 0 -10 13 -10 29 1
20 -3 27 -12 24 -8 -3 -13 -2 -12 3 5 28 -2 54 -13 48 -8 -5 -9 -2 -5 9 4 12
1 17 -11 17 -13 0 -14 2 -3 9 11 7 9 13 -8 30 -22 22 -28 37 -11 26 6 -3 10
-1 10 4 0 6 -6 11 -14 11 -10 0 -12 7 -8 22 3 14 2 19 -6 14 -8 -5 -12 2 -12
18 0 14 -5 26 -11 26 -6 0 -9 7 -6 15 4 8 1 17 -5 21 -7 5 -8 2 -3 -7 5 -8 4
-11 -1 -6 -5 5 -9 18 -9 30 -1 14 -6 21 -15 19 -12 -3 -12 -1 -3 9 10 10 8 16
-9 31 -12 10 -16 18 -9 18 8 0 7 6 -4 16 -9 9 -14 23 -11 31 4 8 1 11 -5 7 -8
-4 -9 1 -4 16 4 14 3 20 -3 16 -5 -3 -15 1 -22 9 -10 12 -9 15 6 16 18 0 18 1
1 8 -10 4 -17 9 -15 12 2 3 -5 18 -16 33 -10 16 -14 26 -9 23 5 -4 10 0 10 8
0 8 -5 13 -11 12 -6 -1 -10 4 -8 11 1 6 -2 12 -8 12 -5 0 -10 9 -10 20 0 11
-4 20 -8 20 -4 0 -9 10 -9 22 -1 13 -7 24 -13 26 -5 2 -8 8 -4 13 7 13 -21 51
-32 41 -4 -4 -3 0 4 10 10 12 10 18 1 24 -8 5 -9 3 -4 -6 5 -9 4 -11 -4 -6 -6
4 -9 12 -5 17 3 6 -2 20 -13 32 -16 19 -16 20 0 8 15 -12 17 -12 11 3 -3 9
-12 16 -19 16 -8 0 -11 8 -8 20 4 15 0 20 -13 20 -16 0 -17 2 -4 10 8 5 10 10
4 10 -7 0 -15 11 -18 25 -4 17 -11 23 -19 18 -7 -4 -5 2 3 12 9 11 10 16 3 11
-9 -5 -13 1 -13 19 0 18 -4 24 -12 19 -8 -5 -7 0 2 11 9 11 10 16 3 11 -7 -4
-13 -2 -13 3 0 21 -3 26 -21 39 -12 8 -16 21 -13 38 3 17 1 23 -7 19 -8 -5 -9
-1 -4 15 4 14 3 20 -3 16 -12 -7 -25 22 -15 37 4 6 0 8 -9 5 -8 -4 -15 0 -15
8 0 7 4 11 9 8 4 -3 5 2 2 10 -3 9 -10 16 -16 16 -5 0 -6 5 -3 10 3 6 0 10 -7
10 -9 0 -9 3 2 10 13 8 12 10 -2 10 -10 0 -18 6 -18 14 0 15 3 16 87 18 28 1
49 6 46 11 -3 5 2 5 13 0 11 -5 42 -8 69 -8z m995 2 c0 4 5 1 10 -7 5 -8 10
-10 10 -4 0 6 11 12 25 12 14 0 25 -6 25 -12 0 -6 5 -4 10 4 8 12 13 13 29 3
13 -8 22 -9 26 -3 9 15 38 12 29 -2 -6 -10 -4 -10 7 0 7 6 19 12 27 12 8 0 10
-5 6 -12 -6 -10 -4 -10 7 0 17 15 43 16 33 0 -4 -6 3 -4 16 5 17 12 28 13 42
6 10 -5 18 -6 18 -2 0 4 5 1 10 -7 5 -8 10 -10 10 -4 0 6 11 12 25 12 14 0 25
-6 25 -12 0 -6 5 -4 10 4 8 12 13 13 29 3 13 -8 22 -9 26 -3 3 6 13 10 21 10
10 0 12 -5 8 -12 -6 -10 -5 -10 7 -1 18 14 61 13 71 -2 5 -6 8 -3 8 8 0 9 5
17 10 17 6 0 9 -5 8 -11 -2 -6 3 -14 11 -17 9 -3 11 0 6 8 -5 8 -4 11 3 6 14
-8 11 -45 -3 -43 -5 1 -9 -6 -7 -17 2 -13 -1 -16 -10 -10 -9 5 -8 2 2 -11 9
-11 10 -16 2 -11 -12 7 -34 -31 -26 -45 2 -4 -3 -9 -11 -13 -8 -3 -15 -11 -15
-18 0 -9 3 -8 10 2 7 10 10 11 10 2 0 -7 -7 -15 -16 -19 -8 -3 -13 -12 -9 -20
4 -11 1 -13 -11 -9 -14 5 -15 4 -4 -9 9 -11 9 -15 1 -15 -7 0 -9 -4 -6 -10 3
-5 1 -10 -6 -10 -8 0 -8 -4 1 -15 11 -13 10 -14 -4 -9 -12 4 -16 0 -16 -15 0
-12 -4 -21 -9 -21 -4 0 -7 -11 -6 -25 2 -14 -2 -23 -8 -22 -7 1 -12 -10 -11
-25 0 -15 -5 -26 -10 -25 -6 1 -10 -4 -8 -10 1 -7 -2 -13 -7 -13 -6 0 -8 -9
-6 -21 4 -18 2 -19 -12 -7 -13 10 -15 10 -9 0 4 -7 2 -20 -6 -29 -9 -12 -9
-15 -1 -9 9 5 11 2 7 -8 -3 -9 -10 -16 -16 -16 -5 0 -6 -4 -3 -10 3 -5 1 -10
-5 -10 -6 0 -8 -4 -5 -10 3 -5 1 -10 -5 -10 -6 0 -8 -5 -5 -11 4 -6 -1 -17
-11 -25 -11 -9 -13 -13 -6 -9 6 3 12 1 12 -4 0 -6 -5 -11 -11 -11 -6 0 -9 -9
-6 -19 4 -15 1 -18 -12 -14 -9 4 -13 3 -9 -2 4 -4 3 -14 -3 -21 -6 -8 -9 -21
-5 -29 3 -9 2 -14 -3 -11 -5 3 -12 -1 -15 -10 -4 -10 -2 -13 7 -9 6 4 5 1 -4
-7 -9 -7 -17 -16 -18 -20 -5 -23 -14 -37 -20 -33 -4 2 -8 -2 -8 -10 0 -8 5
-11 11 -8 6 4 5 0 -1 -9 -7 -8 -10 -18 -6 -21 3 -4 -1 -7 -10 -7 -11 0 -14 -5
-10 -15 3 -9 -3 -23 -13 -31 -11 -9 -13 -12 -6 -9 11 6 11 3 0 -16 -7 -13 -15
-26 -18 -29 -3 -3 -12 -24 -19 -47 -8 -23 -18 -40 -22 -37 -4 2 -6 -5 -4 -16
2 -11 0 -20 -5 -20 -10 0 -30 -56 -23 -64 4 -3 1 -6 -6 -6 -8 0 -11 -6 -7 -16
3 -8 2 -12 -4 -9 -6 3 -11 1 -11 -4 -1 -6 -3 -15 -4 -21 -1 -5 -3 -15 -4 -21
0 -5 -7 -7 -13 -3 -10 5 -10 4 0 -7 10 -11 8 -17 -10 -32 -13 -10 -16 -15 -8
-11 12 6 13 5 3 -8 -7 -8 -10 -18 -6 -21 3 -4 -2 -7 -13 -7 -16 0 -17 -2 -4
-10 11 -7 11 -10 2 -10 -7 0 -10 -4 -7 -10 3 -5 1 -10 -5 -10 -6 0 -8 -4 -5
-10 3 -5 4 -10 1 -10 -2 0 -11 14 -20 30 -8 17 -11 28 -7 26 4 -3 8 1 8 8 0 8
-5 12 -11 10 -7 -3 -11 14 -10 46 0 27 -3 50 -7 50 -9 0 -6 20 5 39 7 11 5 13
-6 9 -8 -4 -15 0 -15 8 0 7 4 11 9 8 4 -3 8 0 8 5 0 6 -5 11 -12 11 -6 0 -8 3
-5 7 4 3 1 13 -6 21 -10 13 -9 14 1 8 10 -6 10 -2 0 19 -10 22 -9 28 3 36 12
7 11 9 -3 9 -9 0 -20 4 -23 10 -3 6 1 7 10 4 11 -5 14 -2 9 10 -3 9 -11 16
-18 16 -6 0 -4 5 4 10 8 5 10 10 4 10 -7 0 -12 18 -12 41 -1 22 -6 47 -13 55
-10 13 -10 17 2 25 10 6 10 9 2 9 -7 0 -13 5 -13 11 0 5 6 7 13 4 6 -4 3 1 -7
9 -20 16 -20 16 0 17 16 0 16 2 3 7 -11 5 -15 16 -13 35 1 15 -1 27 -6 27 -4
0 -7 8 -5 18 1 9 -2 28 -7 42 -16 40 -18 60 -6 60 7 0 6 5 -1 14 -7 8 -11 20
-10 28 3 26 -1 39 -11 33 -6 -3 -7 1 -4 9 3 9 11 13 18 9 6 -3 2 4 -9 17 -11
13 -14 20 -8 16 9 -5 11 -2 7 8 -3 9 -9 14 -13 12 -4 -3 -7 4 -7 14 0 10 4 16
9 13 5 -3 4 4 -2 16 -7 11 -9 21 -6 21 3 0 1 10 -6 21 -8 17 -8 20 1 14 7 -5
6 2 -3 16 -8 13 -14 41 -13 62 1 20 -2 37 -7 37 -5 0 -7 6 -4 14 3 7 0 19 -6
26 -9 10 -9 11 1 6 14 -8 15 -5 6 18 -3 9 -9 14 -13 11 -4 -2 -8 2 -8 10 0 8
4 12 8 10 4 -3 9 2 12 10 4 8 1 12 -7 9 -9 -3 -13 9 -14 43 -2 26 -5 55 -7 64
-4 12 3 15 37 15 24 -1 48 -4 55 -9 6 -4 14 -3 18 3 3 5 13 10 21 10 9 0 12
-5 8 -12 -4 -6 3 -4 16 5 17 12 28 13 42 6 10 -5 18 -6 18 -2z m925 -2 c28 1
56 -3 63 -8 9 -7 17 -6 24 1 16 16 41 16 32 0 -4 -6 3 -4 16 5 17 12 28 13 42
6 10 -5 18 -6 18 -2 0 4 5 1 10 -7 5 -8 10 -10 10 -4 0 6 11 12 25 12 14 0 25
-6 25 -12 0 -6 5 -4 10 4 7 12 13 12 27 4 13 -8 23 -8 37 0 14 8 20 8 23 -1 4
-10 8 -9 19 2 11 11 21 12 33 5 10 -5 21 -6 25 -2 4 3 11 0 16 -8 7 -10 10
-11 10 -2 0 6 4 12 9 12 4 0 8 -10 7 -22 -1 -13 -7 -22 -13 -21 -6 1 -17 -4
-23 -13 -11 -12 -10 -13 6 -8 18 5 18 5 1 -6 -9 -6 -22 -8 -27 -5 -6 3 -7 -1
-4 -9 4 -10 -1 -18 -11 -22 -9 -4 -21 -18 -26 -31 -6 -15 -15 -23 -23 -20 -8
3 -13 -1 -12 -11 0 -10 -6 -17 -16 -17 -9 0 -20 -4 -25 -9 -4 -5 -3 -6 5 -2
30 17 5 -12 -92 -109 -58 -57 -107 -101 -110 -97 -3 3 -6 -2 -6 -11 0 -9 -5
-17 -11 -17 -5 0 -7 -4 -4 -10 3 -5 1 -10 -4 -10 -6 0 -10 -3 -9 -7 2 -5 -1
-9 -5 -10 -5 -1 -17 -11 -26 -22 -10 -11 -22 -17 -27 -13 -4 4 -2 -2 6 -12 8
-11 10 -17 4 -13 -14 8 -54 -20 -54 -39 0 -8 -5 -14 -11 -14 -5 0 -7 5 -3 12
5 7 3 8 -5 4 -7 -5 -10 -10 -8 -13 8 -7 -37 -50 -47 -45 -5 3 -6 0 -3 -5 4 -6
-9 -27 -28 -47 -19 -21 -35 -34 -35 -29 0 4 -6 -3 -13 -17 -7 -14 -21 -24 -30
-24 -12 1 -15 -2 -8 -10 6 -7 4 -16 -5 -24 -8 -7 -14 -10 -14 -7 0 4 -16 -10
-35 -30 -20 -20 -33 -40 -30 -46 4 -5 2 -8 -4 -7 -5 2 -17 -6 -26 -17 -9 -11
-13 -14 -9 -6 5 9 3 12 -4 7 -7 -4 -12 -13 -12 -21 0 -8 -5 -17 -12 -21 -7 -5
-8 -3 -3 6 6 9 4 11 -4 6 -7 -5 -10 -14 -7 -22 3 -8 2 -13 -2 -13 -17 3 -35
-2 -29 -7 3 -3 -7 -19 -23 -34 -16 -15 -26 -32 -22 -36 4 -5 -2 -2 -12 6 -14
10 -17 11 -12 2 5 -8 -2 -20 -18 -33 -14 -11 -25 -25 -23 -32 1 -6 -5 -11 -13
-12 -8 0 -14 -9 -13 -19 1 -12 -4 -16 -16 -13 -12 3 -17 -2 -17 -17 1 -12 -4
-20 -12 -18 -7 1 -15 -5 -18 -13 -3 -8 -11 -12 -17 -8 -6 4 -8 0 -4 -9 3 -10
-3 -19 -19 -27 -14 -6 -23 -15 -20 -20 3 -5 -1 -14 -9 -21 -8 -7 -15 -9 -15
-4 0 5 -5 2 -11 -6 -9 -13 -10 -13 -6 2 3 9 3 19 -1 21 -4 2 -2 2 5 1 6 -2 14
4 17 12 3 9 1 12 -4 9 -17 -10 -11 7 8 22 9 8 12 12 5 9 -7 -4 -9 1 -6 13 3
11 12 22 20 25 11 4 13 14 9 32 -4 16 -3 23 3 20 5 -4 13 -1 18 6 7 13 9 18
11 51 1 9 10 17 20 17 14 0 15 2 2 10 -13 9 -13 10 0 10 13 0 13 1 0 10 -11 7
-11 10 -2 10 8 0 10 5 6 13 -5 7 0 6 11 -3 17 -14 18 -14 6 9 -10 19 -10 22 0
16 9 -6 11 -2 7 13 -4 12 -2 20 3 16 5 -3 9 0 9 6 0 6 4 9 9 6 5 -4 7 3 4 15
-4 12 3 32 17 51 12 17 17 27 11 23 -9 -5 -9 -2 0 13 7 12 18 18 24 14 5 -3 4
1 -3 10 -10 13 -10 18 -1 24 8 5 9 3 4 -6 -5 -8 -4 -11 3 -6 6 3 9 15 7 26 -2
11 1 20 6 20 6 0 8 4 5 9 -3 5 1 12 10 15 8 3 14 11 13 18 -3 25 1 39 10 33 6
-3 8 4 6 15 -2 11 0 20 6 20 5 0 8 6 7 13 -2 6 2 11 9 10 7 -2 10 4 7 12 -4 9
-1 22 6 30 6 8 8 20 4 26 -5 8 -2 10 8 6 12 -4 14 -1 11 14 -3 11 0 19 7 19 8
0 10 8 7 21 -4 16 -2 19 10 15 11 -4 13 -2 9 9 -7 20 4 46 17 38 6 -3 7 -1 3
6 -4 6 -2 19 6 28 11 14 11 16 -2 8 -12 -7 -13 -6 -3 7 7 8 9 19 5 24 -4 4 1
3 10 -5 15 -11 16 -10 12 13 -2 15 0 26 6 26 6 0 8 5 4 12 -5 8 -2 9 10 5 14
-6 15 -3 6 13 -8 15 -8 20 1 20 7 0 9 3 6 7 -4 3 1 12 11 20 9 8 11 12 5 8 -9
-4 -11 -1 -7 9 3 9 10 16 15 16 5 0 8 3 8 8 -3 19 2 33 11 27 6 -3 7 1 4 9 -4
9 -1 16 6 16 10 0 10 3 0 15 -7 8 -10 16 -6 16 3 1 11 3 16 4 6 1 13 3 16 4 4
0 1 7 -5 15 -9 11 -8 15 4 20 9 3 14 10 11 14 -5 8 20 34 38 41 5 1 13 -3 17
-11 7 -11 9 -11 9 0 0 9 7 11 21 7 15 -5 19 -4 14 5 -5 9 -2 10 11 3 11 -5 42
-8 69 -8z m781 6 c-3 -5 13 -7 37 -6 23 2 47 -1 54 -7 7 -6 14 -5 18 2 3 5 13
10 21 10 9 0 12 -5 8 -12 -4 -6 3 -4 16 5 17 12 28 13 42 6 10 -5 18 -6 18 -2
0 4 5 1 10 -7 5 -8 10 -10 10 -4 0 6 11 12 25 12 14 0 25 -6 25 -12 0 -6 5 -4
10 4 8 12 13 13 29 3 13 -8 22 -9 26 -3 9 15 38 12 29 -2 -6 -10 -4 -10 7 0 7
6 19 12 27 12 8 0 10 -5 6 -12 -6 -10 -4 -10 7 0 7 6 19 12 27 12 8 0 10 -5 6
-12 -6 -10 -4 -10 7 -2 24 18 48 24 55 12 4 -7 3 -8 -4 -4 -7 4 -12 2 -12 -3
0 -6 8 -11 18 -11 16 -1 16 -1 -1 -11 -9 -5 -22 -7 -27 -4 -5 3 -8 0 -5 -7 3
-7 -5 -18 -17 -23 -13 -6 -22 -18 -21 -28 0 -10 -1 -16 -4 -13 -6 6 -63 -21
-63 -30 0 -3 6 -2 13 1 6 4 4 0 -5 -8 -10 -8 -15 -17 -11 -21 4 -4 -1 -4 -12
0 -15 6 -17 4 -12 -11 6 -15 5 -16 -8 -5 -15 12 -20 4 -16 -22 0 -5 -2 -7 -7
-7 -20 3 -32 -2 -29 -13 1 -7 -4 -12 -10 -11 -7 2 -13 -4 -13 -12 0 -8 -4 -15
-8 -15 -5 0 -18 -9 -30 -21 -12 -11 -27 -17 -32 -14 -6 4 -10 3 -9 -2 3 -20
-2 -34 -10 -28 -11 6 -34 -29 -25 -38 3 -3 -3 -4 -13 -3 -10 0 -17 -5 -15 -11
1 -7 -1 -12 -5 -11 -16 3 -43 -15 -43 -28 0 -8 -5 -14 -11 -14 -5 0 -7 5 -3
12 4 7 3 8 -5 4 -6 -4 -10 -10 -8 -14 2 -4 -10 -20 -26 -37 -16 -16 -26 -23
-21 -15 7 13 6 13 -10 1 -9 -8 -13 -17 -7 -20 5 -4 -1 -11 -15 -18 -13 -6 -22
-7 -18 -2 3 5 3 9 -1 9 -3 0 -10 -11 -15 -25 -5 -14 -16 -25 -24 -25 -8 0 -18
-5 -22 -12 -5 -7 -2 -9 7 -4 8 4 5 1 -5 -8 -10 -8 -23 -13 -27 -10 -5 3 -6 -3
-2 -12 4 -12 3 -15 -5 -10 -7 4 -12 3 -12 -3 0 -6 -8 -7 -17 -4 -16 6 -16 5
-4 -11 8 -9 10 -16 5 -15 -22 4 -35 -2 -28 -13 5 -8 2 -9 -10 -5 -9 4 -15 3
-12 -2 3 -5 -1 -12 -10 -15 -9 -3 -14 -12 -11 -20 4 -9 0 -12 -13 -9 -10 3
-21 -1 -25 -8 -6 -8 -4 -10 6 -5 8 4 5 1 -5 -8 -10 -8 -23 -13 -29 -9 -6 3 -7
1 -3 -5 4 -7 2 -12 -4 -12 -6 0 -8 -5 -4 -12 4 -7 3 -8 -5 -4 -6 4 -14 0 -17
-9 -4 -9 -13 -14 -20 -11 -9 3 -11 0 -7 -11 5 -12 3 -14 -7 -8 -10 6 -12 4 -7
-9 4 -10 3 -15 -3 -11 -6 3 -13 -1 -16 -9 -3 -9 -10 -13 -15 -10 -5 3 -9 0 -9
-6 0 -6 -4 -9 -9 -6 -5 3 -11 -3 -14 -14 -3 -11 -10 -20 -17 -20 -6 0 -8 5 -4
12 4 7 3 8 -4 4 -6 -4 -8 -14 -5 -23 4 -11 3 -14 -5 -9 -7 4 -12 2 -12 -4 0
-6 -5 -8 -12 -4 -6 4 -8 3 -5 -2 3 -6 2 -16 -4 -24 -7 -13 -9 -13 -9 0 -1 8
-5 5 -11 -8 -5 -13 -13 -20 -19 -17 -9 5 -14 -7 -12 -26 1 -4 -8 -4 -20 -1
-17 4 -20 2 -15 -11 3 -9 3 -16 -1 -14 -4 1 -17 -8 -30 -21 -12 -12 -27 -20
-32 -17 -5 3 -12 0 -16 -6 -4 -8 -3 -9 4 -5 18 11 14 -10 -5 -25 -11 -10 -14
-10 -9 -1 4 6 2 12 -3 12 -6 0 -11 -6 -11 -14 0 -19 -40 -47 -53 -39 -6 4 -8
0 -5 -8 3 -8 -1 -20 -8 -27 -8 -7 -14 -10 -14 -5 0 4 -6 -2 -14 -12 -13 -18
-13 -17 -11 9 2 16 9 32 16 36 6 4 8 13 5 19 -4 7 -2 10 5 9 7 -2 15 6 17 17
2 11 14 28 25 38 12 10 15 15 7 11 -8 -4 -1 8 15 27 17 18 22 27 12 20 -15
-12 -17 -12 -11 3 6 15 17 20 36 17 4 0 5 5 2 13 -3 8 -1 17 5 20 6 4 8 13 5
21 -4 10 0 13 13 10 12 -2 20 2 20 10 0 8 -5 12 -10 8 -5 -3 -1 6 8 21 10 14
22 26 27 26 6 0 7 7 4 16 -4 11 -2 15 8 11 10 -4 12 0 8 15 -4 16 -2 19 8 13
10 -6 12 -4 7 9 -4 9 -3 15 2 11 5 -3 15 8 23 25 7 16 20 30 28 31 10 0 8 3
-5 8 -19 8 -19 8 3 20 12 7 20 16 17 20 -2 5 3 15 12 22 14 12 16 12 8 0 -5
-10 -4 -12 4 -7 6 4 9 12 5 17 -3 5 0 17 8 26 11 14 11 16 -2 8 -12 -6 -13 -6
-2 6 11 12 14 12 23 -1 7 -11 8 -8 5 13 -3 19 0 30 10 34 8 3 14 13 14 23 0 9
10 22 23 28 12 6 16 11 9 11 -7 1 -10 6 -7 11 4 6 11 8 16 5 5 -3 6 2 2 11 -5
13 -3 15 7 9 9 -5 11 -4 6 3 -4 6 2 20 12 30 10 10 16 24 14 32 -3 7 0 10 7 6
7 -5 11 1 11 13 0 12 5 21 11 21 5 0 7 5 3 12 -5 8 -2 9 11 4 16 -6 16 -4 4
11 -8 9 -9 14 -3 10 11 -6 28 26 25 46 -1 5 2 6 6 4 5 -3 17 7 27 21 12 15 14
22 5 17 -12 -8 -12 -6 -1 8 8 9 10 22 6 29 -5 8 -1 8 11 -2 11 -9 16 -10 11
-2 -4 6 -2 12 3 12 6 0 10 3 9 8 -3 14 22 62 32 62 5 0 10 7 10 15 0 19 18 51
49 84 13 14 21 20 16 12 -6 -10 -4 -12 6 -5 22 13 43 14 51 1 5 -8 8 -6 8 6 0
9 5 17 11 17 5 0 8 -4 5 -9z m-2002 -413 c-3 -4 1 -10 7 -14 8 -5 9 -3 4 6 -5
9 -4 11 4 6 6 -4 9 -11 6 -16 -3 -4 1 -11 7 -14 7 -3 2 -3 -10 0 -24 6 -24 6
-4 -14 12 -12 18 -30 17 -46 -2 -14 1 -26 7 -26 6 0 5 -6 -2 -15 -10 -12 -10
-15 0 -15 9 0 9 -4 -1 -17 -8 -9 -9 -14 -4 -11 6 3 16 0 23 -8 7 -8 8 -14 2
-14 -5 0 -10 -7 -10 -15 0 -8 5 -15 10 -15 7 0 7 -6 1 -19 -8 -14 -7 -22 4
-31 10 -8 11 -18 5 -36 -8 -19 -6 -26 5 -31 13 -4 13 -8 3 -21 -10 -12 -10
-14 -1 -9 9 6 13 -2 13 -25 1 -79 4 -107 12 -102 8 5 9 0 12 -45 0 -11 4 -23
8 -26 4 -4 3 -16 -3 -26 -6 -13 -6 -19 0 -19 7 0 7 -9 0 -26 -8 -23 -8 -25 5
-15 13 11 14 9 10 -14 -3 -20 -1 -25 8 -19 8 5 7 1 -2 -11 -8 -10 -10 -16 -4
-12 8 4 11 -5 11 -26 0 -55 7 -97 16 -97 5 0 3 -8 -4 -17 -8 -10 -9 -14 -2
-10 7 5 12 1 13 -10 0 -10 1 -35 1 -55 1 -25 5 -35 13 -31 6 4 4 -2 -4 -12 -8
-10 -10 -16 -4 -12 7 4 14 -1 17 -12 3 -15 1 -18 -12 -14 -12 4 -11 2 3 -9 10
-8 16 -19 13 -24 -3 -6 -2 -16 3 -24 5 -8 4 -22 -2 -33 -7 -15 -7 -18 2 -12 9
5 10 1 5 -15 -5 -15 -4 -20 4 -16 13 8 14 4 5 -18 -3 -9 -10 -13 -15 -10 -5 3
-9 1 -9 -5 0 -5 -8 -8 -17 -6 -10 2 -18 4 -18 5 0 7 -103 4 -112 -3 -8 -6 -13
-6 -13 1 0 11 -38 10 -57 -1 -6 -4 -14 -3 -17 2 -3 4 -20 7 -37 5 -18 -2 -39
2 -47 9 -10 7 -13 8 -9 1 5 -8 -4 -11 -26 -8 -17 1 -34 4 -37 5 -3 1 -9 1 -13
0 -5 -1 -6 3 -2 8 3 6 13 7 23 4 14 -5 14 -3 -2 9 -13 10 -16 21 -12 36 4 12
11 20 15 18 4 -3 6 22 6 55 -1 54 1 58 14 42 14 -19 14 -15 -5 32 -4 10 0 15
11 15 9 0 13 5 10 10 -4 6 -11 8 -16 5 -5 -3 -6 1 -3 9 3 9 9 14 13 12 3 -2 6
12 7 32 2 77 4 93 13 88 10 -7 9 13 -2 31 -4 6 -2 15 4 18 5 4 8 13 5 21 -3 8
-2 14 3 14 5 0 7 14 5 31 -3 22 0 28 9 23 7 -5 5 0 -3 11 -12 15 -12 17 -1 10
11 -6 13 -2 9 19 -3 14 -2 26 2 26 4 0 6 12 5 28 -1 15 3 30 9 35 8 5 6 10 -4
16 -12 9 -12 11 4 17 14 5 15 9 4 15 -11 7 -11 9 1 9 11 0 11 3 1 15 -11 13
-10 14 6 8 16 -6 17 -4 7 9 -7 8 -10 18 -6 21 5 6 9 31 12 80 1 10 5 16 10 12
5 -3 13 -1 16 5 4 6 1 9 -6 8 -6 -2 -14 3 -16 10 -3 6 1 12 9 12 10 0 9 3 -2
10 -13 8 -12 10 3 10 9 0 17 5 17 11 0 5 -4 7 -10 4 -5 -3 -10 -1 -10 4 0 6 6
11 13 11 9 0 8 3 -2 9 -8 5 -9 11 -3 15 6 3 9 14 8 24 -2 9 2 21 8 25 8 6 7
10 -1 14 -7 2 -13 9 -13 14 0 6 5 7 10 4 8 -5 13 15 9 41 0 4 5 11 13 15 9 6
10 9 1 9 -9 0 -10 7 -3 25 5 14 9 29 9 33 -1 4 -1 18 1 32 1 23 2 23 9 5 5
-11 7 -23 5 -27z m21 22 c3 -5 1 -10 -4 -10 -6 0 -11 5 -11 10 0 6 2 10 4 10
3 0 8 -4 11 -10z m-1481 -68 c2 -4 -5 -9 -17 -9 -17 -2 -19 0 -7 7 18 12 18
12 24 2z m2926 -27 c0 -14 -5 -25 -11 -25 -6 0 -8 7 -5 16 5 14 4 15 -9 4 -16
-13 -21 -35 -6 -25 5 3 12 1 16 -5 3 -5 1 -10 -5 -10 -6 0 -8 -5 -5 -10 3 -6
-1 -13 -9 -16 -9 -3 -16 -12 -16 -19 0 -7 -7 -16 -16 -19 -9 -4 -14 -13 -10
-21 3 -8 1 -15 -5 -15 -6 0 -7 -6 -3 -12 6 -9 3 -9 -9 0 -14 12 -15 11 -8 -15
7 -22 5 -30 -5 -30 -7 0 -11 4 -8 9 3 4 3 8 0 8 -3 0 -10 -10 -17 -21 -9 -17
-8 -20 3 -13 7 4 4 -2 -6 -14 -11 -12 -15 -22 -10 -22 5 0 -4 -11 -21 -25 -22
-18 -24 -23 -10 -19 17 6 16 4 -4 -11 -18 -14 -20 -19 -10 -27 10 -7 8 -8 -8
-5 -15 3 -20 1 -16 -9 3 -8 0 -14 -7 -14 -6 0 -9 -3 -6 -8 2 -4 -2 -18 -10
-32 -7 -14 -14 -20 -14 -15 -1 16 -50 -75 -50 -92 0 -10 -6 -13 -16 -9 -8 3
-13 2 -9 -3 8 -15 -6 -42 -19 -34 -6 4 -4 -2 4 -12 9 -11 10 -16 3 -11 -8 4
-13 2 -13 -4 0 -6 -4 -8 -10 -5 -5 3 -7 0 -4 -8 3 -8 0 -18 -7 -23 -8 -5 -10
-3 -4 6 5 9 4 11 -4 6 -9 -6 -9 -11 0 -22 10 -12 8 -16 -9 -20 -12 -4 -19 -11
-15 -20 3 -8 0 -14 -7 -14 -6 0 -9 -4 -6 -9 3 -5 -1 -12 -10 -15 -8 -3 -12
-10 -9 -16 3 -5 1 -10 -5 -10 -7 0 -9 -7 -6 -16 5 -12 2 -15 -10 -10 -12 5
-15 2 -10 -9 4 -10 -2 -19 -17 -25 -13 -5 -16 -9 -7 -10 13 -1 13 -2 -1 -13
-16 -12 -19 -18 -19 -38 0 -5 -5 -7 -12 -3 -6 4 -8 3 -5 -4 9 -14 -3 -43 -14
-36 -5 3 -9 -4 -9 -16 0 -11 -7 -23 -16 -27 -8 -3 -13 -12 -9 -20 3 -10 1 -13
-8 -10 -8 3 -14 -3 -14 -16 -1 -11 -9 -25 -18 -29 -8 -5 -13 -13 -10 -19 4 -5
-1 -9 -9 -9 -10 0 -13 -6 -9 -17 4 -11 3 -14 -5 -9 -7 4 -12 4 -12 -1 0 -15
-59 -43 -66 -31 -5 7 -2 8 6 3 9 -6 11 -4 6 4 -6 9 -12 8 -26 -4 -13 -12 -19
-13 -22 -4 -3 9 -9 9 -24 1 -15 -8 -24 -8 -32 0 -9 9 -12 9 -12 -1 0 -10 -3
-11 -14 -2 -8 7 -17 8 -20 3 -6 -10 -48 -8 -65 2 -5 4 -13 2 -16 -4 -5 -7 -11
-8 -19 -1 -7 6 -18 6 -26 1 -7 -4 -24 -4 -37 1 -16 6 -23 5 -23 -4 0 -8 -4 -7
-10 3 -12 19 -13 33 -1 25 5 -3 17 5 25 17 9 12 26 28 38 36 15 8 16 11 5 8
-11 -3 -15 -2 -12 4 3 6 12 10 20 10 8 0 17 5 21 12 5 7 2 9 -7 4 -8 -4 -5 -1
5 8 10 8 24 13 29 9 6 -4 8 0 4 11 -5 14 -3 17 8 12 8 -3 14 -2 14 2 -3 19 2
32 14 32 7 0 18 9 25 20 7 12 18 18 25 13 7 -4 5 2 -3 12 -14 17 -13 18 7 13
12 -3 22 -3 21 1 -2 22 4 32 18 27 9 -3 12 -2 9 5 -8 11 40 60 50 51 3 -4 3 2
-1 12 -6 15 -4 17 6 11 10 -6 12 -4 7 8 -4 10 -2 14 6 11 7 -2 26 10 42 28
l30 33 -30 -25 c-29 -24 -29 -23 2 8 18 17 30 32 27 32 -4 0 6 10 22 23 16 12
32 21 36 20 5 -2 8 1 8 5 0 5 7 17 16 28 8 10 12 12 8 4 -7 -13 -5 -13 9 -1 9
7 17 18 17 23 0 5 15 23 33 40 17 18 32 35 32 38 0 11 53 59 59 53 5 -6 10 12
7 29 0 4 7 4 16 1 11 -4 14 -3 9 5 -4 7 -1 15 8 18 9 3 16 12 16 19 0 8 4 17
10 20 6 4 7 -1 4 -12 -6 -15 -4 -15 9 2 8 11 13 24 10 29 -4 5 -1 6 5 2 7 -4
12 -1 12 8 0 10 6 13 17 9 11 -4 14 -3 9 5 -4 6 4 18 19 28 13 9 22 20 19 25
-3 5 1 9 9 9 8 0 18 7 21 16 3 8 11 12 17 8 8 -4 9 -3 5 4 -4 6 2 20 14 32 11
11 20 25 20 30 0 10 15 14 35 10 6 -1 7 1 3 5 -3 4 7 19 24 35 16 16 29 31 29
34 -1 6 59 76 66 76 1 0 3 -11 3 -25z m-2906 1 c-3 -7 2 -16 10 -19 9 -4 16
-13 16 -22 0 -8 7 -15 16 -15 9 0 18 -9 21 -21 5 -16 8 -18 15 -7 7 9 8 7 5
-9 -3 -15 -1 -20 9 -16 8 3 14 -1 14 -11 0 -9 7 -16 16 -16 8 0 13 -4 10 -8
-3 -5 6 -16 19 -26 14 -10 22 -22 19 -27 -3 -5 2 -6 11 -3 11 5 18 0 22 -15 3
-11 9 -18 14 -15 5 3 9 0 9 -6 0 -15 25 -40 40 -40 6 0 9 -4 5 -9 -3 -5 4 -13
16 -16 16 -5 18 -9 9 -15 -9 -6 -7 -10 9 -15 11 -3 21 -14 21 -22 0 -9 3 -14
6 -10 10 9 34 -19 34 -40 0 -15 2 -16 10 -3 8 13 10 12 10 -2 0 -10 9 -23 20
-30 11 -7 20 -18 20 -25 0 -7 6 -12 13 -11 6 2 11 -3 9 -11 -2 -8 3 -11 12 -8
9 4 18 1 22 -5 5 -7 2 -8 -7 -4 -8 4 -3 -2 10 -13 12 -12 27 -18 32 -15 5 3 6
-2 3 -10 -4 -10 -1 -16 7 -16 7 0 9 -3 6 -7 -4 -3 3 -11 15 -17 12 -6 29 -24
38 -40 8 -16 24 -33 35 -37 11 -4 16 -8 12 -8 -12 -1 40 -51 54 -51 6 0 9 -7
5 -15 -3 -8 -2 -15 3 -15 16 0 56 -42 53 -57 -2 -9 1 -12 8 -8 6 4 20 -2 31
-14 11 -12 16 -21 12 -22 -4 0 2 -4 15 -10 13 -5 21 -13 17 -18 -3 -6 7 -18
22 -28 15 -9 30 -19 33 -21 2 -1 -2 -8 -10 -13 -13 -9 -13 -10 0 -8 20 3 50
-11 50 -23 0 -5 -4 -6 -10 -3 -16 10 -11 -1 7 -16 15 -12 16 -12 8 1 -5 8 6 1
24 -17 21 -19 30 -36 26 -44 -5 -7 -4 -10 2 -6 6 4 18 -4 27 -18 11 -17 13
-26 4 -31 -7 -4 -8 -3 -4 4 4 7 4 12 -1 13 -4 0 -18 2 -30 3 -15 2 -20 -2 -15
-13 4 -12 0 -11 -18 4 -13 11 -20 14 -16 8 4 -8 1 -13 -8 -13 -9 0 -16 5 -16
12 0 6 -7 3 -15 -8 -15 -19 -15 -19 -9 1 6 20 5 20 -10 1 -13 -17 -18 -18 -29
-6 -10 10 -9 11 2 5 10 -6 12 -4 7 4 -6 9 -11 9 -24 -1 -12 -10 -14 -10 -8 0
4 6 2 12 -3 12 -6 0 -11 -4 -11 -10 0 -5 -5 -10 -11 -10 -5 0 -7 6 -3 13 5 8
2 8 -9 -2 -14 -11 -17 -11 -17 0 0 8 -6 5 -15 -7 -9 -11 -13 -13 -10 -4 4 11
-3 16 -25 16 -16 1 -30 -2 -30 -7 0 -5 5 -9 12 -9 6 0 8 -3 4 -7 -4 -5 -14 1
-22 11 -8 12 -14 15 -14 7 0 -11 -3 -11 -15 -1 -8 7 -12 17 -8 24 4 6 0 5 -9
-2 -14 -11 -17 -10 -23 7 -3 12 -11 21 -16 21 -5 0 -9 9 -9 20 0 12 -7 20 -16
20 -10 0 -14 6 -10 15 3 8 1 15 -4 15 -6 0 -10 7 -10 15 0 8 -6 15 -12 15 -9
0 -8 4 2 10 12 8 11 10 -7 10 -13 0 -23 5 -23 11 0 5 4 8 8 5 5 -3 9 1 9 8 0
9 -7 12 -16 8 -9 -3 -13 -2 -9 3 4 4 1 13 -7 19 -7 6 -15 18 -17 26 -2 8 -7
20 -13 27 -5 7 -14 18 -20 25 -5 7 -17 22 -25 33 -9 11 -10 16 -3 11 9 -5 11
-2 7 8 -3 9 -12 16 -20 16 -8 0 -11 6 -7 17 4 11 3 14 -5 9 -8 -5 -10 -1 -5
10 5 13 3 16 -10 11 -12 -4 -14 -2 -10 10 4 11 2 14 -5 9 -13 -8 -16 5 -4 20
4 5 6 8 3 7 -5 -3 -31 24 -31 33 0 4 -8 13 -17 21 -10 8 -12 12 -6 8 9 -4 11
-1 7 9 -3 9 -10 13 -15 10 -8 -5 -14 18 -10 39 1 5 -3 6 -9 2 -5 -3 -10 1 -10
9 0 9 -4 16 -10 16 -5 0 -10 9 -10 19 0 10 -7 21 -15 25 -8 3 -15 10 -15 16 0
6 6 8 13 4 8 -5 8 -2 -2 9 -16 20 -26 23 -15 5 6 -10 3 -9 -8 0 -9 8 -14 20
-11 28 3 9 -1 14 -13 14 -16 0 -17 2 -4 10 10 6 11 10 3 10 -7 0 -13 5 -13 11
0 16 -26 39 -36 31 -5 -4 -4 -1 3 7 9 11 8 19 -4 37 -8 13 -19 22 -23 19 -4
-3 -11 2 -14 11 -4 10 -2 13 7 9 6 -4 4 0 -5 8 -10 8 -15 17 -11 20 3 4 2 7
-4 7 -6 0 -19 12 -29 28 -13 19 -13 24 -3 17 8 -5 7 -3 -3 7 -10 9 -18 23 -18
32 0 9 -7 16 -16 16 -14 0 -14 3 -4 16 11 12 11 15 -1 12 -9 -2 -13 4 -11 15
2 9 -2 16 -9 15 -19 -5 -21 20 -2 25 10 3 19 5 20 6 1 0 0 -5 -3 -13z m131
-266 c3 -5 1 -10 -4 -10 -6 0 -11 5 -11 10 0 6 2 10 4 10 3 0 8 -4 11 -10z
m3695 -674 c0 -3 -4 -8 -10 -11 -5 -3 -10 -1 -10 4 0 6 5 11 10 11 6 0 10 -2
10 -4z m-1393 -158 c-3 -8 -6 -5 -6 6 -1 11 2 17 5 13 3 -3 4 -12 1 -19z
m-1599 -101 c6 -5 12 -4 12 2 0 6 11 6 30 1 17 -5 30 -5 30 0 0 12 70 3 88
-12 12 -10 14 -10 8 0 -5 8 0 12 18 12 14 0 28 -5 32 -11 4 -8 9 -8 17 0 16
16 37 13 37 -5 0 -8 4 -13 8 -10 4 2 14 -4 21 -16 10 -16 10 -19 -1 -12 -10 6
-11 5 -1 -8 7 -8 9 -19 5 -24 -4 -4 0 -3 8 3 13 10 16 8 16 -7 0 -10 -5 -16
-11 -13 -5 3 -4 0 3 -8 6 -7 12 -21 12 -31 0 -10 5 -18 11 -18 5 0 8 -4 4 -9
-3 -5 2 -17 11 -25 11 -12 12 -16 2 -16 -9 0 -9 -3 -2 -8 6 -4 14 -19 18 -34
3 -16 10 -28 15 -28 5 0 7 -9 4 -20 -3 -12 0 -20 7 -20 7 0 10 -8 7 -20 -3
-12 -1 -18 5 -14 6 4 9 1 6 -7 -3 -8 1 -20 9 -27 7 -8 11 -18 8 -23 -4 -5 -1
-9 5 -9 6 0 8 -5 5 -10 -5 -8 -12 -7 -22 2 -9 7 -19 11 -22 8 -3 -3 -7 4 -9
15 -2 12 -13 27 -25 34 l-22 14 20 -23 20 -23 -22 14 c-13 8 -23 20 -23 27 0
7 -4 10 -10 7 -5 -3 -10 -2 -10 3 0 11 -35 52 -44 52 -4 0 -4 -5 0 -12 4 -7 3
-8 -4 -4 -6 4 -9 13 -6 20 3 8 0 17 -7 22 -8 4 -10 3 -5 -4 5 -8 2 -10 -8 -6
-9 3 -16 12 -16 19 0 8 -5 17 -12 21 -7 4 -8 3 -4 -4 5 -8 2 -10 -9 -6 -13 5
-13 9 -3 22 11 13 11 14 0 8 -14 -9 -76 49 -68 63 3 4 -1 8 -9 8 -8 0 -12 -5
-9 -11 3 -6 -3 -1 -14 11 -11 12 -22 19 -26 16 -3 -4 -6 -1 -6 5 0 16 -50 63
-60 57 -5 -3 -7 3 -5 14 2 13 -1 18 -9 15 -15 -6 -50 31 -42 44 7 11 24 11 44
-1z m473 -11 c4 -5 15 -5 25 -1 29 12 45 14 38 4 -3 -5 0 -9 5 -9 6 0 11 6 12
13 0 10 2 10 6 0 2 -7 9 -13 14 -13 6 0 8 4 5 9 -7 11 21 8 31 -4 4 -4 2 -5
-6 0 -10 6 -12 4 -6 -5 6 -10 11 -9 22 5 7 11 13 14 13 8 0 -19 29 -23 45 -7
8 9 15 11 15 5 0 -6 7 -11 16 -11 8 0 12 4 9 10 -3 6 1 7 9 4 9 -3 13 -10 10
-15 -10 -16 9 -9 23 9 7 9 13 13 12 7 -1 -5 0 -12 1 -15 7 -20 7 -40 -1 -40
-6 0 -7 -4 -4 -10 3 -5 1 -10 -5 -10 -7 0 -9 -7 -6 -16 3 -9 2 -12 -4 -9 -7 4
-9 -3 -6 -19 3 -14 0 -29 -6 -32 -7 -5 -8 -2 -3 6 5 8 4 11 -3 6 -6 -4 -9 -13
-6 -20 3 -8 0 -17 -5 -21 -6 -3 -9 -10 -6 -15 3 -5 0 -20 -7 -32 -7 -13 -11
-26 -10 -30 1 -5 -2 -8 -7 -8 -6 0 -8 -9 -6 -20 2 -11 -1 -23 -7 -26 -7 -5 -8
-2 -3 7 5 8 6 12 2 9 -3 -3 -5 -7 -4 -10 0 -3 -5 -16 -12 -29 -8 -14 -9 -21
-2 -17 7 5 9 1 5 -8 -3 -9 -14 -16 -23 -17 -11 0 -12 -2 -3 -6 9 -3 10 -9 2
-17 -5 -7 -11 -24 -12 -38 -1 -17 -7 -24 -15 -21 -8 3 -13 0 -11 -7 2 -7 -4
-15 -12 -17 -13 -4 -13 -3 0 6 13 10 13 11 0 11 -12 0 -13 2 -1 9 11 7 10 11
-4 19 -11 6 -16 16 -12 26 4 11 1 16 -11 17 -12 0 -13 2 -3 6 9 4 10 8 2 12
-6 4 -12 19 -13 34 -1 15 -7 27 -13 27 -6 0 -10 13 -9 30 1 16 -2 28 -6 25
-11 -7 -23 24 -25 62 -1 18 -5 36 -10 40 -4 5 -5 2 -1 -4 4 -7 2 -13 -3 -13
-10 0 -16 35 -12 68 1 7 -4 11 -11 10 -8 -2 -12 4 -10 15 2 9 -3 17 -9 17 -7
0 -9 3 -6 7 4 3 1 13 -6 21 -10 13 -9 14 2 7 11 -6 13 -4 8 7 -9 26 18 37 34
14z m494 5 c-9 -16 39 -17 53 -1 8 8 11 10 8 4 -3 -7 5 -14 19 -16 14 -3 25
-2 25 3 0 4 14 4 31 -1 26 -8 30 -7 24 7 -5 14 -3 14 15 -2 11 -10 20 -13 20
-7 0 7 5 12 11 12 5 0 8 -3 5 -8 -2 -4 14 -7 37 -6 l40 1 -27 -24 c-15 -13
-32 -21 -37 -18 -5 3 -6 -2 -2 -11 4 -11 2 -15 -4 -11 -6 4 -14 0 -17 -9 -3
-9 -11 -12 -18 -8 -7 5 -9 2 -5 -9 4 -12 1 -15 -15 -12 -11 3 -18 2 -15 -2 4
-3 -1 -12 -11 -20 -9 -8 -11 -11 -3 -7 9 4 12 3 8 -3 -4 -6 -20 -16 -36 -23
-17 -7 -29 -17 -28 -24 1 -6 -6 -10 -15 -10 -11 1 -15 -4 -11 -15 4 -9 2 -13
-2 -9 -5 5 -15 -1 -22 -12 -8 -11 -19 -18 -24 -14 -6 3 -9 -2 -7 -12 2 -14 -2
-18 -16 -16 -12 2 -16 -1 -10 -9 5 -9 2 -10 -12 -5 -10 4 -15 4 -11 0 9 -9
-13 -35 -24 -28 -5 3 -6 -2 -3 -11 5 -11 2 -14 -12 -8 -12 4 -15 3 -10 -5 4
-7 1 -12 -9 -12 -9 0 -13 -4 -10 -10 3 -5 -1 -10 -10 -10 -10 0 -13 -5 -9 -12
5 -8 2 -9 -11 -4 -15 5 -16 4 -5 -9 7 -9 9 -15 4 -13 -5 1 -20 -3 -34 -10 -22
-12 -23 -11 -7 1 17 14 24 33 9 23 -14 -9 -7 43 7 56 11 11 12 10 6 -2 -7 -12
-6 -13 6 -2 12 11 12 14 -1 22 -11 7 -11 10 -2 10 7 0 10 5 7 10 -3 6 -2 10 3
10 6 0 13 7 16 16 6 15 4 15 -11 3 -16 -12 -16 -11 0 8 11 12 16 27 11 34 -5
8 -3 10 6 4 10 -6 12 -4 7 9 -4 10 -3 15 3 11 6 -3 10 3 10 14 0 12 4 21 9 21
5 0 7 9 4 20 -3 12 0 20 6 20 7 0 9 -5 5 -12 -4 -6 -3 -8 3 -5 6 4 8 18 5 32
-3 17 0 25 9 25 11 0 11 2 -1 10 -12 8 -12 10 3 16 13 5 15 10 7 19 -9 10 -6
16 10 25 12 6 18 16 13 23 -5 8 -2 8 9 -1 13 -10 17 -10 22 3 3 8 8 15 11 15
4 0 4 -4 0 -9z m-1036 -155 c-2 -2 -13 8 -23 22 l-19 27 24 -22 c12 -12 21
-24 18 -27z m921 -380 c0 -2 -8 -10 -17 -17 -16 -13 -17 -12 -4 4 13 16 21 21
21 13z"/>
<path d="M4275 4650 c3 -5 8 -10 11 -10 2 0 4 5 4 10 0 6 -5 10 -11 10 -5 0
-7 -4 -4 -10z"/>
<path d="M1225 4240 c-3 -6 1 -7 9 -4 18 7 21 14 7 14 -6 0 -13 -4 -16 -10z"/>
<path d="M5970 4336 c0 -2 8 -10 18 -17 15 -13 16 -12 3 4 -13 16 -21 21 -21
13z"/>
<path d="M2420 4350 c-9 -6 -10 -10 -3 -10 6 0 15 5 18 10 8 12 4 12 -15 0z"/>
<path d="M2916 3307 c3 -10 9 -15 12 -12 3 3 0 11 -7 18 -10 9 -11 8 -5 -6z"/>
<path d="M4499 2923 c-13 -16 -12 -17 4 -4 9 7 17 15 17 17 0 8 -8 3 -21 -13z"/>
<path d="M1930 4955 c-11 -13 -10 -14 4 -9 9 3 16 10 16 15 0 13 -6 11 -20 -6z"/>
<path d="M6196 4893 c-6 -14 -5 -15 5 -6 7 7 10 15 7 18 -3 3 -9 -2 -12 -12z"/>
<path d="M6227 4895 c-4 -8 -1 -17 5 -21 7 -4 8 -3 4 4 -4 7 -2 12 3 12 6 0
11 5 11 10 0 15 -17 12 -23 -5z"/>
<path d="M6107 4399 c7 -7 15 -10 18 -7 3 3 -2 9 -12 12 -14 6 -15 5 -6 -5z"/>
<path d="M715 3849 c-4 -6 -5 -12 -2 -15 2 -3 7 2 10 11 7 17 1 20 -8 4z"/>
<path d="M696 3817 c3 -10 9 -15 12 -12 3 3 0 11 -7 18 -10 9 -11 8 -5 -6z"/>
<path d="M700 3785 c-6 -38 -5 -55 3 -55 6 0 6 -5 0 -12 -6 -7 -9 -22 -7 -32
1 -11 -1 -27 -6 -36 -6 -11 -5 -21 2 -28 9 -9 9 -12 -1 -12 -11 0 -11 -3 0
-17 12 -15 12 -16 -3 -10 -15 5 -16 2 -8 -18 6 -17 5 -27 -5 -35 -8 -7 -13
-16 -10 -20 6 -10 -20 -72 -27 -65 -3 3 -8 -1 -12 -10 -3 -9 -2 -13 4 -10 17
11 11 -3 -13 -29 -13 -14 -27 -23 -30 -19 -4 3 -7 -1 -7 -10 0 -10 -8 -17 -20
-17 -11 0 -20 -6 -20 -14 0 -8 -8 -13 -17 -12 -10 2 -24 -3 -31 -11 -8 -7 -18
-11 -23 -8 -5 4 -9 2 -9 -3 0 -5 -11 -8 -25 -7 -14 2 -27 -1 -31 -6 -3 -5 -13
-5 -24 1 -13 7 -19 6 -24 -6 -10 -26 -7 -31 20 -31 15 0 30 -7 35 -14 7 -11 9
-9 10 6 0 15 2 16 7 5 4 -8 12 -16 17 -17 6 -1 19 -5 30 -8 16 -6 17 -5 5 4
-11 8 -11 11 -2 11 7 0 15 -6 18 -14 3 -9 12 -12 22 -9 11 5 14 2 9 -9 -4 -11
-1 -15 11 -12 9 2 28 -5 42 -17 14 -11 19 -17 11 -13 -9 5 -12 3 -7 -4 4 -7
14 -12 23 -12 10 0 13 -5 9 -17 -4 -10 -4 -14 0 -10 6 6 38 -29 39 -43 0 -3 4
-11 9 -19 6 -9 5 -12 -2 -8 -6 5 -8 0 -5 -13 3 -11 8 -18 12 -16 4 3 8 -5 8
-17 1 -12 -3 -25 -10 -29 -8 -5 -4 -8 11 -8 27 0 28 -8 5 -26 -13 -10 -14 -13
-3 -9 13 5 15 -4 13 -50 -1 -33 3 -55 9 -55 7 0 7 -4 1 -12 -12 -15 -13 -48
-2 -48 5 0 6 -8 3 -17 -5 -14 -4 -15 4 -4 6 8 8 21 4 29 -4 11 -2 13 9 7 12
-8 12 -6 0 9 -12 14 -12 19 -2 25 16 10 16 22 -1 32 -11 7 -11 9 1 9 11 0 11
3 0 17 -12 15 -12 16 4 10 15 -5 16 -4 7 13 -13 25 -13 33 3 24 9 -6 9 -4 -1
8 -10 13 -10 18 -1 24 8 5 9 3 4 -6 -5 -8 -4 -11 3 -7 12 8 11 25 -2 46 -7 10
-6 12 4 6 10 -6 12 -3 8 13 -4 12 -2 22 3 22 5 0 8 6 7 13 -2 6 4 11 12 9 10
-1 9 2 -4 13 -18 14 -15 20 8 16 5 -1 6 7 3 19 -3 11 -2 18 1 16 9 -4 62 51
55 58 -9 8 68 36 81 29 6 -4 4 2 -4 12 -14 17 -14 18 7 7 18 -10 24 -9 32 5 5
10 13 15 17 11 4 -5 14 -3 21 4 11 9 17 9 24 -3 8 -13 14 -5 10 15 -1 5 5 4
13 -4 19 -15 21 0 4 20 -11 12 -10 12 2 3 10 -7 21 -8 30 -3 9 5 19 5 27 -2 9
-7 13 -7 13 2 0 9 4 9 13 2 7 -6 18 -7 26 -2 8 4 20 6 28 3 7 -3 13 0 13 5 0
6 -12 9 -26 6 -18 -3 -23 -1 -18 7 5 8 3 9 -7 3 -16 -9 -89 -12 -89 -3 0 3
-11 4 -25 1 -14 -2 -33 2 -42 9 -12 10 -15 10 -9 1 6 -10 2 -10 -21 0 -15 6
-34 17 -42 22 -12 9 -13 8 -7 -4 6 -12 4 -11 -6 1 -7 9 -19 14 -27 11 -8 -3
-11 0 -7 7 4 6 1 11 -8 11 -8 0 -20 9 -26 20 -6 11 -15 18 -20 15 -6 -3 -7 0
-4 8 3 8 0 18 -7 23 -8 5 -10 3 -4 -6 5 -9 4 -11 -4 -6 -6 4 -11 13 -10 19 3
28 -2 36 -18 30 -15 -6 -16 -4 -5 9 9 12 10 18 2 23 -7 4 -10 16 -7 26 4 13 0
19 -11 19 -12 0 -13 3 -4 12 17 17 15 28 -5 29 -12 0 -13 2 -5 6 10 4 10 8 0
21 -11 13 -11 14 0 8 11 -7 12 -4 4 11 -6 11 -9 28 -8 39 2 10 -2 22 -8 26 -7
5 -6 8 4 8 13 0 13 2 1 9 -12 8 -12 12 -2 24 8 11 9 17 1 22 -8 5 -7 11 2 23
8 10 8 13 1 9 -6 -4 -14 -1 -16 5 -3 7 -6 9 -7 3z"/>
<path d="M296 3292 c-3 -5 -28 -8 -56 -7 -27 1 -48 0 -46 -2 2 -3 8 -5 13 -5
4 0 14 -5 22 -11 12 -10 13 -9 6 2 -6 11 -4 13 11 7 10 -4 24 -8 29 -9 6 -1
13 -6 17 -12 5 -6 8 -5 8 2 0 7 6 10 13 7 8 -3 20 2 27 11 8 9 8 15 2 15 -6 0
-14 -5 -17 -10 -4 -6 -11 -8 -16 -4 -5 3 -7 10 -4 15 4 5 4 9 1 9 -3 0 -7 -4
-10 -8z"/>
<path d="M85 3281 c3 -3 17 -6 31 -7 13 0 22 2 19 5 -3 3 -17 6 -31 7 -13 0
-22 -2 -19 -5z"/>
<path d="M150 3280 c0 -5 5 -10 10 -10 6 0 10 5 10 10 0 6 -4 10 -10 10 -5 0
-10 -4 -10 -10z"/>
<path d="M1210 3276 c7 -7 13 -7 20 0 6 6 3 10 -10 10 -13 0 -16 -4 -10 -10z"/>
<path d="M1250 3281 c0 -6 4 -13 10 -16 6 -3 7 1 4 9 -7 18 -14 21 -14 7z"/>
<path d="M1070 3255 c-11 -13 -10 -14 4 -9 9 3 16 10 16 15 0 13 -6 11 -20 -6z"/>
<path d="M6510 3139 c0 -6 -7 -8 -16 -5 -14 6 -15 4 -4 -9 11 -13 11 -16 1
-13 -8 2 -15 -8 -17 -22 -2 -14 -6 -37 -8 -52 -2 -15 -7 -32 -11 -37 -3 -6 -2
-11 3 -11 6 0 9 -11 8 -24 -1 -18 -4 -22 -13 -14 -9 7 -11 3 -7 -17 3 -18 1
-24 -7 -20 -8 6 -8 2 0 -14 9 -17 9 -21 -1 -19 -7 2 -12 -3 -10 -9 1 -7 -4
-13 -10 -13 -9 0 -8 -4 2 -10 9 -6 11 -10 3 -10 -7 0 -10 -7 -6 -17 4 -11 3
-14 -5 -9 -7 4 -12 2 -12 -4 0 -6 -5 -8 -11 -4 -8 4 -8 0 0 -15 7 -12 8 -20 4
-19 -4 2 -9 -1 -11 -7 -2 -5 -10 -14 -18 -18 -8 -5 -12 -12 -9 -18 4 -5 1 -9
-5 -9 -6 0 -8 -5 -4 -12 5 -8 0 -7 -11 2 -10 8 -16 10 -12 3 9 -15 -20 -63
-38 -63 -16 0 -47 -35 -38 -43 3 -4 -1 -7 -10 -7 -9 0 -17 -5 -17 -10 0 -6 -3
-9 -7 -9 -19 3 -33 -2 -33 -11 0 -5 8 -7 18 -4 14 5 14 4 -2 -6 -14 -10 -20
-10 -26 0 -5 8 -10 9 -14 2 -4 -6 3 -16 15 -23 17 -9 23 -8 30 2 7 12 9 11 9
0 0 -10 6 -8 21 7 11 12 24 20 30 17 5 -4 9 1 9 10 0 9 5 13 10 10 6 -3 10 -1
10 4 0 6 6 10 13 9 6 -2 11 3 9 11 -3 12 -1 12 15 1 10 -8 15 -10 11 -6 -4 5
0 15 10 23 9 8 11 11 3 7 -9 -5 -12 -3 -7 4 4 7 13 12 20 12 7 0 21 7 32 16
10 8 12 12 4 8 -8 -4 -1 6 16 22 17 16 34 37 37 47 4 10 11 16 16 12 5 -3 13
5 17 17 3 12 16 30 28 40 12 9 15 17 9 18 -7 0 -13 -4 -13 -10 0 -5 -5 -10
-11 -10 -8 0 -8 5 1 15 7 8 18 15 25 15 6 0 12 7 12 15 0 12 -3 12 -15 2 -13
-10 -14 -9 -2 10 8 12 17 20 21 17 4 -2 10 3 13 12 4 10 2 13 -7 8 -6 -4 -3 3
8 16 12 14 14 20 5 15 -8 -4 -4 4 10 19 21 23 22 29 10 36 -12 8 -12 10 -1 10
9 0 12 9 9 30 -2 16 0 32 6 34 7 3 6 5 -1 5 -7 1 -10 8 -7 16 4 8 1 22 -6 30
-6 8 -10 18 -7 22 3 4 -10 9 -29 10 -20 2 -34 -2 -34 -8z m-230 -509 c0 -5 -5
-10 -11 -10 -5 0 -7 5 -4 10 3 6 8 10 11 10 2 0 4 -4 4 -10z"/>
<path d="M2310 2796 c0 -2 7 -7 16 -10 8 -3 12 -2 9 4 -6 10 -25 14 -25 6z"/>
<path d="M5975 2760 c-3 -5 -1 -10 4 -10 6 0 11 5 11 10 0 6 -2 10 -4 10 -3 0
-8 -4 -11 -10z"/>
<path d="M715 2729 c-4 -6 -5 -12 -2 -15 2 -3 7 2 10 11 7 17 1 20 -8 4z"/>
<path d="M697 2690 c3 -11 9 -20 15 -20 5 0 4 9 -2 20 -6 11 -12 20 -14 20 -2
0 -2 -9 1 -20z"/>
<path d="M1506 2603 c-4 -4 -37 -8 -72 -9 -36 -1 -68 -5 -71 -8 -3 -3 -15 0
-27 6 -18 10 -19 9 -9 -3 10 -12 8 -15 -10 -15 -12 0 -25 5 -29 10 -5 7 -11 7
-20 -2 -6 -6 -27 -12 -46 -12 -19 0 -31 -4 -27 -10 3 -6 -1 -7 -9 -4 -9 3 -16
11 -17 18 0 6 -4 2 -9 -9 -6 -13 -9 -15 -9 -5 -1 13 -3 13 -10 1 -5 -8 -20
-15 -33 -15 -12 -1 -29 -6 -37 -10 -10 -7 -12 -5 -6 5 5 8 -2 5 -15 -6 -13
-11 -20 -14 -16 -7 4 7 1 12 -8 12 -10 0 -13 -6 -9 -17 6 -16 5 -16 -10 -4
-13 11 -17 11 -17 1 0 -8 -3 -10 -7 -7 -3 4 -13 1 -21 -6 -13 -9 -14 -9 -8 1
4 6 2 12 -4 12 -6 0 -13 -7 -16 -15 -4 -8 -10 -15 -16 -15 -5 0 -6 5 -3 10 4
6 -10 1 -30 -10 -20 -11 -33 -15 -29 -8 6 10 5 10 -8 0 -13 -10 -17 -10 -22 0
-3 7 -3 3 -1 -8 5 -18 2 -21 -20 -16 -27 5 -59 -14 -49 -30 4 -6 -3 -5 -15 1
-13 7 -21 8 -21 2 0 -6 -6 -8 -14 -5 -7 3 -16 -2 -19 -10 -4 -9 -13 -13 -21
-10 -8 3 -17 1 -21 -5 -3 -6 -11 -11 -16 -11 -6 0 -7 5 -3 12 4 7 3 8 -5 4 -6
-4 -9 -12 -6 -17 4 -5 -1 -9 -10 -9 -8 0 -18 -7 -21 -15 -4 -8 -10 -15 -16
-15 -5 0 -6 6 -3 13 4 6 1 5 -7 -3 -7 -9 -22 -15 -33 -15 -19 0 -21 -7 -16
-47 1 -7 8 -2 16 12 8 14 14 19 15 11 0 -11 4 -10 16 5 8 10 13 13 9 7 -9 -19
6 -16 22 5 8 9 12 11 8 5 -3 -7 -1 -13 4 -13 6 0 11 5 11 11 0 6 9 9 20 6 11
-3 18 -2 15 3 -3 4 2 13 9 19 11 9 16 9 22 0 5 -8 3 -9 -6 -4 -9 6 -11 4 -5
-5 6 -10 11 -9 21 5 8 10 17 16 20 12 3 -3 22 3 41 14 19 11 31 14 27 8 -5 -9
-3 -9 7 -3 8 5 23 10 34 10 34 3 65 16 59 25 -3 5 0 9 5 9 6 0 11 -5 11 -12 0
-6 7 -3 16 8 8 10 13 14 10 8 -3 -7 1 -14 9 -17 9 -4 12 -1 8 9 -3 8 1 14 8
15 8 1 26 2 40 3 14 0 33 7 43 15 9 8 19 11 23 7 3 -3 1 -6 -5 -6 -7 0 -12 -5
-12 -10 0 -6 13 -4 30 5 17 9 30 12 30 8 0 -5 5 -1 10 7 9 13 10 13 10 0 0
-13 2 -13 9 -1 8 12 12 12 25 2 13 -11 17 -11 21 1 4 9 15 13 29 11 13 -3 28
2 35 11 11 12 17 14 27 5 11 -9 14 -8 14 2 0 11 2 11 10 -1 5 -8 10 -10 10 -4
0 7 13 10 31 8 22 -3 28 0 23 9 -5 8 -2 7 9 -2 14 -11 17 -11 17 0 0 11 2 11
10 -1 8 -12 10 -12 10 -1 0 10 3 11 14 2 11 -9 18 -8 30 4 15 16 20 13 17 -10
-1 -5 5 -1 14 9 8 11 18 17 21 13 4 -3 15 -2 25 4 11 5 19 6 19 1 0 -5 7 -9
15 -9 8 0 15 3 15 7 0 4 7 7 15 7 8 0 15 -5 15 -11 0 -7 3 -7 8 -1 4 6 14 10
22 10 8 0 15 7 15 15 0 8 5 18 10 22 6 5 3 8 -7 8 -9 0 -24 3 -34 7 -12 5 -15
3 -9 -6 6 -10 3 -11 -11 -3 -11 5 -32 7 -47 5 -18 -2 -26 0 -22 7 7 12 2 14
-9 3z m-76 -67 c0 -3 -4 -8 -10 -11 -5 -3 -10 -1 -10 4 0 6 5 11 10 11 6 0 10
-2 10 -4z m-570 -100 c0 -2 -8 -10 -17 -17 -16 -13 -17 -12 -4 4 13 16 21 21
21 13z"/>
<path d="M6116 2543 c-3 -3 -6 -15 -6 -25 0 -15 4 -17 18 -10 9 5 25 8 35 7 9
-2 17 1 17 6 0 5 -4 10 -10 10 -20 3 -25 4 -36 11 -6 4 -14 5 -18 1z"/>
<path d="M6085 2500 c21 -24 26 -25 19 -6 -3 8 -13 17 -22 21 -13 5 -13 2 3
-15z"/>
<path d="M1235 2500 c-3 -5 -1 -10 4 -10 6 0 11 5 11 10 0 6 -2 10 -4 10 -3 0
-8 -4 -11 -10z"/>
<path d="M2810 2356 c0 -2 8 -10 18 -17 15 -13 16 -12 3 4 -13 16 -21 21 -21
13z"/>
<path d="M474 2316 c-4 -12 -10 -14 -19 -6 -8 7 -12 5 -12 -5 0 -8 4 -12 8 -9
4 2 10 -4 12 -13 4 -16 5 -16 6 1 1 15 4 16 16 6 12 -10 13 -8 10 10 -6 31
-13 36 -21 16z"/>
<path d="M555 2100 c-3 -5 -1 -10 4 -10 6 0 11 5 11 10 0 6 -2 10 -4 10 -3 0
-8 -4 -11 -10z"/>
<path d="M280 1976 c0 -2 8 -10 18 -17 15 -13 16 -12 3 4 -13 16 -21 21 -21
13z"/>
</g>
</svg>
