<svg width="20" height="19" viewBox="0 0 20 19" fill="none" xmlns="http://www.w3.org/2000/svg">
<path d="M1 3.42222C1 2.9244 1 2.67548 1.09688 2.48534C1.18211 2.31809 1.31809 2.18211 1.48534 2.09688C1.67548 2 1.9244 2 2.42222 2H15.5778C16.0756 2 16.3245 2 16.5147 2.09688C16.682 2.18211 16.8179 2.31809 16.9031 2.48534C17 2.67548 17 2.9244 17 3.42222V4.96645C17 5.18387 17 5.29257 16.9755 5.39487C16.9537 5.48557 16.9178 5.57228 16.869 5.6518C16.814 5.74151 16.7372 5.81838 16.5835 5.97212L11.1943 11.3612C11.0406 11.5149 10.9637 11.5918 10.9088 11.6815C10.86 11.7611 10.8241 11.8477 10.8023 11.9385C10.7778 12.0408 10.7778 12.1495 10.7778 12.3668V14.4444L7.22222 18V12.3668C7.22222 12.1495 7.22222 12.0408 7.19766 11.9385C7.17588 11.8477 7.13997 11.7611 7.09124 11.6815C7.03627 11.5918 6.9594 11.5149 6.80566 11.3612L1.41656 5.97212C1.26283 5.81838 1.18596 5.74151 1.13099 5.6518C1.08225 5.57228 1.04634 5.48557 1.02456 5.39487C1 5.29257 1 5.18387 1 4.96645V3.42222Z" stroke="black" stroke-width="1.88889" stroke-linecap="round" stroke-linejoin="round"/>
<circle cx="15.5" cy="4.5" r="4.5" fill="black"/>
<rect x="16.8809" y="2.35742" width="1" height="5" rx="0.5" transform="rotate(44.1044 16.8809 2.35742)" fill="#D9D9D9"/>
<rect x="17.6431" y="5.88086" width="1" height="5" rx="0.5" transform="rotate(134.104 17.6431 5.88086)" fill="#D9D9D9"/>
</svg>
