<svg width="19" height="19" viewBox="0 0 19 19" fill="none" xmlns="http://www.w3.org/2000/svg">
<path d="M3.67679 0.630832C2.83568 -0.210277 1.47194 -0.210277 0.630832 0.630832C-0.210277 1.47197 -0.210277 2.83568 0.630832 3.67676L6.28722 9.33326L0.630889 14.9898C-0.21022 15.8306 -0.21022 17.1944 0.630889 18.0355C1.472 18.8767 2.83574 18.8767 3.67679 18.0355L9.33329 12.3793L14.9895 18.0355C15.8306 18.8767 17.1944 18.8767 18.0356 18.0355C18.8767 17.1944 18.8767 15.8306 18.0356 14.9895L12.3791 9.33326L18.0356 3.67676C18.8767 2.83574 18.8767 1.47203 18.0356 0.630917C17.1944 -0.210221 15.8306 -0.210221 14.9895 0.630917L9.33329 6.28719L3.67679 0.630832Z" fill="#1C274C"/>
</svg>
