<svg width="16" height="16" viewBox="0 0 16 16" fill="none" xmlns="http://www.w3.org/2000/svg">
<g opacity="0.8">
<path d="M7.54961 2.45508H4.06475C3.32535 2.45508 2.61628 2.7488 2.09345 3.27163C1.57062 3.79446 1.27686 4.50357 1.27686 5.24297V12.2127C1.27686 12.9521 1.57062 13.6612 2.09345 14.184C2.61628 14.7069 3.32535 15.0006 4.06475 15.0006H11.7314C13.2718 15.0006 13.8224 13.746 13.8224 12.2127V8.72783" fill="white" fill-opacity="0.5"/>
<path d="M7.54961 2.45508H4.06475C3.32535 2.45508 2.61628 2.7488 2.09345 3.27163C1.57062 3.79446 1.27686 4.50357 1.27686 5.24297V12.2127C1.27686 12.9521 1.57062 13.6612 2.09345 14.184C2.61628 14.7069 3.32535 15.0006 4.06475 15.0006H11.7314C13.2718 15.0006 13.8224 13.746 13.8224 12.2127V8.72783" stroke="#024093" stroke-width="1.04546" stroke-linecap="round" stroke-linejoin="round"/>
<path d="M14.7145 4.12712L8.06538 10.7762C7.40326 11.4383 5.43777 11.745 4.99868 11.3059C4.55959 10.8668 4.85929 8.90135 5.52141 8.23923L12.1775 1.58315C12.3417 1.40407 12.5404 1.26012 12.7617 1.15996C12.983 1.05981 13.2224 1.00551 13.4652 1.0004C13.7081 0.995289 13.9495 1.03944 14.1748 1.13019C14.4002 1.22094 14.6048 1.35643 14.7763 1.52845C14.9478 1.70046 15.0828 1.90544 15.1729 2.13102C15.263 2.35661 15.3066 2.59811 15.3008 2.84097C15.295 3.08383 15.24 3.32302 15.1393 3.54407C15.0385 3.76511 14.894 3.96347 14.7145 4.12712Z" fill="white" fill-opacity="0.5" stroke="#024093" stroke-width="1.04546" stroke-linecap="round" stroke-linejoin="round"/>
</g>
</svg>
