<svg width="29" height="29" viewBox="0 0 29 29" fill="none" xmlns="http://www.w3.org/2000/svg">
<path d="M26.489 6.93169L13.8766 19.544C12.6206 20.8 8.89241 21.3817 8.05951 20.5488C7.22662 19.7159 7.7951 15.9877 9.05105 14.7317L21.6767 2.10615C21.9881 1.76646 22.365 1.4934 22.7849 1.30343C23.2046 1.11345 23.6586 1.01046 24.1193 1.00075C24.5799 0.991064 25.0379 1.0748 25.4653 1.24695C25.8927 1.41909 26.2809 1.6761 26.6063 2.00238C26.9316 2.32867 27.1876 2.71748 27.3585 3.14538C27.5294 3.57329 27.6121 4.03138 27.6011 4.49205C27.5901 4.95272 27.4858 5.40643 27.2948 5.82572C27.1036 6.24501 26.8295 6.62126 26.489 6.93169Z" stroke="#024093" stroke-width="1.98308" stroke-linecap="round" stroke-linejoin="round"/>
<path d="M12.8985 3.75879H6.28822C4.88569 3.75879 3.5407 4.31593 2.54896 5.30767C1.55723 6.29941 1 7.64448 1 9.04701V22.2675C1 23.6701 1.55723 25.0152 2.54896 26.0068C3.5407 26.9986 4.88569 27.5558 6.28822 27.5558H20.8308C23.7525 27.5558 24.797 25.1761 24.797 22.2675V15.6573" stroke="#024093" stroke-width="1.98308" stroke-linecap="round" stroke-linejoin="round"/>
</svg>
