<svg width="31" height="27" viewBox="0 0 31 27" fill="none" xmlns="http://www.w3.org/2000/svg">
<path d="M20.6726 21.3496C21.7964 21.3496 22.7075 22.2606 22.7075 23.3845C22.7075 24.5084 21.7964 25.4195 20.6726 25.4195C19.5488 25.4195 18.6377 24.5084 18.6377 23.3845C18.6377 22.2606 19.5488 21.3496 20.6726 21.3496Z" stroke="#024093" stroke-width="1.39541"/>
<path d="M1 1L1.35938 1.11979C3.15017 1.71673 4.04556 2.01518 4.5577 2.72575C5.06985 3.4363 5.06985 4.38013 5.06985 6.26779V9.818C5.06985 13.655 5.06985 15.5736 6.26188 16.7656C7.45391 17.9577 9.37244 17.9577 13.2095 17.9577H24.0625" stroke="#024093" stroke-width="1.39541" stroke-linecap="round"/>
<path d="M8.46119 21.3496C9.58505 21.3496 10.4961 22.2607 10.4961 23.3845C10.4961 24.5084 9.58505 25.4195 8.46119 25.4195C7.33733 25.4195 6.42627 24.5084 6.42627 23.3845C6.42627 22.2607 7.33733 21.3496 8.46119 21.3496Z" stroke="#024093" stroke-width="1.39541"/>
<path d="M5.61914 6.38867H21.9001C24.822 6.38867 26.2828 6.38867 26.9151 7.20441C27.5473 8.02016 26.9717 9.16273 25.8207 11.4479L25.2113 12.6577C24.674 13.7246 24.4053 14.258 23.8711 14.5578C23.3369 14.8574 22.6548 14.8574 21.2907 14.8574H5.61914" stroke="#024093" stroke-width="1.39541"/>
<circle cx="25.4198" cy="6.23279" r="5.23279" fill="#024093"/>
<path d="M27.455 5.36133L24.8386 7.97772L23.6758 6.81488" stroke="white" stroke-width="0.872131" stroke-linecap="round" stroke-linejoin="round"/>
</svg>
