<svg width="24" height="28" viewBox="0 0 24 28" fill="none" xmlns="http://www.w3.org/2000/svg">
<path d="M1.11056 6.50718H6.17426V5.50746C6.20492 4.03665 6.82993 2.6361 7.91514 1.60642C9.00035 0.576737 10.4593 0 11.9787 0C13.4982 0 14.9571 0.576737 16.0423 1.60642C17.1275 2.6361 17.7526 4.03665 17.7832 5.50746V6.50718H22.8871C23.0332 6.50708 23.178 6.53492 23.313 6.58909C23.448 6.64327 23.5707 6.72271 23.6739 6.82288C23.881 7.02504 23.998 7.29768 24 7.58239V24.1384C23.9969 25.1616 23.5757 26.1421 22.8283 26.8656C22.081 27.5892 21.0683 27.997 20.0114 28H3.98858C2.9317 27.997 1.919 27.5892 1.17167 26.8656C0.424342 26.1421 0.00311674 25.1616 0 24.1384L0 7.58239C0.000624282 7.29741 0.11783 7.02428 0.325966 6.82277C0.534102 6.62126 0.816216 6.50778 1.11056 6.50718ZM4.81323 14.5004H7.03672C7.1132 14.5015 7.18617 14.5316 7.24003 14.5842C7.2939 14.6368 7.32439 14.7077 7.325 14.7817V16.9345C7.325 17.0091 7.29438 17.0807 7.23987 17.1334C7.18537 17.1862 7.11144 17.2158 7.03436 17.2158H4.81323C4.73615 17.2158 4.66223 17.1862 4.60772 17.1334C4.55322 17.0807 4.5226 17.0091 4.5226 16.9345V14.7817C4.52321 14.7073 4.55403 14.6361 4.6084 14.5834C4.66278 14.5308 4.73634 14.501 4.81323 14.5004ZM10.4842 16.7148C10.0731 16.7148 9.74225 16.3328 9.74225 15.8592C9.74225 15.3857 10.0731 15.0014 10.4842 15.0014H19.2269C19.6381 15.0014 19.9713 15.3857 19.9713 15.8592C19.9883 16.068 19.9198 16.2748 19.7805 16.4349C19.6411 16.5951 19.4423 16.6956 19.2269 16.7148H10.4842ZM4.41154 22.1252C4.36923 22.0765 4.33789 22.0198 4.31951 21.9587C4.30113 21.8976 4.29611 21.8335 4.30478 21.7704C4.31346 21.7073 4.33563 21.6467 4.36987 21.5923C4.40412 21.538 4.4497 21.4912 4.50369 21.4549C4.60174 21.3624 4.73202 21.3087 4.8689 21.3044C5.00577 21.3002 5.13933 21.3457 5.24328 21.4321L5.76076 21.9468L7.05563 20.6634C7.10476 20.6211 7.16248 20.5892 7.22507 20.5697C7.28766 20.5503 7.35377 20.5437 7.41915 20.5503C7.48453 20.557 7.54775 20.5768 7.60478 20.6085C7.6618 20.6402 7.71137 20.683 7.75032 20.7343C7.84884 20.8266 7.90828 20.9511 7.91702 21.0835C7.92576 21.2159 7.88317 21.3467 7.79758 21.4504L6.08211 23.1547C6.03297 23.197 5.97526 23.2289 5.91267 23.2483C5.85007 23.2678 5.78397 23.2744 5.71859 23.2677C5.65321 23.2611 5.58998 23.2412 5.53296 23.2096C5.47594 23.1779 5.42636 23.135 5.38742 23.0838L5.34725 23.038C5.31922 23.02 5.2931 22.9993 5.26927 22.9762L4.41154 22.1252ZM10.4228 22.7658C10.014 22.7658 9.6879 22.3814 9.6879 21.9102C9.6879 21.4389 10.0211 21.0523 10.4299 21.0523H19.1726C19.5814 21.0523 19.9145 21.4366 19.9145 21.9102C19.9145 22.3837 19.5814 22.7658 19.1726 22.7658H10.4228ZM7.58728 6.50718H16.3678V5.50746C16.3412 4.39752 15.8671 3.34172 15.0469 2.56583C14.2267 1.78993 13.1255 1.35554 11.9787 1.35554C10.832 1.35554 9.73078 1.78993 8.91056 2.56583C8.09035 3.34172 7.61624 4.39752 7.58964 5.50746V6.50718H7.58728ZM6.16954 9.16318V7.87521H1.41774V24.1384C1.42023 24.7984 1.69214 25.4306 2.17417 25.8973C2.6562 26.364 3.30925 26.6273 3.99094 26.6297H20.0114C20.6918 26.6231 21.3424 26.3585 21.8235 25.8927C22.3046 25.427 22.5779 24.7971 22.5846 24.1384V7.87521H17.7832V9.17691C18.1089 9.33737 18.3687 9.59994 18.5205 9.92178C18.6722 10.2436 18.7068 10.6057 18.6186 10.9491C18.5304 11.2924 18.3247 11.5967 18.0349 11.8122C17.7452 12.0278 17.3886 12.1419 17.0232 12.136C16.6578 12.1301 16.3053 12.0045 16.0232 11.7798C15.741 11.555 15.5459 11.2442 15.4695 10.8983C15.3932 10.5523 15.4403 10.1915 15.603 9.87471C15.7657 9.55794 16.0345 9.3039 16.3655 9.15403V7.87521H7.58964V9.16776C7.91804 9.32293 8.18243 9.58126 8.33968 9.90061C8.49694 10.22 8.53777 10.5815 8.45553 10.9262C8.37328 11.2709 8.17281 11.5784 7.88682 11.7987C7.60082 12.0189 7.24619 12.1388 6.88077 12.1388C6.51535 12.1388 6.16072 12.0189 5.87473 11.7987C5.58873 11.5784 5.38826 11.2709 5.30602 10.9262C5.22377 10.5815 5.26461 10.22 5.42186 9.90061C5.57911 9.58126 5.84351 9.32293 6.1719 9.16776L6.16954 9.16318Z" fill="#024093"/>
</svg>
