<svg width="33" height="29" viewBox="0 0 33 29" fill="none" xmlns="http://www.w3.org/2000/svg">
<path d="M6.81396 17.8413L9.88017 14.775C10.4024 14.2528 11.2491 14.2528 11.7713 14.775L13.892 16.8957C14.4142 17.4179 15.2609 17.4179 15.7831 16.8957L20.1866 12.4922M20.1866 12.4922V15.8354M20.1866 12.4922H16.8435" stroke="#024093" stroke-width="1.56984" stroke-linecap="round" stroke-linejoin="round"/>
<path d="M27.7453 14.2945C27.7453 20.5984 27.7453 23.7505 25.7869 25.7088C23.8286 27.6672 20.6765 27.6672 14.3727 27.6672C8.06872 27.6672 4.91676 27.6672 2.95839 25.7088C1 23.7505 1 20.5984 1 14.2945C1 7.9906 1 4.83863 2.95839 2.88026C4.91676 0.921875 8.06872 0.921875 14.3727 0.921875C20.6765 0.921875 23.8286 0.921875 25.7869 2.88026C27.0891 4.18241 27.5255 6.01224 27.6716 8.94547" stroke="#024093" stroke-width="1.56984" stroke-linecap="round"/>
<circle cx="27.6" cy="8.7699" r="5.23279" fill="#024093"/>
<path d="M29.4549 10.1476C29.4549 10.3816 29.3964 10.6014 29.2795 10.8073C29.1672 11.0131 28.9988 11.1862 28.7742 11.3266C28.5543 11.4669 28.2923 11.5511 27.9882 11.5792V12.1476H27.5321V11.5792C27.0923 11.5371 26.7368 11.3991 26.4654 11.1652C26.1941 10.9313 26.0584 10.6225 26.0584 10.2389H26.9146C26.9286 10.4213 26.9871 10.5734 27.09 10.695C27.1929 10.812 27.3403 10.8868 27.5321 10.9196V9.3757C27.2186 9.29617 26.9637 9.21664 26.7672 9.13711C26.5707 9.0529 26.4023 8.9219 26.2619 8.74412C26.1262 8.56635 26.0584 8.32307 26.0584 8.0143C26.0584 7.626 26.1941 7.30553 26.4654 7.0529C26.7368 6.79559 27.0923 6.64588 27.5321 6.60377V6.03535H27.9882V6.60377C28.3999 6.6412 28.7298 6.77219 28.9777 6.99676C29.2303 7.21664 29.373 7.52073 29.4058 7.90904H28.5496C28.5356 7.76401 28.4795 7.63535 28.3812 7.52307C28.283 7.40611 28.152 7.32658 27.9882 7.28447V8.80027C28.3017 8.87512 28.5567 8.95465 28.7532 9.03886C28.9496 9.11839 29.1157 9.24705 29.2514 9.42483C29.3871 9.59793 29.4549 9.83886 29.4549 10.1476ZM26.8724 7.97219C26.8724 8.16401 26.9286 8.31372 27.0409 8.42132C27.1578 8.52892 27.3216 8.61547 27.5321 8.68097V7.26342C27.3309 7.28681 27.1695 7.35933 27.0479 7.48097C26.9309 7.6026 26.8724 7.76635 26.8724 7.97219ZM27.9882 10.9196C28.1941 10.8868 28.3555 10.8049 28.4724 10.674C28.5894 10.5383 28.6479 10.3769 28.6479 10.1897C28.6479 10.0026 28.5894 9.85758 28.4724 9.75465C28.3602 9.64705 28.1988 9.5605 27.9882 9.495V10.9196Z" fill="white"/>
</svg>
