<svg width="26" height="28" viewBox="0 0 26 28" fill="none" xmlns="http://www.w3.org/2000/svg">
<path d="M10.9942 26.3911C11.4025 26.3911 11.7359 26.7223 11.7359 27.1306C11.7359 27.5388 11.4048 27.87 10.9942 27.87H1.72387C1.24981 27.87 0.818839 27.6772 0.50582 27.3642C0.192801 27.0534 0 26.6247 0 26.1484V1.72387C0 1.24754 0.192801 0.818839 0.50582 0.50582C0.818839 0.192801 1.24754 0 1.72387 0H22.8867C23.3607 0 23.7917 0.19507 24.1047 0.50582C24.4177 0.818839 24.6105 1.24754 24.6105 1.72387V13.9611C24.6105 14.3694 24.2794 14.7005 23.8711 14.7005C23.4628 14.7005 23.1316 14.3694 23.1316 13.9611V1.72387C23.1316 1.65809 23.1044 1.59685 23.059 1.55375C23.0137 1.50839 22.9524 1.48117 22.8889 1.48117H1.72387C1.65809 1.48117 1.59685 1.50839 1.55148 1.55148C1.50839 1.59912 1.48117 1.65809 1.48117 1.72387V26.1484C1.48117 26.2142 1.50839 26.2754 1.55375 26.3185C1.59912 26.3639 1.66036 26.3911 1.72614 26.3911H10.9942ZM7.69844 13.1377C7.55781 12.895 7.65988 12.2009 7.96156 11.956C8.8235 11.4524 10.0121 11.6089 10.8422 11.0282C10.8899 10.9557 10.942 10.8513 10.9942 10.7356C11.0691 10.5632 11.1394 10.375 11.1825 10.2457C10.9987 10.0279 10.84 9.78297 10.6903 9.54253L10.1913 8.74864C10.0098 8.47645 9.91453 8.22695 9.90772 8.0228C9.90545 7.92754 9.92133 7.83908 9.95762 7.76196C9.99391 7.6803 10.0506 7.61452 10.13 7.56235C10.1663 7.5374 10.2071 7.51698 10.2502 7.50111C10.2162 7.07014 10.2049 6.52803 10.2275 6.07211C10.2389 5.9655 10.2593 5.85662 10.2888 5.74775C10.4158 5.29183 10.7356 4.92437 11.1326 4.6726C11.3503 4.53423 11.5908 4.42763 11.8403 4.35731C11.999 4.31195 11.7042 3.80613 11.8698 3.78798C12.6636 3.70632 13.9452 4.42989 14.4987 5.02871C14.7754 5.32812 14.95 5.72733 14.9886 6.25357L14.9568 7.54874C15.0952 7.59184 15.1837 7.67803 15.22 7.82093C15.2608 7.97971 15.2177 8.19973 15.0816 8.50367C15.0793 8.50821 15.0771 8.51502 15.0725 8.51955L14.5032 9.45634C14.2945 9.80111 14.0813 10.1459 13.8046 10.4181C13.8295 10.4544 13.8567 10.4907 13.8817 10.527C13.9951 10.6925 14.1085 10.8581 14.2537 11.0056C14.2582 11.0101 14.2628 11.0169 14.265 11.0214C14.9206 11.4842 16.5151 11.5976 17.1276 11.9378L17.1525 11.9514C17.4678 12.1941 17.5653 12.8882 17.4202 13.1309H7.69844V13.1377ZM23.2019 17.9283C23.0817 17.8126 22.9434 17.7581 22.7846 17.7604C22.6235 17.7627 22.4874 17.8262 22.3763 17.9441L21.4577 18.9013L24.0367 21.3919L24.9644 20.4256C25.0755 20.3122 25.1209 20.167 25.1186 20.0082C25.1163 19.8517 25.0596 19.7066 24.9462 19.6L23.2019 17.9283ZM19.1758 26.3503C18.8356 26.4592 18.4953 26.5703 18.1574 26.6814C17.8171 26.7949 17.4769 26.9083 17.1389 27.0217C16.3382 27.2848 15.8891 27.43 15.7938 27.4572C15.7031 27.4844 15.7553 27.1101 15.9594 26.3253L16.5968 23.8688L20.6388 19.7451L23.2156 22.2243L19.1758 26.3503ZM7.19943 21.63C6.79114 21.63 6.45771 21.2943 6.45771 20.8793C6.45771 20.4642 6.78888 20.1285 7.19943 20.1285H12.2372C12.6455 20.1285 12.9789 20.4642 12.9789 20.8793C12.9789 21.2943 12.6478 21.63 12.2372 21.63H7.19943ZM7.19943 16.937C6.79114 16.937 6.45998 16.6059 6.45998 16.1953C6.45998 15.787 6.79114 15.4559 7.19943 15.4559H17.1911C17.5994 15.4559 17.9305 15.787 17.9305 16.1953C17.9305 16.6036 17.5994 16.937 17.1911 16.937H7.19943Z" fill="#024093"/>
</svg>
