<svg width="25" height="23" viewBox="0 0 25 23" fill="none" xmlns="http://www.w3.org/2000/svg">
<path d="M17.6909 18.2656C18.6443 18.2656 19.4173 19.0385 19.4173 19.9921C19.4173 20.9456 18.6443 21.7186 17.6909 21.7186C16.7374 21.7186 15.9644 20.9456 15.9644 19.9921C15.9644 19.0385 16.7374 18.2656 17.6909 18.2656Z" stroke="#024093" stroke-width="2"/>
<path d="M1 1L1.30491 1.10163C2.82427 1.6081 3.58396 1.86131 4.01847 2.46418C4.45299 3.06704 4.45299 3.86781 4.45299 5.46937V8.48149C4.45299 11.737 4.45299 13.3647 5.46435 14.3761C6.47571 15.3875 8.10346 15.3875 11.359 15.3875H20.567" stroke="#024093" stroke-width="2" stroke-linecap="round"/>
<path d="M7.33001 18.2656C8.28353 18.2656 9.05651 19.0386 9.05651 19.9921C9.05651 20.9456 8.28353 21.7186 7.33001 21.7186C6.37649 21.7186 5.60352 20.9456 5.60352 19.9921C5.60352 19.0386 6.37649 18.2656 7.33001 18.2656Z" stroke="#024093" stroke-width="2"/>
<path d="M4.91895 5.57227H18.7322C21.2113 5.57227 22.4507 5.57227 22.9872 6.26436C23.5235 6.95647 23.0352 7.92587 22.0587 9.8647L21.5416 10.8912C21.0857 11.7963 20.8577 12.2488 20.4045 12.5032C19.9513 12.7575 19.3726 12.7575 18.2152 12.7575H4.91895" stroke="#024093" stroke-width="2"/>
</svg>
