<svg width="26" height="23" viewBox="0 0 26 23" fill="none" xmlns="http://www.w3.org/2000/svg">
<path d="M8.28623 10.5117H8.29872M13.284 10.5117H13.2965M18.2817 10.5117H18.2942M24.5289 21.7566L20.3754 19.6797C20.0605 19.5223 19.9031 19.4436 19.738 19.3881C19.5916 19.3389 19.4408 19.3033 19.2877 19.2818C19.1153 19.2577 18.9393 19.2577 18.5873 19.2577H6.03725C4.63775 19.2577 3.938 19.2577 3.40347 18.9853C2.93327 18.7458 2.55099 18.3635 2.31143 17.8933C2.03906 17.3588 2.03906 16.659 2.03906 15.2595V5.76381C2.03906 4.36431 2.03906 3.66456 2.31143 3.13003C2.55099 2.65983 2.93327 2.27756 3.40347 2.03799C3.938 1.76562 4.63776 1.76563 6.03725 1.76563H20.5307C21.9302 1.76563 22.63 1.76562 23.1645 2.03799C23.6346 2.27756 24.017 2.65983 24.2565 3.13003C24.5289 3.66456 24.5289 4.36432 24.5289 5.76381V21.7566Z" stroke="#024093" stroke-width="2.49887" stroke-linecap="round" stroke-linejoin="round"/>
</svg>
