<svg width="25" height="23" viewBox="0 0 25 23" fill="none" xmlns="http://www.w3.org/2000/svg">
<path d="M17.691 18.2656C18.6445 18.2656 19.4175 19.0385 19.4175 19.9921C19.4175 20.9456 18.6445 21.7186 17.691 21.7186C16.7375 21.7186 15.9645 20.9456 15.9645 19.9921C15.9645 19.0385 16.7375 18.2656 17.691 18.2656Z" stroke="#024093" stroke-width="2"/>
<path d="M1 1L1.30491 1.10163C2.82427 1.6081 3.58396 1.86131 4.01847 2.46418C4.45299 3.06704 4.45299 3.86781 4.45299 5.46937V8.48149C4.45299 11.737 4.45299 13.3647 5.46435 14.3761C6.47571 15.3875 8.10346 15.3875 11.359 15.3875H20.567" stroke="#024093" stroke-width="2" stroke-linecap="round"/>
<path d="M7.32989 18.2656C8.28341 18.2656 9.05639 19.0386 9.05639 19.9921C9.05639 20.9456 8.28341 21.7186 7.32989 21.7186C6.37637 21.7186 5.60339 20.9456 5.60339 19.9921C5.60339 19.0386 6.37637 18.2656 7.32989 18.2656Z" stroke="#024093" stroke-width="2"/>
<path d="M4.91919 5.57227H18.7325C21.2116 5.57227 22.451 5.57227 22.9874 6.26436C23.5238 6.95647 23.0355 7.92587 22.0589 9.8647L21.5419 10.8912C21.086 11.7963 20.858 12.2488 20.4047 12.5032C19.9515 12.7575 19.3728 12.7575 18.2154 12.7575H4.91919" stroke="#024093" stroke-width="2"/>
</svg>
