<svg width="24" height="24" viewBox="0 0 24 24" fill="none" xmlns="http://www.w3.org/2000/svg">
<path d="M20.1909 1H16.5925C15.2676 1 14.1936 2.07403 14.1936 3.39891V6.99728C14.1936 8.32216 15.2676 9.39618 16.5925 9.39618H20.1909C21.5158 9.39618 22.5898 8.32216 22.5898 6.99728V3.39891C22.5898 2.07403 21.5158 1 20.1909 1Z" stroke="#024093" stroke-width="1.79918" stroke-linecap="round" stroke-linejoin="round"/>
<path d="M6.99728 1H3.39891C2.07403 1 1 2.07403 1 3.39891V6.99728C1 8.32216 2.07403 9.39618 3.39891 9.39618H6.99728C8.32216 9.39618 9.39619 8.32216 9.39619 6.99728V3.39891C9.39619 2.07403 8.32216 1 6.99728 1Z" stroke="#024093" stroke-width="1.79918" stroke-linecap="round" stroke-linejoin="round"/>
<path d="M20.1909 14.1943H16.5925C15.2676 14.1943 14.1936 15.2683 14.1936 16.5932V20.1916C14.1936 21.5165 15.2676 22.5905 16.5925 22.5905H20.1909C21.5158 22.5905 22.5898 21.5165 22.5898 20.1916V16.5932C22.5898 15.2683 21.5158 14.1943 20.1909 14.1943Z" stroke="#024093" stroke-width="1.79918" stroke-linecap="round" stroke-linejoin="round"/>
<path d="M6.99728 14.1943H3.39891C2.07403 14.1943 1 15.2683 1 16.5932V20.1916C1 21.5165 2.07403 22.5905 3.39891 22.5905H6.99728C8.32216 22.5905 9.39619 21.5165 9.39619 20.1916V16.5932C9.39619 15.2683 8.32216 14.1943 6.99728 14.1943Z" stroke="#024093" stroke-width="1.79918" stroke-linecap="round" stroke-linejoin="round"/>
</svg>
