<svg width="30" height="26" viewBox="0 0 30 26" fill="none" xmlns="http://www.w3.org/2000/svg">
<path d="M9.81237 21.0111H25.336C25.7628 21.0111 26.1334 20.717 26.2305 20.3014L29.1458 7.8221C29.2097 7.54902 29.1452 7.26185 28.971 7.04218C28.7968 6.8225 28.5317 6.69444 28.2513 6.69444H7.70208L6.71479 2.30582C6.63181 1.93689 6.33497 1.65408 5.96243 1.58897L1.7462 0.852046C1.23679 0.762938 0.751625 1.10381 0.662579 1.61323C0.573533 2.12264 0.914285 2.60774 1.42376 2.69679L5.02481 3.32617L8.64074 19.3992C7.46838 19.8666 6.63714 21.0123 6.63714 22.3495C6.63714 24.1006 8.06157 25.5252 9.81237 25.5252H28.074C28.5813 25.5252 28.9926 25.1139 28.9926 24.6065C28.9926 24.0992 28.5813 23.6879 28.074 23.6879H9.81237C9.07458 23.6879 8.47441 23.0875 8.47441 22.3495C8.47441 21.6115 9.07458 21.0111 9.81237 21.0111ZM16.6452 19.1738H14.7601L13.7766 14.7714H16.6451V19.1738H16.6452ZM24.6276 8.53171H27.0934L26.0649 12.9341H23.6441L24.6276 8.53171ZM25.6356 14.7714L24.6072 19.1739H22.2502L23.2337 14.7714H25.6356ZM18.4824 8.53171H22.745L21.7615 12.9341H18.4824V8.53171H18.4824ZM18.4824 14.7714H21.3512L20.3677 19.1739H18.4824V14.7714ZM16.6452 8.53171V12.9341H13.3663L12.3828 8.53171H16.6452ZM12.8775 19.1738H10.5201L9.5192 14.7714H11.8941L12.8775 19.1738ZM10.5002 8.53171L11.4837 12.9341H9.10588L8.11546 8.53171H10.5002Z" fill="#024093"/>
</svg>
