<svg width="30" height="25" viewBox="0 0 30 25" fill="none" xmlns="http://www.w3.org/2000/svg">
<path d="M0.17692 13.7884C0.422808 15.6925 2.04627 17.1625 4.01818 17.1625C5.98768 17.1625 7.60995 15.6925 7.85643 13.7884H0.17692ZM21.0996 21.5843C21.0996 21.9159 20.8321 22.1858 20.5011 22.1858H9.31257C8.98392 22.1858 8.71285 21.9159 8.71285 21.5843C8.71285 21.255 8.98332 20.9887 9.31257 20.9887H20.5005C20.8315 20.9887 21.0996 21.255 21.0996 21.5843ZM8.77822 22.4923H21.0349V24.2237H8.77822V22.4923ZM22.13 13.7884C22.3752 15.6925 24.0005 17.1625 25.9694 17.1625C27.9395 17.1625 29.5624 15.6925 29.8071 13.7884H22.13ZM29.596 12.5836L26.4516 8.25233H28.1326C28.5416 8.25233 28.8709 7.91708 28.8709 7.50267C28.8709 7.09185 28.541 6.7602 28.1326 6.7602H19.2279C18.6971 5.29627 17.4161 4.19637 15.849 3.92229V1.58515C15.849 1.16954 15.5156 0.837891 15.1023 0.837891L15.0328 0.845687L14.9632 0.837891C14.55 0.837891 14.2177 1.16954 14.2177 1.58515V3.92109C12.6507 4.19517 11.3702 5.29507 10.8401 6.759H1.93352C1.52751 6.759 1.19646 7.09065 1.19646 7.50147C1.19646 7.91648 1.52751 8.25113 1.93352 8.25113H3.53779L0.392822 12.5824H0V13.3824H8.03515V12.5824H7.64053L4.49676 8.25233H11.7948C11.7948 8.0832 11.8134 7.91708 11.8386 7.75815C11.8644 7.68318 11.8818 7.60702 11.8818 7.52845C12.1565 6.37098 13.0609 5.4516 14.2177 5.16972V13.3842H14.1866C14.1224 16.474 12.6525 19.1686 10.4718 20.6829H19.5961C17.4149 19.1686 15.9462 16.474 15.8784 13.3842H15.8496V5.16972C17.0047 5.4516 17.9121 6.37098 18.1849 7.52845C18.1873 7.60702 18.2035 7.68318 18.2299 7.75815C18.2539 7.91768 18.2689 8.0832 18.2689 8.25233H25.4908L22.3459 12.5836H21.9536V13.3836H29.9864V12.5836H29.596ZM3.69732 12.5836H1.18746L3.69732 9.12613V12.5836ZM4.33963 12.5836V9.12613L6.84949 12.5836H4.33963ZM25.6492 12.5836H23.1381L25.6492 9.12613V12.5836ZM26.2885 12.5836V9.12613L28.8013 12.5836H26.2885ZM4.76244 5.71788C4.76244 6.12509 4.42899 6.46094 4.01878 6.46094C3.60676 6.46094 3.27211 6.12509 3.27211 5.71788C3.27211 5.30646 3.60676 4.97062 4.01878 4.97062C4.42899 4.97002 4.76244 5.30646 4.76244 5.71788ZM26.7149 5.67829C26.7149 6.09271 26.3814 6.42136 25.97 6.42136C25.5568 6.42136 25.2252 6.09271 25.2252 5.67829C25.2252 5.26688 25.5568 4.93163 25.97 4.93163C26.3814 4.93163 26.7149 5.26688 26.7149 5.67829Z" fill="#024093"/>
</svg>
