<svg width="18" height="23" viewBox="0 0 18 23" fill="none" xmlns="http://www.w3.org/2000/svg">
<path d="M17.1198 21.4687C17.1189 21.6676 17.0395 21.858 16.8987 21.9985C16.758 22.1389 16.5674 22.218 16.3685 22.2184H1.58364C1.38508 22.2176 1.19488 22.1383 1.05447 21.9979C0.914064 21.8575 0.834815 21.6673 0.833984 21.4687V0.782863C0.834815 0.584296 0.914064 0.3941 1.05447 0.253691C1.19488 0.113283 1.38508 0.034034 1.58364 0.0332031H12.5524L17.1182 4.59903L17.1198 21.4687ZM15.3679 5.80637H12.2257C11.9855 5.80596 11.7553 5.71038 11.5855 5.54058C11.4157 5.37078 11.3202 5.1406 11.3198 4.90047V1.78188H2.58424V20.4681H15.3711L15.3679 5.80637ZM5.67284 3.74047C5.35126 3.74016 5.03682 3.83523 4.76929 4.01366C4.50176 4.19209 4.29316 4.44586 4.16988 4.74287C4.0466 5.03988 4.01418 5.36678 4.07673 5.68221C4.13927 5.99765 4.29397 6.28744 4.52125 6.51494C4.74853 6.74244 5.03817 6.89742 5.35355 6.96027C5.66892 7.02312 5.99585 6.99102 6.29298 6.86803C6.59011 6.74505 6.84408 6.53669 7.02277 6.26933C7.20146 6.00197 7.29684 5.68762 7.29684 5.36605C7.29684 5.15257 7.25479 4.94119 7.1731 4.74396C7.09141 4.54674 6.97167 4.36754 6.82072 4.21659C6.66977 4.06564 6.49057 3.9459 6.29334 3.86421C6.09612 3.78251 5.88474 3.74047 5.67126 3.74047H5.67284ZM13.4977 8.87445H4.23349V10.6231H13.4977V8.87445ZM13.4977 12.5896H4.23349V14.3399H13.4977V12.5896ZM13.4977 16.3048H4.23349V18.055H13.4977V16.3048Z" fill="#024093"/>
</svg>
