<svg width="25" height="27" viewBox="0 0 25 27" fill="none" xmlns="http://www.w3.org/2000/svg">
<path fill-rule="evenodd" clip-rule="evenodd" d="M15.9303 5.66246e-07H10.8621C8.5659 -2.44224e-05 6.74718 -3.6994e-05 5.32381 0.191339C3.85895 0.388274 2.6733 0.803236 1.73826 1.73826C0.803236 2.6733 0.388274 3.85895 0.191339 5.32381C-3.6845e-05 6.74718 -2.44225e-05 8.56589 5.66188e-07 10.862V18.4291C5.66188e-07 20.7683 1.71429 22.7072 3.95509 23.0579C4.12748 24.0125 4.45739 24.8272 5.12061 25.4906C5.87267 26.2426 6.81958 26.5661 7.94421 26.7173C9.02743 26.8628 10.4047 26.8628 12.1134 26.8628H15.9989C17.7076 26.8628 19.0848 26.8628 20.1681 26.7173C21.2927 26.5661 22.2395 26.2426 22.9917 25.4906C23.7437 24.7384 24.0672 23.7916 24.2184 22.667C24.3639 21.5837 24.3639 20.2065 24.3639 18.4977V12.1134C24.3639 10.4047 24.3639 9.02743 24.2184 7.94421C24.0672 6.81958 23.7437 5.87267 22.9917 5.12061C22.3284 4.45739 21.5136 4.12748 20.559 3.95509C20.2083 1.71429 18.2695 5.66246e-07 15.9303 5.66246e-07ZM18.5907 3.77475C18.2124 2.66908 17.1642 1.87415 15.9303 1.87415H10.9325C8.55009 1.87415 6.85753 1.87614 5.57353 2.04877C4.31649 2.21777 3.59226 2.53471 3.06349 3.06349C2.53471 3.59226 2.21777 4.31649 2.04877 5.57353C1.87614 6.85753 1.87415 8.5501 1.87415 10.9325V18.4291C1.87415 19.6631 2.66909 20.7112 3.77475 21.0896C3.74827 20.3275 3.74829 19.4658 3.7483 18.4977V12.1134C3.74827 10.4047 3.74825 9.02743 3.89388 7.94421C4.04509 6.81958 4.36856 5.87267 5.12061 5.12061C5.87267 4.36856 6.81958 4.04509 7.94421 3.89388C9.02743 3.74825 10.4047 3.74827 12.1134 3.7483H15.9989C16.9669 3.74829 17.8287 3.74827 18.5907 3.77475ZM6.44584 6.44584C6.79163 6.10004 7.27713 5.87458 8.19393 5.75133C9.13769 5.62444 10.3885 5.62245 12.182 5.62245H15.9303C17.7237 5.62245 18.9745 5.62444 19.9183 5.75133C20.8352 5.87458 21.3206 6.10004 21.6664 6.44584C22.0123 6.79163 22.2377 7.27714 22.361 8.19393C22.4878 9.13769 22.4898 10.3885 22.4898 12.182V18.4291C22.4898 20.2226 22.4878 21.4734 22.361 22.4172C22.2377 23.334 22.0123 23.8194 21.6664 24.1653C21.3206 24.5111 20.8352 24.7365 19.9183 24.8598C18.9745 24.9867 17.7237 24.9887 15.9303 24.9887H12.182C10.3885 24.9887 9.13769 24.9867 8.19393 24.8598C7.27713 24.7365 6.79163 24.5111 6.44584 24.1653C6.10004 23.8194 5.87458 23.334 5.75133 22.4172C5.62444 21.4734 5.62245 20.2226 5.62245 18.4291V12.182C5.62245 10.3885 5.62444 9.13769 5.75133 8.19393C5.87458 7.27714 6.10004 6.79163 6.44584 6.44584Z" fill="#024093"/>
</svg>
