<svg width="14" height="12" viewBox="0 0 14 12" fill="none" xmlns="http://www.w3.org/2000/svg">
<path d="M7.00009 9.00005C8.1047 9.00005 9.00011 8.10464 9.00011 7.00003C9.00011 5.89541 8.1047 5 7.00009 5C5.89547 5 5.00006 5.89541 5.00006 7.00003C5.00006 8.10464 5.89547 9.00005 7.00009 9.00005Z" stroke="#212121" stroke-width="0.6" stroke-linecap="round" stroke-linejoin="round"/>
<path d="M1 9.53345V4.46671C1 3.71997 1 3.34659 1.14533 3.06137C1.27316 2.81048 1.47713 2.60651 1.72802 2.47868C2.01324 2.33335 2.38662 2.33335 3.13336 2.33335H3.83646C3.91843 2.33335 3.95941 2.33335 3.99721 2.32902C4.19448 2.30642 4.37141 2.19708 4.47984 2.03074C4.50062 1.99886 4.51895 1.9622 4.5556 1.8889C4.62891 1.74229 4.66556 1.66898 4.70713 1.60522C4.92399 1.27255 5.27784 1.05385 5.6724 1.00866C5.748 1 5.82993 1 5.99387 1H8.00629C8.17023 1 8.25216 1 8.32776 1.00866C8.7223 1.05385 9.07617 1.27255 9.29304 1.60522C9.33458 1.66898 9.37125 1.74231 9.44458 1.8889C9.48118 1.96221 9.49951 1.99886 9.52031 2.03074C9.62878 2.19708 9.80565 2.30642 10.0029 2.32902C10.0408 2.33335 10.0817 2.33335 10.1637 2.33335H10.8668C11.6135 2.33335 11.9869 2.33335 12.2722 2.47868C12.523 2.60651 12.727 2.81048 12.8548 3.06137C13.0002 3.34659 13.0002 3.71997 13.0002 4.46671V9.53345C13.0002 10.2802 13.0002 10.6536 12.8548 10.9388C12.727 11.1897 12.523 11.3937 12.2722 11.5215C11.9869 11.6668 11.6135 11.6668 10.8668 11.6668H3.13336C2.38662 11.6668 2.01324 11.6668 1.72802 11.5215C1.47713 11.3937 1.27316 11.1897 1.14533 10.9388C1 10.6536 1 10.2802 1 9.53345Z" stroke="#212121" stroke-width="0.6" stroke-linecap="round" stroke-linejoin="round"/>
</svg>
