<svg width="14" height="12" viewBox="0 0 14 12" fill="none" xmlns="http://www.w3.org/2000/svg">
<path d="M2.74743 11.9714C2.81326 11.9714 2.87837 11.9485 2.93062 11.9042L5.76796 9.49882H12.054C13.127 9.4988 14 8.62098 14 7.54198V1.95681C14 0.877814 13.127 0 12.054 0H1.94713C0.874102 0 0.00114441 0.877842 0.00114441 1.95681V7.54198C0.00114441 8.62098 0.874102 9.4988 1.94713 9.4988H2.4634V11.6857C2.4634 11.7969 2.52748 11.8979 2.62773 11.9448C2.66598 11.9627 2.70684 11.9714 2.74743 11.9714ZM12.054 0.571382C12.8137 0.571382 13.4318 1.19287 13.4318 1.95681V7.54198C13.4318 8.30589 12.8137 8.92741 12.054 8.92741H5.6642C5.59717 8.92741 5.53232 8.95124 5.48104 8.99467L3.03161 11.0712V9.2131C3.03161 9.05532 2.90439 8.92741 2.74749 8.92741H1.94713C1.18742 8.92741 0.569355 8.30589 0.569355 7.54198V1.95681C0.569355 1.19287 1.18742 0.571382 1.94713 0.571382H12.054Z" fill="#212121"/>
</svg>
