<svg width="11" height="12" viewBox="0 0 11 12" fill="none" xmlns="http://www.w3.org/2000/svg">
<path fill-rule="evenodd" clip-rule="evenodd" d="M9.29338 6.70766C9.77503 6.02065 10.0564 5.19186 10.0564 4.29954C10.0564 1.92497 8.06389 0 5.60596 0C3.14804 0 1.15551 1.92497 1.15551 4.29954C1.15551 5.135 1.40217 5.91483 1.82896 6.5747L0.0745311 9.51043C-0.0218712 9.67171 -0.024942 9.86976 0.066409 10.0338C0.157766 10.1978 0.330515 10.3044 0.522975 10.3156L2.18997 10.4123L3.11013 11.7587C3.21636 11.9141 3.39833 12.0053 3.59105 11.9998C3.78376 11.9942 3.95974 11.8926 4.05615 11.7313L5.60641 9.13723L7.07127 11.5885C7.16768 11.7497 7.34364 11.8513 7.53634 11.8569C7.7291 11.8625 7.91107 11.7713 8.01727 11.6159L8.89212 10.3358L10.477 10.2439C10.6695 10.2327 10.8422 10.1261 10.9336 9.96204C11.0249 9.79801 11.0219 9.59997 10.9255 9.43868L9.29338 6.70766ZM5.60596 7.5242C7.44939 7.5242 8.9438 6.08047 8.9438 4.29954C8.9438 2.51861 7.44939 1.07489 5.60596 1.07489C3.76252 1.07489 2.26812 2.51861 2.26812 4.29954C2.26812 6.08047 3.76252 7.5242 5.60596 7.5242ZM6.5158 8.50917L7.58474 10.2979L8.1169 9.5193C8.21337 9.37811 8.37303 9.28906 8.54782 9.2789L9.51184 9.223L8.51444 7.55398C7.95313 8.02257 7.26937 8.35794 6.5158 8.50917ZM1.48814 9.29475L2.58599 7.45772C3.16735 7.97684 3.89234 8.34799 4.6969 8.50933L3.54266 10.4407L2.9652 9.59577C2.86872 9.45464 2.70907 9.36559 2.53429 9.35543L1.48814 9.29475Z" fill="#212121"/>
</svg>
