<svg width="12" height="12" viewBox="0 0 12 12" fill="none" xmlns="http://www.w3.org/2000/svg">
<path d="M4.00085 6H4.00536M6.0031 6H6.0076M7.99635 6H8.00085" stroke="#212121" stroke-linecap="round" stroke-linejoin="round"/>
<path d="M1 6C1 3.64298 1 2.46446 1.73223 1.73223C2.46446 1 3.64298 1 6 1C8.357 1 9.53555 1 10.2677 1.73223C11 2.46446 11 3.64298 11 6C11 8.357 11 9.53555 10.2677 10.2677C9.53555 11 8.357 11 6 11C3.64298 11 2.46446 11 1.73223 10.2677C1 9.53555 1 8.357 1 6Z" stroke="#212121" stroke-width="0.75"/>
</svg>
