<svg width="19" height="13" viewBox="0 0 19 13" fill="none" xmlns="http://www.w3.org/2000/svg">
<path d="M9.5825 8.27234C10.6608 8.27234 11.5349 7.40404 11.5349 6.33295C11.5349 5.26185 10.6608 4.39355 9.5825 4.39355C8.50423 4.39355 7.63013 5.26185 7.63013 6.33295C7.63013 7.40404 8.50423 8.27234 9.5825 8.27234Z" stroke="#024093" stroke-width="0.969696" stroke-linejoin="round"/>
<path d="M9.58248 1C5.38017 1 2.23783 4.47471 1.18214 5.81483C0.939286 6.1231 0.939286 6.54356 1.18214 6.85183C2.23783 8.19195 5.38017 11.6667 9.58248 11.6667C13.7848 11.6667 16.9271 8.19195 17.9828 6.85183C18.2257 6.54356 18.2257 6.1231 17.9828 5.81483C16.9271 4.47471 13.7848 1 9.58248 1Z" stroke="#024093" stroke-width="0.969696" stroke-linecap="round" stroke-linejoin="round"/>
</svg>
