<svg width="421" height="324" viewBox="0 0 421 324" fill="none" xmlns="http://www.w3.org/2000/svg">
<mask id="mask0_2655_164" style="mask-type:luminance" maskUnits="userSpaceOnUse" x="12" y="240" width="65" height="69">
<path d="M12.4736 240.328H76.3816V308.982H12.4736V240.328Z" fill="white"/>
</mask>
<g mask="url(#mask0_2655_164)">
<g opacity="0.100006">
<path d="M12.4736 240.326C12.7665 245.136 13.2448 249.605 13.8766 253.775C19.208 253.244 24.7708 253.553 30.3633 254.817C55.7749 260.565 72.1633 283.844 66.9682 306.814C66.8033 307.546 66.6169 308.269 66.4121 308.981C71.0399 308.866 74.0077 308.161 74.0077 308.161C90.858 252.466 12.4736 240.326 12.4736 240.326Z" fill="#0044A4"/>
</g>
</g>
<path d="M375.255 272.092C375.255 276.597 371.568 280.284 367.063 280.284H60.2015C55.6965 280.284 52.0088 276.597 52.0088 272.092V87.181C52.0088 82.6751 55.6965 78.9884 60.2015 78.9884H367.063C371.568 78.9884 375.255 82.6751 375.255 87.181V272.092Z" fill="#024093"/>
<path d="M366.13 270.411H61.1328V88.8596H366.13V270.411Z" fill="#9FB2CA"/>
<path d="M263.813 305.417H163.451V280.282H263.813V305.417Z" fill="#85A9D9"/>
<path d="M311.848 319.849C293.494 305.03 256.402 294.899 213.633 294.899C170.861 294.899 133.771 305.03 115.417 319.849H311.848Z" fill="#024093"/>
<path d="M115.417 322.409H120.679H135.001H156.074H181.893H210.177H238.601H265.227H287.724H303.837C306.394 322.409 308.96 322.471 311.516 322.409C311.628 322.406 311.737 322.409 311.848 322.409C315.142 322.409 315.149 317.288 311.848 317.288H306.585H292.263H271.191H245.372H217.087H188.663H162.038H139.541H123.428C120.871 317.288 118.304 317.225 115.747 317.288C115.638 317.29 115.526 317.288 115.417 317.288C112.122 317.288 112.116 322.409 115.417 322.409Z" fill="#85A9D9"/>
<path d="M349.473 258.565H77.792V101.488H349.473V258.565Z" fill="white"/>
<path d="M349.473 116.627H77.792V101.491H349.473V116.627Z" fill="#F1F1F1"/>
<path d="M90.9982 109.408C90.9982 111.321 89.4467 112.871 87.5348 112.871C85.6218 112.871 84.0703 111.321 84.0703 109.408C84.0703 107.495 85.6218 105.944 87.5348 105.944C89.4467 105.944 90.9982 107.495 90.9982 109.408Z" fill="#7B98F0"/>
<path d="M102.66 109.408C102.66 111.321 101.11 112.871 99.1969 112.871C97.2839 112.871 95.7324 111.321 95.7324 109.408C95.7324 107.495 97.2839 105.944 99.1969 105.944C101.11 105.944 102.66 107.495 102.66 109.408Z" fill="#FFAD36"/>
<path d="M114.323 109.408C114.323 111.321 112.773 112.871 110.86 112.871C108.947 112.871 107.396 111.321 107.396 109.408C107.396 107.495 108.947 105.944 110.86 105.944C112.773 105.944 114.323 107.495 114.323 109.408Z" fill="#6680E1"/>
<path d="M309.628 183.064C309.628 192.426 301.583 200.084 291.75 200.084H140.598C130.765 200.084 122.72 192.426 122.72 183.064C122.72 173.703 130.765 166.043 140.598 166.043H291.75C301.583 166.043 309.628 173.703 309.628 183.064Z" fill="#9DC2F3"/>
<path d="M144.107 185.008C143.044 184.019 142.43 182.677 142.378 181.225C142.326 179.774 142.842 178.39 143.83 177.327C144.82 176.264 146.163 175.649 147.614 175.598C149.064 175.546 150.449 176.062 151.512 177.05C152.575 178.039 153.188 179.383 153.241 180.834C153.293 182.285 152.777 183.669 151.788 184.732C150.799 185.795 149.456 186.408 148.004 186.46C146.554 186.514 145.17 185.998 144.107 185.008ZM160.108 191.089L153.905 185.319C154.842 183.993 155.326 182.41 155.265 180.761C155.195 178.769 154.351 176.924 152.892 175.567C151.433 174.209 149.532 173.502 147.542 173.573C145.55 173.644 143.704 174.488 142.347 175.946C140.989 177.406 140.282 179.306 140.352 181.298C140.424 183.289 141.268 185.134 142.726 186.491C144.186 187.849 146.086 188.558 148.077 188.486C149.727 188.427 151.271 187.831 152.526 186.802L158.729 192.573L160.108 191.089Z" fill="#024093"/>
<path d="M188.76 182.775C188.76 183.744 187.975 184.529 187.006 184.529C186.037 184.529 185.253 183.744 185.253 182.775C185.253 181.807 186.037 181.021 187.006 181.021C187.975 181.021 188.76 181.807 188.76 182.775Z" fill="#024093"/>
<path d="M209.241 182.775C209.241 183.744 208.455 184.529 207.488 184.529C206.519 184.529 205.733 183.744 205.733 182.775C205.733 181.807 206.519 181.021 207.488 181.021C208.455 181.021 209.241 181.807 209.241 182.775Z" fill="#024093"/>
<path d="M229.722 182.775C229.722 183.744 228.937 184.529 227.969 184.529C227 184.529 226.215 183.744 226.215 182.775C226.215 181.807 227 181.021 227.969 181.021C228.937 181.021 229.722 181.807 229.722 182.775Z" fill="#024093"/>
<path d="M250.205 182.775C250.205 183.744 249.419 184.529 248.452 184.529C247.483 184.529 246.697 183.744 246.697 182.775C246.697 181.807 247.483 181.021 248.452 181.021C249.419 181.021 250.205 181.807 250.205 182.775Z" fill="#024093"/>
<path d="M409.958 188.951H274.73V40.1744H409.958V188.951Z" fill="#F4F9FF"/>
<path d="M409.958 56.9453H274.73V40.1739H409.958V56.9453Z" fill="#F1F1F1"/>
<path d="M289.365 48.9479C289.365 51.0677 287.646 52.7861 285.527 52.7861C283.408 52.7861 281.688 51.0677 281.688 48.9479C281.688 46.829 283.408 45.1096 285.527 45.1096C287.646 45.1096 289.365 46.829 289.365 48.9479Z" fill="#7B98F0"/>
<path d="M302.287 48.9479C302.287 51.0677 300.568 52.7861 298.449 52.7861C296.33 52.7861 294.611 51.0677 294.611 48.9479C294.611 46.829 296.33 45.1096 298.449 45.1096C300.568 45.1096 302.287 46.829 302.287 48.9479Z" fill="#FFAD36"/>
<path d="M315.212 48.9479C315.212 51.0677 313.492 52.7861 311.373 52.7861C309.254 52.7861 307.535 51.0677 307.535 48.9479C307.535 46.829 309.254 45.1096 311.373 45.1096C313.492 45.1096 315.212 46.829 315.212 48.9479Z" fill="#6680E1"/>
<path d="M420.312 183.497L414.726 189.082L364.668 139.024L370.253 133.438L420.312 183.497Z" fill="#024093"/>
<path d="M386.638 144.9L376.13 155.409L361.482 140.761L371.99 130.253L386.638 144.9Z" fill="#024093"/>
<mask id="mask1_2655_164" style="mask-type:luminance" maskUnits="userSpaceOnUse" x="310" y="78" width="68" height="69">
<path d="M310.151 78.9211H377.282V146.052H310.151V78.9211Z" fill="white"/>
</mask>
<g mask="url(#mask1_2655_164)">
<g opacity="0.199997">
<path d="M367.463 136.232C354.37 149.325 333.065 149.326 319.972 136.232C306.879 123.139 306.879 101.834 319.972 88.7409C333.065 75.648 354.37 75.648 367.463 88.7409C380.556 101.835 380.556 123.139 367.463 136.232Z" fill="#F4F9FF"/>
</g>
</g>
<path d="M322.369 91.136C310.598 102.908 310.598 122.06 322.369 133.831C334.139 145.603 353.293 145.604 365.064 133.831C376.836 122.06 376.836 102.908 365.064 91.136C353.293 79.3652 334.14 79.3642 322.369 91.136ZM370.65 139.417C355.8 154.267 331.634 154.268 316.783 139.417C301.933 124.566 301.933 100.401 316.783 85.5506C331.634 70.7004 355.799 70.6994 370.65 85.5506C385.5 100.402 385.5 124.566 370.65 139.417Z" fill="#024093"/>
<path d="M128.221 212.063H67.0498V322.573H161.403V243.851L128.221 212.063Z" fill="#85A9D9"/>
<path d="M128.222 212.064L161.403 243.852H128.222V212.064Z" fill="#024093"/>
<path d="M104.163 254.534C104.163 257.851 102.236 260.539 99.8589 260.539C97.482 260.539 95.5547 257.851 95.5547 254.534C95.5547 251.217 97.482 248.529 99.8589 248.529C102.236 248.529 104.163 251.217 104.163 254.534Z" fill="white"/>
<path d="M132.778 254.534C132.778 257.851 130.851 260.539 128.474 260.539C126.097 260.539 124.17 257.851 124.17 254.534C124.17 251.217 126.097 248.529 128.474 248.529C130.851 248.529 132.778 251.217 132.778 254.534Z" fill="white"/>
<path d="M102.195 272.566C103.987 270.605 106.478 269.063 108.956 268.169C115.23 265.907 121.294 268.27 126.073 272.566C127.349 273.713 129.246 271.829 127.963 270.676C122.666 265.915 115.794 263.117 108.747 265.419C105.657 266.43 102.519 268.252 100.306 270.676C99.1477 271.946 101.033 273.839 102.195 272.566Z" fill="white"/>
<path d="M95.9904 25.7299H27.1822C23.0777 25.7299 19.7197 29.0879 19.7197 33.1924V81.4574C19.7197 85.5619 23.0777 88.9209 27.1822 88.9209H51.3588L61.5863 101.379L71.8138 88.9209H95.9904C100.095 88.9209 103.453 85.5619 103.453 81.4574V33.1924C103.453 29.0879 100.095 25.7299 95.9904 25.7299Z" fill="#024093"/>
<path d="M61.5857 75.9754C57.261 75.9754 53.2814 74.4792 50.1282 71.9815L76.0805 46.0281C78.5783 49.1813 80.0755 53.1609 80.0755 57.4856C80.0755 67.6814 71.7814 75.9754 61.5857 75.9754ZM61.5857 38.9968C65.9104 38.9968 69.8899 40.494 73.0431 42.9907L47.0908 68.943C44.593 65.7909 43.0958 61.8103 43.0958 57.4856C43.0958 47.2908 51.3909 38.9968 61.5857 38.9968ZM61.5857 34.6997C49.0212 34.6997 38.7998 44.9211 38.7998 57.4856C38.7998 70.0501 49.0212 80.2725 61.5857 80.2725C74.1501 80.2725 84.3715 70.0501 84.3715 57.4856C84.3715 44.9211 74.1501 34.6997 61.5857 34.6997Z" fill="white"/>
<path d="M352.819 219.8L295.75 219.423L295.069 322.521L383.094 323.102L383.579 249.659L352.819 219.8Z" fill="#85A9D9"/>
<path d="M352.819 219.801L383.578 249.66L352.623 249.456L352.819 219.801Z" fill="#E1ECFD"/>
<path d="M358.092 258.233L352.656 252.725L339.46 265.748L326.436 252.552L320.928 257.989L333.952 271.184L320.755 284.206L326.192 289.715L339.387 276.691L352.411 289.888L357.919 284.453L344.896 271.257L358.092 258.233Z" fill="#ECF4FF"/>
<path d="M65.0795 140.275L30.9253 123.157L0 184.858L52.6799 211.262L74.7099 167.309L65.0795 140.275Z" fill="#9FB2CA"/>
<path d="M65.0798 140.275L74.7103 167.309L56.1836 158.023L65.0798 140.275Z" fill="#E1ECFD"/>
<path d="M56.8687 164.913L55.2353 159.996L43.4563 163.91L39.5433 152.132L34.6266 153.765L38.5407 165.543L26.7627 169.457L28.3951 174.372L40.1741 170.459L44.0881 182.237L49.0037 180.604L45.0907 168.826L56.8687 164.913Z" fill="#ECF4FF"/>
<path d="M192.835 25.7459L165.5 34.6411L181.569 84.0234L223.731 70.3038L212.285 35.1255L192.835 25.7459Z" fill="#85A9D9"/>
<path d="M192.835 25.7471L212.285 35.1267L197.458 39.9521L192.835 25.7471Z" fill="#024093"/>
<path d="M201.467 43.2754L197.993 41.5068L193.756 49.8295L185.434 45.5939L183.666 49.0676L191.989 53.3032L187.752 61.6259L191.226 63.3945L195.462 55.0718L203.785 59.3074L205.553 55.8337L197.23 51.5981L201.467 43.2754Z" fill="#ECF4FF"/>
<path d="M254.846 35.2158C249.608 35.1974 245.376 30.9362 245.395 25.698C245.412 20.4598 249.672 16.2283 254.91 16.2467C260.15 16.2642 264.382 20.5254 264.363 25.7636C264.344 31.0017 260.084 35.2343 254.846 35.2158ZM277.222 21.0087L274.828 21.0005C274.327 18.8848 273.502 16.9001 272.403 15.0936L274.103 13.4039C275.429 12.0869 275.436 9.92303 274.119 8.59685L272.146 6.6091C270.828 5.28291 268.664 5.27575 267.338 6.59272L265.637 8.28143C263.838 7.1703 261.86 6.32953 259.747 5.81544L259.755 3.42113C259.762 1.55116 258.238 0.0160561 256.368 0.0099144L253.567 0.000694275C251.698 -0.00647354 250.163 1.51838 250.156 3.38836L250.147 5.78164C248.033 6.28242 246.047 7.10886 244.24 8.2077L242.552 6.50669C241.234 5.18051 239.071 5.17334 237.745 6.49031L235.756 8.46371C234.43 9.78171 234.423 11.9446 235.741 13.2718L237.429 14.9718C236.317 16.7711 235.477 18.7496 234.962 20.8623L232.569 20.8541C230.699 20.848 229.164 22.3718 229.158 24.2418L229.147 27.0426C229.141 28.9126 230.666 30.4477 232.535 30.4539L234.929 30.462C235.429 32.5778 236.257 34.5625 237.356 36.369L235.655 38.0577C234.328 39.3757 234.32 41.5385 235.638 42.8657L237.612 44.8525C238.928 46.1797 241.092 46.1868 242.419 44.8699L244.12 43.1801C245.918 44.2923 247.897 45.132 250.009 45.6472L250.002 48.0404C249.996 49.9104 251.52 51.4455 253.389 51.4517L256.189 51.4619C258.06 51.468 259.594 49.9432 259.602 48.0742L259.609 45.6799C261.726 45.1802 263.709 44.3537 265.517 43.2549L267.205 44.9549C268.522 46.2821 270.686 46.2893 272.014 44.9713L274 42.9978C275.326 41.6799 275.335 39.517 274.017 38.1908L272.328 36.4898C273.439 34.6905 274.28 32.712 274.794 30.6003L277.187 30.6075C279.058 30.6146 280.593 29.0898 280.598 27.2198L280.609 24.42C280.616 22.55 279.091 21.0149 277.222 21.0087Z" fill="#85A9D9"/>
<path d="M254.848 34.135C250.208 34.1186 246.459 30.3438 246.474 25.7027C246.491 21.0605 250.266 17.3113 254.908 17.3277C259.548 17.3441 263.298 21.1189 263.282 25.76C263.266 30.4012 259.49 34.1514 254.848 34.135ZM254.924 12.1991C247.45 12.1735 241.371 18.2105 241.345 25.6842C241.32 33.158 247.358 39.238 254.831 39.2636C262.305 39.2892 268.385 33.2522 268.41 25.7785C268.437 18.3047 262.399 12.2247 254.924 12.1991Z" fill="#024093"/>
<path d="M324.116 106.608L343.367 130.501L335.647 106.608H324.116ZM337.739 106.608L344.557 130.55L350.423 106.608H337.739ZM345.594 130.501L364.126 106.608H352.685L345.594 130.501ZM364.169 105.045L358.613 95.5446L353.054 105.045H364.169ZM356.866 95H345.751L351.307 104.826L356.866 95ZM349.599 105.045L344.042 95.5446L338.485 105.045H349.599ZM342.416 95H331.302L336.86 104.826L342.416 95ZM329.556 95.5446L324 105.045H335.114L329.556 95.5446Z" fill="#85A9D9"/>
<path d="M360.419 100.704L355.501 95.7849L343.715 107.569L331.932 95.7849L327.014 100.704L338.798 112.487L327.014 124.271L331.932 129.189L343.715 117.406L355.501 129.189L360.419 124.271L348.635 112.487L360.419 100.704Z" fill="#024093"/>
<path d="M194.116 134.608L213.367 158.501L205.647 134.608H194.116ZM207.739 134.608L214.557 158.55L220.423 134.608H207.739ZM215.594 158.501L234.126 134.608H222.685L215.594 158.501ZM234.169 133.045L228.613 123.545L223.054 133.045H234.169ZM226.866 123H215.751L221.307 132.826L226.866 123ZM219.599 133.045L214.042 123.545L208.485 133.045H219.599ZM212.416 123H201.302L206.86 132.826L212.416 123ZM199.556 123.545L194 133.045H205.114L199.556 123.545Z" fill="#024093"/>
</svg>
