<svg width="24" height="28" viewBox="0 0 24 28" fill="none" xmlns="http://www.w3.org/2000/svg">
<g clip-path="url(#clip0_2974_162)">
<path d="M0.815779 27.1895H0V28.0006H21.2539V27.1895H20.7943V23.3158C20.7943 23.242 20.7648 23.1713 20.7122 23.1192C20.6596 23.067 20.5883 23.0378 20.514 23.0378H17.3589C17.2845 23.0378 17.2132 23.067 17.1606 23.1192C17.108 23.1713 17.0785 23.242 17.0785 23.3158V27.1895H11.1383V21.7002C11.1377 21.6021 11.0979 21.5082 11.0277 21.439C10.9576 21.3699 10.8626 21.3311 10.7637 21.3311H4.58215C4.48321 21.3311 4.38828 21.3699 4.3181 21.439C4.24792 21.5082 4.20819 21.6021 4.20758 21.7002V27.1895H0V0.593099C0.0128962 0.442163 0.079719 0.300752 0.188434 0.194336C0.310055 0.0727462 0.475323 0.00391743 0.648027 0.00292969H14.6909C14.7765 0.00317022 14.8611 0.0202079 14.94 0.0530597C15.0189 0.0859115 15.0904 0.133927 15.1505 0.194336L15.1804 0.223958C15.2872 0.342404 15.3461 0.49576 15.3458 0.654622V7.87793H23.4393C23.5114 7.87793 23.5828 7.89201 23.6495 7.91938C23.7161 7.94675 23.7766 7.98687 23.8276 8.03744C23.8787 8.08751 23.9192 8.14713 23.9468 8.21285C23.9744 8.27856 23.9886 8.34906 23.9885 8.42025V27.627C23.9885 27.7255 23.949 27.8199 23.8788 27.8896C23.8085 27.9592 23.7133 27.9984 23.6139 27.9984H21.2539V27.1872H23.2095V8.65951H15.3481V27.194H14.5301V0.811849H0.815779V27.1895ZM20.2428 27.1895H17.6392V23.5846H20.2428V27.1895ZM19.6362 10.2546H21.6607C21.6767 10.2546 21.6905 10.2773 21.6905 10.3047V11.6058C21.6905 11.6286 21.6767 11.6536 21.6607 11.6536H19.6362C19.6201 11.6536 19.6063 11.6331 19.6063 11.6058V10.3047C19.6063 10.2773 19.6201 10.2546 19.6362 10.2546ZM19.6362 19.278H21.6607C21.6767 19.278 21.6905 19.3008 21.6905 19.3258V20.627C21.6905 20.652 21.6767 20.6771 21.6607 20.6771H19.6362C19.6201 20.6771 19.6063 20.6543 19.6063 20.627V19.3258C19.6063 19.3008 19.6201 19.278 19.6362 19.278ZM16.2237 19.278H18.2459C18.2643 19.278 18.2781 19.3008 18.2781 19.3258V20.627C18.2781 20.652 18.2643 20.6771 18.2459 20.6771H16.2237C16.2053 20.6771 16.1915 20.6543 16.1915 20.627V19.3258C16.1915 19.3008 16.2053 19.278 16.2237 19.278ZM19.6362 16.2702H21.6607C21.6767 16.2702 21.6905 16.293 21.6905 16.3203V17.6214C21.6905 17.6465 21.6767 17.6715 21.6607 17.6715H19.6362C19.6201 17.6715 19.6063 17.6488 19.6063 17.6214V16.3203C19.6063 16.2907 19.6201 16.2702 19.6362 16.2702ZM19.6362 13.2624H21.6607C21.6767 13.2624 21.6905 13.2852 21.6905 13.3125V14.6136C21.6905 14.6387 21.6767 14.6637 21.6607 14.6637H19.6362C19.6201 14.6637 19.6063 14.6409 19.6063 14.6136V13.3125C19.6063 13.2852 19.6201 13.2624 19.6362 13.2624ZM16.2237 10.2546H18.2459C18.2643 10.2546 18.2781 10.2773 18.2781 10.3047V11.6058C18.2781 11.6286 18.2643 11.6536 18.2459 11.6536H16.2237C16.2053 11.6536 16.1915 11.6331 16.1915 11.6058V10.3047C16.1915 10.2773 16.2053 10.2546 16.2237 10.2546ZM16.2237 16.2702H18.2459C18.2643 16.2702 18.2781 16.293 18.2781 16.3203V17.6214C18.2781 17.6465 18.2643 17.6715 18.2459 17.6715H16.2237C16.2053 17.6715 16.1915 17.6488 16.1915 17.6214V16.3203C16.1915 16.2907 16.2053 16.2702 16.2237 16.2702ZM16.2237 13.2624H18.2459C18.2643 13.2624 18.2781 13.2852 18.2781 13.3125V14.6136C18.2781 14.6387 18.2643 14.6637 18.2459 14.6637H16.2237C16.2053 14.6637 16.1915 14.6409 16.1915 14.6136V13.3125C16.1915 13.2852 16.2053 13.2624 16.2237 13.2624ZM10.3891 27.1895H4.95672V22.0716H10.3891V27.1895ZM2.78744 2.85352H4.98889C5.00517 2.85408 5.02062 2.86075 5.03213 2.87216C5.04365 2.88358 5.05037 2.8989 5.05094 2.91504V5.10026C5.05037 5.1164 5.04365 5.13172 5.03213 5.14314C5.02062 5.15455 5.00517 5.16122 4.98889 5.16178H2.78744C2.77116 5.16122 2.75571 5.15455 2.7442 5.14314C2.73268 5.13172 2.72596 5.1164 2.72539 5.10026V2.91504C2.72596 2.8989 2.73268 2.88358 2.7442 2.87216C2.75571 2.86075 2.77116 2.85408 2.78744 2.85352ZM10.3569 2.85352H12.5584C12.5747 2.85408 12.5901 2.86075 12.6016 2.87216C12.6132 2.88358 12.6199 2.8989 12.6204 2.91504V5.10026C12.6199 5.1164 12.6132 5.13172 12.6016 5.14314C12.5901 5.15455 12.5747 5.16122 12.5584 5.16178H10.3569C10.3407 5.16122 10.3252 5.15455 10.3137 5.14314C10.3022 5.13172 10.2955 5.1164 10.2949 5.10026V2.91504C10.2955 2.8989 10.3022 2.88358 10.3137 2.87216C10.3252 2.86075 10.3407 2.85408 10.3569 2.85352ZM6.57219 2.85352H8.77365C8.78992 2.85408 8.80537 2.86075 8.81689 2.87216C8.8284 2.88358 8.83512 2.8989 8.83569 2.91504V5.10026C8.83512 5.1164 8.8284 5.13172 8.81689 5.14314C8.80537 5.15455 8.78992 5.16122 8.77365 5.16178H6.57219C6.55592 5.16122 6.54047 5.15455 6.52895 5.14314C6.51744 5.13172 6.51072 5.1164 6.51015 5.10026V2.91504C6.51072 2.8989 6.51744 2.88358 6.52895 2.87216C6.54047 2.86075 6.55592 2.85408 6.57219 2.85352ZM2.78744 7.58398H4.98889C5.00517 7.58455 5.02062 7.59122 5.03213 7.60263C5.04365 7.61405 5.05037 7.62937 5.05094 7.64551V9.83073C5.05037 9.84687 5.04365 9.86219 5.03213 9.8736C5.02062 9.88502 5.00517 9.89169 4.98889 9.89225H2.78744C2.77116 9.89169 2.75571 9.88502 2.7442 9.8736C2.73268 9.86219 2.72596 9.84687 2.72539 9.83073V7.64551C2.72596 7.62937 2.73268 7.61405 2.7442 7.60263C2.75571 7.59122 2.77116 7.58455 2.78744 7.58398ZM10.3569 7.58398H12.5584C12.5747 7.58455 12.5901 7.59122 12.6016 7.60263C12.6132 7.61405 12.6199 7.62937 12.6204 7.64551V9.83073C12.6199 9.84687 12.6132 9.86219 12.6016 9.8736C12.5901 9.88502 12.5747 9.89169 12.5584 9.89225H10.3569C10.3407 9.89169 10.3252 9.88502 10.3137 9.8736C10.3022 9.86219 10.2955 9.84687 10.2949 9.83073V7.64551C10.2955 7.62937 10.3022 7.61405 10.3137 7.60263C10.3252 7.59122 10.3407 7.58455 10.3569 7.58398ZM6.57219 7.58398H8.77365C8.78992 7.58455 8.80537 7.59122 8.81689 7.60263C8.8284 7.61405 8.83512 7.62937 8.83569 7.64551V9.83073C8.83512 9.84687 8.8284 9.86219 8.81689 9.8736C8.80537 9.88502 8.78992 9.89169 8.77365 9.89225H6.57219C6.55592 9.89169 6.54047 9.88502 6.52895 9.8736C6.51744 9.86219 6.51072 9.84687 6.51015 9.83073V7.64551C6.51072 7.62937 6.51744 7.61405 6.52895 7.60263C6.54047 7.59122 6.55592 7.58455 6.57219 7.58398ZM2.78744 17.0449H4.98889C5.00535 17.0449 5.02113 17.0514 5.03276 17.0629C5.0444 17.0745 5.05094 17.0901 5.05094 17.1064V19.2894C5.05094 19.3057 5.0444 19.3214 5.03276 19.3329C5.02113 19.3444 5.00535 19.3509 4.98889 19.3509H2.78744C2.77098 19.3509 2.7552 19.3444 2.74356 19.3329C2.73193 19.3214 2.72539 19.3057 2.72539 19.2894V17.1064C2.72539 17.0901 2.73193 17.0745 2.74356 17.0629C2.7552 17.0514 2.77098 17.0449 2.78744 17.0449ZM10.3569 17.0449H12.5584C12.5749 17.0449 12.5906 17.0514 12.6023 17.0629C12.6139 17.0745 12.6204 17.0901 12.6204 17.1064V19.2894C12.6204 19.3057 12.6139 19.3214 12.6023 19.3329C12.5906 19.3444 12.5749 19.3509 12.5584 19.3509H10.3569C10.3405 19.3509 10.3247 19.3444 10.3131 19.3329C10.3014 19.3214 10.2949 19.3057 10.2949 19.2894V17.1064C10.2949 17.0901 10.3014 17.0745 10.3131 17.0629C10.3247 17.0514 10.3405 17.0449 10.3569 17.0449ZM6.57219 17.0449H8.77365C8.7901 17.0449 8.80588 17.0514 8.81752 17.0629C8.82916 17.0745 8.83569 17.0901 8.83569 17.1064V19.2894C8.83569 19.3057 8.82916 19.3214 8.81752 19.3329C8.80588 19.3444 8.7901 19.3509 8.77365 19.3509H6.57219C6.55574 19.3509 6.53996 19.3444 6.52832 19.3329C6.51668 19.3214 6.51015 19.3057 6.51015 19.2894V17.1064C6.51015 17.0901 6.51668 17.0745 6.52832 17.0629C6.53996 17.0514 6.55574 17.0449 6.57219 17.0449ZM2.78744 12.3053H4.98889C5.00535 12.3053 5.02113 12.3118 5.03276 12.3234C5.0444 12.3349 5.05094 12.3505 5.05094 12.3669V14.5612C5.05037 14.5773 5.04365 14.5927 5.03213 14.6041C5.02062 14.6155 5.00517 14.6222 4.98889 14.6227H2.78744C2.77116 14.6222 2.75571 14.6155 2.7442 14.6041C2.73268 14.5927 2.72596 14.5773 2.72539 14.5612V12.376C2.72539 12.3597 2.73193 12.344 2.74356 12.3325C2.7552 12.3209 2.77098 12.3145 2.78744 12.3145V12.3053ZM10.3569 12.3053H12.5584C12.5749 12.3053 12.5906 12.3118 12.6023 12.3234C12.6139 12.3349 12.6204 12.3505 12.6204 12.3669V14.5612C12.6199 14.5773 12.6132 14.5927 12.6016 14.6041C12.5901 14.6155 12.5747 14.6222 12.5584 14.6227H10.3569C10.3407 14.6222 10.3252 14.6155 10.3137 14.6041C10.3022 14.5927 10.2955 14.5773 10.2949 14.5612V12.376C10.2949 12.3597 10.3014 12.344 10.3131 12.3325C10.3247 12.3209 10.3405 12.3145 10.3569 12.3145V12.3053ZM6.57219 12.3053H8.77365C8.7901 12.3053 8.80588 12.3118 8.81752 12.3234C8.82916 12.3349 8.83569 12.3505 8.83569 12.3669V14.5612C8.83512 14.5773 8.8284 14.5927 8.81689 14.6041C8.80537 14.6155 8.78992 14.6222 8.77365 14.6227H6.57219C6.55592 14.6222 6.54047 14.6155 6.52895 14.6041C6.51744 14.5927 6.51072 14.5773 6.51015 14.5612V12.376C6.50882 12.3672 6.50943 12.3582 6.51195 12.3496C6.51446 12.3411 6.51882 12.3332 6.52472 12.3265C6.53062 12.3197 6.53792 12.3144 6.54612 12.3107C6.55431 12.3071 6.56321 12.3052 6.57219 12.3053Z" fill="#024093"/>
</g>
<defs>
<clipPath id="clip0_2974_162">
<rect width="24" height="28" fill="white"/>
</clipPath>
</defs>
</svg>
