<svg width="32" height="32" viewBox="0 0 32 32" fill="none" xmlns="http://www.w3.org/2000/svg">
<circle cx="16" cy="16" r="16" fill="#CFDBEB"/>
<path d="M15.25 22.75V19.9167H11.7083C11.5205 19.9167 11.3403 19.842 11.2075 19.7092C11.0746 19.5764 11 19.3962 11 19.2083V17.0833H22.3333V19.2083C22.3333 19.3962 22.2587 19.5764 22.1259 19.7092C21.993 19.842 21.8129 19.9167 21.625 19.9167H18.0833V22.6742C18.091 23.0191 17.9771 23.3556 17.7616 23.625C17.5461 23.8943 17.2428 24.0793 16.9047 24.1475C16.7013 24.1822 16.4929 24.172 16.2939 24.1177C16.0949 24.0635 15.9101 23.9664 15.7526 23.8333C15.595 23.7002 15.4684 23.5343 15.3816 23.3472C15.2948 23.1601 15.2499 22.9563 15.25 22.75ZM22.3333 10.7083C22.3333 10.5205 22.2587 10.3403 22.1259 10.2075C21.993 10.0746 21.8129 10 21.625 10H16.6667L15.25 12.8333L13.8333 10H11.7083C11.5205 10 11.3403 10.0746 11.2075 10.2075C11.0746 10.3403 11 10.5205 11 10.7083V15.6667H22.3333V10.7083Z" fill="#212121"/>
</svg>
