<svg width="28" height="35" viewBox="0 0 28 35" fill="none" xmlns="http://www.w3.org/2000/svg">
<path d="M26.9717 21.4289C26.9765 21.6683 26.8124 21.8721 26.5869 21.9261C26.2958 22.0218 25.9765 22.1647 25.6731 22.1723C25.4372 22.1771 25.2358 22.0205 25.1752 21.8057L24.6765 20.4004C24.5965 20.174 24.5179 19.9525 24.4407 19.7261L23.4924 21.5035C23.3883 21.6963 22.9869 21.9104 22.8193 22.0211C22.5862 22.1743 22.2724 22.1121 22.1179 21.8816C22.0786 21.8228 22.0531 21.7592 22.0421 21.6949L21.4821 18.9226L20.7145 18.4063L18.9324 18.13C18.9952 18.2237 19.0593 18.3174 19.1221 18.409C19.449 18.8863 19.7538 19.3322 19.8621 19.7959C20.0359 20.5413 19.7669 21.1732 18.5193 21.6471C18.5565 21.6683 18.5931 21.6908 18.6283 21.7168C19.1262 22.0779 19.2559 22.6236 18.2179 24.0303C17.9552 24.3852 17.7297 24.6984 17.5407 24.9713C17.3924 25.186 17.2538 25.3919 17.1269 25.5902L17.4041 27.319C17.4414 27.5522 17.3897 27.7799 17.2428 28.0022C17.009 28.3523 16.669 28.4898 16.3807 28.7708C16.3414 28.8098 16.3048 28.8488 16.2724 28.8864L16.3931 29.3795C16.4386 29.5634 16.3745 29.7481 16.2435 29.8671C16.1593 29.9423 16.0338 29.9895 15.9317 30.036C15.8986 30.1789 15.8483 30.3191 15.7835 30.4579C15.5621 30.9291 15.1435 31.403 14.6704 31.6341C14.1441 31.892 13.5421 31.8379 12.9655 31.8502C12.6862 31.8557 12.4545 31.6362 12.449 31.3592C12.4442 31.1322 12.411 30.8928 12.3504 30.6385C12.2062 30.0312 11.9179 29.4861 11.7531 28.8809C11.6076 28.3468 11.5269 27.624 11.8462 27.1378C11.8931 27.0694 11.8952 26.7076 11.8938 26.6221C11.8862 26.3028 11.7414 25.9841 11.5786 25.7147C11.4311 25.4712 11.1331 24.9966 11.1276 24.7169C11.1097 23.8976 10.8228 23.7239 10.4297 23.7322C9.82692 23.7445 9.22278 23.925 8.60003 23.938C8.33451 23.9435 8.07037 23.8286 7.80968 23.5954C7.41727 23.2439 7.02624 22.5963 6.77245 22.1278C6.549 21.7168 6.56624 21.6259 6.55658 21.1718C6.51314 19.7801 6.47314 18.4644 7.80624 17.4659C8.35037 16.6631 8.84485 16.1393 9.44623 15.8001C10.0717 15.4458 10.7738 15.3125 11.7262 15.2926C12.0055 15.2865 12.2366 15.5067 12.2428 15.7837L12.2579 16.4949L12.8704 16.7452L12.8786 16.7041C12.9897 16.1256 13.6193 16.3143 13.9876 16.4388C14.431 16.5872 14.6759 16.8395 15.2035 16.726C15.4035 16.6822 15.3593 16.6282 15.38 16.4265L14.78 16.4928C14.629 16.5085 14.4862 16.4566 14.3828 16.3615C14.2931 16.2788 14.2579 16.1748 14.189 16.0777C13.9628 15.759 13.5793 15.5751 13.1131 15.3515C12.5414 15.0772 11.869 14.7544 11.1386 14.0932C8.73865 14.9945 7.96899 15.1278 7.76348 14.5965C7.64279 14.286 7.80141 14.0316 8.01451 13.689C8.20623 13.3799 8.48003 12.9408 8.47106 12.534C8.4688 12.4302 8.49902 12.3284 8.55756 12.2424C8.61611 12.1564 8.7001 12.0906 8.79796 12.0539L10.8131 11.089C10.3331 11.089 10.1483 10.267 10.0717 9.93187C9.96416 9.46137 10.5559 9.25279 10.8704 9.03259C11.0842 8.88214 11.34 8.68929 11.6373 8.45405L11.6559 8.439C9.79657 8.76657 8.03589 9.51403 6.49176 10.5891C3.74694 12.5004 1.80211 15.5163 1.21315 18.7926C1.06212 19.6324 0.99591 20.4982 1.01522 21.3892C1.03384 22.2796 1.13729 23.1413 1.3235 23.9742C1.33384 24.0194 1.34418 24.0645 1.35522 24.1096L3.71866 25.1703C3.93728 25.2681 4.01383 25.4568 4.01797 25.6736C4.04004 26.298 3.87866 26.7733 3.71314 27.2609C3.58487 27.6377 3.45383 28.0234 3.44073 28.474C3.44004 28.5219 3.43245 28.5677 3.41866 28.6108C4.36142 29.93 5.57314 31.0768 6.94624 31.9487C8.37589 32.8569 9.98416 33.5004 11.6566 33.7958C13.3586 34.0967 15.1952 34.0577 16.8828 33.6857C18.5414 33.3205 20.1207 32.61 21.5103 31.6424C22.8607 30.702 24.0338 29.4889 24.9241 28.1109C25.8393 26.6953 26.4896 25.0965 26.7869 23.4401C26.9365 22.6038 27.0027 21.7421 26.9841 20.8558C26.9751 21.0439 26.9676 21.2395 26.9717 21.4289ZM20.4655 3.40169C21.949 3.40169 23.1503 4.59366 23.1503 6.06464C23.1503 7.53494 21.949 8.72622 20.4655 8.72622C18.9828 8.72622 17.7807 7.53494 17.7807 6.06464C17.7807 4.59366 18.9828 3.40169 20.4655 3.40169ZM23.5696 13.4107C22.8903 14.1485 22.0972 14.8133 21.2041 15.3597C21.0451 15.4761 20.8544 15.5422 20.6569 15.5493C20.4593 15.5564 20.2643 15.5041 20.0972 15.3993C18.7731 14.5643 17.6579 13.555 16.7793 12.4608C15.5586 10.9426 14.7883 9.24869 14.5221 7.61153C14.2441 5.90667 14.5104 4.25788 15.3759 2.90658C15.7207 2.36906 16.1614 1.87942 16.6993 1.45406C17.9131 0.495288 19.3124 -0.010768 20.7096 0.000173755C22.0696 0.0111155 23.4103 0.509649 24.562 1.55117C24.9655 1.91703 25.3089 2.33692 25.5896 2.79648C26.5138 4.30781 26.7207 6.21783 26.3214 8.13605C25.9352 9.99341 24.9807 11.8768 23.5696 13.4107ZM20.6221 14.5801C25.3262 11.7516 27.1414 5.19751 23.9034 2.26854C21.9296 0.482295 19.3434 0.604706 17.3076 2.21314C13.7386 5.0327 15.3386 11.2517 20.6221 14.5801ZM25.5027 13.1829C26.5234 14.6478 27.2731 16.3027 27.6641 18.0411C27.8648 18.939 27.9758 19.8663 27.9965 20.8216C28.0172 21.7777 27.9455 22.7091 27.7827 23.6145C27.4614 25.4035 26.7614 27.1214 25.7738 28.6498C24.811 30.1399 23.5496 31.4447 22.089 32.4616C20.5917 33.5045 18.8883 34.2711 17.1007 34.6657C15.2821 35.0664 13.3145 35.1082 11.48 34.784C9.6752 34.4646 7.94348 33.7712 6.4021 32.7912C4.89866 31.8359 3.58349 30.5865 2.55797 29.1374C1.50694 27.6527 0.732463 25.9636 0.335912 24.191C0.134533 23.2931 0.0234991 22.3658 0.00349913 21.4098C-0.0171905 20.4537 0.0538438 19.5223 0.217292 18.6169C0.852462 15.082 2.94763 11.833 5.91038 9.77048C8.05589 8.27693 10.4848 7.4221 13.1083 7.26139C13.1214 7.36534 13.1366 7.46997 13.1538 7.57392C13.211 7.92747 13.2883 8.28376 13.3835 8.64006C13.1655 8.64416 13.1559 8.64484 12.951 8.75905C12.7683 8.86094 12.5393 9.02028 12.2648 9.23775C11.9704 9.46958 11.6993 9.67337 11.4511 9.84775C11.3062 9.94965 11.1738 10.0379 11.0531 10.1138C11.2414 10.1534 11.3973 10.2492 11.5276 10.814C11.6111 11.1717 11.7862 11.7332 11.3531 11.9404L9.45933 12.8465C9.37796 13.3984 9.08554 13.8688 8.86968 14.2162C8.86554 14.2231 8.86003 14.2286 8.85451 14.2333C9.09382 14.0836 9.66692 13.5864 11.0448 13.0585C11.1389 13.0159 11.2438 13.0029 11.3456 13.0212C11.4473 13.0395 11.5409 13.0883 11.6138 13.1611C12.3097 13.8531 12.9855 14.1773 13.5504 14.4488C14.1421 14.7326 14.6324 14.9678 14.9897 15.4643L15.8048 15.3747C15.9662 15.3446 16.1262 15.3856 16.2483 15.4971C16.2985 15.5428 16.3389 15.5981 16.367 15.6597C16.3951 15.7213 16.4103 15.7879 16.4117 15.8555C16.4193 16.2104 16.409 16.871 16.2104 17.1924C16.0359 17.4735 15.7476 17.6342 15.42 17.7053C14.7248 17.8585 14.371 17.6752 13.7662 17.4256C13.7421 17.5535 13.7304 17.6472 13.6421 17.7559C13.5737 17.84 13.4798 17.8999 13.3743 17.9268C13.2688 17.9537 13.1573 17.946 13.0566 17.905L11.6007 17.3093C11.4021 17.2451 11.2559 17.0618 11.2511 16.8423L11.24 16.3219C10.709 16.367 10.2959 16.4716 9.9414 16.672C9.47933 16.9332 9.07658 17.375 8.6083 18.0746C8.57313 18.1327 8.52623 18.1847 8.46761 18.2257C7.49382 18.9191 7.52693 19.9996 7.5621 21.1444C7.569 21.3756 7.57382 21.4672 7.5752 21.537C7.57589 21.5602 7.6021 21.5527 7.65796 21.6546C7.85037 22.0109 8.18899 22.5881 8.48417 22.8527C8.54554 22.9074 8.57658 22.9348 8.57727 22.9348C9.19244 22.9218 9.79519 22.7426 10.4069 22.7289C11.3883 22.7091 12.1021 23.0551 12.1373 24.6964C12.1373 24.6984 12.4338 25.1867 12.4442 25.2031C12.8242 25.8337 12.9876 26.4512 12.8697 27.1829C12.7621 27.8421 12.5007 27.7936 12.7269 28.6217C12.8945 29.2345 13.1821 29.7788 13.3331 30.4107C13.3676 30.5564 13.3952 30.6986 13.4159 30.8368C13.68 30.8313 13.9835 30.8559 14.2235 30.7383C14.5793 30.5632 14.9366 30.0674 14.971 29.6708C14.9821 29.4396 15.1159 29.3077 15.3152 29.2153C15.2579 28.9842 15.1579 28.7476 15.2966 28.5226C15.5152 28.1663 15.8352 27.8811 16.1786 27.6472C16.2814 27.5768 16.3517 27.5159 16.3904 27.4647C16.4048 27.4407 16.4048 27.4626 16.3993 27.427L16.1035 25.5881C16.0766 25.4644 16.0952 25.331 16.1683 25.2154C16.3097 24.9911 16.4897 24.7203 16.709 24.4044C16.9221 24.098 17.1531 23.7759 17.4014 23.4395C17.9469 22.7002 18.049 22.5375 18.0324 22.5251C17.9972 22.4992 17.9124 22.467 17.8234 22.4335C17.5524 22.3302 17.2607 22.2174 17.0552 21.937C16.8241 21.6183 16.7352 21.0945 17.2572 20.9748C18.6228 20.6616 18.9552 20.3525 18.8772 20.0202C18.8117 19.7377 18.5579 19.3678 18.2869 18.9718C18.0172 18.5765 17.7317 18.1594 17.5366 17.7012C17.489 17.6082 17.4718 17.5027 17.4876 17.3996C17.5297 17.1261 17.7876 16.938 18.0634 16.9797L20.7993 17.4044C20.9338 17.4256 21.0634 17.4359 21.1807 17.5145L22.1807 18.1854C22.2456 18.2208 22.3019 18.2699 22.3456 18.3292C22.3894 18.3885 22.4194 18.4566 22.4338 18.5287L22.8462 20.5741L24.0786 18.2647C24.2621 17.851 24.871 17.8687 25.0207 18.3044C25.3331 19.2146 25.6441 20.1125 25.9655 21.0186C25.9765 20.7423 25.9972 20.3826 26.0365 20.0229C26.0758 19.6563 26.1345 19.2905 26.2193 19.0094C26.2814 18.8029 26.3641 18.6265 26.471 18.4945C26.3862 18.0192 26.2731 17.5521 26.1317 17.0932C25.9627 16.54 25.7517 16.0018 25.5 15.478C25.2815 15.0234 25.0365 14.5817 24.7662 14.1554C25.0269 13.8408 25.2731 13.516 25.5027 13.1829ZM2.69315 27.1344C2.71384 27.0701 2.73522 27.0065 2.75728 26.9429C2.86832 26.6174 2.97659 26.298 3.00418 25.9458L1.93108 25.4651C2.13591 26.0258 2.40073 26.6105 2.69315 27.1344Z" fill="#024093"/>
</svg>
