<svg width="20" height="18" viewBox="0 0 20 18" fill="none" xmlns="http://www.w3.org/2000/svg">
<path fill-rule="evenodd" clip-rule="evenodd" d="M7.49092 8.24645H8.11729V6.92097C8.11729 6.20589 8.40943 5.5559 8.87927 5.08474V5.08414C9.34927 4.61314 9.99819 4.32052 10.712 4.32052C11.4256 4.32052 12.0742 4.61314 12.5442 5.08414L12.5448 5.08474C13.0147 5.55575 13.3068 6.20605 13.3068 6.92082V8.24629L13.8059 8.24645C13.917 8.24645 14.0079 8.33761 14.0079 8.44895V12.7271C14.0079 12.8384 13.9168 12.9296 13.8057 12.9296H7.49092C7.37982 12.9296 7.28869 12.8383 7.28869 12.7271V8.44895C7.28869 8.33761 7.37967 8.24645 7.49092 8.24645ZM3.49192 3.36821C3.22234 3.70299 2.97333 4.05855 2.72585 4.49937C1.8196 6.11412 1.43573 7.94746 1.5921 9.73924C1.74498 11.4893 2.41433 13.2019 3.61665 14.6345C4.0485 15.149 4.51184 15.6026 4.99895 15.9948C6.68095 17.3502 8.67356 18.0185 10.6609 17.9996C12.649 17.9806 14.6281 17.2739 16.2835 15.8788C16.7662 15.472 17.2188 15.0101 17.6329 14.4939C18.6011 13.2868 19.2241 11.8711 19.4601 10.3773C19.692 8.9101 19.5501 7.36937 18.9955 5.87885C18.4677 4.45978 17.6614 3.19619 16.6077 2.20701C15.6034 1.2641 14.377 0.569653 12.9546 0.22501C12.5091 0.117006 12.0556 0.0464695 11.5936 0.0165863C11.1301 -0.0132968 10.6562 -0.00328521 10.1706 0.0505652C9.8662 0.0842407 9.64701 0.358499 9.68047 0.66355C9.71407 0.968449 9.98774 1.18825 10.292 1.15457C10.7133 1.10785 11.1238 1.09906 11.5243 1.12499C11.926 1.15093 12.3159 1.21116 12.6945 1.30308C13.9215 1.60024 14.9808 2.20018 15.8487 3.01537C16.7778 3.88775 17.4906 5.00632 17.959 6.26566C18.4451 7.57218 18.5697 8.92102 18.367 10.2034C18.1612 11.5063 17.6167 12.7426 16.7697 13.7983C16.3959 14.2642 15.9945 14.6751 15.572 15.0311C14.1203 16.2548 12.3886 16.8746 10.6523 16.8913C8.9156 16.9079 7.17063 16.3207 5.69282 15.1302C5.25461 14.7771 4.84198 14.3743 4.46234 13.9218C3.41533 12.6743 2.83196 11.1774 2.69815 9.64383C2.5607 8.07003 2.8975 6.46013 3.69294 5.04288C3.93301 4.61511 4.17898 4.27365 4.45175 3.94448L4.53243 6.17374C4.54318 6.47985 4.79959 6.71922 5.1049 6.7083C5.41021 6.69737 5.64922 6.44056 5.63833 6.1346L5.50966 2.58214C5.49892 2.27588 5.2425 2.03666 4.93719 2.04743C4.91811 2.04819 4.89935 2.04986 4.88088 2.05228V2.05183L1.44466 2.53557C1.14178 2.57759 0.930164 2.85792 0.972093 3.16145C1.01387 3.46514 1.2936 3.6772 1.59664 3.63518L3.49192 3.36821ZM9.1254 8.24645H12.2985V6.9064C12.2985 6.46908 12.1199 6.0715 11.8328 5.78343L11.8325 5.78359C11.545 5.49552 11.1481 5.31638 10.712 5.31638C10.2756 5.31638 9.87891 5.49537 9.59131 5.78328C9.30401 6.07134 9.12555 6.46908 9.12555 6.9064V8.24645H9.1254ZM10.7248 10.5873L11.0451 12.0685L10.1673 12.0721L10.4247 10.5711C10.185 10.4939 10.0111 10.2688 10.0111 10.0027C10.0111 9.67341 10.2775 9.40643 10.6062 9.40643C10.9347 9.40643 11.2013 9.67341 11.2013 10.0027C11.2011 10.2915 10.9966 10.5324 10.7248 10.5873Z" fill="#3E3E3E"/>
</svg>
