<svg width="37" height="31" viewBox="0 0 37 31" fill="none" xmlns="http://www.w3.org/2000/svg">
<g clip-path="url(#clip0_2974_220)">
<path d="M10.7425 30.0837H25.6202V0.916343H10.7425V30.0837ZM26.6073 30.0837H35.5713V9.91236H26.6103V30.0837H26.6073ZM9.74653 30.0837V9.91236H0.853711V30.0837H9.74653ZM0.426856 31C0.313646 31 0.205074 30.9554 0.125023 30.8761C0.0449721 30.7968 0 30.6892 0 30.5771L0 9.61573C0.000815069 9.45073 0.0667826 9.2926 0.183785 9.17518C0.242195 9.11738 0.311528 9.07154 0.387821 9.0403C0.464114 9.00906 0.545873 8.99301 0.628426 8.99308H9.81768V0.74306C9.81846 0.546226 9.89772 0.357675 10.0382 0.218492C10.1787 0.0793082 10.369 0.000773422 10.5676 0L25.7892 0C25.9881 0 26.1788 0.0782865 26.3195 0.217637C26.4601 0.356988 26.5391 0.545988 26.5391 0.74306V8.99308H35.7966C35.9623 8.99339 36.1212 9.05889 36.2383 9.17518C36.3556 9.29115 36.4217 9.44855 36.422 9.61279V30.5741C36.422 30.6863 36.3771 30.7939 36.297 30.8732C36.217 30.9525 36.1084 30.9971 35.9952 30.9971L0.426856 31ZM21.245 23.8425H23.7616C23.7805 23.8425 23.7986 23.85 23.8119 23.8632C23.8253 23.8764 23.8328 23.8943 23.8328 23.913V26.4065C23.8328 26.4252 23.8253 26.4432 23.8119 26.4564C23.7986 26.4696 23.7805 26.477 23.7616 26.477H21.245C21.2261 26.477 21.208 26.4696 21.1946 26.4564C21.1813 26.4432 21.1738 26.4252 21.1738 26.4065V23.913C21.1738 23.8943 21.1813 23.8764 21.1946 23.8632C21.208 23.85 21.2261 23.8425 21.245 23.8425ZM16.9201 23.8425H19.4367C19.4556 23.8425 19.4737 23.85 19.4871 23.8632C19.5004 23.8764 19.5079 23.8943 19.5079 23.913V26.4065C19.5079 26.4252 19.5004 26.4432 19.4871 26.4564C19.4737 26.4696 19.4556 26.477 19.4367 26.477H16.9201C16.9012 26.477 16.8831 26.4696 16.8698 26.4564C16.8564 26.4432 16.8489 26.4252 16.8489 26.4065V23.913C16.8489 23.8943 16.8564 23.8764 16.8698 23.8632C16.8831 23.85 16.9012 23.8425 16.9201 23.8425ZM12.5952 23.8425H15.1178C15.1367 23.8425 15.1548 23.85 15.1681 23.8632C15.1814 23.8764 15.1889 23.8943 15.1889 23.913V26.4065C15.1889 26.4252 15.1814 26.4432 15.1681 26.4564C15.1548 26.4696 15.1367 26.477 15.1178 26.477H12.5952C12.5763 26.477 12.5582 26.4696 12.5449 26.4564C12.5316 26.4432 12.5241 26.4252 12.5241 26.4065V23.913C12.5241 23.8943 12.5316 23.8764 12.5449 23.8632C12.5582 23.85 12.5763 23.8425 12.5952 23.8425ZM28.7979 21.4166H33.5852V23.1288L28.7979 23.1817V21.4195V21.4166ZM2.87831 21.4166H7.59447V23.1288L2.87831 23.1817V21.4195V21.4166ZM12.5863 2.48764H23.7735C23.8636 2.4884 23.9499 2.52423 24.0137 2.58741C24.0774 2.65059 24.1136 2.73605 24.1144 2.82539V11.4954C24.1144 11.5853 24.0786 11.6715 24.0147 11.7353C23.9509 11.7991 23.8642 11.8353 23.7735 11.8361H12.5863C12.4951 11.8361 12.4077 11.8002 12.3432 11.7363C12.2787 11.6724 12.2425 11.5858 12.2425 11.4954V2.82539C12.2432 2.73554 12.2798 2.64964 12.3442 2.58638C12.4086 2.52312 12.4956 2.48763 12.5863 2.48764ZM28.7979 18.1183H33.5852V19.8306L28.7979 19.8805V18.1183ZM33.5852 14.8171V16.5294L28.7268 16.5823V14.8671C28.7268 14.7613 33.1495 14.8171 33.5852 14.8171ZM2.87831 18.1183H7.66561V19.8306L2.87831 19.8805V18.1183ZM2.87831 14.8171H7.66561V16.5294L2.87831 16.5823V14.8201V14.8171ZM21.2568 19.4694H23.7735C23.7923 19.4694 23.8104 19.4768 23.8238 19.49C23.8371 19.5032 23.8446 19.5211 23.8446 19.5398V22.0275C23.8446 22.0462 23.8371 22.0641 23.8238 22.0773C23.8104 22.0905 23.7923 22.098 23.7735 22.098H21.245C21.2261 22.098 21.208 22.0905 21.1946 22.0773C21.1813 22.0641 21.1738 22.0462 21.1738 22.0275V19.5398C21.1738 19.5211 21.1813 19.5032 21.1946 19.49C21.208 19.4768 21.2261 19.4694 21.245 19.4694H21.2568ZM16.9319 19.4694H19.4486C19.4675 19.4694 19.4856 19.4768 19.4989 19.49C19.5123 19.5032 19.5197 19.5211 19.5197 19.5398V22.0275C19.5197 22.0462 19.5123 22.0641 19.4989 22.0773C19.4856 22.0905 19.4675 22.098 19.4486 22.098H16.9201C16.9012 22.098 16.8831 22.0905 16.8698 22.0773C16.8564 22.0641 16.8489 22.0462 16.8489 22.0275V19.5398C16.8489 19.5211 16.8564 19.5032 16.8698 19.49C16.8831 19.4768 16.9012 19.4694 16.9201 19.4694H16.9319ZM12.6071 19.4694H15.1178C15.1367 19.4694 15.1548 19.4768 15.1681 19.49C15.1814 19.5032 15.1889 19.5211 15.1889 19.5398V22.0275C15.1889 22.0462 15.1814 22.0641 15.1681 22.0773C15.1548 22.0905 15.1367 22.098 15.1178 22.098H12.5952C12.5763 22.098 12.5582 22.0905 12.5449 22.0773C12.5316 22.0641 12.5241 22.0462 12.5241 22.0275V19.5398C12.5241 19.5211 12.5316 19.5032 12.5449 19.49C12.5582 19.4768 12.5763 19.4694 12.5952 19.4694H12.6071ZM21.245 14.6292H23.7616C23.7805 14.6292 23.7986 14.6366 23.8119 14.6498C23.8253 14.663 23.8328 14.681 23.8328 14.6997V17.1932C23.8328 17.2119 23.8253 17.2298 23.8119 17.243C23.7986 17.2562 23.7805 17.2637 23.7616 17.2637H21.245C21.2261 17.2637 21.208 17.2562 21.1946 17.243C21.1813 17.2298 21.1738 17.2119 21.1738 17.1932V14.6997C21.1738 14.681 21.1813 14.663 21.1946 14.6498C21.208 14.6366 21.2261 14.6292 21.245 14.6292ZM16.9201 14.6292H19.4367C19.4556 14.6292 19.4737 14.6366 19.4871 14.6498C19.5004 14.663 19.5079 14.681 19.5079 14.6997V17.1932C19.5079 17.2119 19.5004 17.2298 19.4871 17.243C19.4737 17.2562 19.4556 17.2637 19.4367 17.2637H16.9201C16.9012 17.2637 16.8831 17.2562 16.8698 17.243C16.8564 17.2298 16.8489 17.2119 16.8489 17.1932V14.6997C16.8489 14.681 16.8564 14.663 16.8698 14.6498C16.8831 14.6366 16.9012 14.6292 16.9201 14.6292ZM12.5952 14.6292H15.1178C15.1367 14.6292 15.1548 14.6366 15.1681 14.6498C15.1814 14.663 15.1889 14.681 15.1889 14.6997V17.1932C15.1889 17.2119 15.1814 17.2298 15.1681 17.243C15.1548 17.2562 15.1367 17.2637 15.1178 17.2637H12.5952C12.5763 17.2637 12.5582 17.2562 12.5449 17.243C12.5316 17.2298 12.5241 17.2119 12.5241 17.1932V14.6997C12.5241 14.681 12.5316 14.663 12.5449 14.6498C12.5582 14.6366 12.5763 14.6292 12.5952 14.6292Z" fill="#024093"/>
</g>
<defs>
<clipPath id="clip0_2974_220">
<rect width="36.425" height="31" fill="white"/>
</clipPath>
</defs>
</svg>
