<svg width="20" height="13" viewBox="0 0 20 13" fill="none" xmlns="http://www.w3.org/2000/svg">
<path d="M10 4.63364C10.957 4.63364 11.7367 5.47873 11.7367 6.51395C11.7367 7.54917 10.9562 8.36723 10 8.36723C9.04382 8.36723 8.28822 7.54917 8.28822 6.51395C8.28822 5.47873 9.04382 4.63364 10 4.63364ZM10 0C15.6895 0 19.7922 5.77787 19.7922 5.77787C20.0693 6.15987 20.0693 6.841 19.7922 7.22213C19.7922 7.22213 15.6887 13 10 13C4.31126 13 0.20783 7.22213 0.20783 7.22213C-0.0692766 6.84013 -0.0692766 6.159 0.20783 5.77787C0.20783 5.77787 4.31126 0 10 0ZM10 11.1746C12.3667 11.1746 14.3048 9.07628 14.3048 6.51395C14.3048 3.95163 12.3667 1.85328 10 1.85328C7.63332 1.85328 5.69518 3.95163 5.69518 6.51395C5.69518 9.07628 7.63332 11.1746 10 11.1746Z" fill="black"/>
</svg>
