<svg width="27" height="25" viewBox="0 0 27 25" fill="none" xmlns="http://www.w3.org/2000/svg">
<path fill-rule="evenodd" clip-rule="evenodd" d="M1.79394 22.9649H11.8427L6.87022 18.1715L2.07721 22.792C1.99449 22.8717 1.8973 22.9292 1.79394 22.9649ZM1.50956 21.2805V5.49658H19.6302V15.9673L16.0934 12.5578C15.8111 12.2857 15.3247 12.2776 15.0298 12.5619C15.01 12.581 14.9914 12.6011 14.9742 12.622C14.9689 12.6268 14.9636 12.6318 14.9584 12.6368L9.11142 18.2733L7.42704 16.6495C7.26134 16.4898 7.02957 16.4193 6.80649 16.4426C6.62434 16.4527 6.44372 16.524 6.30418 16.6585L1.50956 21.2805ZM13.9782 22.9649H19.6302V18.0172L19.6256 18.0216L15.5668 14.1089L10.1792 19.3026L13.9782 22.9649ZM21.1402 22.4277L22.5908 22.6242C23.4235 22.7371 24.1911 22.1784 24.308 21.3769L26.827 4.09821C26.944 3.29543 26.3645 2.55548 25.533 2.44283L7.60921 0.0144827C6.77645 -0.0983411 6.00888 0.460311 5.89201 1.2619L5.48685 4.04088H1.51988C0.678943 4.04088 -0.000488281 4.69709 -0.000488281 5.50655V22.955C-0.000488281 23.7657 0.680198 24.4206 1.51988 24.4206H19.6198C20.4608 24.4206 21.1402 23.7645 21.1402 22.955V22.4277ZM21.1402 20.9577L22.8112 21.1841L25.3331 3.88575L7.38884 1.45463L7.01179 4.04088H19.6198C20.4595 4.04088 21.1402 4.69588 21.1402 5.50655V20.9577Z" fill="#212121"/>
</svg>
