<svg width="26" height="25" viewBox="0 0 26 25" fill="none" xmlns="http://www.w3.org/2000/svg">
<path d="M0.695606 12.9333H2.81545C3.18098 17.5925 7.06566 21.3379 11.9006 21.6894V23.6977C11.9006 24.0993 12.2244 24.4206 12.642 24.4206C13.0702 24.4206 13.3939 24.0993 13.3939 23.6977V21.6894C18.2289 21.3379 22.1137 17.5925 22.479 12.9333H24.599C25.0167 12.9333 25.3507 12.6119 25.3507 12.2103C25.3507 11.8087 25.0167 11.4974 24.599 11.4974H22.479C22.1137 6.83817 18.2289 3.09274 13.3939 2.7413V0.722982C13.3939 0.321306 13.0702 0 12.642 0C12.2244 0 11.9006 0.321306 11.9006 0.722974V2.7413C7.06566 3.09274 3.18098 6.83817 2.81545 11.4974H0.695606C0.277922 11.4974 -0.000488281 11.8087 -0.000488281 12.2103C-0.000488281 12.6119 0.277922 12.9333 0.695606 12.9333ZM12.642 8.24397C13.0702 8.24397 13.3939 7.92266 13.3939 7.52099V4.37805C17.3204 4.71946 20.3696 7.68164 20.7143 11.4974H17.5292C17.1115 11.4974 16.7773 11.8087 16.7773 12.2103C16.7773 12.6119 17.1115 12.9333 17.5292 12.9333H20.7143C20.3696 16.739 17.3204 19.7012 13.3939 20.0426V16.8996C13.3939 16.498 13.0702 16.1867 12.642 16.1867C12.2244 16.1867 11.9006 16.498 11.9006 16.8996V20.0426C7.97414 19.7012 4.92491 16.739 4.58029 12.9333H7.76534C8.18303 12.9333 8.51717 12.6119 8.51717 12.2103C8.51717 11.8087 8.18303 11.4974 7.76534 11.4974H4.58029C4.92491 7.68164 7.97414 4.71946 11.9006 4.37805V7.52099C11.9006 7.92266 12.2244 8.24397 12.642 8.24397Z" fill="#212121"/>
</svg>
