<svg width="12" height="17" viewBox="0 0 12 17" fill="none" xmlns="http://www.w3.org/2000/svg">
<path d="M1.34881 7.8442L6.60613 7.8442C6.83845 7.8442 7.02675 8.03452 7.02675 8.26913C7.02675 8.50387 6.83845 8.69419 6.60613 8.69419L1.34908 8.69419L3.05903 10.6526C3.21247 10.8277 3.19619 11.0953 3.02282 11.2501C2.84946 11.405 2.58443 11.3887 2.43112 11.2136L0.105112 8.54963C-0.037698 8.38663 -0.0333912 8.14328 0.107804 7.98566L2.43126 5.32463C2.5847 5.14938 2.84959 5.1331 3.02296 5.28816C3.19619 5.44308 3.21247 5.71066 3.05916 5.88578L1.34881 7.8442ZM6.29292 0.8348C6.06558 0.779749 5.92586 0.550796 5.98091 0.323457C6.03596 0.0961184 6.26478 -0.0437303 6.49226 0.011457C7.00387 0.135557 7.51279 0.236372 7.97985 0.328842C10.5961 0.84705 11.9994 1.12486 11.9994 4.84627L11.9994 11.9374C11.9994 15.4676 10.508 15.7464 8.038 16.2079C7.55721 16.2977 7.0355 16.3952 6.49226 16.5271C6.26492 16.5821 6.03596 16.4424 5.98091 16.2149C5.926 15.9876 6.06558 15.7586 6.29291 15.7036C6.87048 15.5635 7.39676 15.4652 7.88186 15.3745C9.91929 14.9938 11.1494 14.764 11.1494 11.9374L11.1494 4.84627C11.1494 1.82222 9.98605 1.59179 7.81725 1.16228C7.36204 1.0721 6.86604 0.973707 6.29292 0.8348Z" fill="#3E3E3E"/>
</svg>
