<svg width="37" height="29" viewBox="0 0 37 29" fill="none" xmlns="http://www.w3.org/2000/svg">
<g clip-path="url(#clip0_2974_197)">
<path d="M1.83374 0H30.1197C30.6226 0 31.0833 0.210587 31.4145 0.546306C31.7457 0.882025 31.9535 1.34898 31.9535 1.85866V21.5623C31.9535 21.9469 31.836 22.307 31.6373 22.603C31.6012 22.6976 31.5439 22.7892 31.4657 22.8655C31.4145 22.9143 31.3573 22.9571 31.294 22.9876C30.9749 23.2562 30.5654 23.421 30.1227 23.421H1.83374C1.33089 23.421 0.870199 23.2134 0.538981 22.8747C0.207764 22.5359 0 22.072 0 21.5592V1.85866C0 1.34593 0.204753 0.882025 0.538981 0.546306C0.870199 0.207535 1.32788 0 1.83374 0ZM35.1663 29H5.5494C5.04655 29 4.58586 28.7894 4.25464 28.4537C3.92342 28.118 3.71566 27.651 3.71566 27.1413V25.2735H5.10677V27.5747H35.627V5.65839H33.7721V4.23311H35.1633C35.6661 4.23311 36.1268 4.44064 36.458 4.77941C36.7892 5.11513 36.997 5.57904 36.997 6.09177V27.1444C36.997 27.6571 36.7922 28.121 36.458 28.4567C36.1298 28.7925 35.6721 29 35.1663 29ZM1.40617 20.7779L11.3186 10.7064L1.40617 2.51484V20.7779ZM12.4116 11.6067L2.18905 21.9926H29.6741L19.9092 11.6098L16.6904 14.3901C16.4374 14.6099 16.061 14.6221 15.7931 14.4023L12.4116 11.6067ZM20.9781 10.6881L30.5473 20.8603V2.42328L20.9781 10.6881ZM2.30648 1.42528L16.2236 12.9252L29.5416 1.42528H2.30648Z" fill="#024093"/>
</g>
<defs>
<clipPath id="clip0_2974_197">
<rect width="37" height="29" fill="white"/>
</clipPath>
</defs>
</svg>
