<svg width="16" height="21" viewBox="0 0 16 21" fill="none" xmlns="http://www.w3.org/2000/svg">
<path d="M6 13.4L7.42857 15L11 11" stroke="black" stroke-linecap="round" stroke-linejoin="round"/>
<path d="M13.0868 5.97266H2.91682C2.39811 5.97266 1.96551 6.36927 1.92058 6.88603L1 17.4727C1 17.8923 1.12228 18.2834 1.3027 18.6288C1.85108 19.6788 3.1321 19.9727 4.31665 19.9727H11.6833C12.8679 19.9727 14.1491 19.6643 14.6325 18.5828C14.9102 17.9614 15 17.3373 15 16.9727L14.0827 6.88212C14.0359 6.36704 13.604 5.97266 13.0868 5.97266Z" stroke="black"/>
<path d="M11 8V4C11 2.34315 9.6569 1 8 1C6.3431 1 5 2.34315 5 4V8" stroke="black" stroke-linecap="round" stroke-linejoin="round"/>
</svg>
