<svg width="27" height="27" viewBox="0 0 27 27" fill="none" xmlns="http://www.w3.org/2000/svg">
<g clip-path="url(#clip0_2974_185)">
<path d="M7.43155 11.1056C8.34056 12.749 9.38668 14.3306 10.7437 15.7724C12.1069 17.221 13.7948 18.5411 15.9897 19.6603L15.9919 19.6614L15.9923 19.6603C16.1523 19.7422 16.3046 19.7402 16.4476 19.6863C16.655 19.6084 16.871 19.4352 17.0811 19.2257C17.2412 19.0654 17.4421 18.8008 17.6592 18.5139C18.5042 17.3979 19.549 16.0184 21.0241 16.7047C21.0553 16.7191 21.0847 16.7358 21.1124 16.7546L26.0283 19.5927C26.0459 19.6028 26.0628 19.6137 26.0789 19.6252C26.7306 20.0748 26.9967 20.7673 26.9995 21.5426C27.0026 22.3422 26.7075 23.2372 26.2801 23.994C25.7165 24.9915 24.8767 25.6507 23.9157 26.0974C22.9994 26.5232 21.9825 26.7497 21.0005 26.8942C19.4649 27.1205 18.0171 26.9767 16.5427 26.5205C15.1035 26.0751 13.6476 25.3314 12.0603 24.3431L11.9447 24.2712C11.2139 23.8163 10.4273 23.3269 9.662 22.7466C6.83522 20.6023 3.95658 17.5079 2.09 14.1117C0.518737 11.2529 -0.341053 8.16947 0.127624 5.22937C0.384484 3.61599 1.07684 2.15146 2.2704 1.18136C3.31674 0.330513 4.7287 -0.130356 6.54364 0.0323947C6.75743 0.0509443 6.93761 0.173504 7.03912 0.34575L7.04044 0.345087L10.1878 5.70459C10.6514 6.3048 10.7028 6.90037 10.4521 7.49241C10.2449 7.98221 9.81669 8.43115 9.24891 8.85448C9.07621 8.99802 8.87362 9.14708 8.66466 9.30077C7.96197 9.81773 7.15821 10.4089 7.43155 11.1056ZM9.81515 16.6552C8.36407 15.1134 7.25863 13.444 6.30502 11.7182C6.28832 11.691 6.27338 11.6623 6.26063 11.6321C5.56322 9.9849 6.81434 9.06493 7.90704 8.26178C8.09271 8.12531 8.27245 7.99303 8.43461 7.85788L8.43505 7.85855C8.44449 7.8506 8.45438 7.84287 8.46471 7.83536C8.86966 7.53636 9.16146 7.25083 9.27286 6.98804C9.33636 6.8381 9.31285 6.67314 9.17047 6.48786C9.14608 6.45938 9.12367 6.42802 9.10389 6.39445L6.10726 1.29222C4.81769 1.239 3.81793 1.58393 3.07855 2.18525C2.14713 2.94247 1.60133 4.11948 1.39237 5.4312C0.973791 8.05773 1.76942 10.8623 3.21434 13.4914C4.98929 16.7206 7.73522 19.6695 10.4354 21.7173C11.1779 22.2804 11.9243 22.7448 12.6178 23.1763L12.7333 23.2483C14.2314 24.1808 15.5935 24.8793 16.9196 25.2896C18.2107 25.6891 19.4759 25.8152 20.8151 25.6178C21.696 25.4881 22.5977 25.2898 23.3789 24.9268C24.1152 24.5845 24.7517 24.091 25.1661 23.358C25.4948 22.7757 25.722 22.1097 25.7201 21.5424C25.7187 21.1824 25.6163 20.8735 25.3674 20.6935L20.4785 17.8716C19.9377 17.6328 19.2416 18.5519 18.6783 19.2959C18.4357 19.6165 18.2113 19.9125 17.9848 20.1388C17.6603 20.4625 17.2997 20.7401 16.8945 20.892C16.4252 21.0685 15.9288 21.0762 15.4103 20.8103L15.4107 20.8095C13.0785 19.6203 11.277 18.2088 9.81515 16.6552Z" fill="#024093"/>
</g>
<defs>
<clipPath id="clip0_2974_185">
<rect width="27" height="27" fill="white"/>
</clipPath>
</defs>
</svg>
