<svg width="29" height="33" viewBox="0 0 29 33" fill="none" xmlns="http://www.w3.org/2000/svg">
<g clip-path="url(#clip0_2974_106)">
<path d="M21.7841 1.36427H7.2156C3.97223 1.36427 1.31906 4.10865 1.31906 7.4632V18.2267C1.31906 21.5807 3.97274 24.3256 7.2156 24.3256H11.7967C11.1413 27.0074 10.3476 29.4172 7.92264 31.6414C12.5593 30.4149 16.1387 27.9353 18.7656 24.3256H19.5578C22.8004 24.3256 27.6812 21.5812 27.6812 18.2267V7.4632C27.6807 4.10865 25.0275 1.36427 21.7841 1.36427ZM21.0657 11.0294C19.884 11.0294 18.9261 12.0206 18.9261 13.2428C18.9261 14.465 19.884 15.4563 21.0657 15.4563C22.2479 15.4563 23.2058 14.465 23.2058 13.2428C23.2058 12.0206 22.2479 11.0294 21.0657 11.0294ZM7.93407 11.0294C6.75211 11.0294 5.79398 12.0206 5.79398 13.2428C5.79398 14.465 6.75211 15.4563 7.93407 15.4563C9.11576 15.4563 10.0742 14.465 10.0742 13.2428C10.0742 12.0206 9.11576 11.0294 7.93407 11.0294ZM14.5 11.0294C13.3183 11.0294 12.3599 12.0206 12.3599 13.2428C12.3599 14.465 13.3183 15.4563 14.5 15.4563C15.682 15.4563 16.6398 14.465 16.6398 13.2428C16.6398 12.0206 15.682 11.0294 14.5 11.0294ZM7.2156 0H21.7844H21.786V0.00537114C23.7744 0.00590825 25.578 0.843 26.8812 2.19116L26.8786 2.19384C28.1839 3.54549 28.9943 5.41035 28.9948 7.46239H29V7.4632H28.9948V18.2267H29V18.2278H28.9948C28.9938 20.4219 27.52 22.3337 25.557 23.669C23.7287 24.9121 21.4201 25.6842 19.5578 25.6845V25.6902H19.5573V25.6845H19.4078C18.0929 27.3788 16.5669 28.825 14.8186 30.0123C12.886 31.325 10.6994 32.3141 8.24669 32.9629L8.24565 32.9586C7.78398 33.0795 7.27532 32.9358 6.93802 32.5418C6.45714 31.9797 6.50803 31.1206 7.05149 30.6233C8.12076 29.6428 8.82988 28.6223 9.34322 27.5526C9.6291 26.9567 9.8589 26.335 10.0586 25.6893H7.21534H7.21352V25.6837C5.22559 25.6832 3.42201 24.8461 2.11854 23.4979C0.814802 22.15 0.00545279 20.2841 0.00519313 18.2272H0V18.2264H0.00519313V7.4632H0V7.46132H0.00519313C0.00545279 5.44687 0.784942 3.61478 2.04557 2.27307C2.06868 2.24514 2.09257 2.21774 2.11802 2.19142C3.42175 0.843 5.22559 0.00537114 7.21456 0.00510258V0H7.2156Z" fill="#024093"/>
</g>
<defs>
<clipPath id="clip0_2974_106">
<rect width="29" height="33" fill="white"/>
</clipPath>
</defs>
</svg>
