<svg width="22" height="18" viewBox="0 0 22 18" fill="none" xmlns="http://www.w3.org/2000/svg">
<path d="M21 4.42857L17.0436 6.68939C14.8378 7.94983 13.7349 8.58011 12.5669 8.8272C11.5331 9.04583 10.4669 9.04583 9.43311 8.8272C8.26516 8.58011 7.16226 7.94983 4.95644 6.68939L1 4.42857M4.55556 17H17.4444C18.689 17 19.3113 17 19.7867 16.7509C20.2048 16.5318 20.5448 16.1821 20.7578 15.752C21 15.2631 21 14.623 21 13.3429V4.65714C21 3.37703 21 2.73696 20.7578 2.24802C20.5448 1.81793 20.2048 1.46826 19.7867 1.24913C19.3113 1 18.689 1 17.4444 1H4.55556C3.311 1 2.68871 1 2.21336 1.24913C1.79521 1.46826 1.45526 1.81793 1.24221 2.24802C1 2.73696 1 3.37702 1 4.65714V13.3429C1 14.623 1 15.2631 1.24221 15.752C1.45526 16.1821 1.79521 16.5318 2.21336 16.7509C2.68871 17 3.31099 17 4.55556 17Z" stroke="white" stroke-width="1.5" stroke-linecap="round" stroke-linejoin="round"/>
</svg>
