<svg width="11" height="11" viewBox="0 0 11 11" fill="none" xmlns="http://www.w3.org/2000/svg">
<path d="M0.000850001 9.65685C0.000850001 9.95152 0.10285 10.2008 0.30685 10.4049C0.51085 10.6088 0.76585 10.7165 1.07185 10.7278H3.21385C3.50852 10.7278 3.76352 10.6202 3.97885 10.4049C4.19418 10.1895 4.29618 9.94018 4.28485 9.65685V1.07185C4.28485 0.777183 4.18285 0.522183 3.97885 0.30685C3.77485 0.0915165 3.51985 -0.0104833 3.21385 0.000850001H1.07185C0.777183 0.000850001 0.522183 0.10285 0.30685 0.30685C0.0915165 0.51085 -0.0104833 0.76585 0.000850001 1.07185V9.65685ZM6.42685 9.65685C6.42685 9.95152 6.53452 10.2008 6.74985 10.4049C6.96518 10.6088 7.21452 10.7165 7.49785 10.7278H9.63985C9.93452 10.7278 10.1895 10.6202 10.4049 10.4049C10.6202 10.1895 10.7222 9.94018 10.7109 9.65685V1.07185C10.7109 0.777183 10.6089 0.522183 10.4049 0.30685C10.2009 0.0915165 9.94585 -0.0104833 9.63985 0.000850001H7.49785C7.20318 0.000850001 6.95385 0.10285 6.74985 0.30685C6.54585 0.51085 6.43818 0.76585 6.42685 1.07185V9.65685Z" fill="#212121"/>
</svg>
