<svg width="20" height="20" viewBox="0 0 20 20" fill="none" xmlns="http://www.w3.org/2000/svg">
<path d="M13.7375 13.6349L14.2047 13.1431L13.0892 12.0837L12.6221 12.5754L13.7375 13.6349ZM15.7418 12.936L17.7012 14.0639L18.4687 12.7306L16.5092 11.6028L15.7418 12.936ZM18.0793 16.4022L16.6224 17.9361L17.7378 18.9955L19.1948 17.4616L18.0793 16.4022ZM15.7458 18.4276C14.274 18.5729 10.4338 18.4489 6.26562 14.0605L5.15019 15.12C9.69294 19.9027 14.0263 20.1432 15.8968 19.9586L15.7458 18.4276ZM6.26562 14.0605C2.29025 9.87512 1.62342 6.34473 1.5403 4.79625L0.00410763 4.87869C0.105899 6.77528 0.911185 10.6571 5.15019 15.12L6.26562 14.0605ZM7.67619 7.25345L7.97034 6.94376L6.85491 5.88427L6.56075 6.19396L7.67619 7.25345ZM8.2014 3.08797L6.90817 1.25881L5.65201 2.14696L6.94529 3.97611L8.2014 3.08797ZM2.53089 0.864465L0.921093 2.55927L2.03652 3.61876L3.64632 1.92395L2.53089 0.864465ZM7.11847 6.7237C6.56075 6.19396 6.55933 6.19546 6.55933 6.19546L6.55788 6.197L6.5549 6.20019C6.55288 6.20236 6.55079 6.20463 6.54864 6.207C6.54434 6.21173 6.53978 6.21685 6.53498 6.22236C6.52539 6.2334 6.51485 6.24601 6.50357 6.26026C6.48103 6.28875 6.45552 6.32377 6.42877 6.36557C6.37512 6.44942 6.31692 6.55985 6.26764 6.69833C6.16744 6.97993 6.11284 7.35284 6.18107 7.81854C6.31513 8.73351 6.91466 9.96393 8.48109 11.6131L9.59654 10.5537C8.13238 9.01207 7.77169 8.06266 7.70323 7.59551C7.6702 7.37013 7.70376 7.25138 7.71703 7.21409C7.72449 7.19312 7.72937 7.1873 7.72459 7.19476C7.72228 7.19837 7.71767 7.20516 7.70991 7.21497C7.70603 7.21987 7.70136 7.22553 7.69578 7.23195C7.69299 7.23515 7.68996 7.23855 7.68671 7.24214C7.68508 7.24393 7.68339 7.24577 7.68164 7.24765L7.67896 7.25052L7.67759 7.25197C7.67759 7.25197 7.67619 7.25345 7.11847 6.7237ZM8.48109 11.6131C10.043 13.2575 11.2225 13.9039 12.1225 14.0501C12.5843 14.125 12.9582 14.0651 13.2412 13.9535C13.3796 13.899 13.489 13.8349 13.5712 13.7766C13.6122 13.7475 13.6464 13.7199 13.6738 13.6958C13.6877 13.6837 13.6998 13.6724 13.7104 13.6622C13.7157 13.6571 13.7206 13.6522 13.7251 13.6477C13.7274 13.6455 13.7295 13.6432 13.7316 13.641L13.7347 13.638L13.7361 13.6364C13.7361 13.6364 13.7375 13.6349 13.1798 13.1052C12.6221 12.5754 12.6235 12.574 12.6235 12.574L12.6248 12.5725L12.6276 12.5697C12.6295 12.5679 12.6312 12.566 12.6328 12.5643C12.6363 12.5609 12.6396 12.5576 12.6427 12.5546C12.6488 12.5487 12.6545 12.5435 12.6594 12.5392C12.6692 12.5306 12.6764 12.5251 12.6812 12.5218C12.6908 12.5149 12.6898 12.5173 12.6767 12.5224C12.6569 12.5302 12.5637 12.5631 12.3692 12.5315C11.9563 12.4645 11.0654 12.1001 9.59654 10.5537L8.48109 11.6131ZM6.90817 1.25881C5.86862 -0.21148 3.78846 -0.459533 2.53089 0.864465L3.64632 1.92395C4.18254 1.3594 5.12654 1.40375 5.65201 2.14696L6.90817 1.25881ZM1.5403 4.79625C1.51832 4.38672 1.69665 3.97658 2.03652 3.61876L0.921093 2.55927C0.371521 3.13787 -0.0461881 3.94163 0.00410763 4.87869L1.5403 4.79625ZM16.6224 17.9361C16.3362 18.2374 16.0368 18.3988 15.7458 18.4276L15.8968 19.9586C16.6631 19.8829 17.2832 19.4743 17.7378 18.9955L16.6224 17.9361ZM7.97034 6.94376C8.96271 5.89899 9.03297 4.264 8.2014 3.08797L6.94529 3.97611C7.37824 4.58847 7.31185 5.40319 6.85491 5.88427L7.97034 6.94376ZM17.7012 14.0639C18.543 14.5485 18.7078 15.7406 18.0793 16.4022L19.1948 17.4616C20.5331 16.0526 20.1434 13.6946 18.4687 12.7306L17.7012 14.0639ZM14.2047 13.1431C14.6 12.7269 15.2159 12.6334 15.7418 12.936L16.5092 11.6028C15.3826 10.9543 13.9853 11.1402 13.0892 12.0837L14.2047 13.1431Z" fill="white"/>
</svg>
