<svg width="17" height="17" viewBox="0 0 17 17" fill="none" xmlns="http://www.w3.org/2000/svg">
<path d="M11.681 11.5897L12.0781 11.1716L11.13 10.2711L10.7329 10.6891L11.681 11.5897ZM13.3847 10.9956L15.0502 11.9543L15.7025 10.821L14.037 9.86234L13.3847 10.9956ZM15.3716 13.9419L14.1332 15.2457L15.0813 16.1462L16.3197 14.8424L15.3716 13.9419ZM13.3881 15.6634C12.1371 15.787 8.87292 15.6816 5.32993 11.9514L4.38181 12.852C8.24315 16.9173 11.9265 17.1217 13.5165 16.9648L13.3881 15.6634ZM5.32993 11.9514C1.95086 8.39385 1.38406 5.39302 1.31341 4.07681L0.00764187 4.14689C0.0941646 5.75899 0.778658 9.05857 4.38181 12.852L5.32993 11.9514ZM6.52891 6.16543L6.77894 5.90219L5.83082 5.00163L5.58079 5.26487L6.52891 6.16543ZM6.97534 2.62478L5.87609 1.06999L4.80836 1.82491L5.90765 3.37969L6.97534 2.62478ZM2.1554 0.734795L0.787079 2.17538L1.73519 3.07594L3.10352 1.63536L2.1554 0.734795ZM6.05485 5.71515C5.58079 5.26487 5.57958 5.26614 5.57958 5.26614L5.57835 5.26745L5.57582 5.27016C5.5741 5.27201 5.57232 5.27394 5.57049 5.27595C5.56684 5.27997 5.56296 5.28432 5.55888 5.28901C5.55073 5.29839 5.54177 5.30911 5.53219 5.32122C5.51303 5.34544 5.49135 5.3752 5.4686 5.41073C5.423 5.48201 5.37354 5.57587 5.33165 5.69358C5.24648 5.93294 5.20006 6.24991 5.25806 6.64576C5.37201 7.42349 5.88161 8.46934 7.21307 9.87115L8.16121 8.97061C6.91667 7.66026 6.61008 6.85326 6.55189 6.45618C6.52382 6.26461 6.55235 6.16367 6.56363 6.13197C6.56996 6.11415 6.57411 6.1092 6.57005 6.11555C6.56809 6.11862 6.56417 6.12439 6.55758 6.13272C6.55427 6.13689 6.55031 6.1417 6.54556 6.14716C6.54319 6.14988 6.54062 6.15276 6.53786 6.15582C6.53647 6.15734 6.53503 6.1589 6.53354 6.16051L6.53127 6.16294L6.5301 6.16418C6.5301 6.16418 6.52891 6.16543 6.05485 5.71515ZM7.21307 9.87115C8.54069 11.2688 9.5433 11.8183 10.3083 11.9425C10.7008 12.0063 11.0186 11.9554 11.2592 11.8605C11.3768 11.8141 11.4698 11.7597 11.5396 11.7101C11.5745 11.6854 11.6035 11.6619 11.6269 11.6414C11.6387 11.6312 11.649 11.6216 11.6579 11.6128C11.6625 11.6086 11.6667 11.6044 11.6705 11.6006C11.6724 11.5986 11.6742 11.5967 11.676 11.5949L11.6786 11.5923L11.6798 11.591C11.6798 11.591 11.681 11.5897 11.207 11.1394C10.7329 10.6891 10.7341 10.6879 10.7341 10.6879L10.7353 10.6866L10.7376 10.6842C10.7392 10.6827 10.7407 10.6811 10.7421 10.6796C10.745 10.6767 10.7478 10.674 10.7504 10.6714C10.7557 10.6664 10.7605 10.662 10.7646 10.6583C10.7729 10.651 10.7791 10.6463 10.7831 10.6435C10.7913 10.6377 10.7905 10.6397 10.7794 10.6441C10.7626 10.6507 10.6833 10.6787 10.5179 10.6518C10.167 10.5948 9.40975 10.2851 8.16121 8.97061L7.21307 9.87115ZM5.87609 1.06999C4.99248 -0.179758 3.22434 -0.390603 2.1554 0.734795L3.10352 1.63536C3.55931 1.15549 4.36171 1.19319 4.80836 1.82491L5.87609 1.06999ZM1.31341 4.07681C1.29473 3.72871 1.4463 3.38009 1.73519 3.07594L0.787079 2.17538C0.319943 2.66719 -0.0351095 3.35038 0.00764187 4.14689L1.31341 4.07681ZM14.1332 15.2457C13.8899 15.5018 13.6355 15.639 13.3881 15.6634L13.5165 16.9648C14.1678 16.9005 14.6948 16.5532 15.0813 16.1462L14.1332 15.2457ZM6.77894 5.90219C7.62246 5.01414 7.68217 3.6244 6.97534 2.62478L5.90765 3.37969C6.27566 3.9002 6.21923 4.59271 5.83082 5.00163L6.77894 5.90219ZM15.0502 11.9543C15.7657 12.3662 15.9058 13.3795 15.3716 13.9419L16.3197 14.8424C17.4573 13.6447 17.126 11.6404 15.7025 10.821L15.0502 11.9543ZM12.0781 11.1716C12.4141 10.8179 12.9377 10.7384 13.3847 10.9956L14.037 9.86234C13.0794 9.31112 11.8917 9.46917 11.13 10.2711L12.0781 11.1716Z" fill="#212121"/>
</svg>
