<svg width="34" height="33" viewBox="0 0 34 33" fill="none" xmlns="http://www.w3.org/2000/svg">
<path d="M33.2686 24.9755C31.9894 23.7956 30.2705 22.7875 28.1593 21.9791C27.872 21.8691 27.6265 21.6572 27.468 21.3822C26.7265 20.0965 25.3449 19.2977 23.8626 19.2977C23.0182 19.2977 22.2157 19.546 21.5344 20.0089C21.0885 19.4382 20.3819 19.0825 19.6001 19.0825C18.9736 19.0825 18.3794 19.3121 17.9271 19.729C17.6765 19.9598 17.3509 20.0869 17.0102 20.0869C17.0101 20.0869 17.0104 20.0869 17.0102 20.0869H16.9995C14.7595 20.0869 12.5781 20.2924 10.543 20.6764V12.9131H14.13C14.5262 12.9131 14.8473 12.5918 14.8473 12.1957C14.8473 11.7996 14.5262 11.4783 14.13 11.4783H10.543V2.86958H24.8909V11.4783H18.4343C18.0381 11.4783 17.717 11.7995 17.717 12.1956C17.717 12.5918 18.0381 12.913 18.4343 12.913H25.6082C26.0044 12.913 26.3256 12.5918 26.3256 12.1956V2.15215C26.3256 1.75603 26.0044 1.43479 25.6082 1.43479H10.543V0.717363C10.543 0.321234 10.2219 0 9.82566 0H6.95608C6.55988 0 6.23871 0.321234 6.23871 0.717363V21.8347C4 22.644 2.10398 23.7088 0.731 24.9751C0.583725 25.1109 0.5 25.3021 0.5 25.5024V32.2826C0.5 32.6788 0.82117 33 1.21736 33H32.7822C33.1784 33 33.4996 32.6788 33.4996 32.2826V25.5028C33.4995 25.3026 33.4158 25.1113 33.2686 24.9755ZM7.67344 1.43479H9.10823V2.15215V12.1956V20.9776C8.62 21.0942 8.14066 21.222 7.67344 21.3601V1.43479ZM32.0648 31.5652H1.93479V25.8237C3.23932 24.696 5.02177 23.7521 7.11811 23.0379C7.14093 23.0326 7.16362 23.0265 7.18598 23.0189C8.06622 22.7213 9.00581 22.4628 9.97873 22.2505C9.98718 22.2486 9.9953 22.2461 10.0036 22.2439C12.1685 21.7757 14.5427 21.5217 16.9996 21.5217H17.0097C17.0099 21.5217 17.0102 21.5217 17.0104 21.5217C17.7123 21.5217 18.383 21.2599 18.8993 20.7843C19.086 20.6122 19.3349 20.5174 19.6002 20.5174C20.0559 20.5174 20.4602 20.8104 20.5615 21.2141C20.6243 21.4643 20.8167 21.6616 21.0653 21.7306L21.1875 21.7647C21.4418 21.8358 21.7147 21.7612 21.8975 21.5708C22.4169 21.0303 23.1149 20.7326 23.8627 20.7326C24.8338 20.7326 25.7391 21.2563 26.2252 22.099C26.5477 22.6584 27.0525 23.0917 27.6464 23.3191C29.4326 24.0031 30.9525 24.8656 32.065 25.8244L32.0648 31.5652Z" fill="#024093"/>
<path d="M6.2385 24.3906C5.44734 24.3906 4.80371 25.0343 4.80371 25.8254C4.80371 26.6166 5.44734 27.2602 6.2385 27.2602C7.02966 27.2602 7.67329 26.6166 7.67329 25.8254C7.67323 25.0343 7.0296 24.3906 6.2385 24.3906Z" fill="#024093"/>
<path d="M16.9849 12.0536C16.9762 12.0077 16.9619 11.9624 16.944 11.9195C16.9261 11.8757 16.9039 11.8342 16.878 11.7955C16.8522 11.756 16.8221 11.7194 16.7891 11.6864C16.7561 11.6534 16.7195 11.6233 16.68 11.5974C16.6413 11.5716 16.5996 11.5493 16.5566 11.5314C16.5129 11.5135 16.4677 11.4991 16.4217 11.4906C16.3292 11.4719 16.2345 11.4719 16.142 11.4906C16.0961 11.4991 16.0508 11.5135 16.0071 11.5314C15.964 11.5493 15.9224 11.5716 15.8837 11.5974C15.8442 11.6233 15.8076 11.6534 15.7746 11.6864C15.7416 11.7194 15.7115 11.756 15.6857 11.7955C15.6598 11.8342 15.6376 11.8758 15.6197 11.9195C15.6018 11.9626 15.5874 12.0077 15.5781 12.0536C15.5687 12.0995 15.5645 12.1469 15.5645 12.1935C15.5645 12.24 15.5688 12.2875 15.5781 12.3334C15.5873 12.3792 15.6017 12.4245 15.6197 12.4674C15.6376 12.5112 15.6598 12.5528 15.6857 12.5916C15.7115 12.631 15.7416 12.6676 15.7746 12.7006C15.8076 12.7336 15.8442 12.7638 15.8837 12.7896C15.9224 12.8154 15.9641 12.8376 16.0071 12.8556C16.0508 12.8735 16.096 12.8878 16.142 12.8972C16.1878 12.9065 16.2352 12.9108 16.2818 12.9108C16.3285 12.9108 16.3758 12.9064 16.4217 12.8972C16.4676 12.8878 16.5128 12.8735 16.5558 12.8556C16.5996 12.8376 16.6412 12.8154 16.6799 12.7896C16.7194 12.7638 16.756 12.7336 16.789 12.7006C16.822 12.6676 16.8521 12.631 16.8779 12.5916C16.9038 12.5528 16.926 12.5112 16.9439 12.4674C16.9619 12.4244 16.9762 12.3792 16.9848 12.3334C16.9942 12.2873 16.9992 12.24 16.9992 12.1935C16.9992 12.1469 16.9942 12.0995 16.9849 12.0536Z" fill="#024093"/>
<path d="M11.1888 25.8262C10.0416 25.8262 9.1084 26.7595 9.1084 27.9066C9.1084 29.0537 10.0417 29.987 11.1888 29.987C12.336 29.987 13.2692 29.0537 13.2692 27.9066C13.2692 26.7595 12.336 25.8262 11.1888 25.8262ZM11.1888 28.5522C10.8328 28.5522 10.5432 28.2626 10.5432 27.9066C10.5432 27.5505 10.8328 27.261 11.1888 27.261C11.5448 27.261 11.8344 27.5505 11.8344 27.9066C11.8344 28.2626 11.5449 28.5522 11.1888 28.5522Z" fill="#024093"/>
</svg>
