<svg width="29" height="32" viewBox="0 0 29 32" fill="none" xmlns="http://www.w3.org/2000/svg">
<g clip-path="url(#clip0_2974_173)">
<path d="M7.25363 1.45027V26.6507H12.3895V1.45027H9.7196H7.25363ZM5.6824 27.376V0.725266C5.6824 0.324742 6.03427 0 6.46815 0H9.7196H13.175C13.6086 0 13.9608 0.324742 13.9608 0.725266V27.376C13.9608 27.7763 13.6089 28.1007 13.175 28.1007H6.46815C6.03427 28.1007 5.6824 27.7763 5.6824 27.376ZM3.45646 4.61045C3.89007 4.61045 4.24195 4.9352 4.24195 5.33572C4.24195 5.73625 3.89033 6.06073 3.45646 6.06073H1.9078C1.86602 6.06073 1.83203 6.06646 1.8066 6.07739C1.77312 6.09198 1.73498 6.12062 1.69527 6.16203C1.6535 6.20552 1.62236 6.25213 1.60367 6.29953C1.58213 6.3537 1.57124 6.42063 1.57124 6.49719V30.144C1.57124 30.2187 1.58239 30.2838 1.60367 30.3367L1.6125 30.3607C1.63014 30.3958 1.65531 30.4294 1.68619 30.4604C1.71889 30.493 1.75314 30.5169 1.78739 30.5307C1.81931 30.544 1.85979 30.55 1.90832 30.55H27.0927C27.1415 30.55 27.1825 30.5435 27.2139 30.5307C27.2484 30.5169 27.2824 30.493 27.3148 30.4604C28.1024 29.67 27.4293 30.9289 27.4293 30.144V6.49719C27.4293 5.54223 28.2179 7.111 27.3055 6.16177C27.2684 6.12375 27.231 6.09562 27.1939 6.08C27.1646 6.0675 27.1301 6.06047 27.0925 6.06047H16.2347C15.8008 6.06047 15.4492 5.73572 15.4492 5.33546C15.4492 4.9352 15.8008 4.61019 16.2347 4.61019H27.0925C27.3626 4.61019 27.619 4.66332 27.8562 4.76566C28.0884 4.86593 28.297 5.01176 28.4771 5.19874C28.6494 5.37739 28.7807 5.58104 28.87 5.80656C28.9561 6.02505 29.0003 6.25604 29.0003 6.49719V30.144C29.0003 30.3883 28.9567 30.6195 28.87 30.8351C28.7807 31.0588 28.6455 31.262 28.468 31.4404C28.2861 31.6234 28.0772 31.7617 27.8458 31.8565C27.6107 31.9521 27.3582 32 27.0927 32H1.9078C1.6426 32 1.39011 31.9521 1.15501 31.8565C0.92302 31.762 0.714387 31.6232 0.532482 31.4404C0.371336 31.2781 0.245222 31.094 0.156215 30.8917C0.146874 30.8734 0.13831 30.8544 0.130525 30.8351C0.043595 30.6185 0 30.3867 0 30.144V6.49719C0 6.25734 0.044114 6.02557 0.130785 5.80656C0.219532 5.58182 0.351095 5.37739 0.52314 5.19874C0.700374 5.01462 0.909267 4.86983 1.14411 4.76853C1.38518 4.6641 1.64156 4.61045 1.9078 4.61045H3.45646ZM17.1012 7.55996H24.1202C24.3286 7.55996 24.5266 7.59772 24.7147 7.6722C24.7344 7.68001 24.7536 7.6886 24.7726 7.69798C24.9301 7.76803 25.0752 7.86335 25.2049 7.9834C25.3564 8.1222 25.4714 8.27715 25.549 8.44746C25.5612 8.47455 25.5718 8.50215 25.5799 8.53002C25.6383 8.6821 25.6681 8.83966 25.6681 9.0019V12.286C25.6681 12.4798 25.6276 12.6636 25.549 12.8376L25.548 12.8399L25.549 12.8405C25.4735 13.0071 25.3609 13.1592 25.214 13.2962C25.0635 13.4384 24.8956 13.5452 24.7126 13.6168C24.5217 13.6915 24.3234 13.7277 24.1202 13.7277H17.1012C16.8995 13.7277 16.7028 13.6913 16.5121 13.6168C16.3323 13.5467 16.167 13.4428 16.016 13.3048C15.8634 13.1644 15.7484 13.0069 15.6719 12.8334C15.6633 12.8131 15.6555 12.7926 15.6485 12.7722C15.5878 12.6147 15.5577 12.4524 15.5577 12.286V9.0019C15.5577 8.81361 15.5956 8.63106 15.6732 8.45528L15.6716 8.45476C15.7482 8.28132 15.8631 8.12376 16.0157 7.9834L16.0253 7.97507L16.0248 7.9748C16.2524 7.77168 16.5539 7.65735 16.5747 7.65084C16.747 7.59043 16.9229 7.55996 17.1012 7.55996ZM24.2562 9.01023H16.9696V12.2777H24.2562V9.01023ZM20.4681 16.5158C20.7463 16.5158 20.9897 16.6225 21.1965 16.8301C21.4033 17.0376 21.5048 17.2817 21.5048 17.5554C21.5048 17.8543 21.4038 18.1033 21.1965 18.3015C20.9892 18.4988 20.7465 18.5955 20.4681 18.5955C20.1751 18.5955 19.9273 18.4988 19.7301 18.3015C19.5329 18.103 19.4322 17.8543 19.4322 17.5554C19.4322 17.2817 19.5337 17.0376 19.7301 16.8301C19.9265 16.6225 20.1751 16.5158 20.4681 16.5158ZM23.608 16.5158C23.8862 16.5158 24.129 16.6225 24.3359 16.8301C24.5427 17.0376 24.6444 17.2817 24.6444 17.5554C24.6444 17.8543 24.5429 18.1033 24.3359 18.3015C24.1285 18.4988 23.8864 18.5955 23.608 18.5955C23.3145 18.5955 23.0667 18.4988 22.8695 18.3015C22.6722 18.103 22.5716 17.8543 22.5716 17.5554C22.5716 17.2817 22.673 17.0376 22.8695 16.8301C23.0659 16.6225 23.3145 16.5158 23.608 16.5158ZM17.2984 19.6663C17.5968 19.6663 17.8446 19.7676 18.0418 19.9653C18.239 20.1629 18.3348 20.4119 18.3348 20.7114C18.3348 20.9851 18.2385 21.2291 18.0418 21.4366C17.8451 21.6442 17.5968 21.7515 17.2984 21.7515C17.0251 21.7515 16.7825 21.6442 16.5757 21.4366C16.3689 21.2291 16.262 20.9851 16.262 20.7114C16.262 20.4119 16.3684 20.1632 16.5757 19.9653C16.783 19.7673 17.0251 19.6663 17.2984 19.6663ZM20.4681 19.6663C20.7463 19.6663 20.9892 19.7676 21.1965 19.9653C21.4038 20.1629 21.5048 20.4119 21.5048 20.7114C21.5048 20.9851 21.4033 21.2291 21.1965 21.4366C20.9897 21.6442 20.7465 21.7515 20.4681 21.7515C20.1751 21.7515 19.9268 21.6442 19.7301 21.4366C19.5334 21.2291 19.4322 20.9851 19.4322 20.7114C19.4322 20.4119 19.5331 20.1632 19.7301 19.9653C19.9271 19.7673 20.1751 19.6663 20.4681 19.6663ZM23.608 19.6663C23.8862 19.6663 24.1285 19.7676 24.3359 19.9653C24.5432 20.1629 24.6444 20.4119 24.6444 20.7114C24.6444 20.9851 24.5424 21.2291 24.3359 21.4366C24.1293 21.6442 23.8864 21.7515 23.608 21.7515C23.3145 21.7515 23.0662 21.6442 22.8695 21.4366C22.6728 21.2291 22.5716 20.9851 22.5716 20.7114C22.5716 20.4119 22.6725 20.1632 22.8695 19.9653C23.0664 19.7673 23.3145 19.6663 23.608 19.6663ZM17.2984 22.7913C17.5968 22.7913 17.8451 22.8937 18.0418 23.101C18.2385 23.3083 18.3348 23.5627 18.3348 23.8619C18.3348 24.1361 18.239 24.3796 18.0418 24.5877C17.8446 24.7958 17.5968 24.902 17.2984 24.902C17.0251 24.902 16.783 24.7958 16.5757 24.5877C16.3684 24.3796 16.262 24.1361 16.262 23.8619C16.262 23.563 16.3689 23.3085 16.5757 23.101C16.7825 22.8934 17.0251 22.7913 17.2984 22.7913ZM20.4681 22.7913C20.7463 22.7913 20.9897 22.8937 21.1965 23.101C21.4033 23.3083 21.5048 23.5627 21.5048 23.8619C21.5048 24.1361 21.4038 24.3796 21.1965 24.5877C20.9892 24.7958 20.7465 24.902 20.4681 24.902C20.1751 24.902 19.9273 24.7958 19.7301 24.5877C19.5329 24.3796 19.4322 24.1361 19.4322 23.8619C19.4322 23.563 19.5337 23.3085 19.7301 23.101C19.9265 22.8934 20.1751 22.7913 20.4681 22.7913ZM23.608 22.7913C23.8862 22.7913 24.129 22.8937 24.3359 23.101C24.5427 23.3083 24.6444 23.5627 24.6444 23.8619C24.6444 24.1361 24.5429 24.3796 24.3359 24.5877C24.1288 24.7958 23.8864 24.902 23.608 24.902C23.3145 24.902 23.0667 24.7958 22.8695 24.5877C22.6722 24.3796 22.5716 24.1361 22.5716 23.8619C22.5716 23.563 22.673 23.3085 22.8695 23.101C23.0659 22.8934 23.3145 22.7913 23.608 22.7913ZM20.4681 25.9421C20.7463 25.9421 20.9892 26.0434 21.1965 26.2515C21.4038 26.4596 21.5048 26.7031 21.5048 26.9825C21.5048 27.2765 21.4038 27.5252 21.1965 27.7231C20.9892 27.9211 20.7465 28.0221 20.4681 28.0221C20.1751 28.0221 19.9273 27.9208 19.7301 27.7231C19.5329 27.5255 19.4322 27.2765 19.4322 26.9825C19.4322 26.7033 19.5331 26.4596 19.7301 26.2515C19.9271 26.0434 20.1751 25.9421 20.4681 25.9421ZM17.2984 16.5158C17.5968 16.5158 17.8451 16.6225 18.0418 16.8301C18.2385 17.0376 18.3348 17.2817 18.3348 17.5554C18.3348 17.8543 18.239 18.1033 18.0418 18.3015C17.8446 18.4988 17.5968 18.5955 17.2984 18.5955C17.0251 18.5955 16.783 18.4988 16.5757 18.3015C16.3684 18.103 16.262 17.8543 16.262 17.5554C16.262 17.2817 16.3689 17.0376 16.5757 16.8301C16.7825 16.6225 17.0251 16.5158 17.2984 16.5158Z" fill="#024093"/>
</g>
<defs>
<clipPath id="clip0_2974_173">
<rect width="29" height="32" fill="white"/>
</clipPath>
</defs>
</svg>
