<svg width="29" height="19" viewBox="0 0 29 19" fill="none" xmlns="http://www.w3.org/2000/svg">
<path d="M20.3087 7.06798L23.9379 5.0321C25.0549 4.40545 25.6135 4.09213 26.073 4.13219C26.4737 4.16711 26.8393 4.36064 27.0775 4.66394C27.3507 5.01177 27.3507 5.62075 27.3507 6.83872V12.5644C27.3507 13.7823 27.3507 14.3914 27.0775 14.7393C26.8393 15.0425 26.4737 15.2361 26.073 15.271C25.6135 15.311 25.0549 14.9977 23.9379 14.3711L20.3087 12.3352M6.50639 17.6024H15.8018C17.3794 17.6024 18.1682 17.6024 18.7707 17.3153C19.3007 17.0629 19.7317 16.6599 20.0017 16.1644C20.3087 15.6011 20.3087 14.8636 20.3087 13.3886V6.01454C20.3087 4.53959 20.3087 3.8021 20.0017 3.23875C19.7317 2.7432 19.3007 2.34031 18.7707 2.08783C18.1682 1.80078 17.3794 1.80078 15.8018 1.80078H6.50639C4.92884 1.80078 4.14006 1.80078 3.53751 2.08783C3.00749 2.34031 2.57658 2.7432 2.30653 3.23875C1.99951 3.8021 1.99951 4.53958 1.99951 6.01454V13.3886C1.99951 14.8636 1.99951 15.6011 2.30653 16.1644C2.57658 16.6599 3.00749 17.0629 3.53751 17.3153C4.14006 17.6024 4.92883 17.6024 6.50639 17.6024Z" stroke="#212121" stroke-width="2.22981" stroke-linecap="round" stroke-linejoin="round"/>
</svg>
