<svg width="29" height="29" viewBox="0 0 29 29" fill="none" xmlns="http://www.w3.org/2000/svg">
<g clip-path="url(#clip0_2974_211)">
<path d="M25.8342 21.1231C25.8772 21.1231 25.919 21.1276 25.96 21.1356C26.2305 20.6641 26.4771 20.1692 26.6999 19.6521C26.7041 19.6417 26.7086 19.6318 26.7138 19.6219C27.0485 18.8325 27.301 18.0126 27.4712 17.163C27.6031 16.5038 27.6845 15.8279 27.7154 15.1354H23.7286C23.6561 17.1589 23.052 19.1546 21.9258 21.1231H25.8342ZM25.1392 22.3942H21.1238C19.9051 24.1598 18.2632 25.9036 16.206 27.6257C16.5286 27.5856 16.8477 27.5342 17.163 27.4712C18.0234 27.2991 18.8537 27.0423 19.6526 26.7008L19.6521 26.6999C20.4642 26.3506 21.2206 25.9419 21.9199 25.4729C22.6206 25.0028 23.27 24.4687 23.8669 23.8693L23.8693 23.8669C24.3311 23.4069 24.7543 22.9158 25.1392 22.3942ZM12.7938 27.6255C10.7368 25.9036 9.09491 24.1598 7.87594 22.3942H3.86127C4.24619 22.9158 4.66911 23.4069 5.13074 23.8669L5.1331 23.8695C5.73019 24.469 6.37967 25.0028 7.08014 25.4729C7.77918 25.9419 8.53558 26.3506 9.3479 26.6999C9.35805 26.7044 9.3682 26.7089 9.37811 26.7138C10.1675 27.0487 10.9874 27.301 11.8373 27.4712C12.1526 27.5342 12.4712 27.5856 12.7938 27.6255ZM3.03313 21.1231H7.074C5.94802 19.1546 5.34361 17.1589 5.27163 15.1354H1.28504C1.31573 15.8279 1.39715 16.5036 1.52907 17.1627C1.70112 18.0232 1.95813 18.8535 2.29939 19.6523L2.30034 19.6521C2.521 20.1647 2.76503 20.6554 3.03313 21.1231ZM1.28504 13.8646H5.29641C5.44392 11.8821 6.10166 9.88623 7.2805 7.87689H3.03313C2.76503 8.34465 2.521 8.8353 2.30034 9.34814C2.29585 9.35829 2.29113 9.36844 2.28641 9.37811C1.95152 10.1678 1.69923 10.9877 1.52907 11.8373C1.39715 12.4964 1.31573 13.1724 1.28504 13.8646ZM3.86127 6.606H8.09472C9.30023 4.86877 10.8942 3.1214 12.8833 1.36387C12.5302 1.40517 12.1816 1.46016 11.8375 1.52907C10.9768 1.70112 10.1468 1.95813 9.3479 2.29939L9.34814 2.3001C8.53581 2.64962 7.77942 3.05815 7.08037 3.52732C6.37991 3.99744 5.73043 4.53152 5.13333 5.13074L5.13074 5.1331C4.66911 5.59331 4.24619 6.0842 3.86127 6.606ZM16.1165 1.36363C18.1056 3.12116 19.6995 4.86854 20.9053 6.60577H25.139C24.754 6.0842 24.3309 5.59307 23.869 5.1331L23.8667 5.13074C23.2698 4.53129 22.6203 3.99744 21.9196 3.52732C21.2203 3.05815 20.464 2.64962 19.6519 2.3001C19.6417 2.29585 19.6316 2.29113 19.6219 2.28618C18.8322 1.95152 18.0123 1.699 17.1627 1.52907C16.8186 1.46016 16.4696 1.40517 16.1165 1.36363ZM25.9669 7.87689H21.7193C22.8983 9.88623 23.5561 11.8821 23.7036 13.8646H27.7152C27.6843 13.1721 27.6026 12.4964 27.4709 11.8373C27.2986 10.9768 27.0419 10.1465 26.7006 9.34767L26.6997 9.34814C26.479 8.8353 26.2352 8.34465 25.9669 7.87689ZM11.5892 0.282733C12.5314 0.0941658 13.5018 0 14.5001 0C15.4984 0 16.4686 0.0941658 17.4108 0.282733C18.3392 0.468705 19.2417 0.747662 20.1184 1.11984C20.1305 1.12409 20.142 1.12857 20.1534 1.13353C21.0273 1.50972 21.8519 1.95601 22.6246 2.47498C23.3958 2.9923 24.1093 3.57877 24.7642 4.23605C25.4215 4.89096 26.0079 5.60464 26.525 6.37543C27.0435 7.14834 27.4903 7.9727 27.8665 8.8471L27.8655 8.84734L27.8665 8.84946C28.2457 9.73637 28.5294 10.6497 28.7173 11.5892C28.9058 12.5314 28.9998 13.5018 28.9998 14.5001C28.9998 15.4984 28.9058 16.4691 28.7173 17.4112C28.5315 18.3392 28.2521 19.2422 27.8802 20.1187C27.8759 20.1305 27.8714 20.142 27.8662 20.1534C27.49 21.0278 27.0435 21.8519 26.5248 22.6248C26.0077 23.3958 25.4212 24.1093 24.764 24.7642C24.109 25.4215 23.3954 26.0082 22.6243 26.5253C21.8519 27.044 21.0271 27.4908 20.1531 27.8667L20.1527 27.8658L20.1503 27.8667C19.2634 28.2457 18.3498 28.5294 17.4105 28.7173C16.4684 28.9058 15.4979 29 14.4999 29C13.5018 29 12.5311 28.9058 11.589 28.7173C10.6608 28.5315 9.75808 28.2523 8.88109 27.8804C8.86952 27.8759 8.85796 27.8717 8.84639 27.8665C7.972 27.4905 7.14787 27.044 6.37495 26.525C5.60416 26.0079 4.89049 25.4212 4.23557 24.764C3.5783 24.109 2.99183 23.3954 2.47474 22.6246C1.95601 21.8519 1.50948 21.0275 1.13329 20.1531L1.13424 20.1527L1.13329 20.1505C0.75427 19.2636 0.470593 18.3503 0.282733 17.4108C0.0944018 16.4689 0 15.4984 0 14.4999C0 13.5018 0.0944018 12.5311 0.282969 11.589C0.468705 10.6608 0.747898 9.75808 1.11984 8.88132C1.12409 8.86976 1.12857 8.85796 1.13353 8.84663C1.50972 7.97223 1.95601 7.14787 2.47498 6.37495C2.9923 5.60416 3.57877 4.89049 4.23581 4.23557C4.89072 3.5783 5.6044 2.99183 6.37519 2.47451C7.14811 1.95577 7.97247 1.50925 8.84663 1.13306L8.84687 1.134L8.84899 1.13306C9.73613 0.754507 10.6497 0.470829 11.5892 0.282733ZM15.1357 2.18729V6.606H19.3427C18.2372 5.14844 16.8366 3.67577 15.1357 2.18729ZM15.1357 7.87689V13.8646H22.4334C22.2684 11.8982 21.5392 9.90251 20.2343 7.87689H15.1357ZM15.1357 15.1354V21.1231H20.4481C21.7056 19.1416 22.3808 17.1455 22.4615 15.1354H15.1357ZM15.1357 22.3942V26.867C16.9399 25.3842 18.4166 23.8931 19.5598 22.3942H15.1357ZM13.8646 26.8675V22.3942H9.44018C10.5832 23.8931 12.0598 25.3844 13.8646 26.8675ZM13.8646 21.1231V15.1354H6.53874C6.61922 17.1457 7.29419 19.1416 8.5521 21.1231H13.8646ZM13.8646 13.8646V7.87689H8.76592C7.46105 9.90251 6.73179 11.8984 6.56659 13.8646H13.8646ZM13.8646 6.606V2.18682C12.1637 3.6753 10.7627 5.14844 9.6573 6.606H13.8646Z" fill="#024093"/>
</g>
<defs>
<clipPath id="clip0_2974_211">
<rect width="29" height="29" fill="white"/>
</clipPath>
</defs>
</svg>
