<svg width="295" height="217" viewBox="0 0 295 217" fill="none" xmlns="http://www.w3.org/2000/svg">
<mask id="mask0_799_170" style="mask-type:luminance" maskUnits="userSpaceOnUse" x="47" y="12" width="200" height="126">
<path d="M47 12.3179H247V137.318H47V12.3179Z" fill="white"/>
</mask>
<g mask="url(#mask0_799_170)">
<path d="M216.76 45.1042L215.849 28.0625L238.104 45.1042H216.76ZM215.896 49.5938H238.844L188.615 94.4375L215.896 49.5938ZM78.1146 49.5938L105.396 94.4271L55.1719 49.5938H78.1146ZM77.2552 45.1042H55.9063L78.1615 28.0625L77.2552 45.1042ZM118.922 25.2292L101.755 16.8021H136.932L118.922 25.2292ZM175.083 25.2292L157.083 16.8021H192.255L175.083 25.2292ZM185.047 49.5938H209.417L164.276 96.8229L185.047 49.5938ZM147.01 60.7604L154.844 107.307L147.01 128.229L139.172 107.313L147.01 60.7604ZM108.958 49.5938L129.745 96.8281L84.5938 49.5938H108.958ZM108.953 45.1042H88.9115L114.432 32.4323L108.953 45.1042ZM139.891 45.1042H113.807L119.865 31.1094L139.891 45.1042ZM147.01 44.6198L123.359 28.099L147.01 17.0313L170.656 28.099L147.01 44.6198ZM174.151 31.1094L180.203 45.1042H154.12L174.151 31.1094ZM135.922 99.8177L113.828 49.5938H144.375L135.922 99.8177ZM149.641 49.5938H180.182L158.094 99.8229L149.641 49.5938ZM185.063 45.1042L179.573 32.4323L205.099 45.1042H185.063ZM211.208 24.5052L212.229 43.6458L180.167 27.724L201.646 17.1771L211.208 24.5052ZM92.3646 17.1771L113.844 27.724L81.7865 43.6458L82.8021 24.5052L92.3646 17.1771ZM116.818 104.625L91.9531 63.7552L134.953 108.75L141.75 126.885L116.818 104.625ZM152.26 126.891L159.047 108.76L202.063 63.7552L177.188 104.635L152.26 126.891ZM246.734 48.2604C246.74 48.25 246.75 48.2396 246.755 48.224C246.87 47.9583 246.938 47.6615 246.938 47.349C246.938 47.3333 246.927 47.3177 246.927 47.3021C246.927 47.2917 246.932 47.276 246.932 47.2656C246.932 47.1771 246.885 47.1042 246.87 47.026C246.833 46.8021 246.797 46.5885 246.703 46.3958C246.661 46.2917 246.589 46.2135 246.526 46.125C246.411 45.9531 246.297 45.7969 246.141 45.6667C246.104 45.6354 246.094 45.5885 246.057 45.5625L203.245 12.7708C203.078 12.6458 202.896 12.5573 202.708 12.4792C202.672 12.4687 202.651 12.4427 202.62 12.4323C202.391 12.3542 202.141 12.3125 201.906 12.3125H92.1094C91.8646 12.3125 91.6198 12.3542 91.3906 12.4323C91.3646 12.4427 91.349 12.4635 91.3281 12.474C91.125 12.5469 90.9323 12.6406 90.7656 12.7708L47.9531 45.5625C47.9167 45.5885 47.901 45.6354 47.8698 45.6667C47.7135 45.7969 47.6042 45.9531 47.4896 46.1198C47.4271 46.2135 47.3542 46.2917 47.3073 46.3958C47.2187 46.5833 47.1771 46.7969 47.1458 47.0104C47.1302 47.099 47.0833 47.1719 47.0781 47.2656C47.0781 47.2813 47.0885 47.2917 47.0885 47.3073C47.0885 47.3177 47.0781 47.3333 47.0781 47.349C47.0781 47.6615 47.1406 47.9583 47.2552 48.224C47.2656 48.2448 47.2813 48.2552 47.2917 48.276C47.4115 48.5417 47.5781 48.7813 47.7917 48.974C47.8073 48.9896 47.8125 49.0156 47.8281 49.0313L113.568 107.719C113.573 107.724 113.578 107.724 113.583 107.729L145.531 136.255C145.568 136.286 145.604 136.292 145.635 136.318C145.776 136.432 145.927 136.521 146.094 136.594C146.115 136.604 146.13 136.62 146.151 136.63C146.177 136.641 146.198 136.667 146.219 136.677C146.224 136.677 146.224 136.677 146.224 136.677C146.25 136.682 146.266 136.682 146.281 136.688C146.516 136.771 146.76 136.818 147.01 136.818C147.26 136.818 147.5 136.771 147.729 136.688C147.755 136.682 147.771 136.682 147.786 136.677C147.792 136.677 147.792 136.677 147.792 136.677C147.823 136.667 147.839 136.641 147.865 136.63C147.885 136.62 147.901 136.604 147.927 136.589C148.089 136.516 148.24 136.432 148.38 136.318C148.411 136.292 148.453 136.286 148.484 136.255L246.182 49.0313C246.203 49.0156 246.208 48.9896 246.224 48.974C246.438 48.776 246.609 48.5365 246.734 48.2604Z" fill="#004AAD"/>
</g>
<mask id="mask1_799_170" style="mask-type:luminance" maskUnits="userSpaceOnUse" x="23" y="74" width="223" height="51">
<path d="M23.667 74H245V124.667H23.667V74Z" fill="white"/>
</mask>
<g mask="url(#mask1_799_170)">
<mask id="mask2_799_170" style="mask-type:luminance" maskUnits="userSpaceOnUse" x="20" y="73" width="236" height="52">
<path d="M20.5942 91.6668L252.87 73.3022L255.469 106.203L23.1932 124.563L20.5942 91.6668Z" fill="white"/>
</mask>
<g mask="url(#mask2_799_170)">
<mask id="mask3_799_170" style="mask-type:luminance" maskUnits="userSpaceOnUse" x="20" y="73" width="236" height="52">
<path d="M20.5942 91.6668L252.87 73.3022L255.469 106.203L23.1932 124.563L20.5942 91.6668Z" fill="white"/>
</mask>
<g mask="url(#mask3_799_170)">
<path d="M25.7555 124.266C38.9325 116.078 54.8336 113.177 70.0367 111.599C86.4065 109.88 102.844 109.662 119.271 109.87C135.891 110.104 152.49 110.724 169.125 110.584C177.391 110.495 185.688 110.167 193.964 109.557C201.724 108.995 209.578 108.417 217.261 106.87C224.99 105.318 232.62 102.505 238.177 96.6616C243.037 91.5262 246.255 84.0314 244.24 76.995C243.396 74.0523 238.782 75.1252 239.016 78.1148C239.568 84.4637 237.516 90.0366 232.927 94.4429C227.771 99.4116 220.511 101.584 213.709 102.969C198.245 106.021 182.308 106.672 166.568 106.834C134.615 107.104 102.526 104.422 70.6982 108.068C54.4742 109.865 38.1773 113.037 24.6982 122.75C23.7138 123.443 24.7242 124.912 25.7555 124.266Z" fill="#004AAD"/>
</g>
</g>
</g>
<mask id="mask4_799_170" style="mask-type:luminance" maskUnits="userSpaceOnUse" x="20" y="73" width="236" height="52">
<path d="M20.5938 91.6668L252.87 73.3022L255.469 106.203L23.1927 124.563L20.5938 91.6668Z" fill="white"/>
</mask>
<g mask="url(#mask4_799_170)">
<mask id="mask5_799_170" style="mask-type:luminance" maskUnits="userSpaceOnUse" x="20" y="73" width="236" height="52">
<path d="M20.5938 91.6668L252.87 73.3022L255.469 106.203L23.1927 124.563L20.5938 91.6668Z" fill="white"/>
</mask>
<g mask="url(#mask5_799_170)">
<path d="M31.104 113.406C44.6249 107.214 58.9217 104.859 73.6353 103.599C74.4322 103.537 74.604 102.162 73.7082 102.141C58.8124 101.104 43.7655 105.823 30.729 112.823C30.4582 112.984 30.7395 113.573 31.104 113.406Z" fill="#004AAD"/>
</g>
</g>
<mask id="mask6_799_170" style="mask-type:luminance" maskUnits="userSpaceOnUse" x="20" y="73" width="236" height="52">
<path d="M20.5938 91.6668L252.87 73.3022L255.469 106.203L23.1927 124.563L20.5938 91.6668Z" fill="white"/>
</mask>
<g mask="url(#mask6_799_170)">
<mask id="mask7_799_170" style="mask-type:luminance" maskUnits="userSpaceOnUse" x="20" y="73" width="236" height="52">
<path d="M20.5938 91.6668L252.87 73.3022L255.469 106.203L23.1927 124.563L20.5938 91.6668Z" fill="white"/>
</mask>
<g mask="url(#mask7_799_170)">
<path d="M233.385 105.646C238.703 104.469 243.453 101.511 246.885 97.3335C248.646 95.2189 250.104 92.8491 251.026 90.2814C251.807 88.245 253.26 84.6043 251.698 82.7085C250.969 81.8231 249.838 81.771 249.057 82.5887C247.573 84.0679 248.052 87.1356 247.552 89.146C246.984 91.4481 246.073 93.6356 244.87 95.6616C242.161 100.057 238.057 103.443 233.208 105.188C232.885 105.261 233.062 105.714 233.385 105.646Z" fill="#004AAD"/>
</g>
</g>
<mask id="mask8_799_170" style="mask-type:luminance" maskUnits="userSpaceOnUse" x="15" y="52" width="49" height="52">
<path d="M15.9429 52.7241H63.4325V103.724H15.9429V52.7241Z" fill="white"/>
</mask>
<g mask="url(#mask8_799_170)">
<path fill-rule="evenodd" clip-rule="evenodd" d="M-53.1507 228.714H-54.7288C-54.7288 134.516 -69.9945 127.672 -155.771 127.672V126.094C-69.9945 126.094 -54.7288 119.25 -54.7288 25.0729H-53.1507C-53.1507 119.25 -37.8851 126.094 47.8701 126.094V127.672C-37.8851 127.672 -53.1507 134.516 -53.1507 228.714ZM40.8389 100.5H40.4899C40.4899 79.4115 37.0576 77.8698 17.8597 77.8698V77.5208C37.0576 77.5208 40.4899 75.9792 40.4899 54.8906H40.8389C40.8389 75.9792 44.2503 77.5208 63.4482 77.5208V77.8698C44.2503 77.8698 40.8389 79.4115 40.8389 100.5ZM-2.91634 48.099H-3.60904C-3.60904 6.23438 -10.4059 3.20313 -48.5101 3.20313V2.48959C-10.4059 2.48959 -3.60904 -0.541662 -3.60904 -42.3906H-2.91634C-2.91634 -0.541662 3.87533 2.48959 41.9795 2.48959V3.20313C3.87533 3.20313 -2.91634 6.23438 -2.91634 48.099Z" fill="black"/>
</g>
<mask id="mask9_799_170" style="mask-type:luminance" maskUnits="userSpaceOnUse" x="231" y="0" width="36" height="38">
<path d="M231.802 0.849121H266.208V37.8491H231.802V0.849121Z" fill="white"/>
</mask>
<g mask="url(#mask9_799_170)">
<path fill-rule="evenodd" clip-rule="evenodd" d="M181.61 128.693H180.464C180.464 60.2607 169.37 55.292 107.058 55.292V54.1462C169.37 54.1462 180.464 49.1722 180.464 -19.2497H181.61C181.61 49.1722 192.698 54.1462 255 54.1462V55.292C192.698 55.292 181.61 60.2607 181.61 128.693ZM249.891 35.5524H249.641C249.641 20.2295 247.146 19.1097 233.198 19.1097V18.8597C247.146 18.8597 249.641 17.7347 249.641 2.41699H249.891C249.891 17.7347 252.37 18.8597 266.318 18.8597V19.1097C252.37 19.1097 249.891 20.2295 249.891 35.5524ZM218.104 -2.52051H217.599C217.599 -32.932 212.667 -35.1351 184.985 -35.1351V-35.6507C212.667 -35.6507 217.599 -37.8538 217.599 -68.2549H218.104C218.104 -37.8538 223.037 -35.6507 250.719 -35.6507V-35.1351C223.037 -35.1351 218.104 -32.932 218.104 -2.52051Z" fill="black"/>
</g>
<path d="M12.1564 174.279L16.5522 157.404H24.0731V182.217H19.4272V162.675L14.5314 182.217H9.71891L4.76058 162.696V182.217H0.114746V157.404H7.61475L12.1564 174.279Z" fill="#004AAD"/>
<path d="M45.0309 156.987C47.6403 156.987 49.8486 157.545 51.6559 158.654C53.458 159.753 54.8122 161.274 55.7184 163.216C56.6195 165.164 57.0726 167.373 57.0726 169.841C57.0726 172.482 56.5934 174.758 55.6351 176.675C54.6768 178.591 53.2913 180.065 51.4893 181.091C49.682 182.123 47.557 182.633 45.1143 182.633C42.5413 182.633 40.3486 182.107 38.5309 181.05C36.7236 179.982 35.3538 178.498 34.4268 176.591C33.5101 174.675 33.0518 172.461 33.0518 169.946C33.0518 167.336 33.5101 165.06 34.4268 163.112C35.3538 161.154 36.7184 159.649 38.5101 158.591C40.3018 157.524 42.4736 156.987 45.0309 156.987ZM38.1976 169.8C38.1976 171.748 38.5101 173.357 39.1351 174.633C39.7601 175.899 40.5934 176.836 41.6351 177.446C42.6768 178.045 43.8226 178.341 45.0726 178.341C46.2236 178.341 47.307 178.081 48.3226 177.55C49.3486 177.008 50.2028 176.102 50.8851 174.821C51.5622 173.529 51.9059 171.836 51.9059 169.737C51.9059 167.269 51.3538 165.237 50.2601 163.654C49.1768 162.071 47.432 161.279 45.0309 161.279C42.6559 161.279 40.9163 162.081 39.8226 163.675C38.7393 165.274 38.1976 167.315 38.1976 169.8Z" fill="#004AAD"/>
<path d="M83.958 161.592H76.6038V182.217H71.6247V161.592H64.2705V157.404H83.958V161.592Z" fill="#004AAD"/>
<path d="M97.0972 182.217H92.0972V157.404H97.0972V182.217Z" fill="#004AAD"/>
<path d="M122.425 157.946C123.56 158.337 124.529 159.05 125.321 160.092C126.123 161.133 126.529 162.316 126.529 163.633C126.529 164.982 126.154 166.128 125.404 167.071C124.664 168.019 123.873 168.665 123.029 169.008C124.68 169.498 125.873 170.295 126.612 171.404C127.362 172.519 127.737 173.717 127.737 175.008C127.737 176.441 127.321 177.8 126.487 179.092C125.654 180.383 124.534 181.253 123.133 181.696C122.508 181.904 121.716 182.045 120.758 182.113C119.81 182.186 118.659 182.217 117.3 182.217H106.925V157.404H117.3C118.508 157.404 119.508 157.441 120.3 157.508C121.091 157.581 121.8 157.727 122.425 157.946ZM121.633 164.425C121.633 163.79 121.472 163.253 121.154 162.821C120.847 162.394 120.451 162.071 119.966 161.863C119.534 161.686 118.696 161.592 117.446 161.592H111.925V167.279H117.55C120.269 167.279 121.633 166.331 121.633 164.425ZM119.925 177.883C120.685 177.774 121.321 177.462 121.821 176.946C122.321 176.42 122.571 175.727 122.571 174.863C122.571 173.894 122.326 173.165 121.841 172.675C121.352 172.175 120.701 171.852 119.883 171.696C119.06 171.545 117.993 171.467 116.675 171.467H111.925V178.029H117.133C118.326 178.029 119.258 177.982 119.925 177.883Z" fill="#004AAD"/>
<path d="M159.369 182.217H153.911L151.744 176.592H141.828L139.786 182.217H134.453L144.119 157.404H149.432L159.369 182.217ZM143.369 172.404H150.161L146.723 163.175L143.369 172.404Z" fill="#004AAD"/>
<path d="M193.141 156.987C195.974 156.987 198.297 157.586 200.12 158.779C201.954 159.961 203.146 161.789 203.704 164.258L198.704 165.196C198.339 163.904 197.652 162.935 196.641 162.279C195.641 161.612 194.48 161.279 193.162 161.279C191.829 161.279 190.646 161.539 189.62 162.05C188.605 162.55 187.797 163.289 187.204 164.258C186.396 165.55 185.995 167.31 185.995 169.529C185.995 172.144 186.584 174.269 187.766 175.904C188.943 177.529 190.724 178.341 193.099 178.341C194.11 178.341 195.125 178.154 196.141 177.779C197.167 177.394 198.105 176.873 198.954 176.216V173.091H193.245V168.904H204.016V178.779C202.766 179.935 201.162 180.862 199.204 181.571C197.256 182.279 195.329 182.633 193.412 182.633C190.631 182.633 188.297 182.06 186.412 180.904C184.537 179.753 183.131 178.196 182.204 176.237C181.287 174.279 180.829 172.112 180.829 169.737C180.829 167.435 181.277 165.315 182.183 163.383C183.084 161.456 184.459 159.904 186.308 158.737C188.152 157.571 190.433 156.987 193.141 156.987Z" fill="#004AAD"/>
<path d="M232.089 161.592H218.672V167.092H231.151V171.3H218.672V178.029H232.547V182.217H213.672V157.404H232.089V161.592Z" fill="#004AAD"/>
<path d="M253.794 174.279L258.189 157.404H265.71V182.217H261.064V162.675L256.169 182.217H251.356L246.398 162.696V182.217H241.752V157.404H249.252L253.794 174.279Z" fill="#004AAD"/>
<path d="M284.376 156.987C287.126 156.987 289.376 157.602 291.126 158.821C292.876 160.045 293.793 161.94 293.876 164.508L288.856 164.716C288.689 163.55 288.262 162.664 287.585 162.05C286.903 161.425 285.814 161.112 284.314 161.112C283.272 161.112 282.314 161.3 281.439 161.675C280.564 162.039 280.126 162.67 280.126 163.571C280.126 164.336 280.512 164.946 281.293 165.404C282.085 165.852 283.486 166.3 285.501 166.758C287.376 167.19 288.918 167.654 290.126 168.154C291.335 168.654 292.376 169.456 293.251 170.55C294.137 171.649 294.585 173.133 294.585 175.008C294.585 175.956 294.361 176.961 293.918 178.029C293.47 179.086 292.757 179.998 291.772 180.758C291.033 181.357 290.054 181.821 288.835 182.154C287.626 182.472 286.22 182.633 284.626 182.633C281.528 182.633 279.147 181.94 277.481 180.55C275.824 179.149 274.814 177.008 274.439 174.133L279.293 173.696C279.819 176.862 281.616 178.446 284.689 178.446C286.314 178.446 287.533 178.107 288.356 177.425C289.173 176.732 289.585 175.925 289.585 175.008C289.585 174.341 289.382 173.815 288.981 173.425C288.574 173.024 287.939 172.675 287.064 172.383C286.199 172.091 284.845 171.732 283.001 171.3C280.694 170.789 278.84 169.935 277.439 168.737C276.033 167.529 275.335 165.92 275.335 163.904C275.335 162.821 275.611 161.758 276.168 160.716C276.72 159.664 277.673 158.779 279.022 158.071C280.382 157.352 282.168 156.987 284.376 156.987Z" fill="#004AAD"/>
<path d="M46.193 204.688C46.6618 205.037 46.9847 205.428 47.1514 205.855C47.3285 206.287 47.4222 206.678 47.4222 207.021C47.4222 208.261 46.8389 209.167 45.6722 209.75C46.4743 209.99 47.068 210.375 47.443 210.917C47.818 211.448 48.0055 212.079 48.0055 212.813C48.0055 213.386 47.8597 213.959 47.568 214.542C47.2764 215.125 46.7764 215.584 46.068 215.917C45.4535 216.209 44.5993 216.355 43.5055 216.355H38.6514V203.938H43.4014C44.0941 203.938 44.6514 204 45.068 204.125C45.4847 204.25 45.8597 204.438 46.193 204.688ZM45.7972 207.313C45.7972 206.563 45.5524 206.058 45.068 205.792C44.5941 205.532 43.8805 205.396 42.9222 205.396H40.2972V209.167H43.0889C44.016 209.167 44.6982 209.021 45.1305 208.73C45.5732 208.428 45.7972 207.954 45.7972 207.313ZM45.2139 214.605C45.5993 214.412 45.8805 214.146 46.0472 213.813C46.2139 213.48 46.2972 213.136 46.2972 212.771C46.2972 212.287 46.1722 211.875 45.9222 211.542C45.6826 211.209 45.3441 210.969 44.9014 210.813C44.5264 210.688 43.9899 210.625 43.2972 210.625H40.2972V214.896H43.6097C43.9847 214.896 44.2868 214.875 44.5264 214.834C44.7764 214.782 45.0055 214.704 45.2139 214.605Z" fill="black"/>
<path d="M59.7461 204.688C60.1732 205.021 60.4857 205.428 60.6836 205.896C60.8763 206.37 60.9753 206.849 60.9753 207.334C60.9753 208.24 60.6836 208.98 60.1003 209.563C59.5273 210.146 58.6523 210.532 57.4753 210.709C57.9336 210.917 58.3346 211.198 58.6836 211.542C59.043 211.891 59.4232 212.375 59.8294 213L61.9961 216.355H59.9336L58.3294 213.855C57.7721 212.995 57.3294 212.365 56.9961 211.959C56.6732 211.558 56.3398 211.271 55.9961 211.105C55.6471 210.938 55.2044 210.855 54.6628 210.855H52.7044V216.355H51.0586V203.938H56.7461C57.4805 203.938 58.069 203.995 58.5169 204.105C58.9753 204.219 59.3815 204.412 59.7461 204.688ZM58.5586 208.875C58.8086 208.667 58.9857 208.433 59.1003 208.167C59.2253 207.891 59.2878 207.615 59.2878 207.334C59.2878 206.615 59.0221 206.099 58.4961 205.792C57.9805 205.474 57.3763 205.313 56.6836 205.313H52.7044V209.396H56.4128C56.9805 209.396 57.418 209.355 57.7253 209.271C58.0273 209.188 58.3086 209.058 58.5586 208.875Z" fill="black"/>
<path d="M66.1693 216.355H64.5234V203.938H66.1693V216.355Z" fill="black"/>
<path d="M71.4193 214.896H77.5443V216.355H69.7734V203.938H71.4193V214.896Z" fill="black"/>
<path d="M81.7987 214.896H87.9237V216.355H80.1528V203.938H81.7987V214.896Z" fill="black"/>
<path d="M92.491 216.355H90.8452V203.938H92.491V216.355Z" fill="black"/>
<path d="M106.408 216.355H104.533L103.074 212.584H97.8869L96.5327 216.355H94.7827L99.5535 203.938H101.324L106.408 216.355ZM99.7202 207.625L98.366 211.25H102.574L101.054 207.167C100.856 206.683 100.642 206.042 100.408 205.25C100.408 205.308 100.335 205.599 100.199 206.125C100.059 206.657 99.8973 207.157 99.7202 207.625Z" fill="black"/>
<path d="M116.669 213.688V203.938H118.252V216.355H116.565L110.044 206.605V216.355H108.481V203.938H110.148L116.669 213.688Z" fill="black"/>
<path d="M127.113 203.729C128.363 203.729 129.41 204.058 130.259 204.709C131.102 205.349 131.686 206.229 132.009 207.354L130.384 207.729C130.118 206.912 129.717 206.282 129.175 205.834C128.644 205.375 127.946 205.146 127.071 205.146C125.779 205.146 124.764 205.578 124.029 206.438C123.306 207.287 122.946 208.495 122.946 210.063C122.946 211.703 123.3 212.969 124.009 213.854C124.717 214.729 125.707 215.167 126.988 215.167C127.889 215.167 128.654 214.896 129.279 214.354C129.915 213.813 130.347 213.032 130.571 212L132.217 212.417C131.868 213.724 131.248 214.745 130.363 215.479C129.472 216.203 128.363 216.563 127.029 216.563C126.123 216.563 125.347 216.443 124.696 216.209C124.04 215.959 123.493 215.599 123.05 215.125C122.425 214.474 121.967 213.709 121.675 212.834C121.384 211.948 121.238 211.021 121.238 210.063C121.238 208.787 121.477 207.667 121.967 206.709C122.467 205.75 123.154 205.016 124.029 204.5C124.915 203.99 125.946 203.729 127.113 203.729Z" fill="black"/>
<path d="M143.973 205.396H136.64V209.209H143.494V210.667H136.64V214.896H144.244V216.355H134.994V203.938H143.973V205.396Z" fill="black"/>
<path d="M158.027 203.729C159.261 203.729 160.344 204 161.277 204.542C162.204 205.073 162.922 205.823 163.422 206.792C163.922 207.766 164.172 208.891 164.172 210.167C164.172 211.433 163.912 212.552 163.402 213.521C162.886 214.495 162.183 215.245 161.297 215.771C160.407 216.302 159.412 216.563 158.318 216.563C157.11 216.563 156.053 216.287 155.152 215.729C154.245 215.177 153.547 214.427 153.047 213.479C152.547 212.521 152.297 211.469 152.297 210.313C152.297 208.995 152.547 207.844 153.047 206.854C153.547 205.854 154.224 205.084 155.089 204.542C155.948 204 156.928 203.729 158.027 203.729ZM154.006 210.334C154.006 211.292 154.178 212.141 154.527 212.875C154.886 213.599 155.386 214.162 156.027 214.563C156.678 214.969 157.412 215.167 158.235 215.167C159.068 215.167 159.803 214.969 160.443 214.563C161.094 214.162 161.594 213.584 161.943 212.834C162.287 212.084 162.464 211.198 162.464 210.167C162.464 209.157 162.287 208.266 161.943 207.5C161.594 206.74 161.099 206.157 160.464 205.75C159.823 205.349 159.099 205.146 158.297 205.146C156.933 205.146 155.881 205.604 155.131 206.521C154.381 207.427 154.006 208.698 154.006 210.334Z" fill="black"/>
<path d="M175.461 205.396H168.753V209.25H174.565V210.709H168.753V216.355H167.107V203.938H175.461V205.396Z" fill="black"/>
<path d="M185.544 214.896H191.669V216.355H183.898V203.938H185.544V214.896Z" fill="black"/>
<path d="M196.007 211.271C196.007 212.344 196.117 213.115 196.34 213.584C196.559 214.032 196.903 214.391 197.361 214.667C197.83 214.948 198.429 215.084 199.153 215.084C200.163 215.084 200.908 214.891 201.382 214.5C201.867 214.099 202.163 213.641 202.278 213.125C202.403 212.615 202.465 212 202.465 211.292V203.938H204.111V211.25C204.111 211.875 204.07 212.48 203.986 213.063C203.913 213.646 203.705 214.204 203.361 214.73C202.955 215.303 202.429 215.75 201.778 216.084C201.137 216.402 200.288 216.563 199.236 216.563C198.221 216.563 197.393 216.417 196.757 216.125C196.132 215.823 195.611 215.396 195.195 214.855C194.83 214.396 194.601 213.855 194.507 213.23C194.408 212.605 194.361 211.954 194.361 211.271V203.938H196.007V211.271Z" fill="black"/>
<path d="M208.847 203.938L211.117 207.125C211.56 207.766 211.831 208.178 211.93 208.355C212.024 208.521 212.081 208.625 212.097 208.667C212.263 208.391 212.44 208.12 212.638 207.855C212.847 207.579 212.961 207.417 212.992 207.375L215.576 203.938H217.367L212.992 209.792L217.701 216.355H215.68L212.555 211.938C212.414 211.745 212.232 211.469 212.013 211.105C211.706 211.594 211.503 211.896 211.409 212.021L208.305 216.355H206.326L211.138 209.896L206.909 203.938H208.847Z" fill="black"/>
<path d="M221.566 211.271C221.566 212.344 221.676 213.115 221.9 213.584C222.118 214.032 222.462 214.391 222.92 214.667C223.389 214.948 223.988 215.084 224.712 215.084C225.722 215.084 226.467 214.891 226.941 214.5C227.426 214.099 227.722 213.641 227.837 213.125C227.962 212.615 228.025 212 228.025 211.292V203.938H229.67V211.25C229.67 211.875 229.629 212.48 229.545 213.063C229.472 213.646 229.264 214.204 228.92 214.73C228.514 215.303 227.988 215.75 227.337 216.084C226.696 216.402 225.847 216.563 224.795 216.563C223.78 216.563 222.952 216.417 222.316 216.125C221.691 215.823 221.17 215.396 220.754 214.855C220.389 214.396 220.16 213.855 220.066 213.23C219.967 212.605 219.92 211.954 219.92 211.271V203.938H221.566V211.271Z" fill="black"/>
<path d="M241.885 204.688C242.312 205.021 242.625 205.428 242.823 205.896C243.015 206.37 243.114 206.849 243.114 207.334C243.114 208.24 242.823 208.98 242.239 209.563C241.667 210.146 240.792 210.532 239.614 210.709C240.073 210.917 240.474 211.198 240.823 211.542C241.182 211.891 241.562 212.375 241.969 213L244.135 216.355H242.073L240.469 213.855C239.911 212.995 239.469 212.365 239.135 211.959C238.812 211.558 238.479 211.271 238.135 211.105C237.786 210.938 237.344 210.855 236.802 210.855H234.844V216.355H233.198V203.938H238.885C239.62 203.938 240.208 203.995 240.656 204.105C241.114 204.219 241.521 204.412 241.885 204.688ZM240.698 208.875C240.948 208.667 241.125 208.433 241.239 208.167C241.364 207.891 241.427 207.615 241.427 207.334C241.427 206.615 241.161 206.099 240.635 205.792C240.12 205.474 239.515 205.313 238.823 205.313H234.844V209.396H238.552C239.12 209.396 239.557 209.355 239.864 209.271C240.167 209.188 240.448 209.058 240.698 208.875Z" fill="black"/>
<path d="M247.162 203.938L248.099 205.438C248.36 205.87 248.683 206.355 249.058 206.896C249.891 208.146 250.485 209.115 250.849 209.792C251.193 209.183 251.646 208.454 252.204 207.605L254.599 203.938H256.516L251.579 211.105V216.355H249.933V211.105L245.141 203.938H247.162Z" fill="black"/>
</svg>
