<?xml version="1.0" encoding="UTF-8"?>
<svg version="1.1" xmlns="http://www.w3.org/2000/svg" width="400" height="116">
<path d="M0 0 C1.02609375 -0.01417969 2.0521875 -0.02835937 3.109375 -0.04296875 C6.44374275 0.20171744 9.13391545 1.0073063 12.25 2.1875 C11.83074274 11.00293548 11.28722289 19.78904022 10.3125 28.5625 C10.23789551 29.28107178 10.16329102 29.99964355 10.08642578 30.73999023 C9.6725569 34.26464656 9.25682219 36.17726672 7.25 39.1875 C6.59 39.1875 5.93 39.1875 5.25 39.1875 C5.25 40.5075 5.25 41.8275 5.25 43.1875 C-3.96460586 45.26964652 -13.19260637 46.74248894 -22.5625 47.9375 C-23.63048828 48.07712158 -24.69847656 48.21674316 -25.79882812 48.3605957 C-26.79978516 48.48394287 -27.80074219 48.60729004 -28.83203125 48.734375 C-29.73155518 48.84620117 -30.6310791 48.95802734 -31.55786133 49.07324219 C-33.75 49.1875 -33.75 49.1875 -35.75 48.1875 C-36.93910945 42.21380814 -38.25201376 35.20973375 -35.4609375 29.59375 C-33.66994675 27.60551357 -31.79649384 25.90896246 -29.75 24.1875 C-28.57947593 22.91816545 -27.43177537 21.62724691 -26.3125 20.3125 C-25.81878906 19.75820313 -25.32507812 19.20390625 -24.81640625 18.6328125 C-23.55209393 17.21863379 -23.55209393 17.21863379 -23.75 15.1875 C-22.96625 15.105 -22.1825 15.0225 -21.375 14.9375 C-20.50875 14.69 -19.6425 14.4425 -18.75 14.1875 C-18.079777 12.85595077 -17.4138797 11.52222318 -16.75 10.1875 C-15.30029853 8.57822318 -13.79530405 7.01770934 -12.25 5.5 C-11.4559375 4.71238281 -10.661875 3.92476563 -9.84375 3.11328125 C-6.50389654 0.04136379 -4.46160256 0.02774628 0 0 Z M-5.75 1.1875 C-5.75 2.8375 -5.75 4.4875 -5.75 6.1875 C-5.42 6.1875 -5.09 6.1875 -4.75 6.1875 C-4.75 4.5375 -4.75 2.8875 -4.75 1.1875 C-5.08 1.1875 -5.41 1.1875 -5.75 1.1875 Z M-4.75 9.1875 C-4.75 11.1675 -4.75 13.1475 -4.75 15.1875 C-7.06 15.1875 -9.37 15.1875 -11.75 15.1875 C-11.75 15.5175 -11.75 15.8475 -11.75 16.1875 C-9.11 16.1875 -6.47 16.1875 -3.75 16.1875 C-3.75 13.8775 -3.75 11.5675 -3.75 9.1875 C-4.08 9.1875 -4.41 9.1875 -4.75 9.1875 Z M-3.75 16.1875 C-4.08 16.8475 -4.41 17.5075 -4.75 18.1875 C-4.09 18.1875 -3.43 18.1875 -2.75 18.1875 C-3.08 17.5275 -3.41 16.8675 -3.75 16.1875 Z M-2.75 19.1875 C-1.75 21.1875 -1.75 21.1875 -1.75 21.1875 Z M-1.75 21.1875 C-0.75 23.1875 -0.75 23.1875 -0.75 23.1875 Z M-20.75 23.1875 C-20.75 26.1575 -20.75 29.1275 -20.75 32.1875 C-20.42 32.1875 -20.09 32.1875 -19.75 32.1875 C-19.75 29.2175 -19.75 26.2475 -19.75 23.1875 C-20.08 23.1875 -20.41 23.1875 -20.75 23.1875 Z M-0.75 24.1875 C0.25 26.1875 0.25 26.1875 0.25 26.1875 Z M0.25 26.1875 C1.25 28.1875 1.25 28.1875 1.25 28.1875 Z M1.25 29.1875 C2.25 31.1875 2.25 31.1875 2.25 31.1875 Z M-18.75 31.1875 C-19.74 32.6725 -19.74 32.6725 -20.75 34.1875 C-19.43 33.8575 -18.11 33.5275 -16.75 33.1875 C-17.41 32.5275 -18.07 31.8675 -18.75 31.1875 Z M2.25 31.1875 C3.25 33.1875 3.25 33.1875 3.25 33.1875 Z M-30.75 32.1875 C-30.75 32.5175 -30.75 32.8475 -30.75 33.1875 C-28.11 33.1875 -25.47 33.1875 -22.75 33.1875 C-22.75 32.8575 -22.75 32.5275 -22.75 32.1875 C-25.39 32.1875 -28.03 32.1875 -30.75 32.1875 Z M4.25 36.1875 C5.25 38.1875 5.25 38.1875 5.25 38.1875 Z M-30.75 43.1875 C-31.74 44.6725 -31.74 44.6725 -32.75 46.1875 C-31.76 45.8575 -30.77 45.5275 -29.75 45.1875 C-30.08 44.5275 -30.41 43.8675 -30.75 43.1875 Z " fill="#7D1A4A" transform="translate(36.75,-0.1875)"/>
<path d="M0 0 C11.49498968 11.32111589 15.86029221 23.60748383 16.4375 39.625 C15.7775 39.625 15.1175 39.625 14.4375 39.625 C14.0353125 38.08392578 14.0353125 38.08392578 13.625 36.51171875 C10.20499029 24.13047467 5.37591731 14.14729094 -5.8984375 7.0625 C-17.63311745 0.73059059 -30.87371855 -0.28785522 -43.90625 2.28515625 C-50.73140411 4.55040137 -56.67276376 8.56939825 -62.5625 12.625 C-64.27224177 9.20551645 -63.42996515 5.46186151 -63.125 1.75 C-63.09212891 0.93402344 -63.05925781 0.11804687 -63.02539062 -0.72265625 C-62.81092631 -3.17997632 -62.5351038 -5.10428501 -61.5625 -7.375 C-57.10882113 -10.99988456 -51.11474485 -12.34326101 -45.5625 -13.375 C-44.91023438 -13.51035156 -44.25796875 -13.64570313 -43.5859375 -13.78515625 C-27.51398507 -16.40362041 -12.11338384 -10.33308349 0 0 Z " fill="#CF7B96" transform="translate(110.5625,21.375)"/>
<path d="M0 0 C6.93951525 5.62663399 6.93951525 5.62663399 7.73046875 10.39453125 C7.94517097 17.70463078 6.56784603 24.17623251 2.75 30.4375 C2.275625 30.911875 1.80125 31.38625 1.3125 31.875 C0.6525 31.875 -0.0075 31.875 -0.6875 31.875 C-0.2756187 28.92318405 0.11087933 26.32100936 1.34375 23.59375 C2.525096 20.27835962 2.50840566 17.57233008 2.4375 14.0625 C2.41042969 12.32033203 2.41042969 12.32033203 2.3828125 10.54296875 C2.35960938 9.66253906 2.33640625 8.78210937 2.3125 7.875 C-1.5524169 5.75689052 -4.24729772 5.49222394 -8.6875 5.875 C-13.81330758 7.72029073 -16.61777796 10.40197646 -19.6875 14.875 C-20.98472562 18.76667685 -20.91951101 20.30049654 -19.375 24.125 C-17.82119179 26.89654478 -17.82119179 26.89654478 -15.6875 28.875 C-15.43355469 28.32070313 -15.17960937 27.76640625 -14.91796875 27.1953125 C-14.57378906 26.47085938 -14.22960937 25.74640625 -13.875 25 C-13.53855469 24.28070313 -13.20210937 23.56140625 -12.85546875 22.8203125 C-11.6875 20.875 -11.6875 20.875 -8.6875 18.875 C-7.6975 18.875 -6.7075 18.875 -5.6875 18.875 C-6.23895271 24.11380078 -7.11672093 28.84850697 -8.6875 33.875 C-8.14480469 34.32230469 -7.60210937 34.76960938 -7.04296875 35.23046875 C1.84869651 42.74432642 1.84869651 42.74432642 2.65625 48.1953125 C2.9159226 52.54482861 2.86873453 55.85228721 0.125 59.375 C-4.0210588 63.0603856 -6.04946565 63.90100055 -11.625 63.8125 C-16.17636054 63.10565992 -18.47038516 61.09211484 -21.6875 57.875 C-23.04189668 55.16620665 -22.75251451 52.86566732 -22.6875 49.875 C-21.6975 49.875 -20.7075 49.875 -19.6875 49.875 C-19.39875 50.98875 -19.11 52.1025 -18.8125 53.25 C-17.99508671 56.87791092 -17.99508671 56.87791092 -15.6875 58.875 C-12.39050909 59.11922155 -9.53462273 59.07563433 -6.3125 58.3125 C-3.68299268 55.98639737 -3.9361451 53.23170889 -3.6875 49.875 C-6.07523586 49.65050333 -6.07523586 49.65050333 -8.5 52.4375 C-11.32570769 54.88322255 -11.32570769 54.88322255 -14.4375 54.8125 C-16.6875 53.875 -16.6875 53.875 -18.6875 51.875 C-19.87212286 47.82753858 -19.56864013 45.37559714 -18.25 41.5 C-17.53978644 39.21023911 -17.53978644 39.21023911 -17.6875 36.875 C-19.44237612 34.40598075 -21.34908995 32.63622656 -23.671875 30.69921875 C-26.45011385 28.18480491 -27.51666492 26.21949423 -27.98828125 22.5078125 C-28.0132293 17.16892962 -27.68373403 13.47635941 -24.6875 8.875 C-24.171875 8.029375 -23.65625 7.18375 -23.125 6.3125 C-16.91816653 0.10566653 -8.470914 -3.545964 0 0 Z M-12.6875 42.875 C-12.6875 45.515 -12.6875 48.155 -12.6875 50.875 C-8.87336998 49.7071734 -8.87336998 49.7071734 -6.375 46.75 C-6.148125 46.13125 -5.92125 45.5125 -5.6875 44.875 C-8.50259993 42.5976499 -8.50259993 42.5976499 -11.6875 42.875 C-12.0175 42.875 -12.3475 42.875 -12.6875 42.875 Z " fill="#CD7995" transform="translate(82.6875,32.125)"/>
<path d="M0 0 C3.17496188 2.09258851 4.88460857 3.82691286 7 7 C7.40089844 6.57847656 7.80179687 6.15695313 8.21484375 5.72265625 C12.2051096 1.87716195 15.32215587 0.04972384 20.9140625 -0.24609375 C24.17636947 0.13878516 25.83310702 1.62996081 28 4 C29.40912096 6.81824192 29.11183553 9.17251282 29.09765625 12.3203125 C29.09443359 13.57714844 29.09121094 14.83398438 29.08789062 16.12890625 C29.07532227 18.10697266 29.07532227 18.10697266 29.0625 20.125 C29.05748489 21.46484211 29.05292201 22.804686 29.04882812 24.14453125 C29.03701086 27.42973206 29.02053617 30.71484397 29 34 C26.69 34 24.38 34 22 34 C21.96241577 32.78884521 21.96241577 32.78884521 21.92407227 31.55322266 C21.80834513 27.91031083 21.68551365 24.26767274 21.5625 20.625 C21.52318359 19.35398437 21.48386719 18.08296875 21.44335938 16.7734375 C21.40146484 15.56171875 21.35957031 14.35 21.31640625 13.1015625 C21.26141968 11.42054443 21.26141968 11.42054443 21.20532227 9.70556641 C21.17403987 7.03287229 21.17403987 7.03287229 20 5 C15.60157266 5.25873102 13.50477078 5.56106889 10.125 8.5 C9.42375 9.325 8.7225 10.15 8 11 C7.67 11.33 7.34 11.66 7 12 C6.84285346 13.63256758 6.74914586 15.27135338 6.68359375 16.91015625 C6.64169922 17.89951172 6.59980469 18.88886719 6.55664062 19.90820312 C6.51732422 20.94912109 6.47800781 21.99003906 6.4375 23.0625 C6.39431641 24.10728516 6.35113281 25.15207031 6.30664062 26.22851562 C6.20018775 28.81886884 6.0981724 31.40932186 6 34 C3.69 34 1.38 34 -1 34 C-1.02505615 33.22809326 -1.0501123 32.45618652 -1.07592773 31.66088867 C-1.19184007 28.16958819 -1.31458824 24.67856078 -1.4375 21.1875 C-1.47681641 19.97255859 -1.51613281 18.75761719 -1.55664062 17.50585938 C-1.59853516 16.34248047 -1.64042969 15.17910156 -1.68359375 13.98046875 C-1.72025146 12.90692139 -1.75690918 11.83337402 -1.79467773 10.72729492 C-1.89541847 7.90688447 -1.89541847 7.90688447 -3 5 C-7.39842734 5.25873102 -9.49522922 5.56106889 -12.875 8.5 C-13.57625 9.325 -14.2775 10.15 -15 11 C-15.33 11.33 -15.66 11.66 -16 12 C-16.15714654 13.63256758 -16.25085414 15.27135338 -16.31640625 16.91015625 C-16.35830078 17.89951172 -16.40019531 18.88886719 -16.44335938 19.90820312 C-16.48267578 20.94912109 -16.52199219 21.99003906 -16.5625 23.0625 C-16.60568359 24.10728516 -16.64886719 25.15207031 -16.69335938 26.22851562 C-16.79981225 28.81886884 -16.9018276 31.40932186 -17 34 C-19.64 34 -22.28 34 -25 34 C-25 23.11 -25 12.22 -25 1 C-22.36 1 -19.72 1 -17 1 C-16.67 2.98 -16.34 4.96 -16 7 C-15.52949219 6.57847656 -15.05898437 6.15695313 -14.57421875 5.72265625 C-13.95160156 5.17480469 -13.32898438 4.62695312 -12.6875 4.0625 C-12.07261719 3.51722656 -11.45773438 2.97195312 -10.82421875 2.41015625 C-7.41127361 -0.22811611 -4.17757362 -0.41775736 0 0 Z " fill="#7D1A4A" transform="translate(267,73)"/>
<path d="M0 0 C1.18365822 3.55097465 0.69992539 4.52200593 -0.4375 8 C-3.73896719 19.54752809 -2.1194804 29.67323706 3.625 40.125 C10.29717385 50.56768978 20.02224803 56.56008473 32 59.3125 C37.32261484 60.22812667 42.61619388 60.18423671 48 60 C48 60.66 48 61.32 48 62 C40.88568775 65.55715613 27.44127285 63.53802658 20.0625 61.4375 C4.28549514 55.7168303 -6.15544685 46.41513774 -13.2578125 31.328125 C-16.73713384 22.52033253 -16.84524122 13.33696692 -16 4 C-13.18515955 1.18515955 -10.7833753 1.37242958 -6.875 0.875 C-4.95300781 0.62363281 -4.95300781 0.62363281 -2.9921875 0.3671875 C-2.00476562 0.24601562 -1.01734375 0.12484375 0 0 Z " fill="#CF7B96" transform="translate(38,45)"/>
<path d="M0 0 C4.34930751 2.30257457 7.00205373 4.47833212 9 9 C10.58738243 15.3495297 9.94910392 21.20437659 6.9609375 27.0234375 C4.29920536 31.0933118 1.71452499 33.42849167 -3 35 C-7.64559807 35.55711234 -10.72649275 35.13675362 -15 33 C-15 36.3 -15 39.6 -15 43 C-17.31 43 -19.62 43 -22 43 C-22 29.14 -22 15.28 -22 1 C-19.69 1 -17.38 1 -15 1 C-14.67 2.65 -14.34 4.3 -14 6 C-13.05125 5.195625 -12.1025 4.39125 -11.125 3.5625 C-7.35114548 0.36292769 -5.06897144 -0.4874011 0 0 Z M-14 10 C-14.33 10.33 -14.66 10.66 -15 11 C-15.15327434 13.99179723 -15.23165249 16.94456324 -15.25 19.9375 C-15.270625 20.77474609 -15.29125 21.61199219 -15.3125 22.47460938 C-15.31765625 23.27576172 -15.3228125 24.07691406 -15.328125 24.90234375 C-15.3374707 25.63960693 -15.34681641 26.37687012 -15.35644531 27.13647461 C-15.23881836 27.75143799 -15.12119141 28.36640137 -15 29 C-11.82034078 31.11977281 -9.80060394 31.53394409 -6.00390625 31.45703125 C-2.2580955 30.60272354 -1.0290375 28.13578523 1 25 C2.85605379 19.43183863 2.7539167 13.86840225 0.5625 8.4375 C-0.78598512 6.14278259 -0.78598512 6.14278259 -2 5 C-8.01675887 4.30575859 -10.16484281 5.37525162 -14 10 Z " fill="#7D1A4A" transform="translate(322,73)"/>
<path d="M0 0 C1.83362027 0.23683619 1.83362027 0.23683619 3.00390625 0.21875 C3.00390625 2.85875 3.00390625 5.49875 3.00390625 8.21875 C-0.25282093 7.84655261 -1.69721455 7.5176292 -4.05859375 5.15625 C-8.70154712 2.0938765 -13.58639479 2.90814528 -18.99609375 3.21875 C-19.41479928 5.54946879 -19.41479928 5.54946879 -18.99609375 8.21875 C-14.8069858 12.41567345 -9.39451882 14.70038411 -4.15234375 17.33984375 C-0.31862536 19.62204492 2.97772362 22.16638475 5.00390625 26.21875 C5.4370126 30.03008589 5.13781985 31.95607333 3.37890625 35.40625 C0.59917778 38.69803372 -0.88299765 39.8966834 -4.99609375 41.21875 C-12.35168113 41.79274092 -19.69233293 41.12364072 -26.99609375 40.21875 C-26.99609375 37.57875 -26.99609375 34.93875 -26.99609375 32.21875 C-23.28893668 32.78557366 -20.72713635 33.79879286 -17.55859375 35.78125 C-13.85441565 37.90407632 -11.34493785 39.02783727 -6.99609375 38.21875 C-4.53422796 37.24771212 -4.53422796 37.24771212 -2.99609375 35.21875 C-2.32929007 32.26154372 -2.32929007 32.26154372 -2.99609375 29.21875 C-6.53433532 24.81580102 -11.4410321 22.77382371 -16.41992188 20.39453125 C-21.14295863 18.0164325 -23.98371148 15.60459392 -26.99609375 11.21875 C-27.18359375 7.59375 -27.18359375 7.59375 -25.99609375 4.21875 C-18.15208981 -2.40507555 -9.5967909 -1.05491442 0 0 Z " fill="#7D1A4A" transform="translate(125.99609375,66.78125)"/>
<path d="M0 0 C2.5625 2.1875 2.5625 2.1875 3.5625 5.1875 C3.64565752 7.25248892 3.66985878 9.3200789 3.66015625 11.38671875 C3.65693359 12.59521484 3.65371094 13.80371094 3.65039062 15.04882812 C3.64201172 16.31146484 3.63363281 17.57410156 3.625 18.875 C3.62048828 20.14923828 3.61597656 21.42347656 3.61132812 22.73632812 C3.59952873 25.88676564 3.58306597 29.03710949 3.5625 32.1875 C0.9225 32.1875 -1.7175 32.1875 -4.4375 32.1875 C-4.7675 31.5275 -5.0975 30.8675 -5.4375 30.1875 C-6.076875 30.6825 -6.71625 31.1775 -7.375 31.6875 C-11.48555849 33.70083477 -14.93809232 34.05733277 -19.4375 33.1875 C-22.50515423 31.46553193 -24.84071354 29.38107293 -26.4375 26.1875 C-26.91161297 23.27509176 -26.96975968 21.15462716 -25.51953125 18.51953125 C-21.58665575 13.47945327 -16.42520736 10.32910906 -11.046875 6.984375 C-8.23547374 5.28603393 -8.23547374 5.28603393 -6.4375 2.1875 C-7.4275 1.8575 -8.4175 1.5275 -9.4375 1.1875 C-11.68374826 2.39601691 -11.68374826 2.39601691 -13.9375 4.125 C-18.1231492 7.1875 -18.1231492 7.1875 -21.4375 7.1875 C-21.4375 4.8775 -21.4375 2.5675 -21.4375 0.1875 C-6.25356932 -3.29733655 -6.25356932 -3.29733655 0 0 Z M-6.890625 6.578125 C-7.48359375 7.19171875 -8.0765625 7.8053125 -8.6875 8.4375 C-11.45629551 11.2575695 -14.34127594 13.72873383 -17.4375 16.1875 C-18.60093227 18.51436453 -18.63645988 20.03471413 -18.6875 22.625 C-18.71328125 23.40746094 -18.7390625 24.18992187 -18.765625 24.99609375 C-18.35821527 27.71700874 -17.61951921 28.55866876 -15.4375 30.1875 C-11.88213898 30.7285332 -9.97493475 30.45974797 -6.76171875 28.83203125 C-3.1553199 24.72861609 -3.8971776 20.70194985 -4.125 15.4375 C-4.14755859 14.45394531 -4.17011719 13.47039062 -4.19335938 12.45703125 C-4.25221195 10.0323053 -4.33436569 7.61068017 -4.4375 5.1875 C-5.6523079 5.07226683 -5.6523079 5.07226683 -6.890625 6.578125 Z " fill="#7D1A4A" transform="translate(182.4375,74.8125)"/>
<path d="M0 0 C0.61875 0.391875 1.2375 0.78375 1.875 1.1875 C3.82601032 4.33079441 3.79140278 7.50691185 3 11 C-0.60341324 15.73591455 -3.95145462 16.3813936 -9.75 17.3125 C-15.27522936 18 -15.27522936 18 -18 18 C-18.95020416 20.239835 -18.95020416 20.239835 -19 23 C-16.74138756 25.92291022 -14.94161956 27.62335218 -11.5 29 C-8.15101258 29 -6.66981977 27.9852506 -4 26 C-3.319375 25.278125 -2.63875 24.55625 -1.9375 23.8125 C0 22 0 22 4 22 C4 23.98 4 25.96 4 28 C2.72942818 28.47985967 1.45853152 28.9588593 0.1875 29.4375 C-0.52019531 29.70433594 -1.22789062 29.97117188 -1.95703125 30.24609375 C-7.5286415 32.30215642 -13.30395779 33.28315428 -19.0703125 31.28125 C-23.98988271 28.64044175 -27.23870244 25.28389269 -29 20 C-29.48768871 14.45953648 -29.74334535 9.60105152 -27.375 4.5 C-19.91847682 -3.34897176 -9.49434833 -6.10350964 0 0 Z M-20 5 C-22.43950169 9.29816965 -22.16334608 13.18129062 -22 18 C-21.01 17.34 -20.02 16.68 -19 16 C-15.65207254 15.46262566 -12.30557226 15.1111748 -8.93359375 14.7578125 C-5.92195288 14.30962606 -5.92195288 14.30962606 -4.6171875 12.1171875 C-3.51066114 8.32138187 -3.45792545 5.28742705 -5 1.625 C-7.57200304 -0.46475247 -9.7332946 -0.62126425 -13 -0.453125 C-16.43106623 0.32422594 -17.93666102 2.26911018 -20 5 Z M-21 18 C-20 21 -20 21 -20 21 Z " fill="#7D1A4A" transform="translate(362,76)"/>
<path d="M0 0 C6.93951525 5.62663399 6.93951525 5.62663399 7.73046875 10.39453125 C7.94517097 17.70463078 6.56784603 24.17623251 2.75 30.4375 C2.275625 30.911875 1.80125 31.38625 1.3125 31.875 C0.6525 31.875 -0.0075 31.875 -0.6875 31.875 C-0.2756187 28.92318405 0.11087933 26.32100936 1.34375 23.59375 C2.525096 20.27835962 2.50840566 17.57233008 2.4375 14.0625 C2.41042969 12.32033203 2.41042969 12.32033203 2.3828125 10.54296875 C2.35960938 9.66253906 2.33640625 8.78210937 2.3125 7.875 C-1.5524169 5.75689052 -4.24729772 5.49222394 -8.6875 5.875 C-13.81330758 7.72029073 -16.61777796 10.40197646 -19.6875 14.875 C-20.95827449 18.68732348 -20.93564722 20.25463195 -19.4375 24 C-17.81985492 26.84453107 -17.81985492 26.84453107 -15.875 28.9375 C-15.483125 29.576875 -15.09125 30.21625 -14.6875 30.875 C-15.5 33.625 -15.5 33.625 -16.6875 35.875 C-19.83819422 34.50810446 -21.69641774 33.01842115 -23.875 30.375 C-24.38417969 29.7665625 -24.89335938 29.158125 -25.41796875 28.53125 C-28.5943618 24.38727876 -28.12112727 19.90043036 -27.6875 14.875 C-26.4375 11.5625 -26.4375 11.5625 -24.6875 8.875 C-24.171875 8.029375 -23.65625 7.18375 -23.125 6.3125 C-16.91816653 0.10566653 -8.470914 -3.545964 0 0 Z " fill="#7D1A4A" transform="translate(82.6875,32.125)"/>
<path d="M0 0 C0.66 0 1.32 0 2 0 C2 3.96 2 7.92 2 12 C4.64 12 7.28 12 10 12 C10 12.99 10 13.98 10 15 C8.02 15 6.04 15 4 15 C4 24.24 4 33.48 4 43 C8.21620713 41.97961733 8.21620713 41.97961733 10.625 38.9375 C11.40875 37.968125 12.1925 36.99875 13 36 C13.66 36 14.32 36 15 36 C15.66 37.98 16.32 39.96 17 42 C11.17495763 45.02039234 6.60250658 46.99037599 0 46 C-2.61568338 44.33997387 -3.57789643 43.64991787 -5 41 C-5.76518464 36.56808399 -5.79076412 32.17716693 -5.8125 27.6875 C-5.83763672 26.46998047 -5.86277344 25.25246094 -5.88867188 23.99804688 C-5.94748901 20.99837313 -5.98381039 18.00015702 -6 15 C-6.99 14.67 -7.98 14.34 -9 14 C-9 13.34 -9 12.68 -9 12 C-8.071875 11.87625 -7.14375 11.7525 -6.1875 11.625 C-2.86114582 10.34738099 -2.86114582 10.34738099 -1.93359375 7.640625 C-1.19248721 5.10582581 -0.54349792 2.58399887 0 0 Z M2 14 C2 22.91 2 31.82 2 41 C2.33 41 2.66 41 3 41 C3 32.09 3 23.18 3 14 C2.67 14 2.34 14 2 14 Z " fill="#7D1A4A" transform="translate(140,62)"/>
<path d="M0 0 C6.98290333 -0.77587815 6.98290333 -0.77587815 9.59765625 1.21875 C11.02899611 2.91515279 12.27603187 4.64865198 13.5 6.5 C13.94085938 7.12003906 14.38171875 7.74007812 14.8359375 8.37890625 C15.91435239 9.90275338 16.96053482 11.44932244 18 13 C24.00727727 7.39020501 24.00727727 7.39020501 27 0 C29.31 0 31.62 0 34 0 C32.38989473 4.07376031 29.46177729 6.76507069 26.375 9.75 C25.859375 10.25660156 25.34375 10.76320313 24.8125 11.28515625 C23.54616661 12.52803902 22.2736856 13.76465276 21 15 C22.72841066 19.02302481 25.43130881 22.28077291 28.125 25.6875 C33 31.87190083 33 31.87190083 33 33 C28.09145781 33.87652539 28.09145781 33.87652539 25 33 C21.86492343 29.98699721 19.50989084 26.53388178 17 23 C16.02671206 21.97398314 15.0375764 20.96095537 14 20 C12.67876058 21.40851947 11.36830231 22.82715741 10.0625 24.25 C8.96615234 25.43335938 8.96615234 25.43335938 7.84765625 26.640625 C6.08579457 28.89044414 5.40223397 30.21628554 5 33 C2.69 33 0.38 33 -2 33 C2.40843437 27.70987876 7.07559794 22.81191572 12 18 C9.17317467 12.97758219 5.58018718 8.80663209 1.86328125 4.42578125 C0 2 0 2 0 0 Z " fill="#7D1A4A" transform="translate(366,74)"/>
<path d="M0 0 C1.00289062 0.10183594 2.00578125 0.20367187 3.0390625 0.30859375 C3.80992187 0.39238281 4.58078125 0.47617188 5.375 0.5625 C5.375 2.8725 5.375 5.1825 5.375 7.5625 C1.64012223 7.0645163 -0.43737635 6.68758244 -3.625 4.5625 C-6.15584814 4.25008887 -6.15584814 4.25008887 -8.625 5.5625 C-12.81308534 11.24400391 -13.26560923 17.22060442 -13.375 24.0625 C-13.40464844 24.9803125 -13.43429688 25.898125 -13.46484375 26.84375 C-13.53483336 29.08341764 -13.58787317 31.32208788 -13.625 33.5625 C-15.935 33.5625 -18.245 33.5625 -20.625 33.5625 C-20.625 22.6725 -20.625 11.7825 -20.625 0.5625 C-18.315 0.5625 -16.005 0.5625 -13.625 0.5625 C-13.295 2.2125 -12.965 3.8625 -12.625 5.5625 C-11.84125 4.758125 -11.0575 3.95375 -10.25 3.125 C-6.47137721 -0.56365558 -5.11279099 -0.53505952 0 0 Z " fill="#7D1A4A" transform="translate(210.625,73.4375)"/>
<path d="M0 0 C2.64 0 5.28 0 8 0 C8 13.2 8 26.4 8 40 C5.36 40 2.72 40 0 40 C0 26.8 0 13.6 0 0 Z " fill="#7D1A4A" transform="translate(231,67)"/>
<path d="M0 0 C0.66 0 1.32 0 2 0 C4.61697324 4.56131079 4.79548221 8.85371712 4 14 C2.32030972 17.40102578 -0.09232547 19.43576989 -3.3125 21.4375 C-7.77586018 22.37169166 -11.89876713 22.29515647 -15.8125 19.8828125 C-17.98329302 18.11904317 -19.73975469 16.52049063 -21 14 C-21.039992 12.00039988 -21.04346799 9.99952758 -21 8 C-20.01 8 -19.02 8 -18 8 C-17.71125 9.11375 -17.4225 10.2275 -17.125 11.375 C-16.30758671 15.00291092 -16.30758671 15.00291092 -14 17 C-10.70300909 17.24422155 -7.84712273 17.20063433 -4.625 16.4375 C-2.64223953 14.96183938 -2.64223953 14.96183938 -2.1875 11.5625 C-1.78427895 8.03774253 -1.78427895 8.03774253 -3 5 C-1.6875 2.3125 -1.6875 2.3125 0 0 Z " fill="#7D1A4A" transform="translate(81,74)"/>
<path d="M0 0 C0.33 0 0.66 0 1 0 C1 13.86 1 27.72 1 42 C0.67 42 0.34 42 0 42 C-1.05928333 34.23192224 -1.14947817 26.5830137 -1.125 18.75 C-1.12886719 17.49703125 -1.13273437 16.2440625 -1.13671875 14.953125 C-1.13542969 13.7465625 -1.13414062 12.54 -1.1328125 11.296875 C-1.13168457 10.20729492 -1.13055664 9.11771484 -1.12939453 7.99511719 C-1.00937252 5.21694732 -0.63093546 2.70293502 0 0 Z " fill="#7D1A4A" transform="translate(298,74)"/>
<path d="M0 0 C4.41889613 1.35021826 6.34345343 3.26115668 9 7 C8.01 8.32 7.02 9.64 6 11 C3.50638429 9.79618552 1.31856917 8.54571278 -1 7 C-0.67 4.69 -0.34 2.38 0 0 Z " fill="#7E1D4B" transform="translate(72,66)"/>
<path d="M0 0 C0.33 0 0.66 0 1 0 C1 10.56 1 21.12 1 32 C0.34 32 -0.32 32 -1 32 C-1.02907584 27.6041806 -1.0468244 23.20838601 -1.0625 18.8125 C-1.07087891 17.56662109 -1.07925781 16.32074219 -1.08789062 15.03710938 C-1.09111328 13.83505859 -1.09433594 12.63300781 -1.09765625 11.39453125 C-1.10289307 10.28956299 -1.10812988 9.18459473 -1.11352539 8.04614258 C-1.00901923 5.24200621 -0.64097959 2.72582671 0 0 Z " fill="#7D1A4A" transform="translate(188,75)"/>
<path d="M0 0 C0.33 0 0.66 0 1 0 C1 12.87 1 25.74 1 39 C0.67 39 0.34 39 0 39 C0 26.13 0 13.26 0 0 Z " fill="#7D1A4A" transform="translate(240,68)"/>
<path d="M0 0 C0.33 0 0.66 0 1 0 C1 8.25 1 16.5 1 25 C-0.95408752 21.09182496 -1.22581756 20.10340805 -0.9765625 16.015625 C-0.925 15.08105469 -0.8734375 14.14648438 -0.8203125 13.18359375 C-0.75585938 12.21550781 -0.69140625 11.24742188 -0.625 10.25 C-0.56828125 9.26644531 -0.5115625 8.28289062 -0.453125 7.26953125 C-0.31192448 4.845589 -0.16054205 2.42272541 0 0 Z " fill="#7D1A4A" transform="translate(133,78)"/>
<path d="M0 0 C0.33 0 0.66 0 1 0 C1 8.91 1 17.82 1 27 C0.67 27 0.34 27 0 27 C0 18.09 0 9.18 0 0 Z " fill="#7D1A4A" transform="translate(287,80)"/>
<path d="M0 0 C0.33 0 0.66 0 1 0 C1 8.58 1 17.16 1 26 C0.67 26 0.34 26 0 26 C0 17.42 0 8.84 0 0 Z " fill="#7D1A4A" transform="translate(264,81)"/>
<path d="M0 0 C0.33 0 0.66 0 1 0 C1 7.26 1 14.52 1 22 C0.67 22 0.34 22 0 22 C0 14.74 0 7.48 0 0 Z " fill="#7D1A4A" transform="translate(251,85)"/>
<path d="M0 0 C0.33 0 0.66 0 1 0 C1 7.26 1 14.52 1 22 C0.67 22 0.34 22 0 22 C0 14.74 0 7.48 0 0 Z " fill="#7D1A4A" transform="translate(274,85)"/>
<path d="M0 0 C0.33 0 0.66 0 1 0 C1 6.6 1 13.2 1 20 C0.67 20 0.34 20 0 20 C0 13.4 0 6.8 0 0 Z " fill="#7D1A4A" transform="translate(198,87)"/>
<path d="M0 0 C0.99 0.33 1.98 0.66 3 1 C3 2.32 3 3.64 3 5 C1.35 4.67 -0.3 4.34 -2 4 C-2 3.01 -2 2.02 -2 1 C-1.34 0.67 -0.68 0.34 0 0 Z " fill="#CF7B96" transform="translate(75,43)"/>
<path d="M0 0 C5.61 0 11.22 0 17 0 C17 0.33 17 0.66 17 1 C11.39 1 5.78 1 0 1 C0 0.67 0 0.34 0 0 Z " fill="#CF7B96" transform="translate(65,109)"/>
<path d="M0 0 C0.33 0 0.66 0 1 0 C1 2.97 1 5.94 1 9 C2.98 9 4.96 9 7 9 C7 9.33 7 9.66 7 10 C4.69 10 2.38 10 0 10 C0 6.7 0 3.4 0 0 Z " fill="#7D1A4A" transform="translate(143,63)"/>
<path d="M0 0 C3.63 0 7.26 0 11 0 C11 0.33 11 0.66 11 1 C7.37 1 3.74 1 0 1 C0 0.67 0 0.34 0 0 Z " fill="#7D1A4B" transform="translate(109,109)"/>
<path d="M0 0 C3.3 0 6.6 0 10 0 C10 0.33 10 0.66 10 1 C6.7 1 3.4 1 0 1 C0 0.67 0 0.34 0 0 Z " fill="#7D1A4A" transform="translate(345,109)"/>
<path d="M0 0 C0.33 0 0.66 0 1 0 C1 3.3 1 6.6 1 10 C0.67 10 0.34 10 0 10 C0 6.7 0 3.4 0 0 Z " fill="#7D1A4A" transform="translate(322,85)"/>
<path d="M0 0 C0.33 0 0.66 0 1 0 C1 3.3 1 6.6 1 10 C0.67 10 0.34 10 0 10 C0 6.7 0 3.4 0 0 Z " fill="#CF7B96" transform="translate(36,59)"/>
<path d="M0 0 C0.33 0 0.66 0 1 0 C1 3.3 1 6.6 1 10 C0.67 10 0.34 10 0 10 C0 6.7 0 3.4 0 0 Z " fill="#7D1A4A" transform="translate(91,41)"/>
<path d="M0 0 C2.97 0 5.94 0 9 0 C9 0.33 9 0.66 9 1 C6.03 1 3.06 1 0 1 C0 0.67 0 0.34 0 0 Z " fill="#7D1A4B" transform="translate(347,94)"/>
<path d="M0 0 C2.97 0 5.94 0 9 0 C9 0.33 9 0.66 9 1 C6.03 1 3.06 1 0 1 C0 0.67 0 0.34 0 0 Z " fill="#7D1A4B" transform="translate(343,89)"/>
<path d="M0 0 C2.97 0 5.94 0 9 0 C9 0.33 9 0.66 9 1 C6.03 1 3.06 1 0 1 C0 0.67 0 0.34 0 0 Z " fill="#7D1A4A" transform="translate(109,70)"/>
<path d="M0 0 C2.64 0 5.28 0 8 0 C8 0.33 8 0.66 8 1 C5.36 1 2.72 1 0 1 C0 0.67 0 0.34 0 0 Z " fill="#7D1A4A" transform="translate(164,109)"/>
<path d="M0 0 C2.64 0 5.28 0 8 0 C8 0.33 8 0.66 8 1 C5.36 1 2.72 1 0 1 C0 0.67 0 0.34 0 0 Z " fill="#7D1A4A" transform="translate(140,109)"/>
<path d="M0 0 C2.64 0 5.28 0 8 0 C8 0.33 8 0.66 8 1 C5.36 1 2.72 1 0 1 C0 0.67 0 0.34 0 0 Z " fill="#7D1A4A" transform="translate(100,108)"/>
<path d="M0 0 C2.64 0 5.28 0 8 0 C8 0.33 8 0.66 8 1 C5.36 1 2.72 1 0 1 C0 0.67 0 0.34 0 0 Z " fill="#7D1A4A" transform="translate(347,77)"/>
<path d="M0 0 C2.64 0 5.28 0 8 0 C8 0.33 8 0.66 8 1 C5.36 1 2.72 1 0 1 C0 0.67 0 0.34 0 0 Z " fill="#7D1B4A" transform="translate(366,72)"/>
<path d="M0 0 C2.64 0 5.28 0 8 0 C8 0.33 8 0.66 8 1 C5.36 1 2.72 1 0 1 C0 0.67 0 0.34 0 0 Z " fill="#7D1A4A" transform="translate(347,71)"/>
<path d="M0 0 C0.33 0 0.66 0 1 0 C1 2.64 1 5.28 1 8 C0.67 8 0.34 8 0 8 C0 5.36 0 2.72 0 0 Z " fill="#CF7B96" transform="translate(127,50)"/>
<path d="M0 0 C2.64 0 5.28 0 8 0 C8 0.33 8 0.66 8 1 C5.36 1 2.72 1 0 1 C0 0.67 0 0.34 0 0 Z " fill="#CF7B96" transform="translate(81,23)"/>
<path d="M0 0 C2.31 0 4.62 0 7 0 C7 0.33 7 0.66 7 1 C4.69 1 2.38 1 0 1 C0 0.67 0 0.34 0 0 Z " fill="#7D1A4A" transform="translate(312,109)"/>
<path d="M0 0 C2.31 0 4.62 0 7 0 C7 0.33 7 0.66 7 1 C4.69 1 2.38 1 0 1 C0 0.67 0 0.34 0 0 Z " fill="#7D1A4A" transform="translate(391,108)"/>
<path d="M0 0 C2.31 0 4.62 0 7 0 C7 0.33 7 0.66 7 1 C4.69 1 2.38 1 0 1 C0 0.67 0 0.34 0 0 Z " fill="#7D1A4A" transform="translate(289,108)"/>
<path d="M0 0 C2.31 0 4.62 0 7 0 C7 0.33 7 0.66 7 1 C4.69 1 2.38 1 0 1 C0 0.67 0 0.34 0 0 Z " fill="#7D1A4A" transform="translate(266,108)"/>
<path d="M0 0 C2.31 0 4.62 0 7 0 C7 0.33 7 0.66 7 1 C4.69 1 2.38 1 0 1 C0 0.67 0 0.34 0 0 Z " fill="#7D1A4A" transform="translate(190,108)"/>
<path d="M0 0 C2.31 0 4.62 0 7 0 C7 0.33 7 0.66 7 1 C4.69 1 2.38 1 0 1 C0 0.67 0 0.34 0 0 Z " fill="#CF7B96" transform="translate(76,104)"/>
<path d="M0 0 C0.66 1.32 1.32 2.64 2 4 C1.34 4.66 0.68 5.32 0 6 C0 4.02 0 2.04 0 0 Z " fill="#7D1A4A" transform="translate(341,86)"/>
<path d="M0 0 C0.33 0 0.66 0 1 0 C1 2.31 1 4.62 1 7 C0.67 7 0.34 7 0 7 C0 4.69 0 2.38 0 0 Z " fill="#7D1A4A" transform="translate(366,79)"/>
<path d="M0 0 C2.31 0 4.62 0 7 0 C7 0.33 7 0.66 7 1 C4.69 1 2.38 1 0 1 C0 0.67 0 0.34 0 0 Z " fill="#7D1B4A" transform="translate(393,72)"/>
<path d="M0 0 C2.31 0 4.62 0 7 0 C7 0.33 7 0.66 7 1 C4.69 1 2.38 1 0 1 C0 0.67 0 0.34 0 0 Z " fill="#7D1B4A" transform="translate(300,72)"/>
<path d="M0 0 C2.31 0 4.62 0 7 0 C7 0.33 7 0.66 7 1 C4.69 1 2.38 1 0 1 C0 0.67 0 0.34 0 0 Z " fill="#7D1B4B" transform="translate(190,72)"/>
<path d="M0 0 C0.33 0 0.66 0 1 0 C1 2.31 1 4.62 1 7 C0.67 7 0.34 7 0 7 C0 4.69 0 2.38 0 0 Z " fill="#CF7B96" transform="translate(20,60)"/>
<path d="M0 0 C2.31 0 4.62 0 7 0 C7 0.33 7 0.66 7 1 C4.69 1 2.38 1 0 1 C0 0.67 0 0.34 0 0 Z " fill="#7D1A4B" transform="translate(74,38)"/>
<path d="M0 0 C2.31 0 4.62 0 7 0 C7 0.33 7 0.66 7 1 C4.69 1 2.38 1 0 1 C0 0.67 0 0.34 0 0 Z " fill="#7D1A4A" transform="translate(72,29)"/>
<path d="M0 0 C2.31 0 4.62 0 7 0 C7 0.33 7 0.66 7 1 C4.69 1 2.38 1 0 1 C0 0.67 0 0.34 0 0 Z " fill="#D07C97" transform="translate(71,23)"/>
<path d="M0 0 C2.31 0 4.62 0 7 0 C7 0.33 7 0.66 7 1 C4.69 1 2.38 1 0 1 C0 0.67 0 0.34 0 0 Z " fill="#CF7B97" transform="translate(65,6)"/>
<path d="M0 0 C1.98 0 3.96 0 6 0 C6 0.33 6 0.66 6 1 C4.02 1 2.04 1 0 1 C0 0.67 0 0.34 0 0 Z " fill="#7D1A4A" transform="translate(365,108)"/>
<path d="M0 0 C1.98 0 3.96 0 6 0 C6 0.33 6 0.66 6 1 C4.02 1 2.04 1 0 1 C0 0.67 0 0.34 0 0 Z " fill="#7D1A4A" transform="translate(243,108)"/>
<path d="M0 0 C1.98 0 3.96 0 6 0 C6 0.33 6 0.66 6 1 C4.02 1 2.04 1 0 1 C0 0.67 0 0.34 0 0 Z " fill="#7D1A4A" transform="translate(232,108)"/>
<path d="M0 0 C1.98 0 3.96 0 6 0 C6 0.33 6 0.66 6 1 C4.02 1 2.04 1 0 1 C0 0.67 0 0.34 0 0 Z " fill="#7D1B4A" transform="translate(179,108)"/>
<path d="M0 0 C0.33 0 0.66 0 1 0 C1 1.98 1 3.96 1 6 C0.67 6 0.34 6 0 6 C0 4.02 0 2.04 0 0 Z " fill="#7D1B4A" transform="translate(97,100)"/>
<path d="M0 0 C0.33 0 0.66 0 1 0 C1 1.98 1 3.96 1 6 C0.67 6 0.34 6 0 6 C0 4.02 0 2.04 0 0 Z " fill="#7D1A4A" transform="translate(122,96)"/>
<path d="M0 0 C1.98 0 3.96 0 6 0 C6 0.33 6 0.66 6 1 C4.02 1 2.04 1 0 1 C0 0.67 0 0.34 0 0 Z " fill="#7D1A4A" transform="translate(68,90)"/>
<path d="M0 0 C0.33 0 0.66 0 1 0 C1 1.98 1 3.96 1 6 C0.67 6 0.34 6 0 6 C0 4.02 0 2.04 0 0 Z " fill="#7D1A4A" transform="translate(356,80)"/>
<path d="M0 0 C0.33 0 0.66 0 1 0 C1 1.98 1 3.96 1 6 C0.67 6 0.34 6 0 6 C0 4.02 0 2.04 0 0 Z " fill="#7D1A4B" transform="translate(58,82)"/>
<path d="M0 0 C1.65 0 3.3 0 5 0 C4.67 0.66 4.34 1.32 4 2 C2.68 1.34 1.36 0.68 0 0 Z " fill="#7D1A4B" transform="translate(282,78)"/>
<path d="M0 0 C0.33 0 0.66 0 1 0 C1 1.98 1 3.96 1 6 C0.67 6 0.34 6 0 6 C0 4.02 0 2.04 0 0 Z " fill="#7E1B4B" transform="translate(159,75)"/>
<path d="M0 0 C1.98 0 3.96 0 6 0 C6 0.33 6 0.66 6 1 C4.02 1 2.04 1 0 1 C0 0.67 0 0.34 0 0 Z " fill="#7D1A4A" transform="translate(243,72)"/>
<path d="M0 0 C0.33 0 0.66 0 1 0 C1 1.98 1 3.96 1 6 C0.67 6 0.34 6 0 6 C0 4.02 0 2.04 0 0 Z " fill="#7D1A4A" transform="translate(130,68)"/>
<path d="M0 0 C1.98 0 3.96 0 6 0 C6 0.33 6 0.66 6 1 C4.02 1 2.04 1 0 1 C0 0.67 0 0.34 0 0 Z " fill="#7D1A4A" transform="translate(284,71)"/>
<path d="M0 0 C1.98 0 3.96 0 6 0 C6 0.33 6 0.66 6 1 C4.02 1 2.04 1 0 1 C0 0.67 0 0.34 0 0 Z " fill="#7D1A4A" transform="translate(261,71)"/>
<path d="M0 0 C1.98 0 3.96 0 6 0 C6 0.33 6 0.66 6 1 C4.02 1 2.04 1 0 1 C0 0.67 0 0.34 0 0 Z " fill="#7D1A4A" transform="translate(205,71)"/>
<path d="M0 0 C1.98 0 3.96 0 6 0 C6 0.33 6 0.66 6 1 C4.02 1 2.04 1 0 1 C0 0.67 0 0.34 0 0 Z " fill="#7D1A4A" transform="translate(172,71)"/>
<path d="M0 0 C1.98 0 3.96 0 6 0 C6 0.33 6 0.66 6 1 C4.02 1 2.04 1 0 1 C0 0.67 0 0.34 0 0 Z " fill="#7E1B4A" transform="translate(232,65)"/>
<path d="M0 0 C1.98 0 3.96 0 6 0 C6 0.33 6 0.66 6 1 C4.02 1 2.04 1 0 1 C0 0.67 0 0.34 0 0 Z " fill="#7D1A4B" transform="translate(111,64)"/>
<path d="M0 0 C0.99 0 1.98 0 3 0 C2.67 0.99 2.34 1.98 2 3 C1.34 2.67 0.68 2.34 0 2 C0 1.34 0 0.68 0 0 Z " fill="#9E4168" transform="translate(65,57)"/>
<path d="M0 0 C0.33 0 0.66 0 1 0 C1 1.98 1 3.96 1 6 C0.67 6 0.34 6 0 6 C0 4.02 0 2.04 0 0 Z " fill="#CF7B96" transform="translate(20,50)"/>
<path d="M0 0 C1.98 0 3.96 0 6 0 C6 0.33 6 0.66 6 1 C4.02 1 2.04 1 0 1 C0 0.67 0 0.34 0 0 Z " fill="#7D1A4A" transform="translate(5,49)"/>
<path d="M0 0 C1.98 0 3.96 0 6 0 C6 0.33 6 0.66 6 1 C4.02 1 2.04 1 0 1 C0 0.67 0 0.34 0 0 Z " fill="#D07B97" transform="translate(78,6)"/>
<path d="M0 0 C1.65 0 3.3 0 5 0 C5 0.33 5 0.66 5 1 C3.35 1 1.7 1 0 1 C0 0.67 0 0.34 0 0 Z " fill="#7D1A4A" transform="translate(113,104)"/>
<path d="M0 0 C1.65 0 3.3 0 5 0 C5 0.33 5 0.66 5 1 C3.35 1 1.7 1 0 1 C0 0.67 0 0.34 0 0 Z " fill="#CF7B96" transform="translate(69,103)"/>
<path d="M0 0 C0.99 1.485 0.99 1.485 2 3 C1.01 3.495 1.01 3.495 0 4 C0 2.68 0 1.36 0 0 Z " fill="#7D1B4A" transform="translate(251,75)"/>
<path d="M0 0 C0.33 0 0.66 0 1 0 C1 1.65 1 3.3 1 5 C0.67 5 0.34 5 0 5 C0 3.35 0 1.7 0 0 Z " fill="#7D1A4A" transform="translate(97,73)"/>
<path d="M0 0 C0.33 0 0.66 0 1 0 C1 1.65 1 3.3 1 5 C0.67 5 0.34 5 0 5 C0 3.35 0 1.7 0 0 Z " fill="#D07B96" transform="translate(62,73)"/>
<path d="M0 0 C0.33 0 0.66 0 1 0 C1 1.65 1 3.3 1 5 C0.67 5 0.34 5 0 5 C0 3.35 0 1.7 0 0 Z " fill="#7D1A4A" transform="translate(84,48)"/>
<path d="M0 0 C1.65 0 3.3 0 5 0 C5 0.33 5 0.66 5 1 C3.35 1 1.7 1 0 1 C0 0.67 0 0.34 0 0 Z " fill="#7D1A4A" transform="translate(13,48)"/>
<path d="M0 0 C1.32 0.33 2.64 0.66 4 1 C3.01 1.495 3.01 1.495 2 2 C1.34 1.34 0.68 0.68 0 0 Z " fill="#8F2F5B" transform="translate(19,47)"/>
<path d="M0 0 C1.485 0.99 1.485 0.99 3 2 C2.01 2.33 1.02 2.66 0 3 C0 2.01 0 1.02 0 0 Z " fill="#A1446B" transform="translate(49,10)"/>
<path d="M0 0 C0.33 0 0.66 0 1 0 C1 1.65 1 3.3 1 5 C0.67 5 0.34 5 0 5 C0 3.35 0 1.7 0 0 Z " fill="#7D1A4A" transform="translate(50,3)"/>
<path d="M0 0 C4 1 4 1 4 1 Z " fill="#D07B97" transform="translate(61,108)"/>
<path d="M0 0 C4 1 4 1 4 1 Z " fill="#7D1B4A" transform="translate(168,103)"/>
<path d="M0 0 C0.66 0 1.32 0 2 0 C2 0.66 2 1.32 2 2 C1.34 2 0.68 2 0 2 C0 1.34 0 0.68 0 0 Z " fill="#7D1B4A" transform="translate(331,96)"/>
<path d="M0 0 C4 1 4 1 4 1 Z " fill="#CF7B96" transform="translate(67,88)"/>
<path d="M0 0 C1 4 1 4 1 4 Z " fill="#7D1A4A" transform="translate(86,84)"/>
<path d="M0 0 C1 4 1 4 1 4 Z " fill="#7D1B4A" transform="translate(78,83)"/>
<path d="M0 0 C1 4 1 4 1 4 Z " fill="#7D1A4B" transform="translate(86,78)"/>
<path d="M0 0 C4 1 4 1 4 1 Z " fill="#7D1A4A" transform="translate(259,78)"/>
<path d="M0 0 C1 4 1 4 1 4 Z " fill="#7E1B4A" transform="translate(391,74)"/>
<path d="M0 0 C0.66 0.66 1.32 1.32 2 2 C1.01 2.495 1.01 2.495 0 3 C0 2.01 0 1.02 0 0 Z " fill="#7D1A4A" transform="translate(198,74)"/>
<path d="M0 0 C4 1 4 1 4 1 Z " fill="#7D1B4A" transform="translate(162,73)"/>
<path d="M0 0 C4 1 4 1 4 1 Z " fill="#7D1A4B" transform="translate(167,72)"/>
<path d="M0 0 C4 1 4 1 4 1 Z " fill="#7E1B4B" transform="translate(317,71)"/>
<path d="M0 0 C1 4 1 4 1 4 Z " fill="#BF6887" transform="translate(63,68)"/>
<path d="M0 0 C1 4 1 4 1 4 Z " fill="#CF7B96" transform="translate(37,70)"/>
<path d="M0 0 C1 4 1 4 1 4 Z " fill="#D07B96" transform="translate(21,67)"/>
<path d="M0 0 C4 1 4 1 4 1 Z " fill="#7D1B4B" transform="translate(123,66)"/>
<path d="M0 0 C4 1 4 1 4 1 Z " fill="#7D1A4B" transform="translate(118,65)"/>
<path d="M0 0 C4 1 4 1 4 1 Z " fill="#7D1A4B" transform="translate(106,65)"/>
<path d="M0 0 C1 4 1 4 1 4 Z " fill="#D07B97" transform="translate(122,53)"/>
<path d="M0 0 C1 4 1 4 1 4 Z " fill="#CF7B96" transform="translate(37,54)"/>
<path d="M0 0 C1 4 1 4 1 4 Z " fill="#D07C96" transform="translate(78,52)"/>
<path d="M0 0 C1 4 1 4 1 4 Z " fill="#7D1A4A" transform="translate(53,47)"/>
<path d="M0 0 C1 4 1 4 1 4 Z " fill="#D07B96" transform="translate(79,44)"/>
<path d="M0 0 C4 1 4 1 4 1 Z " fill="#D07C97" transform="translate(90,24)"/>
<path d="M0 0 C3 1 3 1 3 1 Z " fill="#7D1A4A" transform="translate(358,107)"/>
<path d="M0 0 C3 1 3 1 3 1 Z " fill="#D07C96" transform="translate(57,107)"/>
<path d="M0 0 C3 1 3 1 3 1 Z " fill="#CF7B96" transform="translate(54,106)"/>
<path d="" fill="#7D1A4B" transform="translate(0,0)"/>
<path d="M0 0 C0.66 0.66 1.32 1.32 2 2 C1.34 2 0.68 2 0 2 C0 1.34 0 0.68 0 0 Z " fill="#7D1A4A" transform="translate(144,103)"/>
<path d="M0 0 C3 1 3 1 3 1 Z " fill="#7D1A4B" transform="translate(315,102)"/>
<path d="M0 0 C3 1 3 1 3 1 Z " fill="#7D1B4B" transform="translate(310,102)"/>
<path d="M0 0 C3 1 3 1 3 1 Z " fill="#CF7B97" transform="translate(66,102)"/>
<path d="M0 0 C0.99 0.495 0.99 0.495 2 1 C1.01 1.495 1.01 1.495 0 2 C0 1.34 0 0.68 0 0 Z " fill="#7D1A4A" transform="translate(367,100)"/>
<path d="" fill="#7D1A4A" transform="translate(0,0)"/>
<path d="M0 0 C3 1 3 1 3 1 Z " fill="#7E1A4B" transform="translate(71,97)"/>
<path d="M0 0 C3 1 3 1 3 1 Z " fill="#7E1B4A" transform="translate(362,96)"/>
<path d="" fill="#7D1A4A" transform="translate(0,0)"/>
<path d="M0 0 C3 1 3 1 3 1 Z " fill="#7E1A4A" transform="translate(75,96)"/>
<path d="M0 0 C3 1 3 1 3 1 Z " fill="#7D1A4B" transform="translate(67,96)"/>
<path d="M0 0 C0.33 0.66 0.66 1.32 1 2 C0.34 1.67 -0.32 1.34 -1 1 C-0.67 0.67 -0.34 0.34 0 0 Z " fill="#7D1B4B" transform="translate(380,94)"/>
<path d="" fill="#7D1A4A" transform="translate(0,0)"/>
<path d="M0 0 C3 1 3 1 3 1 Z " fill="#7E1B4B" transform="translate(356,93)"/>
<path d="M0 0 C0.99 0.495 0.99 0.495 2 1 C1.01 1.495 1.01 1.495 0 2 C0 1.34 0 0.68 0 0 Z " fill="#A0436A" transform="translate(65,87)"/>
<path d="" fill="#7D1B4B" transform="translate(0,0)"/>
<path d="" fill="#7D1A4A" transform="translate(0,0)"/>
<path d="M0 0 C3 1 3 1 3 1 Z " fill="#7D1A4A" transform="translate(161,83)"/>
<path d="M0 0 C0.99 0.495 0.99 0.495 2 1 C1.01 1.495 1.01 1.495 0 2 C0 1.34 0 0.68 0 0 Z " fill="#7D1A4A" transform="translate(254,81)"/>
<path d="M0 0 C3 1 3 1 3 1 Z " fill="#8E2E5A" transform="translate(60,80)"/>
<path d="M0 0 C3 1 3 1 3 1 Z " fill="#7E1B4B" transform="translate(313,79)"/>
<path d="M0 0 C0.66 0.66 1.32 1.32 2 2 C1.34 2 0.68 2 0 2 C0 1.34 0 0.68 0 0 Z " fill="#7D1A4A" transform="translate(273,77)"/>
<path d="M0 0 C3 1 3 1 3 1 Z " fill="#7D1A4B" transform="translate(126,76)"/>
<path d="M0 0 C0.33 0.66 0.66 1.32 1 2 C0.34 1.67 -0.32 1.34 -1 1 C-0.67 0.67 -0.34 0.34 0 0 Z " fill="#7D1A4A" transform="translate(364,74)"/>
<path d="M0 0 C3 1 3 1 3 1 Z " fill="#7D1B4B" transform="translate(356,72)"/>
<path d="M0 0 C3 1 3 1 3 1 Z " fill="#7D1B4A" transform="translate(343,72)"/>
<path d="M0 0 C3 1 3 1 3 1 Z " fill="#7D1B4A" transform="translate(281,72)"/>
<path d="M0 0 C3 1 3 1 3 1 Z " fill="#7D1A4A" transform="translate(258,72)"/>
<path d="M0 0 C3 1 3 1 3 1 Z " fill="#7D1A4B" transform="translate(212,72)"/>
<path d="M0 0 C3 1 3 1 3 1 Z " fill="#7E1A4A" transform="translate(132,72)"/>
<path d="M0 0 C0.33 0.66 0.66 1.32 1 2 C0.34 1.67 -0.32 1.34 -1 1 C-0.67 0.67 -0.34 0.34 0 0 Z " fill="#7D1A4A" transform="translate(136,70)"/>
<path d="" fill="#7E1B4B" transform="translate(0,0)"/>
<path d="M0 0 C0.66 0.66 1.32 1.32 2 2 C1.34 2 0.68 2 0 2 C0 1.34 0 0.68 0 0 Z " fill="#A64B70" transform="translate(74,64)"/>
<path d="" fill="#7E1B4A" transform="translate(0,0)"/>
<path d="" fill="#7E1B4B" transform="translate(0,0)"/>
<path d="" fill="#7D1A4A" transform="translate(0,0)"/>
<path d="" fill="#7D1A4B" transform="translate(0,0)"/>
<path d="" fill="#CF7B96" transform="translate(0,0)"/>
<path d="M0 0 C3 1 3 1 3 1 Z " fill="#CF7C97" transform="translate(74,49)"/>
<path d="" fill="#7E1B4A" transform="translate(0,0)"/>
<path d="" fill="#D07B97" transform="translate(0,0)"/>
<path d="" fill="#CF7B96" transform="translate(0,0)"/>
<path d="" fill="#7D1A4B" transform="translate(0,0)"/>
<path d="M0 0 C0.66 0 1.32 0 2 0 C1.67 0.66 1.34 1.32 1 2 C0.67 1.34 0.34 0.68 0 0 Z " fill="#CF7B96" transform="translate(111,35)"/>
<path d="M0 0 C3 1 3 1 3 1 Z " fill="#7E1B4B" transform="translate(80,30)"/>
<path d="M0 0 C3 1 3 1 3 1 Z " fill="#7D1A4A" transform="translate(69,30)"/>
<path d="M0 0 C3 1 3 1 3 1 Z " fill="#CF7B96" transform="translate(94,25)"/>
<path d="M0 0 C3 1 3 1 3 1 Z " fill="#CF7B97" transform="translate(67,24)"/>
<path d="M0 0 C3 1 3 1 3 1 Z " fill="#CF7C96" transform="translate(54,9)"/>
<path d="M0 0 C3 1 3 1 3 1 Z " fill="#CF7B96" transform="translate(57,8)"/>
<path d="M0 0 C3 1 3 1 3 1 Z " fill="#CF7B97" transform="translate(85,7)"/>
<path d="M0 0 C3 1 3 1 3 1 Z " fill="#CF7B97" transform="translate(61,7)"/>
<path d="M0 0 C2 1 2 1 2 1 Z " fill="#7E1B4B" transform="translate(356,108)"/>
<path d="M0 0 C2 1 2 1 2 1 Z " fill="#7D1B4A" transform="translate(343,108)"/>
<path d="M0 0 C2 1 2 1 2 1 Z " fill="#7E1A4A" transform="translate(319,108)"/>
<path d="M0 0 C2 1 2 1 2 1 Z " fill="#7E1B4B" transform="translate(309,108)"/>
<path d="M0 0 C2 1 2 1 2 1 Z " fill="#7D1A4A" transform="translate(172,108)"/>
<path d="M0 0 C2 1 2 1 2 1 Z " fill="#7E1A4B" transform="translate(161,108)"/>
<path d="M0 0 C2 1 2 1 2 1 Z " fill="#7D1A4A" transform="translate(148,108)"/>
<path d="M0 0 C2 1 2 1 2 1 Z " fill="#7D1A4B" transform="translate(138,108)"/>
<path d="M0 0 C2 1 2 1 2 1 Z " fill="#7E1B4B" transform="translate(121,108)"/>
<path d="M0 0 C2 1 2 1 2 1 Z " fill="#7D1A4A" transform="translate(150,107)"/>
<path d="M0 0 C2 1 2 1 2 1 Z " fill="#7E1A4B" transform="translate(361,106)"/>
<path d="M0 0 C2 1 2 1 2 1 Z " fill="#7E1A4A" transform="translate(339,106)"/>
<path d="M0 0 C2 1 2 1 2 1 Z " fill="#7D1A4A" transform="translate(323,106)"/>
<path d="M0 0 C2 1 2 1 2 1 Z " fill="#7E1B4B" transform="translate(153,106)"/>
<path d="M0 0 C2 1 2 1 2 1 Z " fill="#7D1A4A" transform="translate(125,106)"/>
<path d="" fill="#7E1A4A" transform="translate(0,0)"/>
<path d="M0 0 C2 1 2 1 2 1 Z " fill="#D07C97" transform="translate(52,105)"/>
<path d="M0 0 C2 1 2 1 2 1 Z " fill="#CF7B96" transform="translate(50,104)"/>
<path d="M0 0 C2 1 2 1 2 1 Z " fill="#7D1A4B" transform="translate(348,103)"/>
<path d="M0 0 C2 1 2 1 2 1 Z " fill="#7D1B4B" transform="translate(119,103)"/>
<path d="M0 0 C2 1 2 1 2 1 Z " fill="#D07C97" transform="translate(48,103)"/>
<path d="M0 0 C2 1 2 1 2 1 Z " fill="#7E1B4B" transform="translate(355,102)"/>
<path d="M0 0 C2 1 2 1 2 1 Z " fill="#7D1A4B" transform="translate(346,102)"/>
<path d="M0 0 C2 1 2 1 2 1 Z " fill="#7D1A4B" transform="translate(173,102)"/>
<path d="M0 0 C2 1 2 1 2 1 Z " fill="#D07B97" transform="translate(46,102)"/>
<path d="" fill="#7D1A4A" transform="translate(0,0)"/>
<path d="" fill="#7E1B4B" transform="translate(0,0)"/>
<path d="M0 0 C2 1 2 1 2 1 Z " fill="#7D1B4B" transform="translate(308,101)"/>
<path d="M0 0 C2 1 2 1 2 1 Z " fill="#7E1B4A" transform="translate(107,101)"/>
<path d="M0 0 C2 1 2 1 2 1 Z " fill="#D07B96" transform="translate(63,101)"/>
<path d="" fill="#7D1B4A" transform="translate(0,0)"/>
<path d="" fill="#7D1A4B" transform="translate(0,0)"/>
<path d="" fill="#7E1B4B" transform="translate(0,0)"/>
<path d="" fill="#7E1A4B" transform="translate(0,0)"/>
<path d="M0 0 C2 1 2 1 2 1 Z " fill="#D07C97" transform="translate(60,100)"/>
<path d="M0 0 C2 1 2 1 2 1 Z " fill="#CF7B96" transform="translate(43,100)"/>
<path d="" fill="#7D1A4A" transform="translate(0,0)"/>
<path d="" fill="#7D1B4A" transform="translate(0,0)"/>
<path d="M0 0 C2 1 2 1 2 1 Z " fill="#D07C97" transform="translate(58,99)"/>
<path d="" fill="#7D1B4B" transform="translate(0,0)"/>
<path d="M0 0 C2 1 2 1 2 1 Z " fill="#7D1B4B" transform="translate(102,98)"/>
<path d="M0 0 C2 1 2 1 2 1 Z " fill="#D07B97" transform="translate(56,98)"/>
<path d="M0 0 C2 1 2 1 2 1 Z " fill="#CF7B96" transform="translate(40,98)"/>
<path d="M0 0 C2 1 2 1 2 1 Z " fill="#7E1B4B" transform="translate(151,97)"/>
<path d="M0 0 C2 1 2 1 2 1 Z " fill="#7E1B4A" transform="translate(100,97)"/>
<path d="M0 0 C2 1 2 1 2 1 Z " fill="#7D1A4B" transform="translate(153,96)"/>
<path d="" fill="#7D1B4A" transform="translate(0,0)"/>
<path d="M0 0 C2 1 2 1 2 1 Z " fill="#7E1B4B" transform="translate(78,95)"/>
<path d="" fill="#7D1B4B" transform="translate(0,0)"/>
<path d="M0 0 C2 1 2 1 2 1 Z " fill="#CF7B96" transform="translate(50,94)"/>
<path d="M0 0 C2 1 2 1 2 1 Z " fill="#7D1B4B" transform="translate(359,92)"/>
<path d="" fill="#7D1A4A" transform="translate(0,0)"/>
<path d="M0 0 C2 1 2 1 2 1 Z " fill="#7D1A4A" transform="translate(117,92)"/>
<path d="" fill="#7E1B4B" transform="translate(0,0)"/>
<path d="" fill="#D07C97" transform="translate(0,0)"/>
<path d="M0 0 C2 1 2 1 2 1 Z " fill="#7D1A4A" transform="translate(168,89)"/>
<path d="" fill="#7D1A4B" transform="translate(0,0)"/>
<path d="" fill="#7D1A4A" transform="translate(0,0)"/>
<path d="M0 0 C2 1 2 1 2 1 Z " fill="#7D1A4A" transform="translate(353,88)"/>
<path d="" fill="#7D1A4A" transform="translate(0,0)"/>
<path d="" fill="#8C2B58" transform="translate(0,0)"/>
<path d="" fill="#7D1A4A" transform="translate(0,0)"/>
<path d="" fill="#7E1A4A" transform="translate(0,0)"/>
<path d="M0 0 C2 1 2 1 2 1 Z " fill="#7E1B4B" transform="translate(173,85)"/>
<path d="M0 0 C2 1 2 1 2 1 Z " fill="#7E1B4B" transform="translate(104,85)"/>
<path d="M0 0 C2 1 2 1 2 1 Z " fill="#7D1A4A" transform="translate(165,84)"/>
<path d="" fill="#CF7B97" transform="translate(0,0)"/>
<path d="" fill="#7D1B4B" transform="translate(0,0)"/>
<path d="" fill="#7E1A4A" transform="translate(0,0)"/>
<path d="" fill="#7E1B4B" transform="translate(0,0)"/>
<path d="" fill="#D07B97" transform="translate(0,0)"/>
<path d="" fill="#7D1B4A" transform="translate(0,0)"/>
<path d="M0 0 C2 1 2 1 2 1 Z " fill="#7D1B4B" transform="translate(212,82)"/>
<path d="M0 0 C2 1 2 1 2 1 Z " fill="#7E1B4B" transform="translate(168,82)"/>
<path d="M0 0 C2 1 2 1 2 1 Z " fill="#7D1A4A" transform="translate(120,82)"/>
<path d="" fill="#CF7B96" transform="translate(0,0)"/>
<path d="" fill="#7D1A4A" transform="translate(0,0)"/>
<path d="" fill="#7D1A4B" transform="translate(0,0)"/>
<path d="" fill="#7D1A4A" transform="translate(0,0)"/>
<path d="M0 0 C2 1 2 1 2 1 Z " fill="#7D1A4A" transform="translate(210,81)"/>
<path d="" fill="#7E1A4A" transform="translate(0,0)"/>
<path d="M0 0 C2 1 2 1 2 1 Z " fill="#7E1A4A" transform="translate(118,81)"/>
<path d="" fill="#D07C97" transform="translate(0,0)"/>
<path d="M0 0 C2 1 2 1 2 1 Z " fill="#7D1A4A" transform="translate(278,80)"/>
<path d="M0 0 C2 1 2 1 2 1 Z " fill="#7E1B4B" transform="translate(171,80)"/>
<path d="M0 0 C2 1 2 1 2 1 Z " fill="#7D1A4A" transform="translate(116,80)"/>
<path d="" fill="#D07C97" transform="translate(0,0)"/>
<path d="" fill="#7E1A4A" transform="translate(0,0)"/>
<path d="M0 0 C2 1 2 1 2 1 Z " fill="#7E1B4B" transform="translate(318,79)"/>
<path d="M0 0 C2 1 2 1 2 1 Z " fill="#7E1B4B" transform="translate(280,79)"/>
<path d="M0 0 C2 1 2 1 2 1 Z " fill="#7D1A4A" transform="translate(257,79)"/>
<path d="M0 0 C2 1 2 1 2 1 Z " fill="#7D1B4B" transform="translate(207,79)"/>
<path d="M0 0 C2 1 2 1 2 1 Z " fill="#7D1A4B" transform="translate(202,79)"/>
<path d="M0 0 C2 1 2 1 2 1 Z " fill="#7D1B4A" transform="translate(114,79)"/>
<path d="" fill="#7E1B4B" transform="translate(0,0)"/>
<path d="" fill="#D07C97" transform="translate(0,0)"/>
<path d="M0 0 C2 1 2 1 2 1 Z " fill="#7E1B4B" transform="translate(204,78)"/>
<path d="" fill="#7D1B4A" transform="translate(0,0)"/>
<path d="" fill="#7E1A4B" transform="translate(0,0)"/>
<path d="M0 0 C2 1 2 1 2 1 Z " fill="#7D1A4B" transform="translate(169,78)"/>
<path d="M0 0 C2 1 2 1 2 1 Z " fill="#7D1B4B" transform="translate(112,78)"/>
<path d="" fill="#D07C97" transform="translate(0,0)"/>
<path d="M0 0 C2 1 2 1 2 1 Z " fill="#7E1B4B" transform="translate(171,77)"/>
<path d="M0 0 C2 1 2 1 2 1 Z " fill="#7E1B4A" transform="translate(110,77)"/>
<path d="" fill="#7D1A4A" transform="translate(0,0)"/>
<path d="" fill="#7E1A4A" transform="translate(0,0)"/>
<path d="" fill="#7E1A4A" transform="translate(0,0)"/>
<path d="" fill="#7E1B4A" transform="translate(0,0)"/>
<path d="" fill="#CF7B96" transform="translate(0,0)"/>
<path d="" fill="#CF7B96" transform="translate(0,0)"/>
<path d="" fill="#7D1A4B" transform="translate(0,0)"/>
<path d="M0 0 C2 1 2 1 2 1 Z " fill="#7E1A4B" transform="translate(124,75)"/>
<path d="M0 0 C2 1 2 1 2 1 Z " fill="#7E1B4B" transform="translate(339,74)"/>
<path d="M0 0 C2 1 2 1 2 1 Z " fill="#7D1B4B" transform="translate(359,73)"/>
<path d="M0 0 C2 1 2 1 2 1 Z " fill="#7E1B4B" transform="translate(341,73)"/>
<path d="M0 0 C2 1 2 1 2 1 Z " fill="#7E1B4B" transform="translate(324,73)"/>
<path d="M0 0 C2 1 2 1 2 1 Z " fill="#7E1A4A" transform="translate(312,73)"/>
<path d="M0 0 C2 1 2 1 2 1 Z " fill="#7E1A4B" transform="translate(269,73)"/>
<path d="M0 0 C2 1 2 1 2 1 Z " fill="#7E1B4A" transform="translate(181,73)"/>
<path d="" fill="#7E1B4B" transform="translate(0,0)"/>
<path d="" fill="#CF7B96" transform="translate(0,0)"/>
<path d="M0 0 C2 1 2 1 2 1 Z " fill="#7E1B4B" transform="translate(322,72)"/>
<path d="M0 0 C2 1 2 1 2 1 Z " fill="#7E1B4B" transform="translate(314,72)"/>
<path d="M0 0 C2 1 2 1 2 1 Z " fill="#7D1A4B" transform="translate(290,72)"/>
<path d="M0 0 C2 1 2 1 2 1 Z " fill="#7D1B4A" transform="translate(267,72)"/>
<path d="M0 0 C2 1 2 1 2 1 Z " fill="#7E1B4A" transform="translate(203,72)"/>
<path d="M0 0 C2 1 2 1 2 1 Z " fill="#7E1B4B" transform="translate(179,72)"/>
<path d="M0 0 C2 1 2 1 2 1 Z " fill="#7D1A4B" transform="translate(120,72)"/>
<path d="" fill="#7D1A4B" transform="translate(0,0)"/>
<path d="M0 0 C2 1 2 1 2 1 Z " fill="#7D1B4A" transform="translate(104,66)"/>
<path d="M0 0 C2 1 2 1 2 1 Z " fill="#7E1B4B" transform="translate(82,65)"/>
<path d="" fill="#CF7B96" transform="translate(0,0)"/>
<path d="" fill="#7D1A4A" transform="translate(0,0)"/>
<path d="" fill="#CF7C96" transform="translate(0,0)"/>
<path d="" fill="#7E1A4B" transform="translate(0,0)"/>
<path d="" fill="#7D1A4A" transform="translate(0,0)"/>
<path d="" fill="#7E1B4B" transform="translate(0,0)"/>
<path d="" fill="#D07B96" transform="translate(0,0)"/>
<path d="" fill="#7E1B4B" transform="translate(0,0)"/>
<path d="" fill="#D07C97" transform="translate(0,0)"/>
<path d="" fill="#7E1B4B" transform="translate(0,0)"/>
<path d="" fill="#D07C97" transform="translate(0,0)"/>
<path d="" fill="#CF7B97" transform="translate(0,0)"/>
<path d="" fill="#CF7C96" transform="translate(0,0)"/>
<path d="" fill="#D07B97" transform="translate(0,0)"/>
<path d="" fill="#7D1B4A" transform="translate(0,0)"/>
<path d="" fill="#D07B97" transform="translate(0,0)"/>
<path d="" fill="#CF7C96" transform="translate(0,0)"/>
<path d="M0 0 C2 1 2 1 2 1 Z " fill="#D07C97" transform="translate(76,42)"/>
<path d="M0 0 C2 1 2 1 2 1 Z " fill="#CF7B97" transform="translate(73,42)"/>
<path d="" fill="#CF7B97" transform="translate(0,0)"/>
<path d="" fill="#D07C97" transform="translate(0,0)"/>
<path d="M0 0 C2 1 2 1 2 1 Z " fill="#7E1B4B" transform="translate(69,40)"/>
<path d="" fill="#7E1B4B" transform="translate(0,0)"/>
<path d="M0 0 C2 1 2 1 2 1 Z " fill="#7E1B4B" transform="translate(82,39)"/>
<path d="M0 0 C2 1 2 1 2 1 Z " fill="#7D1A4B" transform="translate(71,39)"/>
<path d="" fill="#D07C97" transform="translate(0,0)"/>
<path d="" fill="#7E1B4B" transform="translate(0,0)"/>
<path d="" fill="#7D1B4B" transform="translate(0,0)"/>
<path d="" fill="#D07C97" transform="translate(0,0)"/>
<path d="M0 0 C2 1 2 1 2 1 Z " fill="#7D1A4A" transform="translate(84,32)"/>
<path d="M0 0 C2 1 2 1 2 1 Z " fill="#7D1B4A" transform="translate(65,32)"/>
<path d="M0 0 C2 1 2 1 2 1 Z " fill="#7E1A4A" transform="translate(67,31)"/>
<path d="M0 0 C2 1 2 1 2 1 Z " fill="#D07C97" transform="translate(105,30)"/>
<path d="" fill="#CF7C97" transform="translate(0,0)"/>
<path d="M0 0 C2 1 2 1 2 1 Z " fill="#D07C97" transform="translate(57,28)"/>
<path d="M0 0 C2 1 2 1 2 1 Z " fill="#D07B96" transform="translate(100,27)"/>
<path d="M0 0 C2 1 2 1 2 1 Z " fill="#D07B97" transform="translate(59,27)"/>
<path d="M0 0 C2 1 2 1 2 1 Z " fill="#CF7B96" transform="translate(97,26)"/>
<path d="M0 0 C2 1 2 1 2 1 Z " fill="#D07C97" transform="translate(61,26)"/>
<path d="M0 0 C2 1 2 1 2 1 Z " fill="#D07C97" transform="translate(64,25)"/>
<path d="M0 0 C2 1 2 1 2 1 Z " fill="#CF7B96" transform="translate(106,17)"/>
<path d="M0 0 C2 1 2 1 2 1 Z " fill="#CF7B96" transform="translate(100,13)"/>
<path d="" fill="#7E1A4B" transform="translate(0,0)"/>
<path d="M0 0 C2 1 2 1 2 1 Z " fill="#D07B97" transform="translate(94,10)"/>
<path d="M0 0 C2 1 2 1 2 1 Z " fill="#D07C97" transform="translate(52,10)"/>
<path d="M0 0 C2 1 2 1 2 1 Z " fill="#D07C97" transform="translate(92,9)"/>
<path d="M0 0 C2 1 2 1 2 1 Z " fill="#CF7C96" transform="translate(89,8)"/>
<path d="" fill="#7E1B4B" transform="translate(0,0)"/>
<path d="" fill="#7E1B4B" transform="translate(0,0)"/>
<path d="" fill="#7E1B4B" transform="translate(0,0)"/>
<path d="" fill="#7D1A4B" transform="translate(0,0)"/>
<path d="" fill="#7E1B4B" transform="translate(0,0)"/>
<path d="" fill="#7E1A4B" transform="translate(0,0)"/>
<path d="" fill="#7E1A4B" transform="translate(0,0)"/>
<path d="" fill="#7E1B4B" transform="translate(0,0)"/>
<path d="" fill="#7E1B4B" transform="translate(0,0)"/>
<path d="" fill="#7E1B4B" transform="translate(0,0)"/>
<path d="" fill="#7E1B4A" transform="translate(0,0)"/>
<path d="" fill="#7D1A4A" transform="translate(0,0)"/>
<path d="" fill="#7E1B4B" transform="translate(0,0)"/>
<path d="" fill="#7E1B4B" transform="translate(0,0)"/>
<path d="" fill="#7E1B4B" transform="translate(0,0)"/>
<path d="" fill="#7E1B4B" transform="translate(0,0)"/>
<path d="" fill="#7E1B4B" transform="translate(0,0)"/>
<path d="" fill="#7E1B4B" transform="translate(0,0)"/>
<path d="" fill="#7E1B4A" transform="translate(0,0)"/>
<path d="" fill="#7D1B4A" transform="translate(0,0)"/>
<path d="" fill="#7E1B4B" transform="translate(0,0)"/>
<path d="" fill="#7E1B4B" transform="translate(0,0)"/>
<path d="" fill="#7D1B4B" transform="translate(0,0)"/>
<path d="" fill="#7E1B4B" transform="translate(0,0)"/>
<path d="" fill="#7E1B4B" transform="translate(0,0)"/>
<path d="" fill="#7D1A4B" transform="translate(0,0)"/>
<path d="" fill="#7E1B4B" transform="translate(0,0)"/>
<path d="" fill="#7E1B4B" transform="translate(0,0)"/>
<path d="" fill="#7E1B4B" transform="translate(0,0)"/>
<path d="" fill="#7E1B4B" transform="translate(0,0)"/>
<path d="" fill="#7D1B4B" transform="translate(0,0)"/>
<path d="" fill="#7E1A4B" transform="translate(0,0)"/>
<path d="" fill="#7D1B4B" transform="translate(0,0)"/>
<path d="" fill="#7E1B4B" transform="translate(0,0)"/>
<path d="" fill="#7E1B4B" transform="translate(0,0)"/>
<path d="" fill="#7E1B4B" transform="translate(0,0)"/>
<path d="" fill="#7E1B4A" transform="translate(0,0)"/>
<path d="" fill="#7E1B4B" transform="translate(0,0)"/>
<path d="" fill="#7E1A4B" transform="translate(0,0)"/>
<path d="" fill="#7E1B4B" transform="translate(0,0)"/>
<path d="" fill="#7D1A4B" transform="translate(0,0)"/>
<path d="" fill="#7E1B4B" transform="translate(0,0)"/>
<path d="" fill="#7D1A4B" transform="translate(0,0)"/>
<path d="" fill="#7E1B4B" transform="translate(0,0)"/>
<path d="" fill="#7E1B4B" transform="translate(0,0)"/>
<path d="" fill="#7E1B4B" transform="translate(0,0)"/>
<path d="" fill="#7E1B4B" transform="translate(0,0)"/>
<path d="" fill="#D07C97" transform="translate(0,0)"/>
<path d="" fill="#7D1A4A" transform="translate(0,0)"/>
<path d="" fill="#7E1B4B" transform="translate(0,0)"/>
<path d="" fill="#7E1B4B" transform="translate(0,0)"/>
<path d="" fill="#7E1A4B" transform="translate(0,0)"/>
<path d="" fill="#7E1B4B" transform="translate(0,0)"/>
<path d="" fill="#7D1B4B" transform="translate(0,0)"/>
<path d="" fill="#7E1B4B" transform="translate(0,0)"/>
<path d="" fill="#7E1A4B" transform="translate(0,0)"/>
<path d="" fill="#7E1B4A" transform="translate(0,0)"/>
<path d="" fill="#7D1A4B" transform="translate(0,0)"/>
<path d="" fill="#7E1B4B" transform="translate(0,0)"/>
<path d="" fill="#D07C97" transform="translate(0,0)"/>
<path d="" fill="#7E1B4B" transform="translate(0,0)"/>
<path d="" fill="#7D1B4B" transform="translate(0,0)"/>
<path d="" fill="#7D1B4B" transform="translate(0,0)"/>
<path d="" fill="#7D1A4A" transform="translate(0,0)"/>
<path d="" fill="#7D1A4B" transform="translate(0,0)"/>
<path d="" fill="#7D1B4B" transform="translate(0,0)"/>
<path d="" fill="#7E1B4B" transform="translate(0,0)"/>
<path d="" fill="#7E1B4B" transform="translate(0,0)"/>
<path d="" fill="#7D1A4B" transform="translate(0,0)"/>
<path d="" fill="#7D1B4B" transform="translate(0,0)"/>
<path d="" fill="#7D1B4A" transform="translate(0,0)"/>
<path d="" fill="#CF7B96" transform="translate(0,0)"/>
<path d="" fill="#D07C97" transform="translate(0,0)"/>
<path d="" fill="#7E1B4B" transform="translate(0,0)"/>
<path d="" fill="#7D1B4B" transform="translate(0,0)"/>
<path d="" fill="#7E1B4B" transform="translate(0,0)"/>
<path d="" fill="#7D1B4A" transform="translate(0,0)"/>
<path d="" fill="#7E1B4B" transform="translate(0,0)"/>
<path d="" fill="#D07C97" transform="translate(0,0)"/>
<path d="" fill="#D07C97" transform="translate(0,0)"/>
<path d="" fill="#7E1A4B" transform="translate(0,0)"/>
<path d="" fill="#7E1B4B" transform="translate(0,0)"/>
<path d="" fill="#7E1B4B" transform="translate(0,0)"/>
<path d="" fill="#7E1B4B" transform="translate(0,0)"/>
<path d="" fill="#D07C97" transform="translate(0,0)"/>
<path d="" fill="#D07B97" transform="translate(0,0)"/>
<path d="" fill="#7E1B4A" transform="translate(0,0)"/>
<path d="" fill="#7D1B4B" transform="translate(0,0)"/>
<path d="" fill="#7D1B4B" transform="translate(0,0)"/>
<path d="" fill="#7E1B4B" transform="translate(0,0)"/>
<path d="" fill="#D07C97" transform="translate(0,0)"/>
<path d="" fill="#7E1B4B" transform="translate(0,0)"/>
<path d="" fill="#7E1A4A" transform="translate(0,0)"/>
<path d="" fill="#7E1B4B" transform="translate(0,0)"/>
<path d="" fill="#7E1B4A" transform="translate(0,0)"/>
<path d="" fill="#7E1B4B" transform="translate(0,0)"/>
<path d="" fill="#D07C97" transform="translate(0,0)"/>
<path d="" fill="#CF7C97" transform="translate(0,0)"/>
<path d="" fill="#7D1B4B" transform="translate(0,0)"/>
<path d="" fill="#7E1B4B" transform="translate(0,0)"/>
<path d="" fill="#7E1B4B" transform="translate(0,0)"/>
<path d="" fill="#7D1A4A" transform="translate(0,0)"/>
<path d="" fill="#7E1B4B" transform="translate(0,0)"/>
<path d="" fill="#D07C97" transform="translate(0,0)"/>
<path d="" fill="#D07C96" transform="translate(0,0)"/>
<path d="" fill="#7E1B4B" transform="translate(0,0)"/>
<path d="" fill="#7E1B4B" transform="translate(0,0)"/>
<path d="" fill="#7E1A4B" transform="translate(0,0)"/>
<path d="" fill="#7D1A4A" transform="translate(0,0)"/>
<path d="" fill="#7E1B4B" transform="translate(0,0)"/>
<path d="" fill="#7E1B4B" transform="translate(0,0)"/>
<path d="" fill="#7D1A4B" transform="translate(0,0)"/>
<path d="" fill="#7E1B4B" transform="translate(0,0)"/>
<path d="" fill="#CF7C97" transform="translate(0,0)"/>
<path d="" fill="#D07C97" transform="translate(0,0)"/>
<path d="" fill="#7E1B4B" transform="translate(0,0)"/>
<path d="" fill="#7E1A4A" transform="translate(0,0)"/>
<path d="" fill="#7D1B4A" transform="translate(0,0)"/>
<path d="" fill="#7D1B4B" transform="translate(0,0)"/>
<path d="" fill="#7E1B4B" transform="translate(0,0)"/>
<path d="" fill="#7E1B4B" transform="translate(0,0)"/>
<path d="" fill="#7E1B4B" transform="translate(0,0)"/>
<path d="" fill="#D07C97" transform="translate(0,0)"/>
<path d="" fill="#7E1B4B" transform="translate(0,0)"/>
<path d="" fill="#7E1B4B" transform="translate(0,0)"/>
<path d="" fill="#7D1B4A" transform="translate(0,0)"/>
<path d="" fill="#7D1A4A" transform="translate(0,0)"/>
<path d="" fill="#7D1A4B" transform="translate(0,0)"/>
<path d="" fill="#7E1B4B" transform="translate(0,0)"/>
<path d="" fill="#D07C97" transform="translate(0,0)"/>
<path d="" fill="#7E1B4B" transform="translate(0,0)"/>
<path d="" fill="#7E1B4B" transform="translate(0,0)"/>
<path d="" fill="#7E1B4B" transform="translate(0,0)"/>
<path d="" fill="#7E1B4B" transform="translate(0,0)"/>
<path d="" fill="#7D1A4A" transform="translate(0,0)"/>
<path d="" fill="#7D1B4B" transform="translate(0,0)"/>
<path d="" fill="#7E1B4B" transform="translate(0,0)"/>
<path d="" fill="#7E1B4B" transform="translate(0,0)"/>
<path d="" fill="#D07C97" transform="translate(0,0)"/>
<path d="" fill="#D07C97" transform="translate(0,0)"/>
<path d="" fill="#7E1B4B" transform="translate(0,0)"/>
<path d="" fill="#7E1B4B" transform="translate(0,0)"/>
<path d="" fill="#7E1B4B" transform="translate(0,0)"/>
<path d="" fill="#7E1B4B" transform="translate(0,0)"/>
<path d="" fill="#7E1B4B" transform="translate(0,0)"/>
<path d="" fill="#7E1B4B" transform="translate(0,0)"/>
<path d="" fill="#7E1B4B" transform="translate(0,0)"/>
<path d="" fill="#7D1A4A" transform="translate(0,0)"/>
<path d="" fill="#7E1B4B" transform="translate(0,0)"/>
<path d="" fill="#D07C97" transform="translate(0,0)"/>
<path d="" fill="#D07B97" transform="translate(0,0)"/>
<path d="" fill="#7E1B4A" transform="translate(0,0)"/>
<path d="" fill="#7E1B4B" transform="translate(0,0)"/>
<path d="" fill="#7E1B4B" transform="translate(0,0)"/>
<path d="" fill="#7E1B4B" transform="translate(0,0)"/>
<path d="" fill="#7E1A4B" transform="translate(0,0)"/>
<path d="" fill="#7E1B4B" transform="translate(0,0)"/>
<path d="" fill="#CF7C96" transform="translate(0,0)"/>
<path d="" fill="#CF7B96" transform="translate(0,0)"/>
<path d="" fill="#D07C97" transform="translate(0,0)"/>
<path d="" fill="#7E1A4B" transform="translate(0,0)"/>
<path d="" fill="#7E1A4B" transform="translate(0,0)"/>
<path d="" fill="#7E1A4B" transform="translate(0,0)"/>
<path d="" fill="#D07C97" transform="translate(0,0)"/>
<path d="" fill="#CF7B97" transform="translate(0,0)"/>
<path d="" fill="#7E1B4B" transform="translate(0,0)"/>
<path d="" fill="#7D1B4B" transform="translate(0,0)"/>
<path d="" fill="#7D1A4B" transform="translate(0,0)"/>
<path d="" fill="#7E1B4B" transform="translate(0,0)"/>
<path d="" fill="#7E1B4B" transform="translate(0,0)"/>
<path d="" fill="#7E1B4B" transform="translate(0,0)"/>
<path d="" fill="#7D1B4A" transform="translate(0,0)"/>
<path d="" fill="#7E1B4B" transform="translate(0,0)"/>
<path d="" fill="#D07C97" transform="translate(0,0)"/>
<path d="" fill="#D07C97" transform="translate(0,0)"/>
<path d="" fill="#7E1B4B" transform="translate(0,0)"/>
<path d="" fill="#7E1A4A" transform="translate(0,0)"/>
<path d="" fill="#7D1A4A" transform="translate(0,0)"/>
<path d="" fill="#7D1A4A" transform="translate(0,0)"/>
<path d="" fill="#7E1B4B" transform="translate(0,0)"/>
<path d="" fill="#7E1B4B" transform="translate(0,0)"/>
<path d="" fill="#7E1B4B" transform="translate(0,0)"/>
<path d="" fill="#7E1B4B" transform="translate(0,0)"/>
<path d="" fill="#7E1B4A" transform="translate(0,0)"/>
<path d="" fill="#7E1B4B" transform="translate(0,0)"/>
<path d="" fill="#D07C97" transform="translate(0,0)"/>
<path d="" fill="#7D1B4B" transform="translate(0,0)"/>
<path d="" fill="#7D1B4B" transform="translate(0,0)"/>
<path d="" fill="#7E1B4B" transform="translate(0,0)"/>
<path d="" fill="#7D1B4A" transform="translate(0,0)"/>
<path d="" fill="#7E1B4B" transform="translate(0,0)"/>
<path d="" fill="#7D1B4A" transform="translate(0,0)"/>
<path d="" fill="#7D1A4A" transform="translate(0,0)"/>
<path d="" fill="#7E1B4B" transform="translate(0,0)"/>
<path d="" fill="#CB7692" transform="translate(0,0)"/>
<path d="" fill="#7E1B4B" transform="translate(0,0)"/>
<path d="" fill="#7D1B4B" transform="translate(0,0)"/>
<path d="" fill="#7D1A4B" transform="translate(0,0)"/>
<path d="" fill="#7D1A4A" transform="translate(0,0)"/>
<path d="" fill="#7E1B4A" transform="translate(0,0)"/>
<path d="" fill="#7E1A4B" transform="translate(0,0)"/>
<path d="" fill="#7D1A4B" transform="translate(0,0)"/>
<path d="" fill="#7E1B4B" transform="translate(0,0)"/>
<path d="" fill="#7E1B4B" transform="translate(0,0)"/>
<path d="" fill="#D07C97" transform="translate(0,0)"/>
<path d="" fill="#7E1B4B" transform="translate(0,0)"/>
<path d="" fill="#7E1B4B" transform="translate(0,0)"/>
<path d="" fill="#7E1A4B" transform="translate(0,0)"/>
<path d="" fill="#7E1B4B" transform="translate(0,0)"/>
<path d="" fill="#7E1B4B" transform="translate(0,0)"/>
<path d="" fill="#7E1B4B" transform="translate(0,0)"/>
<path d="" fill="#7D1B4B" transform="translate(0,0)"/>
<path d="" fill="#7D1B4B" transform="translate(0,0)"/>
<path d="" fill="#7D1A4B" transform="translate(0,0)"/>
<path d="" fill="#D07C97" transform="translate(0,0)"/>
<path d="" fill="#7E1B4B" transform="translate(0,0)"/>
<path d="" fill="#7E1B4B" transform="translate(0,0)"/>
<path d="" fill="#7D1B4B" transform="translate(0,0)"/>
<path d="" fill="#7E1B4B" transform="translate(0,0)"/>
<path d="" fill="#7E1A4B" transform="translate(0,0)"/>
<path d="" fill="#7E1B4B" transform="translate(0,0)"/>
<path d="" fill="#7E1B4B" transform="translate(0,0)"/>
<path d="" fill="#7D1A4A" transform="translate(0,0)"/>
<path d="" fill="#D07B97" transform="translate(0,0)"/>
<path d="" fill="#7E1B4B" transform="translate(0,0)"/>
<path d="" fill="#7E1B4B" transform="translate(0,0)"/>
<path d="" fill="#7D1A4B" transform="translate(0,0)"/>
<path d="" fill="#7D1B4A" transform="translate(0,0)"/>
<path d="" fill="#7E1B4B" transform="translate(0,0)"/>
<path d="" fill="#7E1B4B" transform="translate(0,0)"/>
<path d="" fill="#7E1A4B" transform="translate(0,0)"/>
<path d="" fill="#D17E98" transform="translate(0,0)"/>
<path d="" fill="#7E1B4B" transform="translate(0,0)"/>
<path d="" fill="#7D1A4A" transform="translate(0,0)"/>
<path d="" fill="#7D1A4B" transform="translate(0,0)"/>
<path d="" fill="#7D1A4A" transform="translate(0,0)"/>
<path d="" fill="#7D1B4B" transform="translate(0,0)"/>
<path d="" fill="#7E1B4B" transform="translate(0,0)"/>
<path d="" fill="#7E1B4B" transform="translate(0,0)"/>
<path d="" fill="#7D1B4A" transform="translate(0,0)"/>
<path d="" fill="#7D1B4B" transform="translate(0,0)"/>
<path d="" fill="#CC7793" transform="translate(0,0)"/>
<path d="" fill="#7E1A4B" transform="translate(0,0)"/>
<path d="" fill="#7E1B4B" transform="translate(0,0)"/>
<path d="" fill="#7E1B4B" transform="translate(0,0)"/>
<path d="" fill="#7E1B4A" transform="translate(0,0)"/>
<path d="" fill="#7E1B4B" transform="translate(0,0)"/>
<path d="" fill="#7D1B4B" transform="translate(0,0)"/>
<path d="" fill="#7D1B4B" transform="translate(0,0)"/>
<path d="" fill="#7D1A4B" transform="translate(0,0)"/>
<path d="" fill="#7E1B4B" transform="translate(0,0)"/>
<path d="" fill="#7E1B4A" transform="translate(0,0)"/>
<path d="" fill="#7D1B4B" transform="translate(0,0)"/>
<path d="" fill="#7E1B4B" transform="translate(0,0)"/>
<path d="" fill="#7D1A4A" transform="translate(0,0)"/>
<path d="" fill="#7E1B4B" transform="translate(0,0)"/>
<path d="" fill="#7D1A4A" transform="translate(0,0)"/>
<path d="" fill="#7E1B4B" transform="translate(0,0)"/>
<path d="" fill="#7E1B4B" transform="translate(0,0)"/>
<path d="" fill="#7E1B4B" transform="translate(0,0)"/>
<path d="" fill="#7E1B4B" transform="translate(0,0)"/>
<path d="" fill="#7D1A4A" transform="translate(0,0)"/>
<path d="" fill="#7E1B4B" transform="translate(0,0)"/>
<path d="" fill="#7E1B4B" transform="translate(0,0)"/>
<path d="" fill="#7E1B4B" transform="translate(0,0)"/>
<path d="" fill="#7E1B4B" transform="translate(0,0)"/>
<path d="" fill="#7E1B4B" transform="translate(0,0)"/>
<path d="" fill="#7E1B4B" transform="translate(0,0)"/>
<path d="" fill="#7E1B4B" transform="translate(0,0)"/>
<path d="" fill="#7E1B4B" transform="translate(0,0)"/>
<path d="" fill="#7E1B4B" transform="translate(0,0)"/>
<path d="" fill="#7E1B4B" transform="translate(0,0)"/>
<path d="" fill="#7E1B4B" transform="translate(0,0)"/>
<path d="" fill="#7D1B4B" transform="translate(0,0)"/>
<path d="" fill="#7E1A4A" transform="translate(0,0)"/>
<path d="" fill="#7E1B4B" transform="translate(0,0)"/>
<path d="" fill="#7E1B4B" transform="translate(0,0)"/>
<path d="" fill="#7E1B4B" transform="translate(0,0)"/>
<path d="" fill="#7D1A4A" transform="translate(0,0)"/>
<path d="" fill="#7E1B4B" transform="translate(0,0)"/>
<path d="" fill="#7D1A4B" transform="translate(0,0)"/>
<path d="" fill="#7D1A4A" transform="translate(0,0)"/>
<path d="" fill="#B75E7F" transform="translate(0,0)"/>
<path d="" fill="#700A3E" transform="translate(0,0)"/>
<path d="" fill="#7E1B4B" transform="translate(0,0)"/>
<path d="" fill="#7E1B4B" transform="translate(0,0)"/>
<path d="" fill="#650034" transform="translate(0,0)"/>
<path d="" fill="#7E1B4B" transform="translate(0,0)"/>
<path d="" fill="#8C2C58" transform="translate(0,0)"/>
<path d="" fill="#7E1B4B" transform="translate(0,0)"/>
<path d="" fill="#7E1B4B" transform="translate(0,0)"/>
<path d="" fill="#7E1B4B" transform="translate(0,0)"/>
<path d="" fill="#7D1B4B" transform="translate(0,0)"/>
<path d="" fill="#7E1B4B" transform="translate(0,0)"/>
<path d="" fill="#7E1B4B" transform="translate(0,0)"/>
<path d="" fill="#7E1B4B" transform="translate(0,0)"/>
<path d="" fill="#7E1B4B" transform="translate(0,0)"/>
<path d="" fill="#7E1B4B" transform="translate(0,0)"/>
<path d="" fill="#7E1B4B" transform="translate(0,0)"/>
<path d="" fill="#7E1B4B" transform="translate(0,0)"/>
<path d="" fill="#7E1B4B" transform="translate(0,0)"/>
<path d="" fill="#7E1B4B" transform="translate(0,0)"/>
<path d="" fill="#7E1B4B" transform="translate(0,0)"/>
<path d="" fill="#7D1B4B" transform="translate(0,0)"/>
<path d="" fill="#D07C97" transform="translate(0,0)"/>
<path d="" fill="#7D1B4B" transform="translate(0,0)"/>
<path d="" fill="#7D1B4B" transform="translate(0,0)"/>
<path d="" fill="#7E1B4B" transform="translate(0,0)"/>
<path d="" fill="#7E1B4B" transform="translate(0,0)"/>
<path d="" fill="#7E1B4B" transform="translate(0,0)"/>
<path d="" fill="#7E1A4A" transform="translate(0,0)"/>
<path d="" fill="#7E1A4B" transform="translate(0,0)"/>
<path d="" fill="#D07C97" transform="translate(0,0)"/>
<path d="" fill="#D07C97" transform="translate(0,0)"/>
<path d="" fill="#D07B96" transform="translate(0,0)"/>
<path d="" fill="#CF7B96" transform="translate(0,0)"/>
<path d="" fill="#7D1B4B" transform="translate(0,0)"/>
<path d="" fill="#D07C97" transform="translate(0,0)"/>
<path d="" fill="#7D1A4A" transform="translate(0,0)"/>
<path d="" fill="#D07C97" transform="translate(0,0)"/>
<path d="" fill="#D07C97" transform="translate(0,0)"/>
<path d="" fill="#7E1B4B" transform="translate(0,0)"/>
<path d="" fill="#7E1B4B" transform="translate(0,0)"/>
<path d="" fill="#D07C97" transform="translate(0,0)"/>
<path d="" fill="#7D1B4B" transform="translate(0,0)"/>
<path d="" fill="#7E1A4B" transform="translate(0,0)"/>
<path d="" fill="#7E1B4B" transform="translate(0,0)"/>
<path d="" fill="#7D1B4B" transform="translate(0,0)"/>
<path d="" fill="#7E1B4B" transform="translate(0,0)"/>
<path d="" fill="#CF7B97" transform="translate(0,0)"/>
<path d="" fill="#D07B97" transform="translate(0,0)"/>
<path d="" fill="#7E1A4A" transform="translate(0,0)"/>
<path d="" fill="#CF7C96" transform="translate(0,0)"/>
<path d="" fill="#7E1B4B" transform="translate(0,0)"/>
<path d="" fill="#7E1B4B" transform="translate(0,0)"/>
<path d="" fill="#7E1B4B" transform="translate(0,0)"/>
<path d="" fill="#D07B96" transform="translate(0,0)"/>
<path d="" fill="#7E1B4B" transform="translate(0,0)"/>
<path d="" fill="#D07C97" transform="translate(0,0)"/>
<path d="" fill="#7E1B4B" transform="translate(0,0)"/>
<path d="" fill="#7E1A4B" transform="translate(0,0)"/>
<path d="" fill="#D07B97" transform="translate(0,0)"/>
<path d="" fill="#D07C97" transform="translate(0,0)"/>
<path d="" fill="#D07C97" transform="translate(0,0)"/>
<path d="" fill="#7D1B4B" transform="translate(0,0)"/>
<path d="" fill="#7D1A4A" transform="translate(0,0)"/>
<path d="" fill="#D07C97" transform="translate(0,0)"/>
<path d="" fill="#D07C97" transform="translate(0,0)"/>
<path d="" fill="#CF7B96" transform="translate(0,0)"/>
<path d="" fill="#D07C97" transform="translate(0,0)"/>
<path d="" fill="#7E1B4B" transform="translate(0,0)"/>
<path d="" fill="#D07C97" transform="translate(0,0)"/>
<path d="" fill="#D07C97" transform="translate(0,0)"/>
<path d="" fill="#D07B97" transform="translate(0,0)"/>
<path d="" fill="#CF7B97" transform="translate(0,0)"/>
<path d="" fill="#CF7B97" transform="translate(0,0)"/>
<path d="" fill="#D07C97" transform="translate(0,0)"/>
<path d="" fill="#7E1B4B" transform="translate(0,0)"/>
<path d="" fill="#CF7B96" transform="translate(0,0)"/>
<path d="" fill="#7E1B4B" transform="translate(0,0)"/>
<path d="" fill="#D07C97" transform="translate(0,0)"/>
<path d="" fill="#7E1B4B" transform="translate(0,0)"/>
<path d="" fill="#D07B96" transform="translate(0,0)"/>
<path d="" fill="#7E1A4B" transform="translate(0,0)"/>
<path d="" fill="#D07C97" transform="translate(0,0)"/>
<path d="" fill="#7E1A4B" transform="translate(0,0)"/>
<path d="" fill="#CF7B96" transform="translate(0,0)"/>
<path d="" fill="#7E1A4B" transform="translate(0,0)"/>
<path d="" fill="#D07C97" transform="translate(0,0)"/>
<path d="" fill="#7D1B4A" transform="translate(0,0)"/>
<path d="" fill="#CF7B96" transform="translate(0,0)"/>
<path d="" fill="#7E1B4B" transform="translate(0,0)"/>
<path d="" fill="#D07B97" transform="translate(0,0)"/>
<path d="" fill="#7E1B4B" transform="translate(0,0)"/>
<path d="" fill="#D07C97" transform="translate(0,0)"/>
<path d="" fill="#7E1B4B" transform="translate(0,0)"/>
<path d="" fill="#D07B97" transform="translate(0,0)"/>
<path d="" fill="#7E1B4B" transform="translate(0,0)"/>
<path d="" fill="#7E1B4B" transform="translate(0,0)"/>
<path d="" fill="#CF7B97" transform="translate(0,0)"/>
<path d="" fill="#7E1B4B" transform="translate(0,0)"/>
<path d="" fill="#CF7B96" transform="translate(0,0)"/>
<path d="" fill="#D07C97" transform="translate(0,0)"/>
<path d="" fill="#D07C97" transform="translate(0,0)"/>
<path d="" fill="#D07C97" transform="translate(0,0)"/>
<path d="" fill="#7E1B4B" transform="translate(0,0)"/>
<path d="" fill="#7E1B4B" transform="translate(0,0)"/>
<path d="" fill="#7E1B4B" transform="translate(0,0)"/>
<path d="" fill="#7E1B4B" transform="translate(0,0)"/>
<path d="" fill="#7E1B4B" transform="translate(0,0)"/>
<path d="" fill="#7E1B4B" transform="translate(0,0)"/>
<path d="" fill="#7E1B4B" transform="translate(0,0)"/>
<path d="" fill="#7E1A4B" transform="translate(0,0)"/>
<path d="" fill="#7E1B4B" transform="translate(0,0)"/>
<path d="" fill="#7E1B4B" transform="translate(0,0)"/>
<path d="" fill="#7E1B4B" transform="translate(0,0)"/>
<path d="" fill="#7E1B4B" transform="translate(0,0)"/>
<path d="" fill="#7E1B4B" transform="translate(0,0)"/>
</svg>
