<svg width="38" height="27" viewBox="0 0 38 27" fill="none" xmlns="http://www.w3.org/2000/svg">
<ellipse cx="18.75" cy="13.5" rx="18.75" ry="13.5" fill="#A8BEDB"/>
<path d="M32.625 13.5C32.625 16.2521 31.1119 18.7747 28.6038 20.6227C26.0959 22.4707 22.6133 23.625 18.75 23.625C14.8867 23.625 11.4041 22.4707 8.89618 20.6227C6.38811 18.7747 4.875 16.2521 4.875 13.5C4.875 10.7479 6.38811 8.22533 8.89618 6.37727C11.4041 4.52933 14.8867 3.375 18.75 3.375C22.6133 3.375 26.0959 4.52933 28.6038 6.37727C31.1119 8.22533 32.625 10.7479 32.625 13.5Z" stroke="url(#paint0_linear_1895_881)" stroke-width="0.75"/>
<path d="M15.516 15.862H18.444V16.75H14.424V8.386H15.516V15.862ZM22.2077 8.386C23.1197 8.386 23.9077 8.558 24.5717 8.902C25.2437 9.238 25.7557 9.722 26.1077 10.354C26.4677 10.986 26.6477 11.73 26.6477 12.586C26.6477 13.442 26.4677 14.186 26.1077 14.818C25.7557 15.442 25.2437 15.922 24.5717 16.258C23.9077 16.586 23.1197 16.75 22.2077 16.75H19.6037V8.386H22.2077ZM22.2077 15.85C23.2877 15.85 24.1117 15.566 24.6797 14.998C25.2477 14.422 25.5317 13.618 25.5317 12.586C25.5317 11.546 25.2437 10.734 24.6677 10.15C24.0997 9.566 23.2797 9.274 22.2077 9.274H20.6957V15.85H22.2077Z" fill="white"/>
<circle cx="19.125" cy="3.375" r="3.375" fill="url(#paint1_radial_1895_881)"/>
<g opacity="0.7">
<path d="M20.9453 1.22559L16.2427 5.96517" stroke="white" stroke-opacity="0.5" stroke-width="0.45" stroke-linecap="round"/>
<path d="M20.9453 1.22559L16.2427 5.96517" stroke="white" stroke-opacity="0.5" stroke-width="0.45" stroke-linecap="round"/>
</g>
<g opacity="0.7">
<path d="M16.2246 1.24414L20.9642 5.94674" stroke="white" stroke-opacity="0.5" stroke-width="0.45" stroke-linecap="round"/>
<path d="M16.2246 1.24414L20.9642 5.94674" stroke="white" stroke-opacity="0.5" stroke-width="0.45" stroke-linecap="round"/>
</g>
<defs>
<linearGradient id="paint0_linear_1895_881" x1="18.75" y1="3" x2="18.75" y2="24" gradientUnits="userSpaceOnUse">
<stop stop-color="white"/>
<stop offset="0.661428" stop-color="#A8BEDB"/>
</linearGradient>
<radialGradient id="paint1_radial_1895_881" cx="0" cy="0" r="1" gradientUnits="userSpaceOnUse" gradientTransform="translate(19.125 3.375) rotate(90) scale(3.375)">
<stop stop-color="white"/>
<stop offset="1" stop-color="white" stop-opacity="0"/>
</radialGradient>
</defs>
</svg>
