<svg width="40" height="24" viewBox="0 0 40 24" fill="none" xmlns="http://www.w3.org/2000/svg">
<path fill-rule="evenodd" clip-rule="evenodd" d="M31.204 2.85593V8.7826C31.204 8.84204 31.1561 8.89011 31.0967 8.89011L30.2906 8.8898V2.74858L31.0967 2.74842C31.1561 2.74858 31.204 2.79649 31.204 2.85593ZM29.2836 1.7041H31.0965C31.7328 1.7041 32.2484 2.21981 32.2484 2.85593V8.93618C32.2484 9.5723 31.7328 10.088 31.0965 10.088H29.2836L29.2461 10.0874V1.70472L29.2836 1.7041Z" fill="black"/>
<path fill-rule="evenodd" clip-rule="evenodd" d="M26.71 1.08886H31.2328L37.6322 5.38317L26.71 15.4583V1.08886ZM25.6211 17.9439L39.3848 5.24787L31.5642 0H25.6211V17.9439Z" fill="black"/>
<path d="M6.71191 9.95776V6.40184H9.58334L9.57873 12.602L12.246 15.0625V1.08886H9.58733L9.5841 5.3844H6.71191V2.05516L1.75262 5.38317L6.71191 9.95776ZM8.49371 7.62892C8.48419 7.54983 8.42583 7.49132 8.35365 7.49132H7.92394C7.85191 7.49132 7.7934 7.54983 7.7934 7.62201V12.4366L0 5.24787L7.80077 0.0132076V4.26559H8.49601L8.49924 0H13.3349V17.5481L8.48956 13.0786L8.49371 7.62892Z" fill="black"/>
<path d="M17.7779 20.1649V6.26025L19.6281 6.25963C20.2644 6.25963 20.78 6.77519 20.78 7.41146V20.9282L23.6373 18.2927L23.6374 7.05163C23.4734 6.90296 22.4283 6.0821 22.4283 6.0821C22.4283 6.0821 23.4901 5.10013 23.6139 4.96544L23.6374 4.93979V1.33489C23.6078 1.27146 23.5775 1.21111 23.5659 1.19851C23.5496 1.18116 23.4456 1.13109 23.3513 1.08886H15.1712V17.7604L17.7779 20.1649ZM18.945 7.46859V22.723L14.082 18.2372L14.0917 0.000153577H23.3903L23.5649 0C23.5649 0 24.1166 0.19366 24.3609 0.45474C24.5612 0.668673 24.7263 1.11097 24.7263 1.11097V5.23558C24.7263 5.44091 24.1051 6.01422 24.1051 6.01422C24.1051 6.01422 24.7263 6.49952 24.7263 6.75584L24.7261 18.7697L19.6994 23.406V7.46859C19.6994 7.39641 19.6409 7.33789 19.5687 7.33789H19.0757C19.0035 7.33789 18.945 7.39641 18.945 7.46859Z" fill="black"/>
</svg>
