<svg width="26" height="33" viewBox="0 0 26 33" fill="none" xmlns="http://www.w3.org/2000/svg">
<path d="M3.66122 32.7061H22.3333V32.9997H3.66122V32.7061Z" fill="black"/>
<path d="M3.66122 0H22.3333V0.293645H3.66122V0Z" fill="black"/>
<path d="M3.54941 0.0556641L3.787 0.237445L0.265029 4.80992L0.0274353 4.62814L3.54941 0.0556641Z" fill="black"/>
<path d="M0.265029 28.1904L3.77302 32.7629L3.53543 32.9447L0.0274353 28.3722L0.265029 28.1904Z" fill="black"/>
<path d="M25.7149 28.1904L25.9525 28.3722L22.4445 32.9447L22.2069 32.7629L25.7149 28.1904Z" fill="black"/>
<path d="M22.4445 0.0556641L25.9525 4.62814L25.7149 4.80992L22.2069 0.237445L22.4445 0.0556641Z" fill="black"/>
<path d="M-6.10352e-05 4.72656H0.293436V28.2741H-6.10352e-05V4.72656Z" fill="black"/>
<path d="M25.6884 4.72656H25.9819V28.2741H25.6884V4.72656Z" fill="black"/>
<path d="M3.66122 32.7061H22.3333V32.9997H3.66122V32.7061Z" fill="black"/>
<path d="M3.66122 0H22.3333V0.293645H3.66122V0Z" fill="black"/>
<path d="M3.54941 0.0556641L3.787 0.237445L0.265029 4.80992L0.0274353 4.62814L3.54941 0.0556641Z" fill="black"/>
<path d="M0.265029 28.1904L3.77302 32.7629L3.53543 32.9447L0.0274353 28.3722L0.265029 28.1904Z" fill="black"/>
<path d="M22.4445 0.0556641L25.9525 4.62814L25.7149 4.80992L22.2069 0.237445L22.4445 0.0556641Z" fill="black"/>
<path d="M-6.10352e-05 4.72656H0.293436V28.2741H-6.10352e-05V4.72656Z" fill="black"/>
<path d="M25.6884 4.72656H25.9819V28.2741H25.6884V4.72656Z" fill="black"/>
<path d="M23.8721 26.498L24.1097 26.6798L21.1049 30.5951L20.8673 30.4133L23.8721 26.498Z" fill="black"/>
<path d="M5.00302 30.3438H20.9917V30.6374H5.00302V30.3438Z" fill="black"/>
<path d="M5.00302 2.34961H20.9917V2.65724H5.00302V2.34961Z" fill="black"/>
<path d="M4.89048 2.4043L5.12807 2.58608L2.12321 6.50135L1.88562 6.31957L4.89048 2.4043Z" fill="black"/>
<path d="M2.12321 26.498L5.12807 30.4133L4.89048 30.5951L1.88562 26.6798L2.12321 26.498Z" fill="black"/>
<path d="M21.1049 2.4043L24.1097 6.31957L23.8721 6.50135L20.8673 2.58608L21.1049 2.4043Z" fill="black"/>
<path d="M1.84329 6.41797H2.13679V26.5816H1.84329V6.41797Z" fill="black"/>
<path d="M23.845 6.41797H24.1385V26.5816H23.845V6.41797Z" fill="black"/>
<path d="M21.6923 24.4844L21.9299 24.6662L19.526 27.7984L19.2885 27.6166L21.6923 24.4844Z" fill="black"/>
<path d="M6.5957 27.5615H19.3978V27.8552H6.5957V27.5615Z" fill="black"/>
<path d="M6.5957 5.13184H12.9967H19.3978V5.42548H6.5957V5.13184Z" fill="black"/>
<path d="M6.48662 5.20215L6.72421 5.38393L4.30635 8.51615L4.06876 8.33437L6.48662 5.20215Z" fill="black"/>
<path d="M4.30635 24.4844L6.71024 27.6166L6.47264 27.7984L4.06876 24.6662L4.30635 24.4844Z" fill="black"/>
<path d="M19.5103 5.20215L21.9142 8.33437L21.6766 8.51615L19.2727 5.38393L19.5103 5.20215Z" fill="black"/>
<path d="M4.03912 8.43164H4.33262V24.5821H4.03912V8.43164Z" fill="black"/>
<path d="M21.6494 8.43164H21.9429V24.5821H21.6494V8.43164Z" fill="black"/>
<path d="M19.5265 27.6309L22.4615 32.7627L22.1959 32.9165L19.261 27.7847L19.5265 27.6309Z" fill="black"/>
<path d="M22.2086 0.0703125L22.4742 0.224127L19.5392 5.35593L19.2737 5.20212L22.2086 0.0703125Z" fill="black"/>
<path d="M3.78709 0.0703125L6.72207 5.20212L6.45652 5.35593L3.52155 0.224127L3.78709 0.0703125Z" fill="black"/>
<path d="M6.47135 27.6309L6.7369 27.7847L3.80192 32.9165L3.53638 32.7627L6.47135 27.6309Z" fill="black"/>
<path d="M21.901 24.4707L25.9401 28.1762L25.7444 28.4L21.7054 24.6944L21.901 24.4707Z" fill="black"/>
<path d="M25.7444 4.61426L25.9401 4.83799L21.901 8.52953L21.7054 8.3058L25.7444 4.61426Z" fill="black"/>
<path d="M0.250627 4.61426L4.28971 8.31978L4.09405 8.52953L0.0549622 4.83799L0.250627 4.61426Z" fill="black"/>
<path d="M4.09405 24.457L4.28971 24.6808L0.250627 28.3863L0.0549622 28.1626L4.09405 24.457Z" fill="black"/>
</svg>
