<svg width="24" height="33" viewBox="0 0 24 33" fill="none" xmlns="http://www.w3.org/2000/svg">
<path d="M11.9106 33C19.705 33 23.8212 28.9184 23.8212 21.1895C23.8212 9.72631 12.1733 0.130263 12.0858 -1.02594e-06L11.7355 -1.05657e-06C11.6479 0.0868405 4.78148e-05 9.68289 4.68089e-05 21.1895C4.61332e-05 28.9184 4.11619 33 11.9106 33ZM11.9106 9.16184L16.4209 13.2L18.3038 20.7553L16.4209 25.7053L11.8668 27.3553L7.31278 25.7053L5.42986 20.7553L7.31278 13.2L11.9106 9.16184ZM16.9025 12.8961L15.764 7.29473L20.2305 10.7684L20.2305 15.8921L16.9025 12.8961ZM18.6103 21.5368L20.1429 25.6184L17.0339 25.6184L18.6103 21.5368ZM18.6979 19.9303L17.1653 13.8513L20.2305 16.5434L18.6979 19.9303ZM15.1948 7.07763L16.2457 12.2882L12.3923 8.81447L15.1948 7.07763ZM8.62645 28.9184L7.66309 26.3132L11.2538 27.6158L8.62645 28.9184ZM11.9106 27.9197L15.4575 29.6132L12.6112 32.4355L8.4075 29.6132L11.9106 27.9197ZM15.2386 28.9184L12.6112 27.6158L16.2019 26.3132L15.2386 28.9184ZM5.16713 19.9303L3.63452 16.5434L6.69974 13.8513L5.16713 19.9303ZM5.2547 21.5368L6.78731 25.6184L3.67831 25.6184L5.2547 21.5368ZM7.6193 12.2882L8.67024 7.07763L11.5165 8.81447L7.6193 12.2882ZM6.91868 12.8961L3.54694 15.8487L3.54694 10.7684L8.0134 7.29473L6.91868 12.8961ZM4.94818 20.7553L3.24042 25.2711L0.61309 21.1461L3.28421 17.0211L4.94818 20.7553ZM7.00626 26.1395L8.14477 29.1355L4.8606 30.4816L3.67831 26.1395L7.00626 26.1395ZM8.4075 29.6132L12.6112 32.4355C10.2028 32.3487 6.8311 31.8276 5.21091 30.9158L8.4075 29.6132ZM15.4575 29.6132L18.6541 30.9158C17.0777 31.8276 15.0196 32.3487 12.6112 32.4355L15.4575 29.6132ZM15.7202 29.1355L16.8587 26.1395L20.1867 26.1395L19.0044 30.4816L15.7202 29.1355ZM20.6246 25.2711L18.9168 20.7553L20.6246 17.0211L23.2957 21.1461L20.6246 25.2711ZM20.9749 16.6303L22.5513 16.1526C22.9454 17.4553 23.1643 18.8447 23.2519 20.1908L20.9749 16.6303ZM20.7997 16.1092L20.7997 11.7671C21.4566 13.0263 21.982 14.3289 22.4199 15.6316L20.7997 16.1092ZM15.8078 6.64342L16.9025 5.81842C17.8659 6.99079 18.7855 8.25 19.5737 9.55263L15.8078 6.64342ZM11.9106 8.4671L8.8016 6.55658L11.9106 0.825L15.0196 6.55658L11.9106 8.4671ZM4.29135 9.55263C5.07955 8.25 5.95533 7.03421 6.91868 5.81842L8.0134 6.64342L4.29135 9.55263ZM3.02148 16.1092L1.44508 15.6316C1.88297 14.2855 2.40843 13.0263 3.02148 11.7671L3.02148 16.1092ZM2.89011 16.6303L0.61309 20.1908C0.700668 18.8013 0.919612 17.4553 1.31371 16.1526L2.89011 16.6303ZM0.569301 22.1447L3.02148 25.9658L4.15998 30.2211C1.97054 28.5276 0.744456 25.7921 0.569301 22.1447ZM19.6612 30.2211L20.7997 25.9658L23.2519 22.1447C23.0768 25.7921 21.8507 28.5276 19.6612 30.2211ZM16.596 5.38421L15.4575 6.20921L12.9178 1.43289C14.2314 2.6921 15.4575 3.99474 16.596 5.38421ZM10.9473 1.47632L8.4075 6.25263L7.26899 5.42763C8.4075 3.99473 9.63359 2.69211 10.9473 1.47632Z" fill="#212121"/>
</svg>
