<svg width="34" height="34" viewBox="0 0 34 34" fill="none" xmlns="http://www.w3.org/2000/svg">
<path d="M32.8807 25.96V7.88031L26.0488 1.02441" stroke="black" stroke-opacity="0.6" stroke-width="0.5" stroke-miterlimit="10"/>
<path d="M32.8773 26.0879V26.1199L26.0214 32.9998H7.98167L7.95767 32.9838" stroke="black" stroke-opacity="0.6" stroke-width="0.5" stroke-miterlimit="10"/>
<path d="M1.12891 7.91989V7.87989L7.9848 1H8.0168" stroke="black" stroke-opacity="0.6" stroke-width="0.5" stroke-miterlimit="10"/>
<path d="M26.0479 1.15193L26.0239 1.12793H8.01614" stroke="black" stroke-width="0.5" stroke-miterlimit="10"/>
<path d="M1.12904 8.04785V26.1196L7.96094 32.9835" stroke="black" stroke-opacity="0.6" stroke-width="0.5" stroke-miterlimit="10"/>
<path d="M3.35938 9.18414V9.15214L9.24728 3.24023H9.29528" stroke="black" stroke-opacity="0.6" stroke-width="0.5" stroke-miterlimit="10"/>
<path d="M30.6483 24.6875V24.7195L24.8164 30.5674" stroke="black" stroke-opacity="0.6" stroke-width="0.5" stroke-miterlimit="10"/>
<path d="M24.8156 30.6953L24.7516 30.7593H9.24787L9.23187 30.7433" stroke="black" stroke-width="0.5" stroke-miterlimit="10"/>
<path d="M9.29639 3.36719H24.7521L24.7761 3.38319" stroke="black" stroke-width="0.5" stroke-miterlimit="10"/>
<path d="M30.6468 24.8154V9.27963L30.5908 9.22363" stroke="black" stroke-width="0.5" stroke-miterlimit="10"/>
<path d="M3.35889 9.31152V24.8473L3.41489 24.9033" stroke="black" stroke-width="0.5" stroke-miterlimit="10"/>
<path d="M30.5913 9.09577L24.7754 3.25586" stroke="black" stroke-opacity="0.6" stroke-width="0.5" stroke-miterlimit="10"/>
<path d="M9.23327 30.7432L3.41736 24.9033" stroke="black" stroke-opacity="0.6" stroke-width="0.5" stroke-miterlimit="10"/>
<path d="M10.4217 5.23242H10.3737L5.3418 10.2883V10.3123" stroke="black" stroke-opacity="0.6" stroke-width="0.5" stroke-miterlimit="10"/>
<path d="M5.39114 23.7676L10.3591 28.7515" stroke="black" stroke-opacity="0.6" stroke-width="0.5" stroke-miterlimit="10"/>
<path d="M10.4234 5.36035H23.6232L23.6392 5.37635" stroke="black" stroke-width="0.5" stroke-miterlimit="10"/>
<path d="M23.6867 28.7119L23.6227 28.7679H10.3749L10.3589 28.7519" stroke="black" stroke-width="0.5" stroke-miterlimit="10"/>
<path d="M28.6165 10.24L23.6406 5.24805" stroke="black" stroke-opacity="0.6" stroke-width="0.5" stroke-miterlimit="10"/>
<path d="M23.6875 28.7114L28.6635 23.7115V23.6875" stroke="black" stroke-opacity="0.6" stroke-width="0.5" stroke-miterlimit="10"/>
<path d="M5.39076 23.7592L5.34276 23.7112V10.4395" stroke="black" stroke-width="0.5" stroke-miterlimit="10"/>
<path d="M28.665 23.687V10.4152L28.617 10.3672" stroke="black" stroke-width="0.5" stroke-miterlimit="10"/>
<path d="M11.6956 7.59961H22.3594L22.3674 7.61561" stroke="black" stroke-width="0.5" stroke-miterlimit="10"/>
<path d="M22.4153 26.472L26.4313 22.44V22.416" stroke="black" stroke-opacity="0.6" stroke-width="0.5" stroke-miterlimit="10"/>
<path d="M26.3931 11.5202L22.3691 7.48828" stroke="black" stroke-opacity="0.6" stroke-width="0.5" stroke-miterlimit="10"/>
<path d="M26.4312 22.4153V11.6875L26.3912 11.6475" stroke="black" stroke-width="0.5" stroke-miterlimit="10"/>
<path d="M11.6329 26.5114L7.61696 22.4795" stroke="black" stroke-opacity="0.6" stroke-width="0.5" stroke-miterlimit="10"/>
<path d="M11.6961 7.47168H11.6481L7.57617 11.5596V11.5836" stroke="black" stroke-opacity="0.6" stroke-width="0.5" stroke-miterlimit="10"/>
<path d="M7.57663 11.7119V22.4397L7.61663 22.4797" stroke="black" stroke-width="0.5" stroke-miterlimit="10"/>
<path d="M22.4149 26.4717L22.3589 26.5277H11.6471L11.6311 26.5117" stroke="black" stroke-width="0.5" stroke-miterlimit="10"/>
<path d="M23.6875 28.7119L24.8155 30.6959" stroke="black" stroke-width="0.5" stroke-miterlimit="10"/>
<path d="M10.4244 5.35916L9.29639 3.36719" stroke="black" stroke-width="0.5" stroke-miterlimit="10"/>
<path d="M22.4153 26.4717L23.6873 28.7116" stroke="black" stroke-width="0.5" stroke-miterlimit="10"/>
<path d="M7.95163 1L8.01563 1.128" stroke="black" stroke-width="0.5" stroke-miterlimit="10"/>
<path d="M26.0565 32.8793L24.8166 30.6953" stroke="black" stroke-width="0.5" stroke-miterlimit="10"/>
<path d="M9.29612 3.36789L8.01614 1.12793" stroke="black" stroke-width="0.5" stroke-miterlimit="10"/>
<path d="M10.4234 5.36035L11.6954 7.60032" stroke="black" stroke-width="0.5" stroke-miterlimit="10"/>
<path d="M7.95938 32.9834L7.95163 32.9989" stroke="black" stroke-width="0.5" stroke-miterlimit="10"/>
<path d="M22.369 7.61594L23.641 5.37598" stroke="black" stroke-width="0.5" stroke-miterlimit="10"/>
<path d="M9.23187 30.7439L10.3599 28.752" stroke="black" stroke-width="0.5" stroke-miterlimit="10"/>
<path d="M10.3589 28.7517L11.6309 26.5117" stroke="black" stroke-width="0.5" stroke-miterlimit="10"/>
<path d="M24.7771 3.38379L23.6412 5.37576" stroke="black" stroke-width="0.5" stroke-miterlimit="10"/>
<path d="M26.0562 1.12793L26.0484 1.15118" stroke="black" stroke-width="0.5" stroke-miterlimit="10"/>
<path d="M9.22965 30.7441L7.95767 32.9841" stroke="black" stroke-width="0.5" stroke-miterlimit="10"/>
<path d="M24.7762 3.38431L26.0482 1.15234" stroke="black" stroke-width="0.5" stroke-miterlimit="10"/>
<path d="M3.41597 24.9033L1.248 26.1513" stroke="black" stroke-width="0.5" stroke-miterlimit="10"/>
<path d="M5.39114 23.7675L7.61511 22.4795" stroke="black" stroke-width="0.5" stroke-miterlimit="10"/>
<path d="M3.41736 24.9036L5.39333 23.7676" stroke="black" stroke-width="0.5" stroke-miterlimit="10"/>
<path d="M30.5908 9.22357L32.7507 7.97559" stroke="black" stroke-width="0.5" stroke-miterlimit="10"/>
<path d="M28.617 10.3676L30.5929 9.22363" stroke="black" stroke-width="0.5" stroke-miterlimit="10"/>
<path d="M28.6151 10.3672L26.3912 11.6472" stroke="black" stroke-width="0.5" stroke-miterlimit="10"/>
<path d="M5.34276 10.4395L7.57472 11.7114" stroke="black" stroke-width="0.5" stroke-miterlimit="10"/>
<path d="M30.6473 24.8155L28.6633 23.6875" stroke="black" stroke-width="0.5" stroke-miterlimit="10"/>
<path d="M30.6472 24.8154L32.8792 26.0874" stroke="black" stroke-width="0.5" stroke-miterlimit="10"/>
<path d="M1.12801 8.04758L1.00002 7.97559" stroke="black" stroke-width="0.5" stroke-miterlimit="10"/>
<path d="M3.35889 9.31152L5.34286 10.4395" stroke="black" stroke-width="0.5" stroke-miterlimit="10"/>
<path d="M28.6634 23.6878L26.4315 22.4238" stroke="black" stroke-width="0.5" stroke-miterlimit="10"/>
<path d="M3.36101 9.31183L1.12904 8.04785" stroke="black" stroke-width="0.5" stroke-miterlimit="10"/>
<path d="M32.9991 26.1519L32.8791 26.0879" stroke="black" stroke-width="0.5" stroke-miterlimit="10"/>
</svg>
