<svg width="28" height="28" viewBox="0 0 28 28" fill="none" xmlns="http://www.w3.org/2000/svg">
<path d="M27.6994 0H0.300613L0 0.300613V27.6994L0.300613 28H27.6994L28 27.6994V0.300613L27.6994 0ZM27.3988 19.6258H25.3804V8.37423H27.3988V19.6258ZM0.601227 8.37423H3.22086V19.6687H0.601227V8.37423ZM8.37423 3.90798L13.227 5.7546L8.37423 7.60123V3.90798ZM5.45399 14L3.77914 18.3804V9.61963L5.45399 14ZM3.95092 8.37423H7.68712L5.79755 13.227L3.95092 8.37423ZM5.79755 14.816L7.64417 19.6687H3.90798L5.79755 14.816ZM8.37423 20.3558L13.227 22.2025L8.37423 24.0491V20.3558ZM8.28834 19.7117L6.09816 14L8.28834 8.28834L14 6.09816L19.7117 8.28834L21.9018 14L19.7117 19.7117L14 21.9018L8.28834 19.7117ZM19.6687 7.64417L14.816 5.79755L19.6687 3.95092V7.64417ZM19.6687 20.3558V24.092L14.816 22.2454L19.6687 20.3558ZM22.2454 14.816L24.5778 19.6687H20.3558L22.2454 14.816ZM22.546 14L24.7892 8.71111V18.9778L22.546 14ZM22.2454 13.184L20.3558 8.33129H24.092L22.2454 13.184ZM14 5.45399L9.61963 3.77914H18.3804L14 5.45399ZM7.77301 7.77301H3.2638L0.773006 0.858896L7.77301 3.7362V7.77301ZM7.77301 20.227V24.3067L0.773006 27.184L3.22086 20.227H7.77301ZM14 22.546L18.3804 24.2209H9.61963L14 22.546ZM20.227 20.227H24.7362L27.184 27.184L20.227 24.3067V20.227ZM20.227 7.77301V3.69325L27.227 0.815951L24.7791 7.77301H20.227ZM20.227 3.09203V0.601227H26.2393L20.227 3.09203ZM19.6258 3.22086H8.37423V0.601227H20.227V3.09203L19.6258 3.22086ZM8.37423 3.22086L1.76074 0.601227L8.37423 0.605208V3.22086ZM2.61963 7.77301H0.601227V1.97546L2.61963 7.77301ZM0.601227 20.227H2.61963L0.601227 26.0245V20.227ZM7.77301 24.9509V27.4417H1.76074L7.77301 24.9509ZM7.77301 24.9509L19.6687 24.7791V27.3988L7.77301 27.4417V24.9509ZM19.6687 24.7791L26.2393 27.4417L19.6687 27.3988V24.7791ZM25.3804 20.227H27.4417V26.0245L25.3804 20.227ZM27.3988 7.77301H25.3804L27.3988 1.97546V7.77301Z" fill="#212121"/>
</svg>
