<svg width="33" height="33" viewBox="0 0 33 33" fill="none" xmlns="http://www.w3.org/2000/svg">
<path d="M0.0799986 0.789486C0.00521215 0.841839 -0.00974513 4.11748 0.00521215 16.9284L0.0276481 33H16.1067H32.1858L32.2082 16.9284C32.2232 4.11748 32.2082 0.841839 32.1335 0.789486C32.0063 0.714703 0.207135 0.714703 0.0799986 0.789486ZM31.4005 1.1335C31.4005 1.14846 30.6826 1.68692 29.8001 2.33009L28.1997 3.49676H16.1666H4.13342L2.64517 2.40487C1.82252 1.80658 1.08214 1.26812 0.999871 1.20829C0.872735 1.11855 3.02658 1.10359 16.1292 1.10359C24.5277 1.10359 31.4005 1.11855 31.4005 1.1335ZM2.15906 2.47218L3.87915 3.73607L3.86419 16.906L3.84176 30.0759L2.12167 31.2949C1.17936 31.9605 0.379144 32.5064 0.34923 32.5139C0.311836 32.5139 0.289401 25.4615 0.289401 16.8387C0.289401 6.73501 0.311836 1.17838 0.364187 1.19333C0.40158 1.20081 1.20927 1.78415 2.15906 2.47218ZM31.9241 16.891C31.9241 31.265 31.9166 32.5288 31.8044 32.484C31.6399 32.4241 28.4614 30.188 28.3941 30.0833C28.3642 30.0459 28.3343 24.1154 28.3343 16.9134V3.82582L30.0768 2.53949C31.0266 1.8365 31.8343 1.26064 31.8717 1.26064C31.9016 1.25316 31.9241 8.29057 31.9241 16.891ZM27.1302 3.82582C27.1153 3.84077 24.6249 4.58116 21.5961 5.46364L16.0992 7.07155L10.7894 5.48607C7.87274 4.61107 5.43471 3.87817 5.37488 3.85573C5.31505 3.82582 10.1911 3.80338 16.2114 3.80338C22.2317 3.7959 27.1452 3.81086 27.1302 3.82582ZM10.1762 5.63565C12.9208 6.4583 15.1719 7.13885 15.1719 7.16129C15.1719 7.18373 14.1174 7.34826 12.8386 7.52774C11.5522 7.69975 10.4304 7.86428 10.3482 7.87924C10.2435 7.90168 9.45074 7.37069 7.61847 6.03202C6.19753 4.99996 5.02338 4.13992 5.00094 4.11748C4.97851 4.09505 5.0159 4.09505 5.07573 4.11C5.13556 4.13244 7.4315 4.82048 10.1762 5.63565ZM7.19967 6.15167C9.27125 7.65488 9.91441 8.16343 9.89198 8.26065C9.87702 8.33544 9.55544 10.063 9.18898 12.0972C8.81505 14.1314 8.48599 15.8814 8.45608 15.9786C8.4112 16.1207 7.95501 14.8344 6.42189 10.2574C5.33748 7.01172 4.44005 4.31193 4.41761 4.25958C4.40265 4.21471 4.41013 4.16983 4.43257 4.16983C4.455 4.16983 5.70394 5.05979 7.19967 6.15167ZM27.1377 4.27453C27.0779 4.32689 25.9262 5.16449 24.5875 6.13672L22.1495 7.90168L19.5619 7.55766C18.1409 7.36321 16.9967 7.17625 17.0116 7.14633C17.0341 7.11642 17.0939 7.0865 17.1388 7.0865C17.1911 7.0865 19.4497 6.43586 22.1644 5.63565C24.8792 4.83543 27.1302 4.17731 27.1751 4.17731C27.2125 4.16983 27.1976 4.21471 27.1377 4.27453ZM25.8813 10.1453C24.782 13.4359 23.8621 16.0983 23.8396 16.0758C23.8097 16.0384 22.501 8.89634 22.4037 8.23074C22.3888 8.16343 27.7659 4.16983 27.8632 4.16983C27.8706 4.16983 26.9807 6.86214 25.8813 10.1453ZM6.30223 10.923L8.3065 16.8985L6.30223 22.8515C5.20287 26.1346 4.27552 28.8643 4.2456 28.9241C4.20821 28.984 4.17829 23.5844 4.17829 16.9209C4.17829 10.2649 4.20821 4.84291 4.23812 4.8803C4.27552 4.92518 5.20287 7.63992 6.30223 10.923ZM28.0352 16.9359C28.0352 23.5844 28.0052 28.9092 27.9679 28.8494C27.9305 28.7895 27.0106 26.0748 25.9262 22.829L23.9443 16.9209L25.9636 10.9156C27.0704 7.61749 27.9903 4.9177 28.0052 4.9177C28.0202 4.9177 28.0352 10.3248 28.0352 16.9359ZM19.2104 7.84185C20.751 8.05125 22.0223 8.23074 22.0373 8.23821C22.0448 8.25317 22.4037 10.2126 22.8375 12.5908L23.6153 16.9209L23.002 21.2585L22.3888 25.5961L19.2852 25.985L16.1815 26.3739L13.1153 25.9252C11.4326 25.6709 10.0266 25.4466 9.99668 25.4241C9.97424 25.3942 9.66014 23.4647 9.30116 21.1314L8.64304 16.891L9.44326 12.5683C9.8845 10.1976 10.251 8.24569 10.2584 8.23821C10.3033 8.19334 16.1292 7.41557 16.2563 7.438C16.3386 7.45296 17.6698 7.63245 19.2104 7.84185ZM9.03941 21.6325C9.51804 24.7436 9.62274 25.5288 9.54796 25.6036C9.28621 25.8504 4.455 29.5972 4.42509 29.5748C4.41013 29.5598 5.29261 26.8899 6.38449 23.6517C7.47638 20.406 8.36633 17.7436 8.36633 17.7211C8.36633 17.6987 8.38129 17.6987 8.40373 17.7137C8.41868 17.7361 8.71035 19.5011 9.03941 21.6325ZM27.8482 29.657C27.8258 29.6795 23.0469 25.9626 22.8076 25.7457C22.7253 25.6635 22.7926 25.0577 23.2414 21.8793C23.533 19.8152 23.7948 18.0352 23.8172 17.9305C23.8471 17.7959 24.423 19.4188 25.8664 23.6891C26.9657 26.9573 27.8557 29.6421 27.8482 29.657ZM12.7264 26.2094C14.1099 26.4038 15.2467 26.5833 15.2467 26.6058C15.2467 26.6506 5.14304 29.6122 5.10565 29.5748C5.09069 29.5598 6.16013 28.6998 7.48385 27.6602C9.27125 26.2617 9.92937 25.7831 10.049 25.8055C10.1313 25.828 11.3354 26.0075 12.7264 26.2094ZM24.8493 27.7799C26.1431 28.797 27.1976 29.6346 27.1901 29.6496C27.1751 29.657 24.9091 28.9914 22.142 28.1613C19.3824 27.3312 17.1388 26.6357 17.1537 26.6132C17.1911 26.5833 21.9401 25.9551 22.2916 25.9402C22.4411 25.9327 23.0319 26.359 24.8493 27.7799ZM21.6185 28.3408L26.9208 29.9338L21.4988 29.9562C18.5223 29.9637 13.6313 29.9637 10.6324 29.9562L5.18043 29.9338L10.5651 28.3483C13.5341 27.4808 16.0394 26.7628 16.1366 26.7628C16.2339 26.7553 18.7018 27.4733 21.6185 28.3408ZM29.7403 31.4818L31.3557 32.6261L23.7125 32.6485C19.5095 32.656 12.6366 32.656 8.44112 32.6485L0.805427 32.6261L2.43577 31.4818L4.05864 30.3451H16.0843H28.1174L29.7403 31.4818Z" fill="black"/>
</svg>
