<svg width="29" height="29" viewBox="0 0 29 29" fill="none" xmlns="http://www.w3.org/2000/svg">
<path d="M26.314 2.68595C24.581 0.952857 22.2851 0 19.8512 0H9.14881C6.71488 0 4.41905 0.952857 2.68595 2.68595C0.952857 4.41905 0 6.71488 0 9.14881V19.8512C0 22.2851 0.952857 24.581 2.68595 26.314C4.41905 28.0471 6.71488 29 9.14881 29H19.8512C22.2851 29 24.581 28.0471 26.314 26.314C28.0471 24.581 29 22.2851 29 19.8512V9.14881C29 6.71488 28.0471 4.41905 26.314 2.68595ZM0.345238 9.14881V9.14536L2.6894 14.4931L0.345238 19.827V9.14881ZM26.0551 14.2307L23.5763 12.2145L22.9273 6.55607L28.4787 8.72417L26.0551 14.2307ZM22.5579 22.544L17.7452 22.3956L19.8546 19.8029L23.1758 17.1135L22.5579 22.544ZM19.6268 19.5474C19.6164 19.5543 19.6095 19.5646 19.6026 19.5715L17.3171 22.3818L14.9764 22.3093H14.9695H14.9661L11.7001 22.3956L9.45607 19.6233C9.44917 19.613 9.43881 19.6061 9.43191 19.5992L6.525 17.2308L6.55607 14.5725V14.569L6.525 11.7623L9.38012 9.44917C9.39048 9.44226 9.39738 9.4319 9.40429 9.425L11.7726 6.51464L14.5 6.54571H14.5035L17.2343 6.5181L19.5474 9.37321C19.5543 9.38357 19.5646 9.39048 19.5715 9.39738L23.2483 12.3906L23.4831 14.4275L23.2345 16.6267L19.6268 19.5474ZM14.4931 25.848L11.9694 22.7374L14.9661 22.658L17.0375 22.7201L14.4931 25.848ZM6.51464 17.6727L9.19714 19.8546L11.2651 22.406L6.45595 22.5337L6.51464 17.6727ZM6.20738 14.5725L6.17631 16.9546L3.15202 14.4931L6.17631 12.0419L6.20738 14.5725ZM6.46286 6.4525L11.3307 6.51119L9.14536 9.19714L6.51464 11.3238L6.46286 6.4525ZM14.5069 3.15202L16.9581 6.17631L14.5035 6.20393L12.0523 6.17631L14.5069 3.15202ZM22.5682 6.46286L23.1931 11.9004L19.8063 9.1419L17.6762 6.51119L22.5682 6.46286ZM23.8283 14.4068L23.6315 12.7048L25.8445 14.5069L23.6143 16.316L23.8283 14.4482V14.4068ZM22.7857 5.97952L20.6073 0.379762C22.6096 0.552381 24.4808 1.40167 25.9481 2.81714L22.7857 5.97952ZM22.4715 6.11762L17.3965 6.17286L14.7831 2.94833L20.2965 0.531667L22.4715 6.11762ZM11.6069 6.16941L6.53881 6.11071L8.72071 0.524762L14.2307 2.94833L11.6069 6.16941ZM6.22119 5.96917L3.05881 2.80679C4.52952 1.39131 6.40071 0.545476 8.40655 0.37631L6.22119 5.96917ZM6.17286 11.6035L2.94488 14.2204L0.528214 8.70691L6.11762 6.53191L6.17286 11.6035ZM2.94488 14.7693L6.16941 17.3931L6.11071 22.4612L0.524762 20.2793L2.94488 14.7693ZM6.21429 23.0205L8.39274 28.6202C6.39036 28.4476 4.51917 27.5983 3.0519 26.1829L6.21429 23.0205ZM6.52845 22.8789L11.5379 22.7477L14.2169 26.0551L8.70345 28.4718L6.52845 22.8789ZM17.4725 22.7339L22.4612 22.8858L20.2793 28.4752L14.7693 26.0517L17.4725 22.7339ZM22.7788 23.0308L25.9412 26.1932C24.4705 27.6087 22.5993 28.4545 20.5935 28.6237L22.7788 23.0308ZM23.559 16.8027L26.0517 14.7831L28.4683 20.2965L22.9135 22.4577L23.559 16.8027ZM26.3106 14.5069L28.6548 9.17298V19.8546L26.3106 14.5069ZM28.6237 8.40655L23.0308 6.22464L26.1932 3.06226C27.6087 4.52952 28.4545 6.40071 28.6237 8.40655ZM19.8546 0.345238L14.5069 2.6894L9.17298 0.345238H19.8546ZM2.81369 3.0519L5.97607 6.21429L0.379762 8.39274C0.548929 6.39036 1.39821 4.51917 2.81369 3.0519ZM0.37631 20.5935L5.96917 22.7754L2.80679 25.9377C1.39131 24.4705 0.545476 22.5993 0.37631 20.5935ZM9.14536 28.6548L14.4931 26.3106L19.827 28.6548H9.14881H9.14536ZM26.1863 25.9481L23.0205 22.7857L28.6202 20.6073C28.4511 22.6096 27.6018 24.4808 26.1863 25.9481Z" fill="black"/>
</svg>
