<svg width="33" height="33" viewBox="0 0 33 33" fill="none" xmlns="http://www.w3.org/2000/svg">
<path d="M16.7725 31.3617C19.5989 31.3617 22.2534 29.8148 24.2433 27.0037C26.2256 24.2079 27.318 20.4954 27.318 16.5461C27.318 12.5968 26.2256 8.88429 24.2433 6.08845C22.2534 3.27734 19.5989 1.73047 16.7725 1.73047C13.9461 1.73047 11.2916 3.27734 9.30164 6.08845C7.31935 8.88429 6.22699 12.5968 6.22699 16.5461C6.22699 20.4954 7.31935 24.2079 9.30164 27.0037C11.2954 29.8148 13.9461 31.3617 16.7725 31.3617ZM8.65234 25.4339L13.2891 27.1603L11.7919 29.2572C10.5697 28.2947 9.50407 26.9885 8.65234 25.4339ZM6.50581 16.8669L9.69886 19.8805L6.97942 20.9155C6.68914 19.636 6.52873 18.2763 6.50581 16.8669ZM6.9756 12.1728L9.69504 13.2079L6.50199 16.2214C6.52873 14.8159 6.68914 13.4562 6.9756 12.1728ZM27.043 16.2253L23.8499 13.2117L26.5693 12.1766C26.8558 13.4562 27.02 14.8159 27.043 16.2253ZM26.5693 20.9194L23.8499 19.8843L27.043 16.8707C27.02 18.2763 26.8558 19.636 26.5693 20.9194ZM12.2884 11.3478L16.7725 7.0013L21.2565 11.3478L22.3489 16.5461L21.2565 21.7444L16.7725 26.0909L12.2884 21.7444L11.1961 16.5461L12.2884 11.3478ZM11.9447 21.4503L10.1114 19.8881L11.028 17.077L11.9447 21.4503ZM16.5013 26.2093L13.6023 26.9273L12.4145 22.2485L16.5013 26.2093ZM16.635 26.4576V30.827L13.7437 27.1756L16.635 26.4576ZM16.91 26.4576L19.8013 27.1756L16.91 30.827V26.4576ZM17.0475 26.2093L21.1305 22.2485L19.9426 26.9273L17.0475 26.2093ZM22.5169 17.077L23.4336 19.8881L21.6003 21.4503L22.5169 17.077ZM22.6353 16.5461L23.6589 13.4065L26.9818 16.5461L23.6589 19.6857L22.6353 16.5461ZM22.5169 16.0152L21.6003 11.6419L23.4336 13.2041L22.5169 16.0152ZM17.0475 6.8829L19.9464 6.16484L21.1343 10.8437L17.0475 6.8829ZM16.91 6.63082V2.26137L19.8013 5.91276L16.91 6.63082ZM16.635 6.63082L13.7437 5.91276L16.635 2.26137V6.63082ZM16.5013 6.8829L12.4145 10.8398L13.6023 6.16102L16.5013 6.8829ZM11.028 16.0152L10.1114 13.2041L11.9447 11.6419L11.028 16.0152ZM10.9134 16.5461L9.88984 19.6857L6.56692 16.5461L9.88984 13.4065L10.9134 16.5461ZM12.0402 21.8895L13.3044 26.8739L8.52248 25.094L10.0235 20.1746L12.0402 21.8895ZM16.486 31.0791C14.8742 31.0142 13.3579 30.426 12.0134 29.4253L13.5107 27.3246L16.486 31.0791ZM20.0381 27.3246L21.5353 29.4253C20.1909 30.426 18.6746 31.0142 17.0628 31.0791L20.0381 27.3246ZM21.5048 21.8895L23.5214 20.1707L25.0225 25.094L20.2405 26.8739L21.5048 21.8895ZM25.2211 24.8037L23.8079 20.1631L26.5082 21.1905C26.1989 22.4853 25.7634 23.6999 25.2211 24.8037ZM23.8079 12.9291L25.2211 8.28845C25.7596 9.39227 26.195 10.6069 26.5044 11.9016L23.8079 12.9291ZM23.5253 12.9176L21.5086 11.1989L20.2405 6.21832L25.0225 7.99818L23.5253 12.9176ZM17.0628 2.01311C18.6746 2.07804 20.1909 2.66623 21.5353 3.66693L20.0381 5.76762L17.0628 2.01311ZM13.5069 5.76762L12.0096 3.66693C13.3541 2.66623 14.8704 2.07804 16.4822 2.01311L13.5069 5.76762ZM12.0402 11.1989L10.0235 12.9176L8.52248 7.99818L13.3044 6.21832L12.0402 11.1989ZM8.32386 8.28845L9.73706 12.9291L7.03671 11.9016C7.34991 10.6069 7.78532 9.39227 8.32386 8.28845ZM9.73706 20.1593L8.32386 24.7999C7.78532 23.6961 7.34991 22.4815 7.04053 21.1867L9.73706 20.1593ZM21.753 29.2572L20.2596 27.1603L24.8964 25.4339C24.0447 26.9885 22.9753 28.2947 21.753 29.2572ZM24.8964 7.65825L20.2596 5.93186L21.753 3.83498C22.9753 4.79748 24.0447 6.09991 24.8964 7.65825ZM11.7919 3.83116L13.2853 5.92804L8.64852 7.65443C9.50407 6.09991 10.5697 4.79748 11.7919 3.83116Z" fill="black" stroke="black" stroke-width="0.170984"/>
</svg>
