<svg width="33" height="33" viewBox="0 0 33 33" fill="none" xmlns="http://www.w3.org/2000/svg">
<path d="M8.11631 0.0390663C5.96035 0.26499 4.10778 1.07186 2.85552 2.33703C0.493 4.71246 -0.507519 8.77909 0.247711 12.9684C0.757654 15.815 2.11965 19.3717 3.60429 21.76C5.37295 24.6067 8.14213 27.3242 11.6343 29.648C13.1125 30.6291 16.0559 32.3655 16.0559 32.2493C16.0559 32.2171 16.1011 32.2041 16.1527 32.2235C16.3916 32.3203 20.6196 29.7061 22.3043 28.428C26.2999 25.3942 28.7528 22.2764 30.4376 18.1065C32.5742 12.8199 32.7678 8.41115 31.025 4.75764C30.1794 2.97608 28.869 1.62053 27.3069 0.897577C25.7836 0.193985 23.8729 -0.115852 22.0138 0.0390663C20.4517 0.161713 19.2963 0.574829 18.2054 1.3817C17.6826 1.77545 16.5981 2.86634 16.3141 3.28591C16.2237 3.41501 16.1334 3.52475 16.114 3.52475C16.0882 3.52475 15.9462 3.35692 15.7913 3.15036C15.3975 2.62751 14.4228 1.66572 13.9193 1.31069C13.0673 0.710382 12.1248 0.316629 11.0856 0.142345C10.3756 0.0197029 8.8199 -0.0319366 8.11631 0.0390663ZM11.1372 0.426365C11.3825 0.478004 11.5633 0.542553 11.5826 0.600649C11.6407 0.742659 11.1114 2.9438 11.0275 2.9438C10.9371 2.9438 5.76025 0.994402 5.70216 0.942762C5.59888 0.839481 7.0577 0.452185 7.98721 0.335995C8.41324 0.284355 10.7306 0.348906 11.1372 0.426365ZM25.0929 0.484459C25.4285 0.555464 25.9126 0.684563 26.1579 0.774933L26.6098 0.929852L26.4161 1.00731C25.4866 1.37524 21.3877 2.88571 21.278 2.89216C21.1424 2.91153 21.1166 2.84698 20.852 1.78191C20.697 1.16223 20.5873 0.620014 20.6002 0.581284C20.6196 0.536098 20.8842 0.47155 21.2005 0.426365C21.5104 0.387634 21.8137 0.342449 21.8654 0.32954C21.917 0.316629 22.5302 0.316629 23.2209 0.32954C24.1698 0.348906 24.6281 0.387634 25.0929 0.484459ZM12.8349 1.00731C13.0608 1.1235 13.4546 1.36234 13.7063 1.53662C14.2098 1.87873 15.3911 3.05354 15.7203 3.53766C15.9075 3.81522 15.9268 3.87977 15.9268 4.35744C15.9268 4.64791 15.9204 4.88029 15.9139 4.88029C15.901 4.88029 14.8811 4.47363 13.6353 3.97659C11.7569 3.22782 11.3761 3.05999 11.3954 2.96317C11.4083 2.89861 11.531 2.34994 11.673 1.73672L11.9377 0.632923L12.1765 0.716839C12.3056 0.762022 12.6025 0.891123 12.8349 1.00731ZM20.5679 1.85291C20.7164 2.49841 20.8132 3.04708 20.7874 3.07936C20.7422 3.11808 16.3399 4.88029 16.2754 4.88029C16.2625 4.88029 16.2496 4.64791 16.2496 4.37035C16.2496 3.8604 16.2496 3.8604 16.5529 3.44729C16.9854 2.8728 17.9408 1.92392 18.4765 1.54953C18.9929 1.18805 19.9612 0.684563 20.1613 0.684563C20.2775 0.684563 20.3226 0.800753 20.5679 1.85291ZM7.89039 2.10465C9.2072 2.59523 10.4336 3.04708 10.6208 3.11163C10.8016 3.17618 10.9565 3.24718 10.95 3.26655C10.95 3.28591 10.524 4.15733 10.0012 5.20304L9.05228 7.10725L6.76723 7.48164C5.50851 7.68174 4.46926 7.84312 4.4628 7.83021C4.44989 7.8173 4.63063 6.33266 4.85656 4.51881C5.08893 2.71142 5.27613 1.20741 5.27613 1.17514C5.27613 1.14932 5.32777 1.14287 5.39232 1.16869C5.45041 1.18805 6.58003 1.61408 7.89039 2.10465ZM27.3586 4.5059C27.5845 6.30684 27.7523 7.79148 27.733 7.81084C27.7136 7.83021 26.6743 7.67529 25.4156 7.47518L23.1306 7.10725L22.2075 5.21595C21.6976 4.1767 21.2844 3.30528 21.2844 3.27946C21.2844 3.21491 26.8615 1.14287 26.9067 1.19451C26.9325 1.21387 27.1326 2.70497 27.3586 4.5059ZM4.56608 4.44135C4.35307 6.1261 4.17878 7.55264 4.17878 7.61074C4.17878 7.66883 4.14651 7.72047 4.10778 7.72047C4.0626 7.72047 1.53225 6.21001 1.03522 5.88081C1.02231 5.87435 1.09331 5.68716 1.18368 5.45478C1.93246 3.61512 3.12017 2.19502 4.57899 1.38815C4.82428 1.25905 4.92756 1.22678 4.94047 1.29133C4.95338 1.33651 4.78555 2.75015 4.56608 4.44135ZM27.875 1.53662C29.0949 2.27248 30.0051 3.32464 30.741 4.84156C31.2832 5.95827 31.4058 5.73234 29.6307 6.82323C28.7851 7.34608 28.088 7.76566 28.0815 7.7592C28.0622 7.74629 27.9331 6.71995 27.5135 3.39565C27.3908 2.42095 27.2746 1.54307 27.2553 1.43979C27.2166 1.19451 27.3263 1.21387 27.875 1.53662ZM13.4417 4.20897C14.5777 4.66082 15.5331 5.04812 15.5653 5.08039C15.5912 5.10621 15.5202 5.15785 15.404 5.19013C15.2813 5.2224 13.9258 5.63552 12.3895 6.10673C10.8532 6.57149 9.56868 6.94588 9.54286 6.93297C9.47186 6.90715 11.2212 3.39565 11.3051 3.39565C11.3438 3.39565 12.3056 3.76358 13.4417 4.20897ZM21.8525 5.16431C22.3237 6.11964 22.6916 6.9136 22.6787 6.93297C22.6593 6.94588 21.5297 6.62313 20.1742 6.21001C16.6498 5.14494 16.6175 5.13203 16.6691 5.08685C16.7531 5.00293 20.8003 3.4021 20.8971 3.41501C20.9552 3.42147 21.349 4.15088 21.8525 5.16431ZM19.3157 6.2552C21.0198 6.77159 22.5302 7.22989 22.6723 7.26863L22.9305 7.34608L24.3247 9.99262L25.7255 12.6327L25.1251 14.1948C24.8024 15.0533 24.1763 16.6929 23.7373 17.8354L22.9434 19.9204L21.8718 20.5723C19.8708 21.7987 19.3802 22.0957 17.8633 23.0187C17.0306 23.5222 16.2883 23.9676 16.2108 23.9999C16.0882 24.058 15.8881 23.9547 14.823 23.3028C10.2077 20.5013 9.42667 20.0236 9.32985 19.9268C9.23302 19.8364 8.86509 18.8876 7.07061 14.1625L6.48966 12.6327L7.21907 11.2578C7.61928 10.5026 8.24541 9.31485 8.60689 8.62417C8.96837 7.93349 9.31048 7.35254 9.35567 7.33963C9.90434 7.14598 16.1076 5.2805 16.1527 5.29341C16.1915 5.30632 17.6116 5.7388 19.3157 6.2552ZM2.4424 7.08143C3.25572 7.57846 3.92059 8.01094 3.92059 8.04322C3.92059 8.06904 3.82376 8.15295 3.71403 8.22396C3.59784 8.28851 2.78451 8.79845 1.90664 9.35358C1.02231 9.9087 0.305806 10.3412 0.299351 10.3154C0.299351 10.2895 0.299351 9.99262 0.305806 9.65696C0.312261 8.87591 0.45427 7.88185 0.660829 7.08143C0.873843 6.24228 0.899663 6.17128 0.931938 6.17128C0.951303 6.17128 1.62907 6.57794 2.4424 7.08143ZM31.5026 6.88133C31.7415 7.80439 31.8706 8.63062 31.9158 9.56014L31.9545 10.3928L31.7996 10.296C31.7157 10.2379 31.0056 9.79251 30.2246 9.30194C29.4435 8.81136 28.6754 8.32724 28.5205 8.2175L28.2429 8.02386L28.5527 7.83021C30.0503 6.89424 31.2638 6.18419 31.3025 6.22292C31.3284 6.24874 31.4187 6.54567 31.5026 6.88133ZM8.52943 8.15295C8.32933 8.54025 7.92266 9.30194 7.63219 9.85061C7.34172 10.3993 6.93505 11.1674 6.7285 11.5547C6.42511 12.1228 6.34765 12.2389 6.29601 12.1486C6.14755 11.8839 4.55317 8.32724 4.54672 8.23687C4.53381 8.16586 4.94693 8.07549 6.53485 7.81084C7.63865 7.62365 8.6198 7.47518 8.71662 7.46873L8.89736 7.46227L8.52943 8.15295ZM25.5641 7.79793C26.8163 7.99804 27.6749 8.16586 27.6749 8.20459C27.6749 8.24332 27.3005 9.10829 26.8422 10.1217C26.3839 11.1416 25.9901 12.0324 25.9643 12.1034C25.9449 12.1809 25.9062 12.2389 25.8804 12.2389C25.8416 12.2389 23.4339 7.72047 23.3629 7.52037C23.35 7.48809 23.3629 7.46227 23.3952 7.46227C23.421 7.45582 24.3957 7.61074 25.5641 7.79793ZM5.19867 10.4574L6.17982 12.6198L5.26967 14.2206C4.76619 15.0985 4.32725 15.8602 4.29497 15.9054C4.24333 15.9635 4.18524 15.9247 4.04969 15.744C3.79794 15.389 0.744744 11.0835 0.576915 10.8382L0.42845 10.6317L0.899663 10.3347C1.15786 10.1734 1.97764 9.65051 2.72642 9.17284C3.47519 8.70163 4.11423 8.30787 4.15297 8.30787C4.19169 8.30142 4.66291 9.26966 5.19867 10.4574ZM29.9535 9.47622C30.9346 10.0894 31.7415 10.6188 31.7415 10.651C31.7415 10.6768 31.2444 11.4063 30.6312 12.2648C30.0245 13.1168 29.2047 14.2723 28.8174 14.8209C28.4301 15.3696 28.0815 15.8602 28.0363 15.9054C27.9653 15.9764 27.7846 15.6924 27.0423 14.3884C26.5452 13.5041 26.1128 12.736 26.0934 12.6843C26.074 12.6262 26.442 11.729 26.9713 10.5542C28.0428 8.17232 27.9847 8.28205 28.088 8.32078C28.1332 8.34015 28.9723 8.85655 29.9535 9.47622ZM2.14547 13.5558C3.12663 14.9371 3.94641 16.1055 3.95932 16.1442C3.97868 16.1894 3.56556 16.3314 2.87488 16.5315C2.26166 16.6993 1.7259 16.8542 1.68071 16.8672C1.55807 16.9123 0.925483 14.8338 0.635009 13.4331C0.44136 12.4907 0.247711 10.9286 0.331626 11.019C0.344536 11.0319 1.16432 12.1744 2.14547 13.5558ZM31.8577 11.5935C31.7867 12.3745 31.6317 13.2717 31.4187 14.1367C31.2315 14.9242 30.67 16.751 30.5925 16.8349C30.5344 16.893 28.2558 16.241 28.2558 16.1636C28.2558 16.0861 31.8189 11.0771 31.8706 11.0771C31.8899 11.0771 31.8899 11.3094 31.8577 11.5935ZM7.01251 14.8209C7.36754 15.7634 7.91621 17.2093 8.2325 18.029C8.5488 18.8553 8.79408 19.5331 8.78117 19.5331C8.71017 19.5331 4.50153 16.2733 4.50153 16.2217C4.50153 16.1829 4.83719 15.5568 5.25676 14.8274C5.66988 14.098 6.07009 13.3879 6.14109 13.2588C6.21855 13.1297 6.29601 13.0394 6.32183 13.0652C6.3412 13.091 6.65749 13.8785 7.01251 14.8209ZM26.797 14.5563C27.2811 15.4019 27.6878 16.1377 27.7071 16.1894C27.7265 16.241 27.6426 16.3508 27.4683 16.4734C27.3134 16.5831 26.3516 17.319 25.3252 18.1065C24.2989 18.894 23.4533 19.5266 23.4404 19.5137C23.4275 19.5008 23.789 18.5196 24.2473 17.3319C24.6991 16.1442 25.2542 14.6918 25.4802 14.0915C25.6996 13.4977 25.8933 13.0135 25.9062 13.0135C25.9126 13.0135 26.3193 13.7042 26.797 14.5563ZM4.1336 17.1576C4.15942 17.5256 4.2046 18.6939 4.24333 19.759C4.28206 20.824 4.32079 21.8181 4.3337 21.9666C4.34661 22.1215 4.3337 22.2441 4.30788 22.2441C4.2046 22.2441 3.44937 20.9661 2.89425 19.8558C2.3843 18.8295 1.69362 17.2157 1.74526 17.1705C1.77108 17.1447 3.9335 16.5121 4.02387 16.5057C4.06905 16.4992 4.10778 16.7381 4.1336 17.1576ZM29.2047 16.7962C29.7663 16.9575 30.2762 17.0995 30.3408 17.1189C30.4957 17.1705 30.4699 17.2867 30.0503 18.2743C29.4758 19.6557 28.4172 21.6567 27.9911 22.1796L27.862 22.341L27.8943 21.5664C27.9137 21.1403 27.9653 19.8623 28.0041 18.7262C28.0686 16.751 28.088 16.4992 28.1525 16.4992C28.1654 16.4992 28.6366 16.6283 29.2047 16.7962ZM6.55421 18.2227C7.62574 19.0425 8.6198 19.8042 8.76181 19.901C8.97482 20.0495 9.03937 20.1527 9.14911 20.5013C9.22011 20.7337 9.62032 21.9924 10.0399 23.3092C10.4595 24.6196 10.7822 25.704 10.7628 25.7169C10.7241 25.7298 4.82428 22.8638 4.69518 22.7734C4.66291 22.7541 4.44989 17.887 4.44344 17.0608C4.43698 16.7316 4.45635 16.6348 4.51444 16.6671C4.55963 16.6993 5.47623 17.3965 6.55421 18.2227ZM27.7717 17.2867C27.7523 17.6547 27.6942 19.0231 27.6361 20.3399C27.5845 21.6503 27.5199 22.7476 27.4941 22.7734C27.4102 22.8574 21.4716 25.7427 21.4394 25.7169C21.4264 25.6975 21.8137 24.4324 22.2979 22.8961L23.1887 20.114L25.4479 18.3712C26.6937 17.4158 27.733 16.6348 27.7588 16.6348C27.791 16.6283 27.7975 16.9253 27.7717 17.2867ZM11.4858 21.6116C12.609 22.2958 14.0032 23.1478 14.5971 23.5029C15.1845 23.8579 15.6557 24.1742 15.6428 24.2129C15.6363 24.2452 15.3652 24.3743 15.0489 24.484C12.8091 25.2973 11.2018 25.8654 11.1824 25.846C11.1566 25.8202 10.4917 23.774 9.9237 21.9859C9.67196 21.1855 9.45249 20.4948 9.43958 20.4497C9.42022 20.4109 9.42022 20.3722 9.43313 20.3722C9.44604 20.3722 10.3691 20.9338 11.4858 21.6116ZM21.988 22.9219C21.5555 24.271 21.1682 25.4845 21.1295 25.6201C21.0779 25.8202 21.0392 25.8589 20.9294 25.8331C20.5292 25.7298 16.5788 24.2645 16.5723 24.2194C16.5659 24.1806 17.0177 23.8772 17.5793 23.5287C21.3619 21.2178 22.7368 20.3916 22.7562 20.4303C22.7626 20.4561 22.4205 21.5793 21.988 22.9219ZM7.9743 24.7099C9.50413 25.4652 10.7628 26.0978 10.7628 26.1171C10.7628 26.1688 9.35567 27.4081 9.25239 27.4468C9.1362 27.492 8.00012 26.5173 7.04479 25.5684C6.05072 24.5744 4.98566 23.3415 5.12766 23.3415C5.15348 23.3415 6.43802 23.9547 7.9743 24.7099ZM26.7583 23.8385C25.8997 24.9036 23.1499 27.5308 22.9692 27.4598C22.9369 27.4533 22.569 27.137 22.1559 26.7691L21.4006 26.0978L22.8724 25.3813C23.6857 24.9875 24.9444 24.3743 25.6738 24.0063C26.4032 23.6449 27.0358 23.3479 27.081 23.3479C27.1262 23.3415 26.9842 23.5674 26.7583 23.8385ZM18.4443 25.2522C19.703 25.704 20.7616 26.0913 20.7939 26.1236C20.8455 26.1688 20.342 26.7949 17.263 30.5259L16.1076 31.9201L15.036 30.6227C11.8666 26.8013 11.3503 26.1494 11.4277 26.1107C11.4729 26.0848 12.3766 25.7556 13.4417 25.3748C14.5003 24.994 15.5008 24.6325 15.6622 24.5679C15.83 24.4969 16.0043 24.4453 16.0559 24.4388C16.1076 24.4388 17.1855 24.8068 18.4443 25.2522ZM13.2674 28.9315C14.4551 30.3709 15.4104 31.5587 15.3975 31.5716C15.3717 31.5974 13.8935 30.7324 12.7058 29.9901C11.744 29.3898 10.1044 28.2473 9.67841 27.8793L9.45895 27.6986L10.2271 27.0079C10.6467 26.6271 11.021 26.3172 11.0533 26.3172C11.0921 26.3172 12.0861 27.4985 13.2674 28.9315ZM21.9622 26.9885C22.3624 27.3436 22.6981 27.6663 22.6981 27.6986C22.711 27.8406 20.6583 29.2865 19.0252 30.2935C17.9795 30.939 16.8176 31.6103 16.7918 31.5909C16.7853 31.578 17.1855 31.0745 17.6826 30.4742C18.1796 29.8675 19.1543 28.6862 19.8514 27.8406C20.5486 26.995 21.136 26.3172 21.1682 26.3237C21.2005 26.3366 21.5555 26.6335 21.9622 26.9885Z" fill="black"/>
</svg>
