<svg width="34" height="36" viewBox="0 0 34 36" fill="none" xmlns="http://www.w3.org/2000/svg">
<path d="M20.3148 18L19.7708 24.1795" stroke="black" stroke-width="0.5" stroke-miterlimit="10"/>
<path d="M20.3148 18.102L19.7708 11.71" stroke="black" stroke-width="0.5" stroke-miterlimit="10"/>
<path d="M24.9643 13.257L23.3493 18L21.2583 15.0675L22.1423 11.625L24.9643 13.257Z" stroke="black" stroke-width="0.5" stroke-miterlimit="10"/>
<path d="M22.457 6.87402L22.1425 11.6255L19.8305 11.736L18.5555 7.23952L22.457 6.87402Z" stroke="black" stroke-width="0.5" stroke-miterlimit="10"/>
<path d="M17.1108 1.4248L18.5558 7.2388L17.1278 10.0608L15.6403 7.2388L17.1108 1.4248Z" stroke="black" stroke-width="0.5" stroke-miterlimit="10"/>
<path d="M9.06946 13.3165L10.846 17.983L12.954 15.0675L12.0785 11.625L9.06946 13.3165Z" stroke="black" stroke-width="0.5" stroke-miterlimit="10"/>
<path d="M11.7207 6.83105L12.0777 11.6251L14.3897 11.7356L15.6647 7.23905L11.7207 6.83105Z" stroke="black" stroke-width="0.5" stroke-miterlimit="10"/>
<path d="M18.5306 7.31555L20.6471 3.87305" stroke="black" stroke-width="0.5" stroke-miterlimit="10"/>
<path d="M15.6831 7.23938L13.5751 3.79688" stroke="black" stroke-width="0.5" stroke-miterlimit="10"/>
<path d="M21.3173 15.1271L19.8298 11.7356L17.1693 10.0781" stroke="black" stroke-width="0.5" stroke-miterlimit="10"/>
<path d="M12.8944 15.1271L14.3904 11.7356L17.1104 10.0781" stroke="black" stroke-width="0.5" stroke-miterlimit="10"/>
<path d="M20.3153 18.0003L21.2588 15.0508" stroke="black" stroke-width="0.5" stroke-miterlimit="10"/>
<path d="M13.872 18.0003L12.9625 15.0508" stroke="black" stroke-width="0.5" stroke-miterlimit="10"/>
<path d="M22.1598 11.5735L24.2508 10.375" stroke="black" stroke-width="0.5" stroke-miterlimit="10"/>
<path d="M12.0536 11.5744L9.75012 10.3164" stroke="black" stroke-width="0.5" stroke-miterlimit="10"/>
<path d="M25.5 18C25.5 30.75 17.0935 35 17.0935 35C17.0935 35 8.5 30.7925 8.5 18C8.5 5.4115 17.0935 1 17.0935 1C17.0935 1 25.5 5.4115 25.5 18Z" stroke="black" stroke-width="0.5" stroke-miterlimit="10"/>
<path d="M24.9651 22.5305L23.3501 18L21.2251 20.8645L22.1006 24.307L24.9651 22.5305Z" stroke="black" stroke-width="0.5" stroke-miterlimit="10"/>
<path d="M22.4649 29.1008L22.0994 24.3068L19.7959 24.1963L18.5124 28.6928L22.4649 29.1008Z" stroke="black" stroke-width="0.5" stroke-miterlimit="10"/>
<path d="M17.0675 34.5751L18.5125 28.6931L17.093 25.8711L15.6055 28.6931L17.0675 34.5751Z" stroke="black" stroke-width="0.5" stroke-miterlimit="10"/>
<path d="M9.03625 22.6155L10.8043 18L12.9208 20.8645L12.0368 24.307L9.03625 22.6155Z" stroke="black" stroke-width="0.5" stroke-miterlimit="10"/>
<path d="M11.6792 29.1008L12.0362 24.3068L14.3482 24.1963L15.6232 28.6928L11.6792 29.1008Z" stroke="black" stroke-width="0.5" stroke-miterlimit="10"/>
<path d="M18.4958 28.6172L20.6038 32.0597" stroke="black" stroke-width="0.5" stroke-miterlimit="10"/>
<path d="M15.6484 28.6934L13.5319 32.1359" stroke="black" stroke-width="0.5" stroke-miterlimit="10"/>
<path d="M21.2841 20.8047L19.7966 24.1962L17.1361 25.8537" stroke="black" stroke-width="0.5" stroke-miterlimit="10"/>
<path d="M12.8612 20.8047L14.3487 24.1962L17.0687 25.8537" stroke="black" stroke-width="0.5" stroke-miterlimit="10"/>
<path d="M23.3501 18H25.5006" stroke="black" stroke-width="0.5" stroke-miterlimit="10"/>
<path d="M20.3153 18L21.2163 20.8815" stroke="black" stroke-width="0.5" stroke-miterlimit="10"/>
<path d="M10.829 18H8.5" stroke="black" stroke-width="0.5" stroke-miterlimit="10"/>
<path d="M13.8713 18L12.9193 20.8815" stroke="black" stroke-width="0.5" stroke-miterlimit="10"/>
<path d="M22.1249 24.3496L24.2499 25.6246" stroke="black" stroke-width="0.5" stroke-miterlimit="10"/>
<path d="M12.0187 24.3496L9.71521 25.6161" stroke="black" stroke-width="0.5" stroke-miterlimit="10"/>
<path d="M13.8723 18L14.4078 24.1795" stroke="black" stroke-width="0.5" stroke-miterlimit="10"/>
<path d="M13.8723 18.102L14.4078 11.71" stroke="black" stroke-width="0.5" stroke-miterlimit="10"/>
</svg>
