<svg width="25" height="19" viewBox="0 0 25 19" fill="none" xmlns="http://www.w3.org/2000/svg">
<path d="M7.89743 2.59053L23.2307 2.59138M7.89743 9.66748L23.2307 9.66843M7.89743 16.7444L23.2307 16.7453M2.58974 2.58974H2.60154M2.58974 9.66666H2.60154M2.58974 16.7436H2.60154M3.17949 2.58974C3.17949 2.91545 2.91545 3.17949 2.58974 3.17949C2.26404 3.17949 2 2.91545 2 2.58974C2 2.26404 2.26404 2 2.58974 2C2.91545 2 3.17949 2.26404 3.17949 2.58974ZM3.17949 9.66666C3.17949 9.99231 2.91545 10.2564 2.58974 10.2564C2.26404 10.2564 2 9.99231 2 9.66666C2 9.341 2.26404 9.07691 2.58974 9.07691C2.91545 9.07691 3.17949 9.341 3.17949 9.66666ZM3.17949 16.7436C3.17949 17.0692 2.91545 17.3333 2.58974 17.3333C2.26404 17.3333 2 17.0692 2 16.7436C2 16.4179 2.26404 16.1538 2.58974 16.1538C2.91545 16.1538 3.17949 16.4179 3.17949 16.7436Z" stroke="#024093" stroke-width="2.35897" stroke-linecap="round" stroke-linejoin="round"/>
</svg>
