<svg width="20" height="20" viewBox="0 0 20 20" fill="none" xmlns="http://www.w3.org/2000/svg">
<path fill-rule="evenodd" clip-rule="evenodd" d="M3.32448 14.7952C2.21089 13.6581 1.45558 12.2192 1.15225 10.6568C0.846415 9.09003 1.00347 7.46813 1.60421 5.98915C2.19983 4.51848 3.21669 3.25658 4.52712 2.36191C7.18589 0.546031 10.6861 0.546031 13.3447 2.36191C14.6553 3.25658 15.6721 4.51848 16.2677 5.98915C16.8685 7.46813 17.0256 9.09003 16.7196 10.6568C16.4164 12.2192 15.6611 13.6581 14.5474 14.7952C13.0727 16.3086 11.0492 17.1622 8.93591 17.1622C6.82278 17.1622 4.79926 16.3086 3.32448 14.7952Z" stroke="black" stroke-width="1.93144" stroke-linecap="round" stroke-linejoin="round"/>
<path d="M8.94509 3.83619C8.41472 3.89238 8.03036 4.3679 8.0865 4.89829C8.14277 5.42868 8.61829 5.81307 9.14866 5.75688L8.94509 3.83619ZM11.329 7.04137C11.537 7.53256 12.1036 7.76214 12.5949 7.55419C13.086 7.34626 13.3156 6.77955 13.1076 6.2884L11.329 7.04137ZM15.347 13.9878C14.9696 13.6111 14.3581 13.6116 13.9814 13.9891C13.6045 14.3665 13.6051 14.978 13.9825 15.3548L15.347 13.9878ZM18.345 19.7095C18.7226 20.0864 19.3339 20.0859 19.7108 19.7084C20.0876 19.3308 20.0871 18.7195 19.7095 18.3426L18.345 19.7095ZM9.14866 5.75688C10.079 5.6583 10.9643 6.17985 11.329 7.04137L13.1076 6.2884C12.4114 4.6437 10.7212 3.64799 8.94509 3.83619L9.14866 5.75688ZM13.9825 15.3548L18.345 19.7095L19.7095 18.3426L15.347 13.9878L13.9825 15.3548Z" fill="black"/>
</svg>
